<?xml version="1.0" encoding="UTF-8" standalone="no"?>
<svg
   xmlns:dc="http://purl.org/dc/elements/1.1/"
   xmlns:cc="http://creativecommons.org/ns#"
   xmlns:rdf="http://www.w3.org/1999/02/22-rdf-syntax-ns#"
   xmlns:svg="http://www.w3.org/2000/svg"
   xmlns="http://www.w3.org/2000/svg"
   xmlns:sodipodi="http://sodipodi.sourceforge.net/DTD/sodipodi-0.dtd"
   xmlns:inkscape="http://www.inkscape.org/namespaces/inkscape"
   width="83.295013mm"
   height="11.114364mm"
   viewBox="0 0 83.295014 11.114364"
   version="1.1"
   id="svg8"
   inkscape:version="1.0.1 (3bc2e813f5, 2020-09-07)"
   sodipodi:docname="bounds.svg">
  <defs
     id="defs2">
    <marker
       style="overflow:visible"
       id="marker1394"
       refX="0"
       refY="0"
       orient="auto"
       inkscape:stockid="Arrow1Mend"
       inkscape:isstock="true">
      <path
         transform="matrix(-0.4,0,0,-0.4,-4,0)"
         style="fill:#666666;fill-opacity:1;fill-rule:evenodd;stroke:#666666;stroke-width:1pt;stroke-opacity:1"
         d="M 0,0 5,-5 -12.5,0 5,5 Z"
         id="path1392" />
    </marker>
    <marker
       style="overflow:visible"
       id="marker1340"
       refX="0"
       refY="0"
       orient="auto"
       inkscape:stockid="Arrow1Mend"
       inkscape:isstock="true"
       inkscape:collect="always">
      <path
         transform="matrix(-0.4,0,0,-0.4,-4,0)"
         style="fill:#666666;fill-opacity:1;fill-rule:evenodd;stroke:#666666;stroke-width:1pt;stroke-opacity:1"
         d="M 0,0 5,-5 -12.5,0 5,5 Z"
         id="path1338" />
    </marker>
    <marker
       style="overflow:visible"
       id="marker1274"
       refX="0"
       refY="0"
       orient="auto"
       inkscape:stockid="Arrow1Mend"
       inkscape:isstock="true"
       inkscape:collect="always">
      <path
         transform="matrix(-0.4,0,0,-0.4,-4,0)"
         style="fill:#666666;fill-opacity:1;fill-rule:evenodd;stroke:#666666;stroke-width:1pt;stroke-opacity:1"
         d="M 0,0 5,-5 -12.5,0 5,5 Z"
         id="path1272" />
    </marker>
    <marker
       style="overflow:visible"
       id="marker1228"
       refX="0"
       refY="0"
       orient="auto"
       inkscape:stockid="Arrow1Mstart"
       inkscape:isstock="true">
      <path
         transform="matrix(0.4,0,0,0.4,4,0)"
         style="fill:#666666;fill-opacity:1;fill-rule:evenodd;stroke:#666666;stroke-width:1pt;stroke-opacity:1"
         d="M 0,0 5,-5 -12.5,0 5,5 Z"
         id="path1226" />
    </marker>
    <marker
       style="overflow:visible"
       id="Arrow1Mstart"
       refX="0"
       refY="0"
       orient="auto"
       inkscape:stockid="Arrow1Mstart"
       inkscape:isstock="true"
       inkscape:collect="always">
      <path
         transform="matrix(0.4,0,0,0.4,4,0)"
         style="fill:#000000;fill-opacity:1;fill-rule:evenodd;stroke:#000000;stroke-width:1pt;stroke-opacity:1"
         d="M 0,0 5,-5 -12.5,0 5,5 Z"
         id="path843" />
    </marker>
    <marker
       style="overflow:visible"
       id="Arrow2Mend"
       refX="0"
       refY="0"
       orient="auto"
       inkscape:stockid="Arrow2Mend"
       inkscape:isstock="true">
      <path
         transform="scale(-0.6)"
         d="M 8.7185878,4.0337352 -2.2072895,0.01601326 8.7185884,-4.0017078 c -1.7454984,2.3720609 -1.7354408,5.6174519 -6e-7,8.035443 z"
         style="fill:#000000;fill-opacity:1;fill-rule:evenodd;stroke:#000000;stroke-width:0.625;stroke-linejoin:round;stroke-opacity:1"
         id="path864" />
    </marker>
    <marker
       style="overflow:visible"
       id="Arrow1Mend"
       refX="0"
       refY="0"
       orient="auto"
       inkscape:stockid="Arrow1Mend"
       inkscape:isstock="true"
       inkscape:collect="always">
      <path
         transform="matrix(-0.4,0,0,-0.4,-4,0)"
         style="fill:#000000;fill-opacity:1;fill-rule:evenodd;stroke:#000000;stroke-width:1pt;stroke-opacity:1"
         d="M 0,0 5,-5 -12.5,0 5,5 Z"
         id="path846" />
    </marker>
  </defs>
  <sodipodi:namedview
     id="base"
     pagecolor="#ffffff"
     bordercolor="#666666"
     borderopacity="1.0"
     inkscape:pageopacity="0.0"
     inkscape:pageshadow="2"
     inkscape:zoom="2.8"
     inkscape:cx="176.92369"
     inkscape:cy="82.425812"
     inkscape:document-units="mm"
     inkscape:current-layer="layer1"
     inkscape:document-rotation="0"
     showgrid="false"
     inkscape:snap-intersection-paths="false"
     inkscape:snap-midpoints="true"
     fit-margin-top="0"
     fit-margin-left="0"
     fit-margin-right="0"
     fit-margin-bottom="0"
     inkscape:window-width="1920"
     inkscape:window-height="1137"
     inkscape:window-x="-8"
     inkscape:window-y="-8"
     inkscape:window-maximized="1" />
  <metadata
     id="metadata5">
    <rdf:RDF>
      <cc:Work
         rdf:about="">
        <dc:format>image/svg+xml</dc:format>
        <dc:type
           rdf:resource="http://purl.org/dc/dcmitype/StillImage" />
        <dc:title></dc:title>
      </cc:Work>
    </rdf:RDF>
  </metadata>
  <g
     inkscape:label="Layer 1"
     inkscape:groupmode="layer"
     id="layer1"
     transform="translate(-14.245232,-8.8050593)">
    <path
       style="fill:none;stroke:#000000;stroke-width:0.265;stroke-linecap:butt;stroke-linejoin:miter;stroke-miterlimit:4;stroke-dasharray:none;stroke-opacity:1;marker-start:url(#Arrow1Mstart);marker-end:url(#Arrow1Mend)"
       d="M 14.848997,14.763999 H 96.964323"
       id="path833" />
    <path
       style="fill:none;stroke:#000000;stroke-width:0.264583px;stroke-linecap:butt;stroke-linejoin:miter;stroke-opacity:1"
       d="m 43.679079,13.360834 v 2.80633"
       id="path1195" />
    <path
       style="fill:none;stroke:#000000;stroke-width:0.264583px;stroke-linecap:butt;stroke-linejoin:miter;stroke-opacity:1"
       d="m 74.080988,13.360834 v 2.80633"
       id="path1195-7" />
    <path
       style="fill:none;stroke:#666666;stroke-width:0.264583px;stroke-linecap:butt;stroke-linejoin:miter;stroke-opacity:1;marker-start:url(#marker1228);marker-end:url(#marker1274)"
       d="m 43.679078,11.957669 h 30.40191"
       id="path1224" />
    <g
       aria-label="S"
       id="text1326"
       style="font-size:3.52777px;line-height:1.25;font-family:'Latin Modern Roman';-inkscape-font-specification:'Latin Modern Roman, ';text-align:center;text-anchor:middle;stroke-width:0.264583">
      <path
         d="m 59.438668,10.452528 c 0,-0.102305 -0.02469,-0.246944 -0.116416,-0.359833 -0.08819,-0.1093605 -0.130528,-0.1199438 -0.465666,-0.2187214 -0.06703,-0.017639 -0.176389,-0.049389 -0.194027,-0.056444 -0.119945,-0.052917 -0.179917,-0.1658052 -0.179917,-0.3104438 0,-0.2892771 0.271639,-0.6032487 0.571499,-0.6032487 0.33161,0 0.430388,0.2398884 0.430388,0.5009434 0,0.091722 -0.0035,0.1164164 -0.01764,0.1940273 l -0.0035,0.049389 c 0,0.035278 0.03528,0.035278 0.05292,0.035278 0.03881,0 0.04939,-0.00353 0.0635,-0.0635 l 0.183444,-0.7302484 c 0.0035,-0.014111 0.0071,-0.035278 0.0071,-0.049389 0,0 -0.0035,-0.035278 -0.0388,-0.035278 -0.01764,0 -0.02117,0.00353 -0.05292,0.042333 L 59.519807,9.0449476 C 59.382224,8.808587 59.131752,8.8050593 59.061197,8.8050593 c -0.433916,0 -0.818443,0.4339157 -0.818443,0.8396092 0,0.1834441 0.07761,0.3704155 0.282222,0.4656655 0.02117,0.01058 0.09878,0.03175 0.151694,0.04586 l 0.17286,0.04939 c 0.183444,0.05292 0.211667,0.0635 0.271639,0.127 0.0388,0.04939 0.07761,0.126999 0.07761,0.253999 0,0.321027 -0.275166,0.673804 -0.589138,0.673804 -0.264583,0 -0.529165,-0.127 -0.529165,-0.493888 0,-0.08114 0.01764,-0.176388 0.02822,-0.215194 l 0.0035,-0.02117 c 0,-0.03881 -0.03175,-0.03881 -0.05292,-0.03881 -0.04233,0 -0.04939,0.0071 -0.0635,0.05997 l -0.183444,0.737304 c -0.0071,0.0247 -0.01058,0.03528 -0.01058,0.04586 0,0.02117 0.01764,0.03528 0.0388,0.03528 0.0247,0 0.02822,-0.0071 0.05644,-0.04233 0.03881,-0.04233 0.130528,-0.155222 0.165806,-0.201083 0.130527,0.1905 0.356304,0.243416 0.539748,0.243416 0.4445,0 0.836082,-0.472721 0.836082,-0.91722 z"
         style="font-style:italic;font-variant:normal;font-weight:normal;font-stretch:normal;font-family:'Latin Modern Roman';-inkscape-font-specification:'Latin Modern Roman,  Italic';stroke-width:0.264583"
         id="path1571" />
    </g>
    <g
       aria-label="L"
       id="text1330"
       style="font-size:3.52777px;line-height:1.25;font-family:'Latin Modern Roman';-inkscape-font-specification:'Latin Modern Roman, ';text-align:center;text-anchor:middle;stroke-width:0.264583">
      <path
         d="m 44.393039,18.509209 c 0,-0.04233 -0.04233,-0.04233 -0.05292,-0.04233 -0.04233,0 -0.04586,0.01058 -0.07056,0.07761 -0.112888,0.313972 -0.264583,0.723193 -0.814915,0.723193 h -0.285749 c -0.109361,0 -0.109361,-0.01058 -0.109361,-0.03528 0,-0.02117 0.01058,-0.05644 0.01411,-0.07761 l 0.479777,-1.919107 c 0.03175,-0.123472 0.05292,-0.158749 0.338666,-0.158749 h 0.03528 c 0.05997,0 0.09878,0 0.09878,-0.06703 0,-0.04233 -0.0388,-0.04233 -0.05292,-0.04233 -0.15875,0 -0.324555,0.01058 -0.486833,0.01058 -0.144638,0 -0.292805,-0.01058 -0.433915,-0.01058 -0.02117,0 -0.06703,0 -0.06703,0.06703 0,0.04233 0.02822,0.04233 0.09525,0.04233 0.109361,0 0.20461,0 0.20461,0.05997 0,0.01058 0,0.01764 -0.01411,0.06703 l -0.476249,1.915579 c -0.02822,0.119944 -0.04939,0.148166 -0.289277,0.148166 -0.05644,0 -0.09525,0 -0.09525,0.06703 0,0.04233 0.03175,0.04233 0.08819,0.04233 h 1.509885 c 0.07761,0 0.08114,-0.0035 0.102306,-0.0635 l 0.26811,-0.758471 z"
         style="font-style:italic;font-variant:normal;font-weight:normal;font-stretch:normal;font-family:'Latin Modern Roman';-inkscape-font-specification:'Latin Modern Roman,  Italic';stroke-width:0.264583"
         id="path1563" />
    </g>
    <g
       aria-label="U"
       id="text1334"
       style="font-size:3.52777px;line-height:1.25;font-family:'Latin Modern Roman';-inkscape-font-specification:'Latin Modern Roman, ';text-align:center;text-anchor:middle;stroke-width:0.264583">
      <path
         d="m 75.261038,16.746168 c 0,-0.02822 -0.01411,-0.04586 -0.04586,-0.04586 -0.105833,0 -0.22225,0.01058 -0.331611,0.01058 -0.112888,0 -0.229305,-0.01058 -0.338666,-0.01058 -0.01764,0 -0.0635,0 -0.0635,0.06703 0,0.03881 0.03175,0.04233 0.0635,0.04233 0.183444,0.0071 0.211667,0.07761 0.211667,0.151694 0,0.03175 -0.0071,0.05644 -0.01411,0.08467 l -0.313971,1.255886 c -0.112889,0.455083 -0.486832,0.77611 -0.818443,0.77611 -0.183444,0 -0.377471,-0.119944 -0.377471,-0.440972 0,-0.07761 0.01764,-0.190499 0.03528,-0.26811 l 0.352777,-1.418164 c 0.02822,-0.112888 0.05644,-0.14111 0.278693,-0.14111 0.07408,0 0.105834,0 0.105834,-0.0635 0,-0.03881 -0.02469,-0.04586 -0.04939,-0.04586 -0.134056,0 -0.278694,0.01058 -0.416277,0.01058 -0.141111,0 -0.285749,-0.01058 -0.423333,-0.01058 -0.02117,0 -0.06703,0 -0.06703,0.06703 0,0.04233 0.02822,0.04233 0.09525,0.04233 0.109361,0 0.20461,0 0.20461,0.05997 0,0.01058 0,0.01764 -0.01411,0.06703 l -0.338666,1.36172 c -0.02822,0.112888 -0.02822,0.190499 -0.02822,0.225777 0,0.423332 0.296333,0.663221 0.627943,0.663221 0.448027,0 0.839609,-0.458611 0.934859,-0.846665 l 0.321027,-1.291164 c 0.05644,-0.225777 0.254,-0.236361 0.356305,-0.239888 0.01058,0 0.05292,-0.0035 0.05292,-0.0635 z"
         style="font-style:italic;font-variant:normal;font-weight:normal;font-stretch:normal;font-family:'Latin Modern Roman';-inkscape-font-specification:'Latin Modern Roman,  Italic';stroke-width:0.264583"
         id="path1574" />
    </g>
    <path
       style="fill:none;stroke:#666666;stroke-width:0.264583px;stroke-linecap:butt;stroke-linejoin:miter;stroke-opacity:1;marker-end:url(#marker1340)"
       d="M 76.03818,16.503893 H 97.018838"
       id="path1336"
       sodipodi:nodetypes="cc" />
    <path
       style="fill:none;stroke:#666666;stroke-width:0.264583px;stroke-linecap:butt;stroke-linejoin:miter;stroke-opacity:1;marker-end:url(#marker1394)"
       d="M 42.161766,16.370259 H 14.766641"
       id="path1390"
       sodipodi:nodetypes="cc" />
    <g
       aria-label="us"
       id="text1458"
       style="font-size:3.52777px;line-height:1.25;font-family:'Latin Modern Roman';-inkscape-font-specification:'Latin Modern Roman, ';text-align:center;text-anchor:middle;stroke-width:0.264583">
      <path
         d="m 83.992271,19.073019 c 0,-0.03528 -0.02822,-0.03528 -0.05292,-0.03528 -0.04233,0 -0.04586,0.0035 -0.06703,0.08114 -0.04939,0.197555 -0.116417,0.419804 -0.236361,0.419804 -0.09172,0 -0.09172,-0.09525 -0.09172,-0.144638 0,-0.02469 0,-0.08114 0.02469,-0.179916 l 0.254,-1.015998 c 0.0071,-0.02117 0.01058,-0.03881 0.01058,-0.04939 0,-0.0388 -0.02822,-0.09172 -0.09878,-0.09172 -0.105833,0 -0.130528,0.102305 -0.137583,0.130527 l -0.257528,1.030109 c -0.01764,0.0635 -0.01764,0.07056 -0.04939,0.116417 -0.06703,0.09878 -0.169333,0.20461 -0.324555,0.20461 -0.15875,0 -0.1905,-0.155221 -0.1905,-0.271638 0,-0.215194 0.116417,-0.532693 0.204611,-0.772582 0.02822,-0.07408 0.04586,-0.123472 0.04586,-0.190499 0,-0.176389 -0.116417,-0.28575 -0.268111,-0.28575 -0.328082,0 -0.451554,0.52211 -0.451554,0.543277 0,0.03528 0.03528,0.03528 0.05292,0.03528 0.04586,0 0.04939,-0.0071 0.0635,-0.05645 0.02822,-0.10936 0.123472,-0.444499 0.328083,-0.444499 0.0388,0 0.07761,0.01058 0.07761,0.102306 0,0.08467 -0.03528,0.179916 -0.08467,0.317499 -0.09172,0.246944 -0.183444,0.507999 -0.183444,0.691443 0,0.306916 0.204611,0.409221 0.39511,0.409221 0.186972,0 0.306916,-0.105833 0.391583,-0.211666 0.0635,0.1905 0.215194,0.211666 0.282222,0.211666 0.130527,0 0.20461,-0.08819 0.257527,-0.197555 0.0635,-0.134055 0.105833,-0.345721 0.105833,-0.345721 z"
         style="font-style:italic;font-variant:normal;font-weight:normal;font-stretch:normal;font-family:'Latin Modern Roman';-inkscape-font-specification:'Latin Modern Roman,  Italic'"
         id="path1577" />
      <path
         d="m 85.177597,19.125935 c 0,-0.186972 -0.105833,-0.292805 -0.148166,-0.335138 -0.116417,-0.112889 -0.254,-0.141111 -0.402166,-0.169333 -0.197555,-0.0388 -0.433916,-0.08467 -0.433916,-0.289277 0,-0.123472 0.09172,-0.26811 0.395111,-0.26811 0.388054,0 0.405693,0.317499 0.412749,0.42686 0.0035,0.03175 0.04233,0.03175 0.04233,0.03175 0.04586,0 0.04586,-0.01764 0.04586,-0.08467 v -0.356305 c 0,-0.05997 0,-0.08467 -0.03881,-0.08467 -0.01764,0 -0.02469,0 -0.07055,0.04233 -0.01058,0.01411 -0.04586,0.04586 -0.05997,0.05644 -0.134055,-0.09878 -0.278694,-0.09878 -0.33161,-0.09878 -0.430388,0 -0.564444,0.23636 -0.564444,0.433916 0,0.123472 0.05644,0.222249 0.151694,0.29986 0.112889,0.09172 0.211667,0.112889 0.465666,0.162277 0.07761,0.01411 0.366888,0.07056 0.366888,0.324555 0,0.179917 -0.123472,0.321027 -0.398638,0.321027 -0.296333,0 -0.423332,-0.201083 -0.49036,-0.500943 -0.01058,-0.04586 -0.01411,-0.05997 -0.04939,-0.05997 -0.04586,0 -0.04586,0.02469 -0.04586,0.08819 v 0.465666 c 0,0.05997 0,0.08467 0.03881,0.08467 0.01764,0 0.02117,-0.0035 0.08819,-0.07056 0.0071,-0.0071 0.0071,-0.01411 0.07055,-0.08114 0.155222,0.148167 0.313972,0.151694 0.388055,0.151694 0.405694,0 0.567971,-0.23636 0.567971,-0.49036 z"
         style="stroke-width:0.264583"
         id="path1579" />
    </g>
    <g
       aria-label="ls"
       id="text1458-0"
       style="font-size:3.52777px;line-height:1.25;font-family:'Latin Modern Roman';-inkscape-font-specification:'Latin Modern Roman, ';text-align:center;text-anchor:middle;stroke-width:0.264583">
      <path
         d="m 28.419482,19.376119 c 0,-0.03528 -0.02822,-0.03528 -0.05292,-0.03528 -0.01764,0 -0.03881,0 -0.04939,0.01764 l -0.02469,0.08819 c -0.05997,0.246944 -0.127,0.39511 -0.225778,0.39511 -0.09172,0 -0.09172,-0.09525 -0.09172,-0.144639 0,-0.02469 0,-0.07761 0.02117,-0.162277 l 0.504471,-2.014357 c 0.0035,-0.01058 0.01058,-0.04586 0.01058,-0.04586 0,-0.03175 -0.02117,-0.04233 -0.04939,-0.04233 -0.01058,0 -0.04586,0.0035 -0.05645,0.0071 l -0.349249,0.02822 c -0.04233,0.0035 -0.08114,0.0071 -0.08114,0.07408 0,0.0388 0.03528,0.0388 0.08467,0.0388 0.169333,0 0.176388,0.0247 0.176388,0.05997 0,0.01058 -0.01058,0.05997 -0.01058,0.05997 l -0.440971,1.763885 c -0.0035,0.01411 -0.02117,0.08467 -0.02117,0.137583 0,0.186971 0.127,0.317499 0.296333,0.317499 0.134055,0 0.204611,-0.09525 0.250472,-0.183444 0.05997,-0.123472 0.10936,-0.349249 0.10936,-0.359833 z"
         style="font-style:italic;font-variant:normal;font-weight:normal;font-stretch:normal;font-family:'Latin Modern Roman';-inkscape-font-specification:'Latin Modern Roman,  Italic'"
         id="path1566" />
      <path
         d="m 29.604808,19.429036 c 0,-0.186972 -0.105833,-0.292805 -0.148166,-0.335138 -0.116417,-0.112889 -0.254,-0.141111 -0.402166,-0.169333 -0.197555,-0.03881 -0.433916,-0.08467 -0.433916,-0.289277 0,-0.123472 0.09172,-0.268111 0.395111,-0.268111 0.388054,0 0.405693,0.317499 0.412749,0.42686 0.0035,0.03175 0.04233,0.03175 0.04233,0.03175 0.04586,0 0.04586,-0.01764 0.04586,-0.08467 v -0.356305 c 0,-0.05997 0,-0.08467 -0.0388,-0.08467 -0.01764,0 -0.0247,0 -0.07056,0.04233 -0.01058,0.01411 -0.04586,0.04586 -0.05997,0.05644 -0.134055,-0.09878 -0.278694,-0.09878 -0.33161,-0.09878 -0.430388,0 -0.564444,0.236361 -0.564444,0.433916 0,0.123472 0.05645,0.22225 0.151695,0.299861 0.112888,0.09172 0.211666,0.112888 0.465665,0.162277 0.07761,0.01411 0.366888,0.07055 0.366888,0.324555 0,0.179916 -0.123472,0.321027 -0.398638,0.321027 -0.296332,0 -0.423332,-0.201083 -0.49036,-0.500943 -0.01058,-0.04586 -0.01411,-0.05997 -0.04939,-0.05997 -0.04586,0 -0.04586,0.02469 -0.04586,0.08819 v 0.465665 c 0,0.05997 0,0.08467 0.03881,0.08467 0.01764,0 0.02117,-0.0035 0.08819,-0.07055 0.0071,-0.0071 0.0071,-0.01411 0.07056,-0.08114 0.155221,0.148166 0.313971,0.151694 0.388054,0.151694 0.405694,0 0.567971,-0.236361 0.567971,-0.49036 z"
         style="stroke-width:0.264583"
         id="path1568" />
    </g>
  </g>
</svg>
