<?xml version="1.0" encoding="UTF-8" standalone="no"?>
<svg
   xmlns:dc="http://purl.org/dc/elements/1.1/"
   xmlns:cc="http://creativecommons.org/ns#"
   xmlns:rdf="http://www.w3.org/1999/02/22-rdf-syntax-ns#"
   xmlns:svg="http://www.w3.org/2000/svg"
   xmlns="http://www.w3.org/2000/svg"
   xmlns:sodipodi="http://sodipodi.sourceforge.net/DTD/sodipodi-0.dtd"
   xmlns:inkscape="http://www.inkscape.org/namespaces/inkscape"
   width="161.3344mm"
   height="95.31105mm"
   viewBox="0 0 161.3344 95.31105"
   version="1.1"
   id="svg3079"
   inkscape:version="1.0.1 (3bc2e813f5, 2020-09-07)"
   sodipodi:docname="booleanflow.svg">
  <defs
     id="defs3073">
    <marker
       style="overflow:visible"
       id="marker5764"
       refX="0"
       refY="0"
       orient="auto"
       inkscape:stockid="Arrow1Mend"
       inkscape:isstock="true">
      <path
         transform="matrix(-0.4,0,0,-0.4,-4,0)"
         style="fill:#000000;fill-opacity:1;fill-rule:evenodd;stroke:#000000;stroke-width:1pt;stroke-opacity:1"
         d="M 0,0 5,-5 -12.5,0 5,5 Z"
         id="path5762" />
    </marker>
    <marker
       style="overflow:visible"
       id="marker5668"
       refX="0"
       refY="0"
       orient="auto"
       inkscape:stockid="Arrow1Mend"
       inkscape:isstock="true"
       inkscape:collect="always">
      <path
         transform="matrix(-0.4,0,0,-0.4,-4,0)"
         style="fill:#000000;fill-opacity:1;fill-rule:evenodd;stroke:#000000;stroke-width:1pt;stroke-opacity:1"
         d="M 0,0 5,-5 -12.5,0 5,5 Z"
         id="path5666" />
    </marker>
    <marker
       style="overflow:visible"
       id="marker5584"
       refX="0"
       refY="0"
       orient="auto"
       inkscape:stockid="Arrow1Mend"
       inkscape:isstock="true"
       inkscape:collect="always">
      <path
         transform="matrix(-0.4,0,0,-0.4,-4,0)"
         style="fill:#000000;fill-opacity:1;fill-rule:evenodd;stroke:#000000;stroke-width:1pt;stroke-opacity:1"
         d="M 0,0 5,-5 -12.5,0 5,5 Z"
         id="path5582" />
    </marker>
    <marker
       style="overflow:visible"
       id="marker5506"
       refX="0"
       refY="0"
       orient="auto"
       inkscape:stockid="Arrow1Mend"
       inkscape:isstock="true"
       inkscape:collect="always">
      <path
         transform="matrix(-0.4,0,0,-0.4,-4,0)"
         style="fill:#000000;fill-opacity:1;fill-rule:evenodd;stroke:#000000;stroke-width:1pt;stroke-opacity:1"
         d="M 0,0 5,-5 -12.5,0 5,5 Z"
         id="path5504" />
    </marker>
    <marker
       style="overflow:visible"
       id="marker5428"
       refX="0"
       refY="0"
       orient="auto"
       inkscape:stockid="Arrow1Mend"
       inkscape:isstock="true"
       inkscape:collect="always">
      <path
         transform="matrix(-0.4,0,0,-0.4,-4,0)"
         style="fill:#000000;fill-opacity:1;fill-rule:evenodd;stroke:#000000;stroke-width:1pt;stroke-opacity:1"
         d="M 0,0 5,-5 -12.5,0 5,5 Z"
         id="path5426" />
    </marker>
    <marker
       style="overflow:visible"
       id="marker5362"
       refX="0"
       refY="0"
       orient="auto"
       inkscape:stockid="Arrow1Mend"
       inkscape:isstock="true">
      <path
         transform="matrix(-0.4,0,0,-0.4,-4,0)"
         style="fill:#000000;fill-opacity:1;fill-rule:evenodd;stroke:#000000;stroke-width:1pt;stroke-opacity:1"
         d="M 0,0 5,-5 -12.5,0 5,5 Z"
         id="path5360" />
    </marker>
    <marker
       style="overflow:visible"
       id="marker5302"
       refX="0"
       refY="0"
       orient="auto"
       inkscape:stockid="Arrow1Mend"
       inkscape:isstock="true"
       inkscape:collect="always">
      <path
         transform="matrix(-0.4,0,0,-0.4,-4,0)"
         style="fill:#000000;fill-opacity:1;fill-rule:evenodd;stroke:#000000;stroke-width:1pt;stroke-opacity:1"
         d="M 0,0 5,-5 -12.5,0 5,5 Z"
         id="path5300" />
    </marker>
    <marker
       style="overflow:visible"
       id="marker5248"
       refX="0"
       refY="0"
       orient="auto"
       inkscape:stockid="Arrow1Mend"
       inkscape:isstock="true"
       inkscape:collect="always">
      <path
         transform="matrix(-0.4,0,0,-0.4,-4,0)"
         style="fill:#000000;fill-opacity:1;fill-rule:evenodd;stroke:#000000;stroke-width:1pt;stroke-opacity:1"
         d="M 0,0 5,-5 -12.5,0 5,5 Z"
         id="path5246" />
    </marker>
    <marker
       style="overflow:visible"
       id="marker5200"
       refX="0"
       refY="0"
       orient="auto"
       inkscape:stockid="Arrow1Mend"
       inkscape:isstock="true"
       inkscape:collect="always">
      <path
         transform="matrix(-0.4,0,0,-0.4,-4,0)"
         style="fill:#000000;fill-opacity:1;fill-rule:evenodd;stroke:#000000;stroke-width:1pt;stroke-opacity:1"
         d="M 0,0 5,-5 -12.5,0 5,5 Z"
         id="path5198" />
    </marker>
    <marker
       style="overflow:visible"
       id="marker5158"
       refX="0"
       refY="0"
       orient="auto"
       inkscape:stockid="Arrow1Mend"
       inkscape:isstock="true"
       inkscape:collect="always">
      <path
         transform="matrix(-0.4,0,0,-0.4,-4,0)"
         style="fill:#000000;fill-opacity:1;fill-rule:evenodd;stroke:#000000;stroke-width:1pt;stroke-opacity:1"
         d="M 0,0 5,-5 -12.5,0 5,5 Z"
         id="path5156" />
    </marker>
    <marker
       style="overflow:visible"
       id="marker3983"
       refX="0"
       refY="0"
       orient="auto"
       inkscape:stockid="Arrow1Mend"
       inkscape:isstock="true"
       inkscape:collect="always">
      <path
         transform="matrix(-0.4,0,0,-0.4,-4,0)"
         style="fill:#000000;fill-opacity:1;fill-rule:evenodd;stroke:#000000;stroke-width:1pt;stroke-opacity:1"
         d="M 0,0 5,-5 -12.5,0 5,5 Z"
         id="path3981" />
    </marker>
    <marker
       style="overflow:visible"
       id="marker3905"
       refX="0"
       refY="0"
       orient="auto"
       inkscape:stockid="Arrow1Mend"
       inkscape:isstock="true">
      <path
         transform="matrix(-0.4,0,0,-0.4,-4,0)"
         style="fill:#000000;fill-opacity:1;fill-rule:evenodd;stroke:#000000;stroke-width:1pt;stroke-opacity:1"
         d="M 0,0 5,-5 -12.5,0 5,5 Z"
         id="path3903" />
    </marker>
    <marker
       style="overflow:visible"
       id="Arrow1Lend"
       refX="0"
       refY="0"
       orient="auto"
       inkscape:stockid="Arrow1Lend"
       inkscape:isstock="true">
      <path
         transform="matrix(-0.8,0,0,-0.8,-10,0)"
         style="fill:#000000;fill-opacity:1;fill-rule:evenodd;stroke:#000000;stroke-width:1pt;stroke-opacity:1"
         d="M 0,0 5,-5 -12.5,0 5,5 Z"
         id="path865" />
    </marker>
  </defs>
  <sodipodi:namedview
     id="base"
     pagecolor="#ffffff"
     bordercolor="#666666"
     borderopacity="1.0"
     inkscape:pageopacity="0.0"
     inkscape:pageshadow="2"
     inkscape:zoom="0.98994949"
     inkscape:cx="280.1585"
     inkscape:cy="210.1984"
     inkscape:document-units="mm"
     inkscape:current-layer="layer1"
     inkscape:document-rotation="0"
     showgrid="false"
     units="mm"
     fit-margin-top="15"
     fit-margin-left="15"
     fit-margin-right="15"
     fit-margin-bottom="15"
     inkscape:window-width="1920"
     inkscape:window-height="1137"
     inkscape:window-x="1432"
     inkscape:window-y="-8"
     inkscape:window-maximized="1" />
  <metadata
     id="metadata3076">
    <rdf:RDF>
      <cc:Work
         rdf:about="">
        <dc:format>image/svg+xml</dc:format>
        <dc:type
           rdf:resource="http://purl.org/dc/dcmitype/StillImage" />
        <dc:title></dc:title>
      </cc:Work>
    </rdf:RDF>
  </metadata>
  <g
     inkscape:label="Layer 1"
     inkscape:groupmode="layer"
     id="layer1"
     transform="translate(-69.538742,-31.781999)">
    <path
       id="path5055"
       style="fill:none;stroke:#000000;stroke-width:0.353526;stroke-linecap:square;stroke-miterlimit:4;stroke-dasharray:none;stop-color:#000000"
       d="m 119.91361,51.808533 a 4.8497705,4.8497705 0 0 1 -4.84977,4.84977 4.8497705,4.8497705 0 0 1 -4.84977,-4.84977 4.8497705,4.8497705 0 0 1 4.84977,-4.849771 4.8497705,4.8497705 0 0 1 4.84977,4.849771 z" />
    <g
       aria-label="∧"
       id="text5067"
       style="font-size:7.7611px;line-height:1.25;font-family:'Latin Modern Math';-inkscape-font-specification:'Latin Modern Math';stroke-width:0.264583">
      <path
         d="m 117.09135,54.218684 -1.88594,-4.501438 c -0.0621,-0.139699 -0.25612,-0.139699 -0.31045,0 l -1.88594,4.501438 c -0.0854,0.194028 0.20178,0.310444 0.27939,0.124178 l 1.76177,-4.190994 1.75401,4.190994 c 0.0776,0.186266 0.36477,0.06985 0.28716,-0.124178 z"
         style="stroke-width:0.264583"
         id="path7010" />
    </g>
    <path
       id="path5055-8"
       style="fill:none;stroke:#000000;stroke-width:0.353526;stroke-linecap:square;stroke-miterlimit:4;stroke-dasharray:none;stop-color:#000000"
       d="m 120.51498,78.468666 a 4.8497705,4.8497705 0 0 1 -4.84977,4.849771 4.8497705,4.8497705 0 0 1 -4.84977,-4.849771 4.8497705,4.8497705 0 0 1 4.84977,-4.84977 4.8497705,4.8497705 0 0 1 4.84977,4.84977 z" />
    <g
       aria-label="∧"
       id="text5067-8"
       style="font-size:7.7611px;line-height:1.25;font-family:'Latin Modern Math';-inkscape-font-specification:'Latin Modern Math';stroke-width:0.264583">
      <path
         d="m 117.69272,80.878822 -1.88595,-4.501438 c -0.0621,-0.1397 -0.25612,-0.1397 -0.31044,0 l -1.88595,4.501438 c -0.0854,0.194027 0.20179,0.310444 0.2794,0.124177 l 1.76177,-4.190994 1.75401,4.190994 c 0.0776,0.186267 0.36477,0.06985 0.28716,-0.124177 z"
         style="stroke-width:0.264583"
         id="path6874" />
    </g>
    <path
       id="path5055-6"
       style="fill:none;stroke:#000000;stroke-width:0.353526;stroke-linecap:square;stroke-miterlimit:4;stroke-dasharray:none;stop-color:#000000"
       d="m 120.24772,107.06651 a 4.8497705,4.8497705 0 0 1 -4.84977,4.84977 4.8497705,4.8497705 0 0 1 -4.84977,-4.84977 4.8497705,4.8497705 0 0 1 4.84977,-4.84977 4.8497705,4.8497705 0 0 1 4.84977,4.84977 z" />
    <g
       aria-label="¬"
       id="text5067-6"
       style="font-size:7.7611px;line-height:1.25;font-family:'Latin Modern Math';-inkscape-font-specification:'Latin Modern Math';stroke-width:0.264583">
      <path
         d="m 117.60397,108.3513 v -1.50565 c 0,-0.0854 -0.0699,-0.15522 -0.15523,-0.15522 h -4.13666 c -0.0854,0 -0.15522,0.0698 -0.15522,0.15522 0,0.0854 0.0699,0.15522 0.15522,0.15522 h 3.98144 v 1.35043 c 0,0.0854 0.0699,0.15522 0.15522,0.15522 0.0854,0 0.15523,-0.0698 0.15523,-0.15522 z"
         style="stroke-width:0.264583"
         id="path6738" />
    </g>
    <path
       id="path5055-9"
       style="fill:none;stroke:#000000;stroke-width:0.353526;stroke-linecap:square;stroke-miterlimit:4;stroke-dasharray:none;stop-color:#000000"
       d="m 158.19999,93.034859 a 4.8497705,4.8497705 0 0 1 -4.84977,4.84977 4.8497705,4.8497705 0 0 1 -4.84977,-4.84977 4.8497705,4.8497705 0 0 1 4.84977,-4.849771 4.8497705,4.8497705 0 0 1 4.84977,4.849771 z" />
    <g
       aria-label="∨"
       id="text5067-3"
       style="font-size:7.7611px;line-height:1.25;font-family:'Latin Modern Math';-inkscape-font-specification:'Latin Modern Math';stroke-width:0.264583">
      <path
         d="m 155.37772,91.06 c 0.0776,-0.194027 -0.20955,-0.310444 -0.28717,-0.124177 l -1.754,4.190994 -1.76177,-4.190994 c -0.0776,-0.186267 -0.36478,-0.06985 -0.2794,0.124177 l 1.88594,4.501438 c 0.0543,0.1397 0.24836,0.1397 0.31045,0 z"
         style="stroke-width:0.264583"
         id="path6602" />
    </g>
    <path
       id="path5055-5"
       style="fill:none;stroke:#000000;stroke-width:0.353526;stroke-linecap:square;stroke-miterlimit:4;stroke-dasharray:none;stop-color:#000000"
       d="m 158.73452,63.367943 a 4.8497705,4.8497705 0 0 1 -4.84977,4.84977 4.8497705,4.8497705 0 0 1 -4.84977,-4.84977 4.8497705,4.8497705 0 0 1 4.84977,-4.849771 4.8497705,4.8497705 0 0 1 4.84977,4.849771 z" />
    <g
       aria-label="¬"
       id="text5067-0"
       style="font-size:7.7611px;line-height:1.25;font-family:'Latin Modern Math';-inkscape-font-specification:'Latin Modern Math';stroke-width:0.264583">
      <path
         d="m 156.09077,64.652731 v -1.505653 c 0,-0.08537 -0.0699,-0.155222 -0.15523,-0.155222 h -4.13666 c -0.0854,0 -0.15522,0.06985 -0.15522,0.155222 0,0.08537 0.0699,0.155222 0.15522,0.155222 h 3.98144 v 1.350431 c 0,0.08537 0.0699,0.155222 0.15522,0.155222 0.0854,0 0.15523,-0.06985 0.15523,-0.155222 z"
         style="stroke-width:0.264583"
         id="path6466" />
    </g>
    <path
       id="path5055-59"
       style="fill:none;stroke:#000000;stroke-width:0.353526;stroke-linecap:square;stroke-miterlimit:4;stroke-dasharray:none;stop-color:#000000"
       d="m 190.67323,78.067764 a 4.8497705,4.8497705 0 0 1 -4.84977,4.849771 4.8497705,4.8497705 0 0 1 -4.84977,-4.849771 4.8497705,4.8497705 0 0 1 4.84977,-4.84977 4.8497705,4.8497705 0 0 1 4.84977,4.84977 z" />
    <g
       aria-label="∧"
       id="text5067-34"
       style="font-size:7.7611px;line-height:1.25;font-family:'Latin Modern Math';-inkscape-font-specification:'Latin Modern Math';stroke-width:0.264583">
      <path
         d="m 187.85097,80.477912 -1.88595,-4.501438 c -0.0621,-0.1397 -0.25612,-0.1397 -0.31044,0 l -1.88595,4.501438 c -0.0854,0.194028 0.20179,0.310444 0.2794,0.124178 l 1.76177,-4.190994 1.75401,4.190994 c 0.0776,0.186266 0.36477,0.06985 0.28716,-0.124178 z"
         style="stroke-width:0.264583"
         id="path6330" />
    </g>
    <g
       aria-label="x"
       id="text5132"
       style="font-style:italic;font-size:7.7611px;line-height:1.25;font-family:'Latin Modern Roman';-inkscape-font-specification:'Latin Modern Roman, Italic';stroke-width:0.264583">
      <path
         d="m 87.91482,51.834594 c 0,-0.07761 -0.06209,-0.07761 -0.116417,-0.07761 -0.09313,0 -0.100894,0.0078 -0.139699,0.131939 -0.20955,0.667454 -0.597605,0.970137 -0.923571,0.970137 -0.155222,0 -0.364772,-0.09313 -0.364772,-0.49671 0,-0.186267 0.08537,-0.519994 0.147461,-0.783871 l 0.263877,-1.063271 c 0.108656,-0.403577 0.318205,-0.830438 0.682977,-0.830438 0.02328,0 0.217311,0 0.341489,0.108656 -0.310444,0.07761 -0.310444,0.372533 -0.310444,0.372533 0,0.100894 0.06985,0.248355 0.271638,0.248355 0.1397,0 0.380294,-0.108656 0.380294,-0.411339 0,-0.395816 -0.450144,-0.488949 -0.675216,-0.488949 -0.42686,0 -0.682977,0.380294 -0.760588,0.527755 -0.170744,-0.465666 -0.551038,-0.527755 -0.745065,-0.527755 -0.77611,0 -1.195209,1.016704 -1.195209,1.19521 0,0.07761 0.07761,0.07761 0.116416,0.07761 0.100894,0 0.100894,-0.0078 0.1397,-0.131939 0.20955,-0.667455 0.613127,-0.970138 0.923571,-0.970138 0.225072,0 0.372533,0.178506 0.372533,0.48895 0,0.186266 -0.09313,0.56656 -0.162984,0.853721 l -0.178505,0.70626 c -0.124177,0.504471 -0.287161,1.125359 -0.752827,1.125359 -0.02328,0 -0.209549,0 -0.341488,-0.108655 0.232833,-0.06209 0.302683,-0.256116 0.302683,-0.372533 0,-0.201789 -0.162983,-0.248355 -0.263877,-0.248355 -0.194028,0 -0.388055,0.162983 -0.388055,0.419099 0,0.302683 0.325966,0.481188 0.682976,0.481188 0.372533,0 0.628649,-0.294921 0.760588,-0.527754 0.155222,0.442382 0.535516,0.527754 0.737305,0.527754 0.799393,0 1.195209,-1.039987 1.195209,-1.195209 z"
         style="stroke-width:0.264583"
         id="path6261" />
    </g>
    <g
       aria-label="y"
       id="text5136"
       style="font-style:italic;font-size:7.7611px;line-height:1.25;font-family:'Latin Modern Roman';-inkscape-font-specification:'Latin Modern Roman, Italic';stroke-width:0.264583">
      <path
         d="m 88.550973,80.763747 0.760587,-3.057874 c 0.0078,-0.04657 0.02328,-0.08537 0.02328,-0.108655 0,-0.08537 -0.06209,-0.201789 -0.217311,-0.201789 -0.232833,0 -0.287161,0.225072 -0.302683,0.287161 l -0.56656,2.281763 c -0.05433,0.225072 -0.364772,0.690738 -0.822677,0.690738 -0.349249,0 -0.419099,-0.341488 -0.419099,-0.597605 0,-0.473427 0.256116,-1.171926 0.450144,-1.69968 0.06209,-0.162983 0.100894,-0.271639 0.100894,-0.4191 0,-0.388055 -0.256116,-0.628649 -0.589844,-0.628649 -0.721782,0 -0.99342,1.148643 -0.99342,1.19521 0,0.07761 0.07761,0.07761 0.116416,0.07761 0.100894,0 0.108655,-0.01552 0.1397,-0.124178 0.06209,-0.240594 0.271638,-0.977899 0.721782,-0.977899 0.08537,0 0.170744,0.02328 0.170744,0.225072 0,0.186267 -0.07761,0.395816 -0.186266,0.698499 -0.201789,0.543277 -0.403577,1.117599 -0.403577,1.521176 0,0.675215 0.450144,0.900287 0.869243,0.900287 0.357011,0 0.597605,-0.186266 0.698499,-0.28716 -0.294922,1.280581 -0.869243,1.62207 -1.257298,1.62207 -0.372533,0 -0.481188,-0.294922 -0.481188,-0.333728 0,0 0.0078,-0.01552 0.06209,-0.02328 0.240594,-0.03881 0.333728,-0.248355 0.333728,-0.372533 0,-0.162983 -0.124178,-0.248355 -0.263878,-0.248355 -0.09313,0 -0.395816,0.04657 -0.395816,0.481188 0,0.403577 0.318205,0.667455 0.745066,0.667455 0.807154,0 1.513414,-0.799394 1.707442,-1.567742 z"
         style="stroke-width:0.264583"
         id="path6192" />
    </g>
    <g
       aria-label="z"
       id="text5140"
       style="font-style:italic;font-size:7.7611px;line-height:1.25;font-family:'Latin Modern Roman';-inkscape-font-specification:'Latin Modern Roman, Italic';stroke-width:0.264583">
      <path
         d="m 89.62612,108.89664 c 0,-0.0776 -0.09313,-0.0776 -0.116416,-0.0776 -0.09313,0 -0.100895,0.0233 -0.131939,0.12418 -0.1397,0.38805 -0.512233,0.65193 -0.84596,0.65193 -0.155222,0 -0.279399,-0.0543 -0.434621,-0.12418 -0.232833,-0.10089 -0.325967,-0.13194 -0.481189,-0.13194 -0.0388,0 -0.100894,0 -0.139699,0.008 0.05433,-0.0621 0.21731,-0.25611 0.434621,-0.47342 l 1.12536,-1.10984 c 0.457904,-0.45014 0.830437,-1.03999 0.830437,-1.10984 0,-0.0776 -0.06209,-0.0776 -0.108655,-0.0776 -0.09313,0 -0.100894,0.008 -0.147461,0.1009 -0.256116,0.44238 -0.357011,0.48118 -0.481188,0.48118 -0.1397,0 -0.217311,-0.0776 -0.364772,-0.2794 -0.09313,-0.12417 -0.225072,-0.30268 -0.473427,-0.30268 -0.574321,0 -0.908049,0.72954 -0.908049,0.88477 0,0.0699 0.05433,0.0854 0.116417,0.0854 0.09313,0 0.100894,-0.0155 0.1397,-0.10866 0.06209,-0.17074 0.28716,-0.36477 0.574321,-0.36477 0.155222,0 0.294922,0.0621 0.465666,0.1397 0.256116,0.11642 0.341488,0.11642 0.457905,0.11642 -0.116417,0.13194 -0.186266,0.21731 -0.310444,0.34149 l -1.27282,1.26506 c -0.434622,0.42686 -0.807155,1.00118 -0.807155,1.07879 0,0.0776 0.06985,0.0776 0.116417,0.0776 0.08537,0 0.09313,-0.0155 0.124177,-0.0698 0.108656,-0.16298 0.318205,-0.51223 0.613127,-0.51223 0.170744,0 0.232833,0.0854 0.372533,0.2794 0.124178,0.15522 0.240594,0.30268 0.481188,0.30268 0.752827,0 1.171926,-1.00894 1.171926,-1.19521 z"
         style="stroke-width:0.264583"
         id="path6123" />
    </g>
    <path
       style="fill:none;stroke:#000000;stroke-width:0.565;stroke-linecap:butt;stroke-linejoin:miter;stroke-miterlimit:4;stroke-dasharray:none;stroke-opacity:1;marker-end:url(#marker3983)"
       d="m 90.319587,51.128024 19.465773,0.283483"
       id="path5146" />
    <g
       aria-label="q"
       id="text5144"
       style="font-style:italic;font-size:7.7611px;line-height:1.25;font-family:'Latin Modern Roman';-inkscape-font-specification:'Latin Modern Roman, Italic';stroke-width:0.264583">
      <path
         d="m 215.34538,81.029579 c 0,-0.09313 -0.0776,-0.09313 -0.18627,-0.09313 -0.39581,0 -0.39581,-0.04657 -0.39581,-0.124178 0,-0.05433 0.0155,-0.09313 0.0233,-0.139699 l 1.06327,-4.237561 c 0.008,-0.02328 0.0233,-0.100894 0.0233,-0.100894 0,-0.06985 -0.0621,-0.08537 -0.0854,-0.08537 -0.0854,0 -0.36477,0.271638 -0.48895,0.488949 -0.0931,-0.225072 -0.29492,-0.49671 -0.66745,-0.49671 -0.86148,0 -1.77729,1.179687 -1.77729,2.312807 0,0.659694 0.35701,1.202971 0.93909,1.202971 0.31821,0 0.60537,-0.201789 0.82268,-0.411338 -0.15522,0.605365 -0.14746,0.605365 -0.30269,1.218492 -0.0854,0.333727 -0.0931,0.364772 -0.58984,0.372533 -0.10089,0 -0.18627,0 -0.18627,0.147461 0,0.06985 0.0466,0.09313 0.1009,0.09313 0.24835,0 0.51999,-0.02328 0.77611,-0.02328 0.25612,0 0.53551,0.02328 0.78387,0.02328 0.0466,0 0.14746,0 0.14746,-0.147461 z m -0.57432,-2.305046 c -0.0621,0.240594 -0.53552,0.861482 -0.96238,0.861482 -0.36477,0 -0.42686,-0.457905 -0.42686,-0.690738 0,-0.388055 0.2406,-1.296104 0.3803,-1.62207 0.19402,-0.473427 0.55103,-0.861482 0.86924,-0.861482 0.0621,0 0.24059,0.0078 0.38029,0.225072 0.0776,0.124177 0.15523,0.349249 0.15523,0.49671 0,0.02328 -0.008,0.05433 -0.0233,0.100894 z"
         style="stroke-width:0.264583"
         id="path6054" />
    </g>
    <path
       style="fill:none;stroke:#000000;stroke-width:0.565;stroke-linecap:butt;stroke-linejoin:miter;stroke-miterlimit:4;stroke-dasharray:none;stroke-opacity:1;marker-end:url(#marker5158)"
       d="m 90.60307,78.909274 h 19.93824"
       id="path5154" />
    <path
       style="fill:none;stroke:#000000;stroke-width:0.565;stroke-linecap:butt;stroke-linejoin:miter;stroke-miterlimit:4;stroke-dasharray:none;stroke-opacity:1;marker-end:url(#marker5200)"
       d="M 90.60307,78.909274 109.78536,51.411507"
       id="path5196" />
    <path
       style="fill:none;stroke:#000000;stroke-width:0.565;stroke-linecap:butt;stroke-linejoin:miter;stroke-miterlimit:4;stroke-dasharray:none;stroke-opacity:1;marker-end:url(#marker5248)"
       d="M 91.264528,108.01344 109.97435,107.0685"
       id="path5244" />
    <path
       style="fill:none;stroke:#000000;stroke-width:0.565;stroke-linecap:butt;stroke-linejoin:miter;stroke-miterlimit:4;stroke-dasharray:none;stroke-opacity:1;marker-end:url(#marker5302)"
       d="M 91.264528,108.01344 110.54131,78.909274"
       id="path5298" />
    <path
       style="fill:none;stroke:#000000;stroke-width:0.565;stroke-linecap:butt;stroke-linejoin:miter;stroke-miterlimit:4;stroke-dasharray:none;stroke-opacity:1;marker-end:url(#marker5362)"
       d="M 120.2742,106.59603 148.33893,95.351239"
       id="path5358"
       sodipodi:nodetypes="cc" />
    <path
       style="fill:none;stroke:#000000;stroke-width:0.565;stroke-linecap:butt;stroke-linejoin:miter;stroke-miterlimit:4;stroke-dasharray:none;stroke-opacity:1;marker-end:url(#marker5428)"
       d="m 120.65218,78.531298 27.49776,13.13467"
       id="path5424" />
    <path
       style="fill:none;stroke:#000000;stroke-width:0.565;stroke-linecap:butt;stroke-linejoin:miter;stroke-miterlimit:4;stroke-dasharray:none;stroke-opacity:1;marker-end:url(#marker5506)"
       d="m 119.99072,51.978469 28.44271,10.677829"
       id="path5502" />
    <path
       style="fill:none;stroke:#000000;stroke-width:0.565;stroke-linecap:butt;stroke-linejoin:miter;stroke-miterlimit:4;stroke-dasharray:none;stroke-opacity:1;marker-end:url(#marker5584)"
       d="m 158.54429,64.82966 21.45015,11.244793"
       id="path5580"
       sodipodi:nodetypes="cc" />
    <path
       style="fill:none;stroke:#000000;stroke-width:0.565;stroke-linecap:butt;stroke-linejoin:miter;stroke-miterlimit:4;stroke-dasharray:none;stroke-opacity:1;marker-end:url(#marker5668)"
       d="m 158.26081,93.177874 22.2061,-13.512649"
       id="path5664" />
    <path
       style="fill:none;stroke:#000000;stroke-width:0.565;stroke-linecap:butt;stroke-linejoin:miter;stroke-miterlimit:4;stroke-dasharray:none;stroke-opacity:1;marker-end:url(#marker5764)"
       d="m 190.76676,78.436802 20.88318,0.283482"
       id="path5760" />
  </g>
</svg>
