<?xml version="1.0" encoding="UTF-8" standalone="no"?>
<svg
   xmlns:dc="http://purl.org/dc/elements/1.1/"
   xmlns:cc="http://creativecommons.org/ns#"
   xmlns:rdf="http://www.w3.org/1999/02/22-rdf-syntax-ns#"
   xmlns:svg="http://www.w3.org/2000/svg"
   xmlns="http://www.w3.org/2000/svg"
   xmlns:sodipodi="http://sodipodi.sourceforge.net/DTD/sodipodi-0.dtd"
   xmlns:inkscape="http://www.inkscape.org/namespaces/inkscape"
   width="512.94983"
   height="252.19646"
   viewBox="0 0 135.71796 66.726979"
   version="1.1"
   id="svg8"
   inkscape:version="1.0.1 (3bc2e813f5, 2020-09-07)"
   sodipodi:docname="connectedcomponents.svg">
  <defs
     id="defs2">
    <marker
       style="overflow:visible"
       id="marker1390"
       refX="0"
       refY="0"
       orient="auto"
       inkscape:stockid="Arrow1Mend"
       inkscape:isstock="true">
      <path
         transform="matrix(-0.4,0,0,-0.4,-4,0)"
         style="fill:#000000;fill-opacity:1;fill-rule:evenodd;stroke:#000000;stroke-width:1pt;stroke-opacity:1"
         d="M 0,0 5,-5 -12.5,0 5,5 Z"
         id="path1388" />
    </marker>
  </defs>
  <sodipodi:namedview
     id="base"
     pagecolor="#ffffff"
     bordercolor="#666666"
     borderopacity="1.0"
     inkscape:pageopacity="0.0"
     inkscape:pageshadow="2"
     inkscape:zoom="2"
     inkscape:cx="243.66805"
     inkscape:cy="88.079107"
     inkscape:document-units="mm"
     inkscape:current-layer="layer1"
     inkscape:document-rotation="0"
     showgrid="false"
     units="px"
     width="852px"
     fit-margin-top="15"
     lock-margins="true"
     fit-margin-left="15"
     fit-margin-right="15"
     fit-margin-bottom="15"
     inkscape:window-width="1920"
     inkscape:window-height="1137"
     inkscape:window-x="1432"
     inkscape:window-y="-8"
     inkscape:window-maximized="1" />
  <metadata
     id="metadata5">
    <rdf:RDF>
      <cc:Work
         rdf:about="">
        <dc:format>image/svg+xml</dc:format>
        <dc:type
           rdf:resource="http://purl.org/dc/dcmitype/StillImage" />
        <dc:title></dc:title>
      </cc:Work>
    </rdf:RDF>
  </metadata>
  <g
     inkscape:label="Layer 1"
     inkscape:groupmode="layer"
     id="layer1"
     transform="translate(-48.208882,-31.839764)">
    <text
       xml:space="preserve"
       style="font-size:7.7611px;line-height:1.25;font-family:'Latin Modern Math';-inkscape-font-specification:'Latin Modern Math';stroke-width:0.264583"
       x="43.479115"
       y="73.638969"
       id="text1560"><tspan
         sodipodi:role="line"
         id="tspan1558"
         x="43.479115"
         y="73.638969"
         style="stroke-width:0.264583" /></text>
    <g
       aria-label="K3"
       id="text2160"
       style="font-size:7.7611px;line-height:1.25;font-family:'Latin Modern Roman';-inkscape-font-specification:'Latin Modern Roman, ';stroke-width:0.264583" />
    <circle
       style="fill:#000000;stroke:#000000;stroke-width:0.0751274;stroke-linecap:square;stroke-miterlimit:4;stroke-dasharray:none;stroke-dashoffset:0;stroke-opacity:1;stop-color:#000000"
       id="path833-5-03"
       cx="76.254715"
       cy="41.629349"
       r="1.7412902" />
    <circle
       style="fill:#000000;stroke:#000000;stroke-width:0.0751274;stroke-linecap:square;stroke-miterlimit:4;stroke-dasharray:none;stroke-dashoffset:0;stroke-opacity:1;stop-color:#000000"
       id="path833-5-03-8"
       cx="61.570339"
       cy="63.457474"
       r="1.7412902" />
    <circle
       style="fill:#000000;stroke:#000000;stroke-width:0.0751274;stroke-linecap:square;stroke-miterlimit:4;stroke-dasharray:none;stroke-dashoffset:0;stroke-opacity:1;stop-color:#000000"
       id="path833-5-03-7"
       cx="71.889091"
       cy="80.655388"
       r="1.7412902" />
    <circle
       style="fill:#000000;stroke:#000000;stroke-width:0.0751274;stroke-linecap:square;stroke-miterlimit:4;stroke-dasharray:none;stroke-dashoffset:0;stroke-opacity:1;stop-color:#000000"
       id="path833-5-03-1"
       cx="100.3318"
       cy="57.372055"
       r="1.7412902" />
    <circle
       style="fill:#000000;stroke:#000000;stroke-width:0.0751274;stroke-linecap:square;stroke-miterlimit:4;stroke-dasharray:none;stroke-dashoffset:0;stroke-opacity:1;stop-color:#000000"
       id="path833-5-03-4"
       cx="124.67347"
       cy="72.982475"
       r="1.7412902" />
    <circle
       style="fill:#000000;stroke:#000000;stroke-width:0.0751274;stroke-linecap:square;stroke-miterlimit:4;stroke-dasharray:none;stroke-dashoffset:0;stroke-opacity:1;stop-color:#000000"
       id="path833-5-03-2"
       cx="153.64534"
       cy="63.986641"
       r="1.7412902" />
    <circle
       style="fill:#000000;stroke:#000000;stroke-width:0.0751274;stroke-linecap:square;stroke-miterlimit:4;stroke-dasharray:none;stroke-dashoffset:0;stroke-opacity:1;stop-color:#000000"
       id="path833-5-03-78"
       cx="137.37346"
       cy="42.423096"
       r="1.7412902" />
    <circle
       style="fill:#000000;stroke:#000000;stroke-width:0.0751274;stroke-linecap:square;stroke-miterlimit:4;stroke-dasharray:none;stroke-dashoffset:0;stroke-opacity:1;stop-color:#000000"
       id="path833-5-03-26"
       cx="166.7422"
       cy="47.714767"
       r="1.7412902" />
    <g
       aria-label="Connected Components (blue)"
       id="text2238"
       style="font-size:7.7611px;line-height:1.25;font-family:'Latin Modern Roman';-inkscape-font-specification:'Latin Modern Roman, ';stroke-width:0.264583">
      <path
         d="m 84.061675,91.679342 c 0,-0.07761 0,-0.131938 -0.100895,-0.131938 -0.08537,0 -0.08537,0.04657 -0.09313,0.124177 -0.06209,1.109837 -0.892526,1.746248 -1.738486,1.746248 -0.473427,0 -1.994603,-0.263878 -1.994603,-2.576686 0,-2.320568 1.513415,-2.584446 1.986842,-2.584446 0.84596,0 1.536697,0.70626 1.691919,1.839381 0.01552,0.108655 0.01552,0.131939 0.124178,0.131939 0.124178,0 0.124178,-0.02328 0.124178,-0.186267 v -1.83938 c 0,-0.131939 0,-0.186267 -0.08537,-0.186267 -0.03104,0 -0.06209,0 -0.124177,0.09313 l -0.388055,0.574322 c -0.287161,-0.2794 -0.682977,-0.667455 -1.428042,-0.667455 -1.451326,0 -2.700863,1.234015 -2.700863,2.817279 0,1.606548 1.257298,2.825041 2.700863,2.825041 1.265059,0 2.025647,-1.078793 2.025647,-1.979081 z"
         style="stroke-width:0.264583"
         id="path2256" />
      <path
         d="m 88.159522,91.826803 c 0,-0.993421 -0.77611,-1.816097 -1.715203,-1.816097 -0.970138,0 -1.722965,0.84596 -1.722965,1.816097 0,1.001182 0.807155,1.746248 1.715203,1.746248 0.939094,0 1.722965,-0.760588 1.722965,-1.746248 z m -0.644172,-0.06209 c 0,0.2794 0,0.698499 -0.170744,1.039988 -0.170744,0.349249 -0.512232,0.574321 -0.900287,0.574321 -0.333728,0 -0.675216,-0.162983 -0.884766,-0.519994 -0.194027,-0.341488 -0.194027,-0.814915 -0.194027,-1.094315 0,-0.302683 0,-0.721782 0.186266,-1.06327 0.20955,-0.357011 0.574321,-0.519994 0.884765,-0.519994 0.341489,0 0.675216,0.170744 0.877005,0.504471 0.201788,0.333728 0.201788,0.783872 0.201788,1.078793 z"
         style="stroke-width:0.264583"
         id="path2258" />
      <path
         d="m 92.536767,93.487679 v -0.240595 c -0.403577,0 -0.597605,0 -0.605366,-0.232833 v -1.48237 c 0,-0.667454 0,-0.908048 -0.240594,-1.187448 -0.108655,-0.131939 -0.364771,-0.287161 -0.814915,-0.287161 -0.566561,0 -0.931332,0.333728 -1.148643,0.814916 v -0.814916 l -1.094315,0.08537 v 0.240594 c 0.543277,0 0.605366,0.05433 0.605366,0.434621 v 2.079975 c 0,0.349249 -0.08537,0.349249 -0.605366,0.349249 v 0.240595 l 0.877004,-0.02328 0.869243,0.02328 v -0.240595 c -0.519993,0 -0.605365,0 -0.605365,-0.349249 V 91.46979 c 0,-0.807155 0.551038,-1.241776 1.047748,-1.241776 0.488949,0 0.574321,0.419099 0.574321,0.861482 v 1.808336 c 0,0.349249 -0.08537,0.349249 -0.605365,0.349249 v 0.240595 l 0.877004,-0.02328 z"
         style="stroke-width:0.264583"
         id="path2260" />
      <path
         d="m 96.851937,93.487679 v -0.240595 c -0.403577,0 -0.597604,0 -0.605365,-0.232833 v -1.48237 c 0,-0.667454 0,-0.908048 -0.240594,-1.187448 -0.108656,-0.131939 -0.364772,-0.287161 -0.814916,-0.287161 -0.56656,0 -0.931332,0.333728 -1.148643,0.814916 v -0.814916 l -1.094315,0.08537 v 0.240594 c 0.543277,0 0.605366,0.05433 0.605366,0.434621 v 2.079975 c 0,0.349249 -0.08537,0.349249 -0.605366,0.349249 v 0.240595 l 0.877004,-0.02328 0.869244,0.02328 v -0.240595 c -0.519994,0 -0.605366,0 -0.605366,-0.349249 V 91.46979 c 0,-0.807155 0.551038,-1.241776 1.047748,-1.241776 0.48895,0 0.574322,0.419099 0.574322,0.861482 v 1.808336 c 0,0.349249 -0.08537,0.349249 -0.605366,0.349249 v 0.240595 l 0.877004,-0.02328 z"
         style="stroke-width:0.264583"
         id="path2262" />
      <path
         d="m 100.23578,92.564108 c 0,-0.07761 -0.0621,-0.09313 -0.1009,-0.09313 -0.0699,0 -0.0854,0.04657 -0.10089,0.108656 -0.271641,0.799393 -0.97014,0.799393 -1.047751,0.799393 -0.388055,0 -0.698499,-0.232833 -0.877005,-0.519994 -0.232833,-0.372532 -0.232833,-0.884765 -0.232833,-1.164165 h 2.165349 c 0.17074,0 0.19403,0 0.19403,-0.162983 0,-0.768349 -0.419104,-1.521175 -1.389241,-1.521175 -0.900288,0 -1.614309,0.799393 -1.614309,1.769531 0,1.039987 0.814916,1.792814 1.707442,1.792814 0.946854,0 1.296108,-0.861482 1.296108,-1.008943 z m -0.512237,-1.032227 h -1.839381 c 0.04657,-1.156403 0.698499,-1.350431 0.962377,-1.350431 0.799393,0 0.877004,1.047748 0.877004,1.350431 z"
         style="stroke-width:0.264583"
         id="path2264" />
      <path
         d="m 103.68169,92.564108 c 0,-0.07761 -0.0776,-0.07761 -0.10089,-0.07761 -0.0699,0 -0.0854,0.03104 -0.1009,0.07761 -0.22507,0.721782 -0.72954,0.814915 -1.0167,0.814915 -0.41134,0 -1.09432,-0.333727 -1.09432,-1.583264 0,-1.26506 0.63641,-1.591026 1.04775,-1.591026 0.0699,0 0.5588,0.0078 0.83044,0.287161 -0.31821,0.02328 -0.36477,0.256116 -0.36477,0.357011 0,0.201788 0.1397,0.35701 0.35701,0.35701 0.20179,0 0.35701,-0.131939 0.35701,-0.364772 0,-0.527754 -0.58984,-0.830437 -1.18745,-0.830437 -0.97014,0 -1.68416,0.838199 -1.68416,1.800575 0,0.993421 0.76835,1.76177 1.66864,1.76177 1.03999,0 1.28834,-0.931332 1.28834,-1.008943 z"
         style="stroke-width:0.264583"
         id="path2266" />
      <path
         d="m 106.48343,92.525302 v -0.442383 h -0.19402 v 0.426861 c 0,0.574321 -0.23284,0.869243 -0.52,0.869243 -0.51999,0 -0.51999,-0.70626 -0.51999,-0.838199 v -2.157585 h 1.10984 v -0.240594 h -1.10984 v -1.428043 h -0.19403 c -0.008,0.63641 -0.24059,1.466848 -1.00118,1.497892 v 0.170745 h 0.65969 v 2.142063 c 0,0.954615 0.72179,1.047749 1.00119,1.047749 0.55103,0 0.76834,-0.551038 0.76834,-1.047749 z"
         style="stroke-width:0.264583"
         id="path2268" />
      <path
         d="m 110.14667,92.564108 c 0,-0.07761 -0.0621,-0.09313 -0.10089,-0.09313 -0.0698,0 -0.0854,0.04657 -0.1009,0.108656 -0.27164,0.799393 -0.97013,0.799393 -1.04775,0.799393 -0.38805,0 -0.69849,-0.232833 -0.877,-0.519994 -0.23283,-0.372532 -0.23283,-0.884765 -0.23283,-1.164165 h 2.16534 c 0.17075,0 0.19403,0 0.19403,-0.162983 0,-0.768349 -0.4191,-1.521175 -1.38923,-1.521175 -0.90029,0 -1.61431,0.799393 -1.61431,1.769531 0,1.039987 0.81491,1.792814 1.70744,1.792814 0.94685,0 1.2961,-0.861482 1.2961,-1.008943 z m -0.51223,-1.032227 h -1.83938 c 0.0466,-1.156403 0.6985,-1.350431 0.96238,-1.350431 0.79939,0 0.877,1.047748 0.877,1.350431 z"
         style="stroke-width:0.264583"
         id="path2270" />
      <path
         d="m 114.46183,93.487679 v -0.240595 c -0.54327,0 -0.60536,-0.05433 -0.60536,-0.434621 v -4.710988 l -1.1176,0.08537 v 0.240594 c 0.54328,0 0.60536,0.05433 0.60536,0.434622 v 1.676398 c -0.22507,-0.2794 -0.5588,-0.481189 -0.97789,-0.481189 -0.91581,0 -1.73073,0.760588 -1.73073,1.76177 0,0.98566 0.76059,1.754009 1.64535,1.754009 0.49671,0 0.84596,-0.263878 1.03999,-0.512233 v 0.512233 z m -1.14088,-0.91581 c 0,0.1397 0,0.155222 -0.0854,0.28716 -0.23283,0.372533 -0.58208,0.543277 -0.91581,0.543277 -0.34925,0 -0.62865,-0.201788 -0.81492,-0.49671 -0.20179,-0.318205 -0.22507,-0.760588 -0.22507,-1.078793 0,-0.287161 0.0155,-0.752827 0.2406,-1.102076 0.16298,-0.240594 0.4579,-0.49671 0.877,-0.49671 0.27164,0 0.5976,0.116416 0.8382,0.465666 0.0854,0.131938 0.0854,0.14746 0.0854,0.28716 z"
         style="stroke-width:0.264583"
         id="path2272" />
      <path
         d="m 122.43247,91.679342 c 0,-0.07761 0,-0.131938 -0.1009,-0.131938 -0.0854,0 -0.0854,0.04657 -0.0931,0.124177 -0.0621,1.109837 -0.89253,1.746248 -1.73849,1.746248 -0.47342,0 -1.9946,-0.263878 -1.9946,-2.576686 0,-2.320568 1.51341,-2.584446 1.98684,-2.584446 0.84596,0 1.5367,0.70626 1.69192,1.839381 0.0155,0.108655 0.0155,0.131939 0.12418,0.131939 0.12418,0 0.12418,-0.02328 0.12418,-0.186267 v -1.83938 c 0,-0.131939 0,-0.186267 -0.0854,-0.186267 -0.031,0 -0.0621,0 -0.12417,0.09313 l -0.38806,0.574322 c -0.28716,-0.2794 -0.68297,-0.667455 -1.42804,-0.667455 -1.45133,0 -2.70086,1.234015 -2.70086,2.817279 0,1.606548 1.2573,2.825041 2.70086,2.825041 1.26506,0 2.02565,-1.078793 2.02565,-1.979081 z"
         style="stroke-width:0.264583"
         id="path2274" />
      <path
         d="m 126.53031,91.826803 c 0,-0.993421 -0.77611,-1.816097 -1.7152,-1.816097 -0.97014,0 -1.72296,0.84596 -1.72296,1.816097 0,1.001182 0.80715,1.746248 1.7152,1.746248 0.93909,0 1.72296,-0.760588 1.72296,-1.746248 z m -0.64417,-0.06209 c 0,0.2794 0,0.698499 -0.17074,1.039988 -0.17075,0.349249 -0.51223,0.574321 -0.90029,0.574321 -0.33373,0 -0.67521,-0.162983 -0.88476,-0.519994 -0.19403,-0.341488 -0.19403,-0.814915 -0.19403,-1.094315 0,-0.302683 0,-0.721782 0.18626,-1.06327 0.20955,-0.357011 0.57433,-0.519994 0.88477,-0.519994 0.34149,0 0.67522,0.170744 0.877,0.504471 0.20179,0.333728 0.20179,0.783872 0.20179,1.078793 z"
         style="stroke-width:0.264583"
         id="path2276" />
      <path
         d="m 133.06515,93.487679 v -0.240595 c -0.40358,0 -0.59761,0 -0.60537,-0.232833 v -1.48237 c 0,-0.667454 0,-0.908048 -0.24059,-1.187448 -0.10866,-0.131939 -0.36478,-0.287161 -0.81492,-0.287161 -0.65193,0 -0.99342,0.465666 -1.12536,0.760588 -0.10865,-0.675215 -0.68298,-0.760588 -1.03223,-0.760588 -0.56656,0 -0.93133,0.333728 -1.14864,0.814916 v -0.814916 l -1.09431,0.08537 v 0.240594 c 0.54327,0 0.60536,0.05433 0.60536,0.434621 v 2.079975 c 0,0.349249 -0.0854,0.349249 -0.60536,0.349249 v 0.240595 l 0.877,-0.02328 0.86924,0.02328 v -0.240595 c -0.51999,0 -0.60536,0 -0.60536,-0.349249 V 91.46979 c 0,-0.807155 0.55104,-1.241776 1.04775,-1.241776 0.48895,0 0.57432,0.419099 0.57432,0.861482 v 1.808336 c 0,0.349249 -0.0854,0.349249 -0.60537,0.349249 v 0.240595 l 0.87701,-0.02328 0.86924,0.02328 v -0.240595 c -0.51999,0 -0.60537,0 -0.60537,-0.349249 V 91.46979 c 0,-0.807155 0.55104,-1.241776 1.04775,-1.241776 0.48895,0 0.57432,0.419099 0.57432,0.861482 v 1.808336 c 0,0.349249 -0.0854,0.349249 -0.60536,0.349249 v 0.240595 l 0.877,-0.02328 z"
         style="stroke-width:0.264583"
         id="path2278" />
      <path
         d="m 137.26389,91.811281 c 0,-0.98566 -0.75283,-1.754009 -1.62207,-1.754009 -0.60537,0 -0.93134,0.341489 -1.08656,0.512233 v -0.512233 l -1.1176,0.08537 v 0.240594 c 0.55104,0 0.60537,0.04657 0.60537,0.388055 v 3.632194 c 0,0.34925 -0.0854,0.34925 -0.60537,0.34925 v 0.240594 l 0.86925,-0.02328 0.877,0.02328 v -0.240594 c -0.51999,0 -0.60537,0 -0.60537,-0.34925 v -1.303864 -0.06985 c 0.0388,0.124177 0.36478,0.543277 0.95462,0.543277 0.92357,0 1.73073,-0.760588 1.73073,-1.76177 z m -0.64418,0 c 0,0.939093 -0.54327,1.591025 -1.11759,1.591025 -0.31045,0 -0.60537,-0.155222 -0.81492,-0.473427 -0.10866,-0.162983 -0.10866,-0.170744 -0.10866,-0.325966 v -1.730725 c 0.22508,-0.395816 0.60537,-0.620888 1.00119,-0.620888 0.56656,0 1.03998,0.682977 1.03998,1.559981 z"
         style="stroke-width:0.264583"
         id="path2280" />
      <path
         d="m 141.40831,91.826803 c 0,-0.993421 -0.77611,-1.816097 -1.7152,-1.816097 -0.97014,0 -1.72297,0.84596 -1.72297,1.816097 0,1.001182 0.80716,1.746248 1.7152,1.746248 0.9391,0 1.72297,-0.760588 1.72297,-1.746248 z m -0.64417,-0.06209 c 0,0.2794 0,0.698499 -0.17075,1.039988 -0.17074,0.349249 -0.51223,0.574321 -0.90028,0.574321 -0.33373,0 -0.67522,-0.162983 -0.88477,-0.519994 -0.19403,-0.341488 -0.19403,-0.814915 -0.19403,-1.094315 0,-0.302683 0,-0.721782 0.18627,-1.06327 0.20955,-0.357011 0.57432,-0.519994 0.88476,-0.519994 0.34149,0 0.67522,0.170744 0.87701,0.504471 0.20179,0.333728 0.20179,0.783872 0.20179,1.078793 z"
         style="stroke-width:0.264583"
         id="path2282" />
      <path
         d="m 145.78556,93.487679 v -0.240595 c -0.40358,0 -0.59761,0 -0.60537,-0.232833 v -1.48237 c 0,-0.667454 0,-0.908048 -0.24059,-1.187448 -0.10866,-0.131939 -0.36477,-0.287161 -0.81492,-0.287161 -0.56656,0 -0.93133,0.333728 -1.14864,0.814916 v -0.814916 l -1.09432,0.08537 v 0.240594 c 0.54328,0 0.60537,0.05433 0.60537,0.434621 v 2.079975 c 0,0.349249 -0.0854,0.349249 -0.60537,0.349249 v 0.240595 l 0.87701,-0.02328 0.86924,0.02328 v -0.240595 c -0.51999,0 -0.60536,0 -0.60536,-0.349249 V 91.46979 c 0,-0.807155 0.55103,-1.241776 1.04774,-1.241776 0.48895,0 0.57433,0.419099 0.57433,0.861482 v 1.808336 c 0,0.349249 -0.0854,0.349249 -0.60537,0.349249 v 0.240595 l 0.877,-0.02328 z"
         style="stroke-width:0.264583"
         id="path2284" />
      <path
         d="m 149.1694,92.564108 c 0,-0.07761 -0.0621,-0.09313 -0.1009,-0.09313 -0.0699,0 -0.0854,0.04657 -0.10089,0.108656 -0.27164,0.799393 -0.97014,0.799393 -1.04775,0.799393 -0.38806,0 -0.6985,-0.232833 -0.87701,-0.519994 -0.23283,-0.372532 -0.23283,-0.884765 -0.23283,-1.164165 h 2.16535 c 0.17074,0 0.19403,0 0.19403,-0.162983 0,-0.768349 -0.4191,-1.521175 -1.38924,-1.521175 -0.90029,0 -1.61431,0.799393 -1.61431,1.769531 0,1.039987 0.81492,1.792814 1.70744,1.792814 0.94686,0 1.29611,-0.861482 1.29611,-1.008943 z m -0.51224,-1.032227 h -1.83938 c 0.0466,-1.156403 0.6985,-1.350431 0.96238,-1.350431 0.79939,0 0.877,1.047748 0.877,1.350431 z"
         style="stroke-width:0.264583"
         id="path2286" />
      <path
         d="m 153.54664,93.487679 v -0.240595 c -0.40357,0 -0.5976,0 -0.60536,-0.232833 v -1.48237 c 0,-0.667454 0,-0.908048 -0.2406,-1.187448 -0.10865,-0.131939 -0.36477,-0.287161 -0.81491,-0.287161 -0.56656,0 -0.93133,0.333728 -1.14864,0.814916 v -0.814916 l -1.09432,0.08537 v 0.240594 c 0.54328,0 0.60537,0.05433 0.60537,0.434621 v 2.079975 c 0,0.349249 -0.0854,0.349249 -0.60537,0.349249 v 0.240595 l 0.877,-0.02328 0.86925,0.02328 v -0.240595 c -0.52,0 -0.60537,0 -0.60537,-0.349249 V 91.46979 c 0,-0.807155 0.55104,-1.241776 1.04775,-1.241776 0.48895,0 0.57432,0.419099 0.57432,0.861482 v 1.808336 c 0,0.349249 -0.0854,0.349249 -0.60536,0.349249 v 0.240595 l 0.877,-0.02328 z"
         style="stroke-width:0.264583"
         id="path2288" />
      <path
         d="m 156.06898,92.525302 v -0.442383 h -0.19403 v 0.426861 c 0,0.574321 -0.23283,0.869243 -0.51999,0.869243 -0.52,0 -0.52,-0.70626 -0.52,-0.838199 v -2.157585 h 1.10984 v -0.240594 h -1.10984 v -1.428043 h -0.19402 c -0.008,0.63641 -0.2406,1.466848 -1.00118,1.497892 v 0.170745 h 0.65969 v 2.142063 c 0,0.954615 0.72178,1.047749 1.00118,1.047749 0.55104,0 0.76835,-0.551038 0.76835,-1.047749 z"
         style="stroke-width:0.264583"
         id="path2290" />
      <path
         d="m 159.30536,92.494258 c 0,-0.411339 -0.23283,-0.644172 -0.32596,-0.737305 -0.25612,-0.248355 -0.5588,-0.310444 -0.88477,-0.372533 -0.43462,-0.08537 -0.95461,-0.186266 -0.95461,-0.63641 0,-0.271638 0.20179,-0.589843 0.86924,-0.589843 0.85372,0 0.89253,0.698499 0.90805,0.939093 0.008,0.06985 0.0931,0.06985 0.0931,0.06985 0.1009,0 0.1009,-0.03881 0.1009,-0.186267 v -0.783871 c 0,-0.131938 0,-0.186266 -0.0854,-0.186266 -0.0388,0 -0.0543,0 -0.15522,0.09313 -0.0233,0.03104 -0.10089,0.100894 -0.13194,0.124178 -0.29492,-0.217311 -0.61312,-0.217311 -0.72954,-0.217311 -0.94685,0 -1.24178,0.519993 -1.24178,0.954615 0,0.271639 0.12418,0.488949 0.33373,0.659694 0.24836,0.201788 0.46567,0.248355 1.02447,0.35701 0.17074,0.03105 0.80715,0.155222 0.80715,0.714021 0,0.395816 -0.27164,0.70626 -0.877,0.70626 -0.65194,0 -0.93134,-0.442382 -1.0788,-1.102076 -0.0233,-0.100894 -0.031,-0.131938 -0.10865,-0.131938 -0.1009,0 -0.1009,0.05433 -0.1009,0.194027 v 1.024465 c 0,0.131939 0,0.186267 0.0854,0.186267 0.0388,0 0.0466,-0.0078 0.19402,-0.155222 0.0155,-0.01552 0.0155,-0.03104 0.15523,-0.178506 0.34148,0.325967 0.69073,0.333728 0.85372,0.333728 0.89252,0 1.24953,-0.519994 1.24953,-1.078793 z"
         style="stroke-width:0.264583"
         id="path2292" />
      <path
         d="m 164.72259,95.350342 c 0,-0.02328 0,-0.0388 -0.13194,-0.170744 -0.97014,-0.977898 -1.21849,-2.444746 -1.21849,-3.632194 0,-1.350432 0.29492,-2.700863 1.24953,-3.671001 0.1009,-0.09313 0.1009,-0.108655 0.1009,-0.131938 0,-0.05433 -0.031,-0.07761 -0.0776,-0.07761 -0.0776,0 -0.77611,0.527754 -1.23402,1.513414 -0.39581,0.853721 -0.48895,1.715203 -0.48895,2.367136 0,0.605365 0.0854,1.544458 0.51224,2.421463 0.46566,0.954615 1.13312,1.459086 1.21073,1.459086 0.0466,0 0.0776,-0.02328 0.0776,-0.07761 z"
         style="stroke-width:0.264583"
         id="path2294" />
      <path
         d="m 169.21626,91.811281 c 0,-0.98566 -0.76059,-1.754009 -1.64535,-1.754009 -0.60537,0 -0.93909,0.364772 -1.06327,0.504472 v -2.460269 l -1.1176,0.08537 v 0.240594 c 0.54328,0 0.60537,0.05433 0.60537,0.434622 v 4.625616 h 0.19402 l 0.2794,-0.481189 c 0.11642,0.178506 0.44239,0.566561 1.01671,0.566561 0.92357,0 1.73072,-0.760588 1.73072,-1.76177 z m -0.64417,-0.0078 c 0,0.287161 -0.0155,0.752827 -0.24059,1.102076 -0.16299,0.240594 -0.45791,0.49671 -0.87701,0.49671 -0.34925,0 -0.62865,-0.186266 -0.81491,-0.473427 -0.10866,-0.162983 -0.10866,-0.186266 -0.10866,-0.325966 v -1.598786 c 0,-0.147461 0,-0.155222 0.0854,-0.2794 0.30269,-0.434622 0.72955,-0.49671 0.91581,-0.49671 0.34925,0 0.62865,0.201788 0.81492,0.49671 0.20179,0.318205 0.22507,0.760588 0.22507,1.078793 z"
         style="stroke-width:0.264583"
         id="path2296" />
      <path
         d="m 171.46698,93.487679 v -0.240595 c -0.51999,0 -0.60537,0 -0.60537,-0.349249 v -4.79636 l -1.11759,0.08537 v 0.240594 c 0.54327,0 0.60536,0.05433 0.60536,0.434622 v 4.035772 c 0,0.349249 -0.0854,0.349249 -0.60536,0.349249 v 0.240595 l 0.86148,-0.02328 z"
         style="stroke-width:0.264583"
         id="path2298" />
      <path
         d="m 175.79767,93.487679 v -0.240595 c -0.54327,0 -0.60536,-0.05433 -0.60536,-0.434621 v -2.755191 l -1.14088,0.08537 v 0.240594 c 0.54327,0 0.60536,0.05433 0.60536,0.434621 v 1.381476 c 0,0.675216 -0.37253,1.20297 -0.93909,1.20297 -0.65193,0 -0.68298,-0.364771 -0.68298,-0.768348 v -2.576686 l -1.14088,0.08537 v 0.240594 c 0.60537,0 0.60537,0.02328 0.60537,0.714021 v 1.164165 c 0,0.605366 0,1.311626 1.17968,1.311626 0.43462,0 0.77611,-0.217311 1.00118,-0.698499 v 0.698499 z"
         style="stroke-width:0.264583"
         id="path2300" />
      <path
         d="m 179.18151,92.564108 c 0,-0.07761 -0.0621,-0.09313 -0.10089,-0.09313 -0.0699,0 -0.0854,0.04657 -0.1009,0.108656 -0.27164,0.799393 -0.97013,0.799393 -1.04775,0.799393 -0.38805,0 -0.69849,-0.232833 -0.877,-0.519994 -0.23283,-0.372532 -0.23283,-0.884765 -0.23283,-1.164165 h 2.16534 c 0.17075,0 0.19403,0 0.19403,-0.162983 0,-0.768349 -0.4191,-1.521175 -1.38924,-1.521175 -0.90028,0 -1.6143,0.799393 -1.6143,1.769531 0,1.039987 0.81491,1.792814 1.70744,1.792814 0.94685,0 1.2961,-0.861482 1.2961,-1.008943 z m -0.51223,-1.032227 h -1.83938 c 0.0466,-1.156403 0.6985,-1.350431 0.96237,-1.350431 0.7994,0 0.87701,1.047748 0.87701,1.350431 z"
         style="stroke-width:0.264583"
         id="path2302" />
      <path
         d="m 181.64953,91.547404 c 0,-0.605366 -0.0854,-1.544459 -0.51223,-2.421464 -0.46567,-0.954615 -1.13312,-1.459086 -1.21074,-1.459086 -0.0466,0 -0.0776,0.03104 -0.0776,0.07761 0,0.02328 0,0.0388 0.14746,0.178505 0.76059,0.768349 1.20297,2.002364 1.20297,3.624434 0,1.327148 -0.28716,2.693101 -1.24953,3.671 -0.1009,0.09313 -0.1009,0.108655 -0.1009,0.131938 0,0.04657 0.031,0.07761 0.0776,0.07761 0.0776,0 0.77611,-0.527754 1.23402,-1.513414 0.39582,-0.853721 0.48895,-1.715203 0.48895,-2.367135 z"
         style="stroke-width:0.264583"
         id="path2304" />
    </g>
    <path
       style="fill:none;stroke:#000000;stroke-width:0.565;stroke-linecap:butt;stroke-linejoin:miter;stroke-miterlimit:4;stroke-dasharray:none;stroke-opacity:1"
       d="M 72.285965,80.919972 100.59638,57.372055 76.387007,41.364764 61.438048,63.457472 100.46409,57.636639"
       id="path2240" />
    <path
       style="fill:none;stroke:#000000;stroke-width:0.565;stroke-linecap:butt;stroke-linejoin:miter;stroke-miterlimit:4;stroke-dasharray:none;stroke-opacity:1"
       d="M 124.54117,73.114763 153.90992,63.986639 137.37346,42.290806"
       id="path2242" />
    <ellipse
       style="fill:none;stroke:#0066ff;stroke-width:0.564999;stroke-linecap:square;stroke-miterlimit:4;stroke-dasharray:none;stroke-dashoffset:0;stroke-opacity:1;stop-color:#000000"
       id="path2244"
       cx="28.317732"
       cy="95.9543"
       rx="27.384375"
       ry="22.952604"
       transform="rotate(-36.362505)" />
    <ellipse
       style="fill:none;stroke:#0066ff;stroke-width:0.564999;stroke-linecap:square;stroke-miterlimit:4;stroke-dasharray:none;stroke-dashoffset:0;stroke-opacity:1;stop-color:#000000"
       id="path2252"
       cx="137.5719"
       cy="60.613201"
       rx="20.439062"
       ry="23.084896" />
    <ellipse
       style="fill:none;stroke:#0066ff;stroke-width:0.564999;stroke-linecap:square;stroke-miterlimit:4;stroke-dasharray:none;stroke-dashoffset:0;stroke-opacity:1;stop-color:#000000"
       id="path2254"
       cx="168.52815"
       cy="47.9132"
       rx="8.0036459"
       ry="6.6807289" />
  </g>
</svg>
