<?xml version="1.0" encoding="UTF-8" standalone="no"?>
<svg
   xmlns:dc="http://purl.org/dc/elements/1.1/"
   xmlns:cc="http://creativecommons.org/ns#"
   xmlns:rdf="http://www.w3.org/1999/02/22-rdf-syntax-ns#"
   xmlns:svg="http://www.w3.org/2000/svg"
   xmlns="http://www.w3.org/2000/svg"
   xmlns:sodipodi="http://sodipodi.sourceforge.net/DTD/sodipodi-0.dtd"
   xmlns:inkscape="http://www.inkscape.org/namespaces/inkscape"
   width="641.14227"
   height="213.41766"
   viewBox="0 0 169.63556 56.466758"
   version="1.1"
   id="svg8"
   inkscape:version="1.0.1 (3bc2e813f5, 2020-09-07)"
   sodipodi:docname="farmerwolfgoat.svg">
  <defs
     id="defs2">
    <marker
       style="overflow:visible"
       id="marker2791"
       refX="0"
       refY="0"
       orient="auto"
       inkscape:stockid="Arrow1Mend"
       inkscape:isstock="true">
      <path
         transform="matrix(-0.4,0,0,-0.4,-4,0)"
         style="fill:#000000;fill-opacity:1;fill-rule:evenodd;stroke:#000000;stroke-width:1pt;stroke-opacity:1"
         d="M 0,0 5,-5 -12.5,0 5,5 Z"
         id="path2789" />
    </marker>
    <marker
       style="overflow:visible"
       id="marker2713"
       refX="0"
       refY="0"
       orient="auto"
       inkscape:stockid="Arrow1Mend"
       inkscape:isstock="true"
       inkscape:collect="always">
      <path
         transform="matrix(-0.4,0,0,-0.4,-4,0)"
         style="fill:#000000;fill-opacity:1;fill-rule:evenodd;stroke:#000000;stroke-width:1pt;stroke-opacity:1"
         d="M 0,0 5,-5 -12.5,0 5,5 Z"
         id="path2711" />
    </marker>
    <marker
       style="overflow:visible"
       id="marker2641"
       refX="0"
       refY="0"
       orient="auto"
       inkscape:stockid="Arrow1Mend"
       inkscape:isstock="true"
       inkscape:collect="always">
      <path
         transform="matrix(-0.4,0,0,-0.4,-4,0)"
         style="fill:#000000;fill-opacity:1;fill-rule:evenodd;stroke:#000000;stroke-width:1pt;stroke-opacity:1"
         d="M 0,0 5,-5 -12.5,0 5,5 Z"
         id="path2639" />
    </marker>
    <marker
       style="overflow:visible"
       id="marker2575"
       refX="0"
       refY="0"
       orient="auto"
       inkscape:stockid="Arrow1Mend"
       inkscape:isstock="true"
       inkscape:collect="always">
      <path
         transform="matrix(-0.4,0,0,-0.4,-4,0)"
         style="fill:#000000;fill-opacity:1;fill-rule:evenodd;stroke:#000000;stroke-width:1pt;stroke-opacity:1"
         d="M 0,0 5,-5 -12.5,0 5,5 Z"
         id="path2573" />
    </marker>
    <marker
       style="overflow:visible"
       id="marker2515"
       refX="0"
       refY="0"
       orient="auto"
       inkscape:stockid="Arrow1Mend"
       inkscape:isstock="true"
       inkscape:collect="always">
      <path
         transform="matrix(-0.4,0,0,-0.4,-4,0)"
         style="fill:#000000;fill-opacity:1;fill-rule:evenodd;stroke:#000000;stroke-width:1pt;stroke-opacity:1"
         d="M 0,0 5,-5 -12.5,0 5,5 Z"
         id="path2513" />
    </marker>
    <marker
       style="overflow:visible"
       id="marker2461"
       refX="0"
       refY="0"
       orient="auto"
       inkscape:stockid="Arrow1Mend"
       inkscape:isstock="true"
       inkscape:collect="always">
      <path
         transform="matrix(-0.4,0,0,-0.4,-4,0)"
         style="fill:#000000;fill-opacity:1;fill-rule:evenodd;stroke:#000000;stroke-width:1pt;stroke-opacity:1"
         d="M 0,0 5,-5 -12.5,0 5,5 Z"
         id="path2459" />
    </marker>
    <marker
       style="overflow:visible"
       id="marker2413"
       refX="0"
       refY="0"
       orient="auto"
       inkscape:stockid="Arrow1Mend"
       inkscape:isstock="true"
       inkscape:collect="always">
      <path
         transform="matrix(-0.4,0,0,-0.4,-4,0)"
         style="fill:#000000;fill-opacity:1;fill-rule:evenodd;stroke:#000000;stroke-width:1pt;stroke-opacity:1"
         d="M 0,0 5,-5 -12.5,0 5,5 Z"
         id="path2411" />
    </marker>
    <marker
       style="overflow:visible"
       id="marker2371"
       refX="0"
       refY="0"
       orient="auto"
       inkscape:stockid="Arrow1Mend"
       inkscape:isstock="true"
       inkscape:collect="always">
      <path
         transform="matrix(-0.4,0,0,-0.4,-4,0)"
         style="fill:#000000;fill-opacity:1;fill-rule:evenodd;stroke:#000000;stroke-width:1pt;stroke-opacity:1"
         d="M 0,0 5,-5 -12.5,0 5,5 Z"
         id="path2369" />
    </marker>
    <marker
       style="overflow:visible"
       id="marker2317"
       refX="0"
       refY="0"
       orient="auto"
       inkscape:stockid="Arrow1Mend"
       inkscape:isstock="true"
       inkscape:collect="always">
      <path
         transform="matrix(-0.4,0,0,-0.4,-4,0)"
         style="fill:#000000;fill-opacity:1;fill-rule:evenodd;stroke:#000000;stroke-width:1pt;stroke-opacity:1"
         d="M 0,0 5,-5 -12.5,0 5,5 Z"
         id="path2315" />
    </marker>
    <marker
       style="overflow:visible"
       id="marker1636"
       refX="0"
       refY="0"
       orient="auto"
       inkscape:stockid="Arrow1Mend"
       inkscape:isstock="true"
       inkscape:collect="always">
      <path
         transform="matrix(-0.4,0,0,-0.4,-4,0)"
         style="fill:#000000;fill-opacity:1;fill-rule:evenodd;stroke:#000000;stroke-width:1pt;stroke-opacity:1"
         d="M 0,0 5,-5 -12.5,0 5,5 Z"
         id="path1634" />
    </marker>
    <marker
       style="overflow:visible"
       id="Arrow1Send"
       refX="0"
       refY="0"
       orient="auto"
       inkscape:stockid="Arrow1Send"
       inkscape:isstock="true">
      <path
         transform="matrix(-0.2,0,0,-0.2,-1.2,0)"
         style="fill:#000000;fill-opacity:1;fill-rule:evenodd;stroke:#000000;stroke-width:1pt;stroke-opacity:1"
         d="M 0,0 5,-5 -12.5,0 5,5 Z"
         id="path877" />
    </marker>
  </defs>
  <sodipodi:namedview
     id="base"
     pagecolor="#ffffff"
     bordercolor="#666666"
     borderopacity="1.0"
     inkscape:pageopacity="0.0"
     inkscape:pageshadow="2"
     inkscape:zoom="1.4"
     inkscape:cx="321.7584"
     inkscape:cy="204.48893"
     inkscape:document-units="mm"
     inkscape:current-layer="layer1"
     inkscape:document-rotation="0"
     showgrid="false"
     units="px"
     inkscape:snap-global="false"
     fit-margin-top="15"
     fit-margin-left="15"
     fit-margin-bottom="15"
     fit-margin-right="15"
     inkscape:window-width="1920"
     inkscape:window-height="1137"
     inkscape:window-x="1432"
     inkscape:window-y="-8"
     inkscape:window-maximized="1" />
  <metadata
     id="metadata5">
    <rdf:RDF>
      <cc:Work
         rdf:about="">
        <dc:format>image/svg+xml</dc:format>
        <dc:type
           rdf:resource="http://purl.org/dc/dcmitype/StillImage" />
        <dc:title></dc:title>
      </cc:Work>
    </rdf:RDF>
  </metadata>
  <g
     inkscape:label="Layer 1"
     inkscape:groupmode="layer"
     id="layer1"
     transform="translate(-6.668384,-10.571468)">
    <circle
       style="fill:#000000;stroke:#000000;stroke-width:0.524544;stroke-linecap:square;stop-color:#000000"
       id="path833"
       cx="18.387951"
       cy="40.337795"
       r="1.184333" />
    <circle
       style="fill:#000000;stroke:#000000;stroke-width:0.524544;stroke-linecap:square;stop-color:#000000"
       id="path833-6"
       cx="42.308575"
       cy="40.337795"
       r="1.184333" />
    <circle
       style="fill:#000000;stroke:#000000;stroke-width:0.524544;stroke-linecap:square;stop-color:#000000"
       id="path833-7"
       cx="64.358307"
       cy="40.471428"
       r="1.184333" />
    <circle
       style="fill:#000000;stroke:#000000;stroke-width:0.524544;stroke-linecap:square;stop-color:#000000"
       id="path833-9"
       cx="84.136253"
       cy="26.70705"
       r="1.184333" />
    <circle
       style="fill:#000000;stroke:#000000;stroke-width:0.524544;stroke-linecap:square;stop-color:#000000"
       id="path833-99"
       cx="82.93354"
       cy="50.894939"
       r="1.184333" />
    <circle
       style="fill:#000000;stroke:#000000;stroke-width:0.524544;stroke-linecap:square;stop-color:#000000"
       id="path833-75"
       cx="106.72053"
       cy="26.439779"
       r="1.184333" />
    <circle
       style="fill:#000000;stroke:#000000;stroke-width:0.524544;stroke-linecap:square;stop-color:#000000"
       id="path833-4"
       cx="106.45326"
       cy="50.894939"
       r="1.184333" />
    <circle
       style="fill:#000000;stroke:#000000;stroke-width:0.524544;stroke-linecap:square;stop-color:#000000"
       id="path833-73"
       cx="124.22668"
       cy="39.268719"
       r="1.184333" />
    <circle
       style="fill:#000000;stroke:#000000;stroke-width:0.524544;stroke-linecap:square;stop-color:#000000"
       id="path833-0"
       cx="144.67281"
       cy="39.268715"
       r="1.184333" />
    <circle
       style="fill:#000000;stroke:#000000;stroke-width:0.524544;stroke-linecap:square;stop-color:#000000"
       id="path833-41"
       cx="165.51982"
       cy="38.867813"
       r="1.184333" />
    <g
       aria-label="FWGC"
       id="text2223"
       style="font-style:italic;font-size:5.64444px;line-height:1.25;font-family:'Latin Modern Roman';-inkscape-font-specification:'Latin Modern Roman, Italic';fill:#0044aa;stroke-width:0.264583">
      <path
         d="M 13.650491,45.553167 13.531958,44.600668 H 11.20786 v 0.131233 h 0.1016 c 0.325966,0 0.334433,0.04657 0.334433,0.198966 v 2.218265 c 0,0.1524 -0.0085,0.198967 -0.334433,0.198967 h -0.1016 v 0.131233 c 0.148166,-0.0127 0.478366,-0.0127 0.643466,-0.0127 0.173567,0 0.5588,0 0.711199,0.0127 v -0.131233 h -0.139699 c -0.402167,0 -0.402167,-0.05503 -0.402167,-0.2032 V 46.1035 h 0.364067 c 0.406399,0 0.448733,0.135466 0.448733,0.495299 h 0.105833 v -1.121832 h -0.105833 c 0,0.3556 -0.04233,0.4953 -0.448733,0.4953 h -0.364067 v -1.071033 c 0,-0.1397 0.0085,-0.169333 0.207433,-0.169333 h 0.508 c 0.634999,0 0.740833,0.237066 0.808566,0.821266 z"
         style="font-style:normal;font-variant:normal;font-weight:normal;font-stretch:normal;font-size:4.23333px;font-family:'Latin Modern Roman';-inkscape-font-specification:'Latin Modern Roman, ';fill:#0044aa;stroke-width:0.264583"
         id="path2925" />
      <path
         d="m 18.103954,44.719201 v -0.131233 c -0.127,0.0085 -0.258234,0.0127 -0.385233,0.0127 l -0.503767,-0.0127 v 0.131233 c 0.283633,0.0042 0.3683,0.143933 0.3683,0.224366 0,0.0254 -0.0127,0.05927 -0.02117,0.08467 l -0.634999,1.955798 -0.677333,-2.074331 c -0.0042,-0.01693 -0.0127,-0.04233 -0.0127,-0.0635 0,-0.127 0.245533,-0.127 0.3556,-0.127 v -0.131233 c -0.1524,0.0127 -0.440266,0.0127 -0.601133,0.0127 l -0.516466,-0.0127 v 0.131233 c 0.2413,0 0.330199,0 0.380999,0.1524 l 0.09313,0.296333 -0.588433,1.816098 -0.681566,-2.082798 c -0.0042,-0.0127 -0.0085,-0.04233 -0.0085,-0.05503 0,-0.127 0.245533,-0.127 0.3556,-0.127 v -0.131233 c -0.1524,0.0127 -0.440266,0.0127 -0.601133,0.0127 l -0.516466,-0.0127 v 0.131233 c 0.317499,0 0.334433,0.02117 0.385233,0.1778 l 0.846666,2.595031 c 0.0127,0.0381 0.0254,0.08043 0.08043,0.08043 0.05927,0 0.06773,-0.02963 0.08467,-0.08467 l 0.698499,-2.150532 0.702733,2.154765 c 0.0127,0.0381 0.0254,0.08043 0.08043,0.08043 0.05927,0 0.06773,-0.02963 0.08467,-0.08467 l 0.808566,-2.484965 c 0.0762,-0.2413 0.258233,-0.283633 0.423333,-0.283633 z"
         style="font-style:normal;font-variant:normal;font-weight:normal;font-stretch:normal;font-size:4.23333px;font-family:'Latin Modern Roman';-inkscape-font-specification:'Latin Modern Roman, ';fill:#0044aa;stroke-width:0.264583"
         id="path2927" />
      <path
         d="m 21.177343,46.454866 v -0.131233 l -0.516466,0.0127 c -0.169334,0 -0.529167,0 -0.681566,-0.0127 v 0.131233 h 0.135466 c 0.381,0 0.3937,0.04657 0.3937,0.2032 v 0.270933 c 0,0.474133 -0.537633,0.512233 -0.656166,0.512233 -0.275167,0 -1.113366,-0.148167 -1.113366,-1.409699 0,-1.265765 0.833966,-1.405465 1.087966,-1.405465 0.452966,0 0.838199,0.380999 0.922866,1.003299 0.0085,0.05927 0.0085,0.07197 0.06773,0.07197 0.06773,0 0.06773,-0.0127 0.06773,-0.101599 v -1.0033 c 0,-0.07197 0,-0.1016 -0.04657,-0.1016 -0.01693,0 -0.03387,0 -0.06773,0.0508 l -0.211666,0.313267 c -0.135467,-0.135467 -0.364067,-0.364067 -0.783166,-0.364067 -0.7874,0 -1.473199,0.668867 -1.473199,1.536699 0,0.867833 0.677333,1.540932 1.481665,1.540932 0.309033,0 0.6477,-0.110066 0.791633,-0.359833 0.05503,0.09313 0.224367,0.262467 0.270933,0.262467 0.0381,0 0.0381,-0.03387 0.0381,-0.09737 v -0.736599 c 0,-0.1651 0.01693,-0.186267 0.2921,-0.186267 z"
         style="font-style:normal;font-variant:normal;font-weight:normal;font-stretch:normal;font-size:4.23333px;font-family:'Latin Modern Roman';-inkscape-font-specification:'Latin Modern Roman, ';fill:#0044aa;stroke-width:0.264583"
         id="path2929" />
      <path
         d="m 24.204173,46.492966 c 0,-0.04233 0,-0.07197 -0.05503,-0.07197 -0.04657,0 -0.04657,0.0254 -0.0508,0.06773 -0.03387,0.605366 -0.486833,0.952499 -0.948266,0.952499 -0.258233,0 -1.087966,-0.143933 -1.087966,-1.405465 0,-1.265766 0.825499,-1.409699 1.083732,-1.409699 0.461433,0 0.8382,0.385233 0.922866,1.003299 0.0085,0.05927 0.0085,0.07197 0.06773,0.07197 0.06773,0 0.06773,-0.0127 0.06773,-0.101599 v -1.0033 c 0,-0.07197 0,-0.1016 -0.04657,-0.1016 -0.01693,0 -0.03387,0 -0.06773,0.0508 l -0.211667,0.313267 c -0.156633,-0.1524 -0.372533,-0.364067 -0.778932,-0.364067 -0.791633,0 -1.473199,0.6731 -1.473199,1.536699 0,0.876299 0.685799,1.540932 1.473199,1.540932 0.690033,0 1.104899,-0.588433 1.104899,-1.079499 z"
         style="font-style:normal;font-variant:normal;font-weight:normal;font-stretch:normal;font-size:4.23333px;font-family:'Latin Modern Roman';-inkscape-font-specification:'Latin Modern Roman, ';fill:#0044aa;stroke-width:0.264583"
         id="path2931" />
    </g>
    <g
       aria-label="WC
FG"
       id="text2227"
       style="font-size:4.23333px;line-height:1.25;font-family:'Latin Modern Roman';-inkscape-font-specification:'Latin Modern Roman, ';text-align:center;text-anchor:middle;stroke-width:0.264583">
      <path
         d="m 42.395126,44.341222 v -0.131234 c -0.127,0.0085 -0.258233,0.0127 -0.385233,0.0127 l -0.503766,-0.0127 v 0.131234 c 0.283633,0.0042 0.368299,0.143933 0.368299,0.224366 0,0.0254 -0.0127,0.05927 -0.02117,0.08467 l -0.635,1.955798 -0.677333,-2.074331 c -0.0042,-0.01693 -0.0127,-0.04233 -0.0127,-0.0635 0,-0.127 0.245534,-0.127 0.3556,-0.127 v -0.131234 c -0.1524,0.0127 -0.440266,0.0127 -0.601133,0.0127 l -0.516466,-0.0127 v 0.131234 c 0.2413,0 0.3302,0 0.381,0.1524 l 0.09313,0.296333 -0.588433,1.816098 -0.681566,-2.082798 c -0.0042,-0.0127 -0.0085,-0.04233 -0.0085,-0.05503 0,-0.127 0.245534,-0.127 0.3556,-0.127 v -0.131234 c -0.1524,0.0127 -0.440266,0.0127 -0.601133,0.0127 l -0.516466,-0.0127 v 0.131234 c 0.3175,0 0.334433,0.02117 0.385233,0.1778 l 0.846666,2.595031 c 0.0127,0.0381 0.0254,0.08043 0.08043,0.08043 0.05927,0 0.06773,-0.02963 0.08467,-0.08467 l 0.698499,-2.150531 0.702733,2.154765 c 0.0127,0.0381 0.0254,0.08043 0.08043,0.08043 0.05927,0 0.06773,-0.02963 0.08467,-0.08467 l 0.808566,-2.484964 c 0.0762,-0.2413 0.258233,-0.283633 0.423333,-0.283633 z"
         style="text-align:center;text-anchor:middle;stroke-width:0.264583"
         id="path2934" />
      <path
         d="m 45.172182,46.114987 c 0,-0.04233 0,-0.07197 -0.05503,-0.07197 -0.04657,0 -0.04657,0.0254 -0.0508,0.06773 -0.03387,0.605366 -0.486833,0.952499 -0.948266,0.952499 -0.258233,0 -1.087966,-0.143933 -1.087966,-1.405466 0,-1.265765 0.825499,-1.409699 1.083733,-1.409699 0.461433,0 0.838199,0.385233 0.922865,1.0033 0.0085,0.05927 0.0085,0.07197 0.06773,0.07197 0.06773,0 0.06773,-0.0127 0.06773,-0.1016 v -1.003299 c 0,-0.07197 0,-0.1016 -0.04657,-0.1016 -0.01693,0 -0.03387,0 -0.06773,0.0508 l -0.211666,0.313267 c -0.156634,-0.1524 -0.372533,-0.364067 -0.778933,-0.364067 -0.791633,0 -1.473199,0.6731 -1.473199,1.536699 0,0.876299 0.6858,1.540932 1.473199,1.540932 0.690033,0 1.104899,-0.588433 1.104899,-1.079499 z"
         style="text-align:center;text-anchor:middle;stroke-width:0.264583"
         id="path2936" />
      <path
         d="M 41.366423,50.46685 41.24789,49.514351 h -2.324098 v 0.131233 h 0.1016 c 0.325966,0 0.334433,0.04657 0.334433,0.198966 v 2.218265 c 0,0.1524 -0.0085,0.198967 -0.334433,0.198967 h -0.1016 v 0.131233 c 0.148166,-0.0127 0.478366,-0.0127 0.643466,-0.0127 0.173567,0 0.5588,0 0.711199,0.0127 v -0.131233 h -0.139699 c -0.402167,0 -0.402167,-0.05503 -0.402167,-0.2032 v -1.041399 h 0.364067 c 0.406399,0 0.448733,0.135466 0.448733,0.495299 h 0.105833 V 50.39065 h -0.105833 c 0,0.3556 -0.04233,0.4953 -0.448733,0.4953 h -0.364067 v -1.071033 c 0,-0.1397 0.0085,-0.169333 0.207433,-0.169333 h 0.508 c 0.634999,0 0.740833,0.237066 0.808566,0.821266 z"
         style="text-align:center;text-anchor:middle;stroke-width:0.264583"
         id="path2938" />
      <path
         d="m 44.541412,51.368549 v -0.131233 l -0.516466,0.0127 c -0.169333,0 -0.529166,0 -0.681566,-0.0127 v 0.131233 h 0.135467 c 0.380999,0 0.393699,0.04657 0.393699,0.2032 v 0.270933 c 0,0.474133 -0.537633,0.512233 -0.656166,0.512233 -0.275166,0 -1.113365,-0.148167 -1.113365,-1.409699 0,-1.265765 0.833965,-1.405465 1.087965,-1.405465 0.452967,0 0.8382,0.380999 0.922866,1.003299 0.0085,0.05927 0.0085,0.07197 0.06773,0.07197 0.06773,0 0.06773,-0.0127 0.06773,-0.1016 v -1.003299 c 0,-0.07197 0,-0.1016 -0.04657,-0.1016 -0.01693,0 -0.03387,0 -0.06773,0.0508 l -0.211667,0.313267 C 43.78788,49.637117 43.55928,49.408517 43.14018,49.408517 c -0.787399,0 -1.473198,0.668867 -1.473198,1.536699 0,0.867833 0.677332,1.540932 1.481665,1.540932 0.309033,0 0.647699,-0.110066 0.791633,-0.359833 0.05503,0.09313 0.224366,0.262467 0.270933,0.262467 0.0381,0 0.0381,-0.03387 0.0381,-0.09737 v -0.736599 c 0,-0.1651 0.01693,-0.186267 0.292099,-0.186267 z"
         style="text-align:center;text-anchor:middle;stroke-width:0.264583"
         id="path2940" />
    </g>
    <g
       aria-label="FWC
G"
       id="text2233"
       style="font-size:4.23333px;line-height:1.25;font-family:'Latin Modern Roman';-inkscape-font-specification:'Latin Modern Roman, ';text-align:center;text-anchor:middle;stroke-width:0.264583">
      <path
         d="m 58.988747,44.891706 -0.118533,-0.952499 h -2.324098 v 0.131233 h 0.1016 c 0.325966,0 0.334433,0.04657 0.334433,0.198967 v 2.218264 c 0,0.1524 -0.0085,0.198967 -0.334433,0.198967 h -0.1016 v 0.131233 c 0.148166,-0.0127 0.478366,-0.0127 0.643466,-0.0127 0.173566,0 0.558799,0 0.711199,0.0127 v -0.131233 h -0.1397 c -0.402166,0 -0.402166,-0.05503 -0.402166,-0.2032 v -1.041399 h 0.364066 c 0.4064,0 0.448733,0.135466 0.448733,0.4953 h 0.105834 v -1.121833 h -0.105834 c 0,0.3556 -0.04233,0.4953 -0.448733,0.4953 h -0.364066 v -1.071033 c 0,-0.1397 0.0085,-0.169333 0.207433,-0.169333 h 0.508 c 0.634999,0 0.740833,0.237067 0.808566,0.821266 z"
         style="stroke-width:0.264583"
         id="path2943" />
      <path
         d="m 63.442209,44.05774 v -0.131233 c -0.126999,0.0085 -0.258233,0.0127 -0.385233,0.0127 l -0.503766,-0.0127 v 0.131233 c 0.283633,0.0042 0.3683,0.143933 0.3683,0.224367 0,0.0254 -0.0127,0.05927 -0.02117,0.08467 l -0.634999,1.955799 -0.677333,-2.074332 c -0.0042,-0.01693 -0.0127,-0.04233 -0.0127,-0.0635 0,-0.127 0.245533,-0.127 0.3556,-0.127 v -0.131233 c -0.1524,0.0127 -0.440267,0.0127 -0.601133,0.0127 l -0.516466,-0.0127 v 0.131233 c 0.241299,0 0.330199,0 0.380999,0.1524 l 0.09313,0.296333 -0.588433,1.816099 -0.681566,-2.082799 c -0.0042,-0.0127 -0.0085,-0.04233 -0.0085,-0.05503 0,-0.127 0.245533,-0.127 0.3556,-0.127 v -0.131233 c -0.1524,0.0127 -0.440267,0.0127 -0.601133,0.0127 l -0.516466,-0.0127 v 0.131233 c 0.317499,0 0.334433,0.02117 0.385233,0.1778 l 0.846666,2.595031 c 0.0127,0.0381 0.0254,0.08043 0.08043,0.08043 0.05927,0 0.06773,-0.02963 0.08467,-0.08467 l 0.6985,-2.150532 0.702733,2.154765 c 0.0127,0.0381 0.0254,0.08043 0.08043,0.08043 0.05927,0 0.06773,-0.02963 0.08467,-0.08467 l 0.808566,-2.484965 c 0.0762,-0.2413 0.258234,-0.283633 0.423333,-0.283633 z"
         style="stroke-width:0.264583"
         id="path2945" />
      <path
         d="m 66.219266,45.831505 c 0,-0.04233 0,-0.07197 -0.05503,-0.07197 -0.04657,0 -0.04657,0.0254 -0.0508,0.06773 -0.03387,0.605366 -0.486833,0.952499 -0.948265,0.952499 -0.258234,0 -1.087966,-0.143933 -1.087966,-1.405465 0,-1.265766 0.825499,-1.409699 1.083732,-1.409699 0.461433,0 0.838199,0.385233 0.922866,1.003299 0.0085,0.05927 0.0085,0.07197 0.06773,0.07197 0.06773,0 0.06773,-0.0127 0.06773,-0.1016 V 43.93497 c 0,-0.07197 0,-0.1016 -0.04657,-0.1016 -0.01693,0 -0.03387,0 -0.06773,0.0508 l -0.211667,0.313266 c -0.156633,-0.1524 -0.372533,-0.364066 -0.778932,-0.364066 -0.791633,0 -1.473199,0.673099 -1.473199,1.536698 0,0.8763 0.685799,1.540932 1.473199,1.540932 0.690032,0 1.104899,-0.588432 1.104899,-1.079499 z"
         style="stroke-width:0.264583"
         id="path2947" />
      <path
         d="m 62.883403,51.085068 v -0.131234 l -0.516467,0.0127 c -0.169333,0 -0.529166,0 -0.681566,-0.0127 v 0.131234 h 0.135467 c 0.381,0 0.3937,0.04657 0.3937,0.203199 V 51.5592 c 0,0.474133 -0.537633,0.512233 -0.656167,0.512233 -0.275166,0 -1.113365,-0.148166 -1.113365,-1.409698 0,-1.265766 0.833966,-1.405466 1.087966,-1.405466 0.452966,0 0.838199,0.381 0.922865,1.003299 0.0085,0.05927 0.0085,0.07197 0.06773,0.07197 0.06773,0 0.06773,-0.0127 0.06773,-0.1016 v -1.003299 c 0,-0.07197 0,-0.1016 -0.04657,-0.1016 -0.01693,0 -0.03387,0 -0.06773,0.0508 l -0.211666,0.313266 c -0.135467,-0.135466 -0.364067,-0.364066 -0.783166,-0.364066 -0.7874,0 -1.473199,0.668866 -1.473199,1.536699 0,0.867832 0.677333,1.540932 1.481665,1.540932 0.309033,0 0.6477,-0.110067 0.791633,-0.359833 0.05503,0.09313 0.224366,0.262466 0.270933,0.262466 0.0381,0 0.0381,-0.03387 0.0381,-0.09737 v -0.736599 c 0,-0.1651 0.01693,-0.186266 0.2921,-0.186266 z"
         style="stroke-width:0.264583"
         id="path2949" />
    </g>
    <g
       aria-label="W
FGC"
       id="text2239"
       style="font-size:4.23333px;line-height:1.25;font-family:'Latin Modern Roman';-inkscape-font-specification:'Latin Modern Roman, ';text-align:center;text-anchor:middle;stroke-width:0.264583">
      <path
         d="m 84.79014,54.92455 v -0.131233 c -0.127,0.0085 -0.258234,0.0127 -0.385233,0.0127 l -0.503767,-0.0127 v 0.131233 c 0.283633,0.0042 0.3683,0.143933 0.3683,0.224366 0,0.0254 -0.0127,0.05927 -0.02117,0.08467 l -0.634999,1.955798 -0.677333,-2.074331 c -0.0042,-0.01693 -0.0127,-0.04233 -0.0127,-0.0635 0,-0.127 0.245533,-0.127 0.3556,-0.127 V 54.79332 c -0.1524,0.0127 -0.440266,0.0127 -0.601133,0.0127 l -0.516466,-0.0127 v 0.131233 c 0.2413,0 0.3302,0 0.380999,0.1524 l 0.09313,0.296333 -0.588433,1.816098 -0.681566,-2.082798 c -0.0042,-0.0127 -0.0085,-0.04233 -0.0085,-0.05503 0,-0.127 0.245533,-0.127 0.3556,-0.127 v -0.131233 c -0.1524,0.0127 -0.440266,0.0127 -0.601133,0.0127 l -0.516466,-0.0127 v 0.131233 c 0.3175,0 0.334433,0.02117 0.385233,0.1778 l 0.846666,2.595031 c 0.0127,0.0381 0.0254,0.08043 0.08043,0.08043 0.05927,0 0.06773,-0.02963 0.08467,-0.08467 l 0.698499,-2.150532 0.702733,2.154765 c 0.0127,0.0381 0.0254,0.08043 0.08043,0.08043 0.05927,0 0.06773,-0.02963 0.08467,-0.08467 l 0.808566,-2.484965 c 0.0762,-0.2413 0.258233,-0.283633 0.423333,-0.283633 z"
         style="stroke-width:0.264583"
         id="path2952" />
      <path
         d="M 80.764251,61.050178 80.645718,60.097679 H 78.32162 v 0.131233 h 0.1016 c 0.325966,0 0.334433,0.04657 0.334433,0.198967 v 2.218264 c 0,0.1524 -0.0085,0.198967 -0.334433,0.198967 h -0.1016 v 0.131233 c 0.148166,-0.0127 0.478366,-0.0127 0.643466,-0.0127 0.173566,0 0.558799,0 0.711199,0.0127 V 62.84511 h -0.1397 c -0.402166,0 -0.402166,-0.05503 -0.402166,-0.2032 v -1.041399 h 0.364066 c 0.4064,0 0.448733,0.135467 0.448733,0.4953 h 0.105833 v -1.121833 h -0.105833 c 0,0.3556 -0.04233,0.4953 -0.448733,0.4953 h -0.364066 v -1.071033 c 0,-0.1397 0.0085,-0.169333 0.207433,-0.169333 h 0.508 c 0.634999,0 0.740832,0.237067 0.808566,0.821266 z"
         style="stroke-width:0.264583"
         id="path2954" />
      <path
         d="m 83.93924,61.951877 v -0.131233 l -0.516466,0.0127 c -0.169333,0 -0.529166,0 -0.681566,-0.0127 v 0.131233 h 0.135466 c 0.381,0 0.3937,0.04657 0.3937,0.2032 v 0.270933 c 0,0.474133 -0.537633,0.512233 -0.656166,0.512233 -0.275167,0 -1.113366,-0.148166 -1.113366,-1.409699 0,-1.265765 0.833966,-1.405465 1.087966,-1.405465 0.452966,0 0.838199,0.381 0.922866,1.003299 0.0085,0.05927 0.0085,0.07197 0.06773,0.07197 0.06773,0 0.06773,-0.0127 0.06773,-0.1016 v -1.003299 c 0,-0.07197 0,-0.1016 -0.04657,-0.1016 -0.01693,0 -0.03387,0 -0.06773,0.0508 l -0.211666,0.313266 c -0.135467,-0.135467 -0.364066,-0.364066 -0.783166,-0.364066 -0.787399,0 -1.473199,0.668866 -1.473199,1.536698 0,0.867833 0.677333,1.540932 1.481666,1.540932 0.309033,0 0.647699,-0.110066 0.791632,-0.359833 0.05503,0.09313 0.224367,0.262467 0.270933,0.262467 0.0381,0 0.0381,-0.03387 0.0381,-0.09737 v -0.736599 c 0,-0.1651 0.01693,-0.186267 0.2921,-0.186267 z"
         style="stroke-width:0.264583"
         id="path2956" />
      <path
         d="m 86.966071,61.989977 c 0,-0.04233 0,-0.07197 -0.05503,-0.07197 -0.04657,0 -0.04657,0.0254 -0.0508,0.06773 -0.03387,0.605366 -0.486833,0.952499 -0.948266,0.952499 -0.258233,0 -1.087965,-0.143933 -1.087965,-1.405465 0,-1.265766 0.825499,-1.409699 1.083732,-1.409699 0.461433,0 0.838199,0.385233 0.922866,1.003299 0.0085,0.05927 0.0085,0.07197 0.06773,0.07197 0.06773,0 0.06773,-0.0127 0.06773,-0.1016 v -1.003299 c 0,-0.07197 0,-0.1016 -0.04657,-0.1016 -0.01693,0 -0.03387,0 -0.06773,0.0508 l -0.211667,0.313266 c -0.156633,-0.1524 -0.372533,-0.364066 -0.778933,-0.364066 -0.791632,0 -1.473198,0.673099 -1.473198,1.536698 0,0.8763 0.685799,1.540932 1.473198,1.540932 0.690033,0 1.1049,-0.588432 1.1049,-1.079499 z"
         style="stroke-width:0.264583"
         id="path2958" />
    </g>
    <g
       aria-label="FGW
C"
       id="text2245"
       style="font-size:4.23333px;line-height:1.25;font-family:'Latin Modern Roman';-inkscape-font-specification:'Latin Modern Roman, ';text-align:center;text-anchor:middle;stroke-width:0.264583">
      <path
         d="m 103.92906,55.475042 -0.11854,-0.952499 h -2.3241 v 0.131233 h 0.1016 c 0.32597,0 0.33444,0.04657 0.33444,0.198966 v 2.218265 c 0,0.1524 -0.008,0.198967 -0.33444,0.198967 h -0.1016 v 0.131233 c 0.14817,-0.0127 0.47837,-0.0127 0.64347,-0.0127 0.17357,0 0.5588,0 0.7112,0.0127 v -0.131233 h -0.1397 c -0.40217,0 -0.40217,-0.05503 -0.40217,-0.2032 v -1.041399 h 0.36407 c 0.4064,0 0.44873,0.135466 0.44873,0.495299 h 0.10584 v -1.121832 h -0.10584 c 0,0.3556 -0.0423,0.4953 -0.44873,0.4953 h -0.36407 v -1.071033 c 0,-0.1397 0.008,-0.169333 0.20744,-0.169333 h 0.508 c 0.635,0 0.74083,0.237066 0.80856,0.821266 z"
         style="stroke-width:0.264583"
         id="path2961" />
      <path
         d="m 107.10404,56.376741 v -0.131233 l -0.51646,0.0127 c -0.16933,0 -0.52917,0 -0.68157,-0.0127 v 0.131233 h 0.13547 c 0.381,0 0.3937,0.04657 0.3937,0.2032 v 0.270933 c 0,0.474133 -0.53763,0.512233 -0.65617,0.512233 -0.27516,0 -1.11336,-0.148167 -1.11336,-1.409699 0,-1.265765 0.83396,-1.405465 1.08796,-1.405465 0.45297,0 0.8382,0.380999 0.92287,1.003299 0.008,0.05927 0.008,0.07197 0.0677,0.07197 0.0677,0 0.0677,-0.0127 0.0677,-0.101599 v -1.0033 c 0,-0.07197 0,-0.1016 -0.0466,-0.1016 -0.0169,0 -0.0339,0 -0.0677,0.0508 l -0.21167,0.313267 c -0.13547,-0.135467 -0.36407,-0.364067 -0.78317,-0.364067 -0.7874,0 -1.4732,0.668867 -1.4732,1.536699 0,0.867833 0.67734,1.540932 1.48167,1.540932 0.30903,0 0.6477,-0.110066 0.79163,-0.359833 0.055,0.09313 0.22437,0.262467 0.27094,0.262467 0.0381,0 0.0381,-0.03387 0.0381,-0.09737 v -0.736599 c 0,-0.1651 0.0169,-0.186267 0.2921,-0.186267 z"
         style="stroke-width:0.264583"
         id="path2963" />
      <path
         d="m 111.58714,54.641076 v -0.131233 c -0.127,0.0085 -0.25823,0.0127 -0.38523,0.0127 l -0.50377,-0.0127 v 0.131233 c 0.28363,0.0042 0.3683,0.143933 0.3683,0.224366 0,0.0254 -0.0127,0.05927 -0.0212,0.08467 l -0.635,1.955798 -0.67733,-2.074331 c -0.004,-0.01693 -0.0127,-0.04233 -0.0127,-0.0635 0,-0.127 0.24554,-0.127 0.3556,-0.127 v -0.131233 c -0.1524,0.0127 -0.44026,0.0127 -0.60113,0.0127 l -0.51647,-0.0127 v 0.131233 c 0.2413,0 0.3302,0 0.381,0.1524 l 0.0931,0.296333 -0.58844,1.816098 -0.68156,-2.082798 c -0.004,-0.0127 -0.008,-0.04233 -0.008,-0.05503 0,-0.127 0.24553,-0.127 0.3556,-0.127 v -0.131233 c -0.1524,0.0127 -0.44027,0.0127 -0.60113,0.0127 l -0.51647,-0.0127 v 0.131233 c 0.3175,0 0.33443,0.02117 0.38523,0.1778 l 0.84667,2.595031 c 0.0127,0.0381 0.0254,0.08043 0.0804,0.08043 0.0593,0 0.0677,-0.02963 0.0847,-0.08467 l 0.6985,-2.150532 0.70273,2.154765 c 0.0127,0.0381 0.0254,0.08043 0.0804,0.08043 0.0593,0 0.0677,-0.02963 0.0847,-0.08467 l 0.80857,-2.484965 c 0.0762,-0.2413 0.25823,-0.283633 0.42333,-0.283633 z"
         style="stroke-width:0.264583"
         id="path2965" />
      <path
         d="m 107.79408,61.706503 c 0,-0.04233 0,-0.07197 -0.055,-0.07197 -0.0466,0 -0.0466,0.0254 -0.0508,0.06773 -0.0339,0.605366 -0.48683,0.952499 -0.94826,0.952499 -0.25824,0 -1.08797,-0.143933 -1.08797,-1.405465 0,-1.265766 0.8255,-1.409699 1.08373,-1.409699 0.46144,0 0.8382,0.385233 0.92287,1.003299 0.008,0.05927 0.008,0.07197 0.0677,0.07197 0.0677,0 0.0677,-0.0127 0.0677,-0.1016 v -1.003299 c 0,-0.07197 0,-0.1016 -0.0466,-0.1016 -0.0169,0 -0.0339,0 -0.0677,0.0508 l -0.21166,0.313266 c -0.15663,-0.1524 -0.37253,-0.364066 -0.77893,-0.364066 -0.79164,0 -1.4732,0.673099 -1.4732,1.536698 0,0.8763 0.6858,1.540932 1.4732,1.540932 0.69003,0 1.10489,-0.588432 1.10489,-1.079499 z"
         style="stroke-width:0.264583"
         id="path2967" />
    </g>
    <g
       aria-label="C
FWG"
       id="text2251"
       style="font-size:4.23333px;line-height:1.25;font-family:'Latin Modern Roman';-inkscape-font-specification:'Latin Modern Roman, ';text-align:center;text-anchor:middle;stroke-width:0.264583">
      <path
         d="m 85.682474,16.916327 c 0,-0.04233 0,-0.07197 -0.05503,-0.07197 -0.04657,0 -0.04657,0.0254 -0.0508,0.06773 -0.03387,0.605366 -0.486833,0.952499 -0.948266,0.952499 -0.258233,0 -1.087966,-0.143933 -1.087966,-1.405466 0,-1.265765 0.8255,-1.409698 1.083733,-1.409698 0.461433,0 0.838199,0.385233 0.922866,1.003299 0.0085,0.05927 0.0085,0.07197 0.06773,0.07197 0.06773,0 0.06773,-0.0127 0.06773,-0.1016 v -1.003299 c 0,-0.07197 0,-0.1016 -0.04657,-0.1016 -0.01693,0 -0.03387,0 -0.06773,0.0508 l -0.211666,0.313267 c -0.156633,-0.1524 -0.372533,-0.364067 -0.778933,-0.364067 -0.791632,0 -1.473198,0.6731 -1.473198,1.536699 0,0.876299 0.685799,1.540932 1.473198,1.540932 0.690033,0 1.104899,-0.588433 1.104899,-1.079499 z"
         style="stroke-width:0.264583"
         id="path2871" />
      <path
         d="m 81.817445,21.26819 -0.118533,-0.952499 h -2.324098 v 0.131233 h 0.1016 c 0.325966,0 0.334433,0.04657 0.334433,0.198966 v 2.218265 c 0,0.1524 -0.0085,0.198967 -0.334433,0.198967 h -0.1016 v 0.131233 c 0.148166,-0.0127 0.478366,-0.0127 0.643466,-0.0127 0.173566,0 0.558799,0 0.711199,0.0127 v -0.131233 h -0.1397 c -0.402166,0 -0.402166,-0.05503 -0.402166,-0.2032 v -1.041399 h 0.364067 c 0.406399,0 0.448732,0.135466 0.448732,0.495299 h 0.105834 V 21.19199 h -0.105834 c 0,0.3556 -0.04233,0.4953 -0.448732,0.4953 h -0.364067 v -1.071033 c 0,-0.1397 0.0085,-0.169333 0.207433,-0.169333 h 0.508 c 0.634999,0 0.740833,0.237066 0.808566,0.821266 z"
         style="stroke-width:0.264583"
         id="path2873" />
      <path
         d="m 86.270907,20.434224 v -0.131233 c -0.126999,0.0085 -0.258233,0.0127 -0.385233,0.0127 l -0.503766,-0.0127 v 0.131233 c 0.283633,0.0042 0.3683,0.143933 0.3683,0.224366 0,0.0254 -0.0127,0.05927 -0.02117,0.08467 l -0.634999,1.955798 -0.677333,-2.074331 c -0.0042,-0.01693 -0.0127,-0.04233 -0.0127,-0.0635 0,-0.127 0.245533,-0.127 0.3556,-0.127 v -0.131233 c -0.1524,0.0127 -0.440267,0.0127 -0.601133,0.0127 l -0.516466,-0.0127 v 0.131233 c 0.241299,0 0.330199,0 0.380999,0.1524 l 0.09313,0.296333 -0.588433,1.816098 -0.681566,-2.082798 c -0.0042,-0.0127 -0.0085,-0.04233 -0.0085,-0.05503 0,-0.127 0.245533,-0.127 0.3556,-0.127 v -0.131233 c -0.1524,0.0127 -0.440267,0.0127 -0.601133,0.0127 l -0.516466,-0.0127 v 0.131233 c 0.317499,0 0.334433,0.02117 0.385233,0.1778 l 0.846666,2.595031 c 0.0127,0.0381 0.0254,0.08043 0.08043,0.08043 0.05927,0 0.06773,-0.02963 0.08467,-0.08467 l 0.6985,-2.150532 0.702733,2.154765 c 0.0127,0.0381 0.0254,0.08043 0.08043,0.08043 0.05927,0 0.06773,-0.02963 0.08467,-0.08467 l 0.808566,-2.484965 c 0.0762,-0.2413 0.258234,-0.283633 0.423333,-0.283633 z"
         style="stroke-width:0.264583"
         id="path2875" />
      <path
         d="m 89.344297,22.169889 v -0.131233 l -0.516466,0.0127 c -0.169334,0 -0.529167,0 -0.681567,-0.0127 v 0.131233 h 0.135467 c 0.381,0 0.3937,0.04657 0.3937,0.2032 v 0.270933 c 0,0.474133 -0.537633,0.512233 -0.656166,0.512233 -0.275167,0 -1.113366,-0.148166 -1.113366,-1.409699 0,-1.265765 0.833966,-1.405465 1.087966,-1.405465 0.452966,0 0.838199,0.380999 0.922865,1.003299 0.0085,0.05927 0.0085,0.07197 0.06773,0.07197 0.06773,0 0.06773,-0.0127 0.06773,-0.1016 v -1.0033 c 0,-0.07197 0,-0.101599 -0.04657,-0.101599 -0.01693,0 -0.03387,0 -0.06773,0.0508 l -0.211666,0.313267 c -0.135467,-0.135467 -0.364067,-0.364066 -0.783166,-0.364066 -0.7874,0 -1.473199,0.668866 -1.473199,1.536698 0,0.867833 0.677333,1.540932 1.481665,1.540932 0.309033,0 0.6477,-0.110066 0.791633,-0.359833 0.05503,0.09313 0.224366,0.262467 0.270933,0.262467 0.0381,0 0.0381,-0.03387 0.0381,-0.09737 v -0.736599 c 0,-0.1651 0.01693,-0.186267 0.2921,-0.186267 z"
         style="stroke-width:0.264583"
         id="path2877" />
    </g>
    <g
       aria-label="FGC
W"
       id="text2257"
       style="font-size:4.23333px;line-height:1.25;font-family:'Latin Modern Roman';-inkscape-font-specification:'Latin Modern Roman, ';text-align:center;text-anchor:middle;stroke-width:0.264583">
      <path
         d="m 104.86024,15.59855 -0.11854,-0.952499 h -2.32409 v 0.131233 h 0.10159 c 0.32597,0 0.33444,0.04657 0.33444,0.198967 v 2.218265 c 0,0.1524 -0.008,0.198966 -0.33444,0.198966 h -0.10159 v 0.131233 c 0.14816,-0.0127 0.47836,-0.0127 0.64346,-0.0127 0.17357,0 0.5588,0 0.7112,0.0127 v -0.131233 h -0.1397 c -0.40217,0 -0.40217,-0.05503 -0.40217,-0.2032 v -1.041399 h 0.36407 c 0.4064,0 0.44873,0.135467 0.44873,0.4953 h 0.10584 V 15.52235 h -0.10584 c 0,0.3556 -0.0423,0.4953 -0.44873,0.4953 h -0.36407 v -1.071032 c 0,-0.1397 0.008,-0.169334 0.20744,-0.169334 h 0.508 c 0.635,0 0.74083,0.237067 0.80856,0.821266 z"
         style="stroke-width:0.264583"
         id="path2880" />
      <path
         d="m 108.03523,16.50025 v -0.131234 l -0.51647,0.0127 c -0.16933,0 -0.52917,0 -0.68157,-0.0127 v 0.131234 h 0.13547 c 0.381,0 0.3937,0.04657 0.3937,0.203199 v 0.270934 c 0,0.474132 -0.53763,0.512232 -0.65617,0.512232 -0.27516,0 -1.11336,-0.148166 -1.11336,-1.409698 0,-1.265766 0.83396,-1.405466 1.08796,-1.405466 0.45297,0 0.8382,0.381 0.92287,1.003299 0.008,0.05927 0.008,0.07197 0.0677,0.07197 0.0677,0 0.0677,-0.0127 0.0677,-0.1016 v -1.003299 c 0,-0.07197 0,-0.1016 -0.0466,-0.1016 -0.0169,0 -0.0339,0 -0.0677,0.0508 l -0.21167,0.313266 c -0.13547,-0.135466 -0.36407,-0.364066 -0.78317,-0.364066 -0.7874,0 -1.4732,0.668866 -1.4732,1.536699 0,0.867832 0.67734,1.540932 1.48167,1.540932 0.30903,0 0.6477,-0.110067 0.79163,-0.359833 0.055,0.09313 0.22437,0.262466 0.27094,0.262466 0.0381,0 0.0381,-0.03387 0.0381,-0.09737 v -0.7366 c 0,-0.1651 0.0169,-0.186266 0.2921,-0.186266 z"
         style="stroke-width:0.264583"
         id="path2882" />
      <path
         d="m 111.06206,16.53835 c 0,-0.04233 0,-0.07197 -0.055,-0.07197 -0.0466,0 -0.0466,0.0254 -0.0508,0.06773 -0.0339,0.605366 -0.48683,0.952499 -0.94826,0.952499 -0.25824,0 -1.08797,-0.143933 -1.08797,-1.405465 0,-1.265766 0.8255,-1.409699 1.08373,-1.409699 0.46144,0 0.8382,0.385233 0.92287,1.003299 0.008,0.05927 0.008,0.07197 0.0677,0.07197 0.0677,0 0.0677,-0.0127 0.0677,-0.1016 v -1.003299 c 0,-0.07197 0,-0.1016 -0.0466,-0.1016 -0.0169,0 -0.0339,0 -0.0677,0.0508 l -0.21167,0.313266 c -0.15663,-0.1524 -0.37253,-0.364066 -0.77893,-0.364066 -0.79164,0 -1.4732,0.673099 -1.4732,1.536699 0,0.876299 0.6858,1.540932 1.4732,1.540932 0.69003,0 1.1049,-0.588433 1.1049,-1.079499 z"
         style="stroke-width:0.264583"
         id="path2884" />
      <path
         d="m 108.88613,20.056247 v -0.131234 c -0.127,0.0085 -0.25824,0.0127 -0.38524,0.0127 l -0.50376,-0.0127 v 0.131234 c 0.28363,0.0042 0.3683,0.143933 0.3683,0.224366 0,0.0254 -0.0127,0.05927 -0.0212,0.08467 l -0.635,1.955798 -0.67733,-2.074332 c -0.004,-0.01693 -0.0127,-0.04233 -0.0127,-0.0635 0,-0.127 0.24553,-0.127 0.3556,-0.127 v -0.131234 c -0.1524,0.0127 -0.44027,0.0127 -0.60114,0.0127 l -0.51646,-0.0127 v 0.131234 c 0.2413,0 0.3302,0 0.381,0.152399 l 0.0931,0.296334 -0.58843,1.816098 -0.68157,-2.082798 c -0.004,-0.0127 -0.008,-0.04233 -0.008,-0.05503 0,-0.127 0.24554,-0.127 0.3556,-0.127 v -0.131234 c -0.1524,0.0127 -0.44026,0.0127 -0.60113,0.0127 l -0.51646,-0.0127 v 0.131234 c 0.31749,0 0.33443,0.02117 0.38523,0.177799 l 0.84666,2.595032 c 0.0127,0.0381 0.0254,0.08043 0.0804,0.08043 0.0593,0 0.0677,-0.02963 0.0847,-0.08467 l 0.6985,-2.150531 0.70274,2.154765 c 0.0127,0.0381 0.0254,0.08043 0.0804,0.08043 0.0593,0 0.0677,-0.02963 0.0847,-0.08467 l 0.80856,-2.484964 c 0.0762,-0.2413 0.25824,-0.283633 0.42334,-0.283633 z"
         style="stroke-width:0.264583"
         id="path2886" />
    </g>
    <g
       aria-label="G
FWC"
       id="text2263"
       style="font-size:4.23333px;line-height:1.25;font-family:'Latin Modern Roman';-inkscape-font-specification:'Latin Modern Roman, ';text-align:center;text-anchor:middle;stroke-width:0.264583">
      <path
         d="m 126.09992,44.470487 v -0.131233 l -0.51646,0.0127 c -0.16933,0 -0.52917,0 -0.68157,-0.0127 v 0.131233 h 0.13547 c 0.381,0 0.3937,0.04657 0.3937,0.2032 v 0.270933 c 0,0.474133 -0.53763,0.512233 -0.65617,0.512233 -0.27516,0 -1.11336,-0.148166 -1.11336,-1.409699 0,-1.265765 0.83396,-1.405465 1.08796,-1.405465 0.45297,0 0.8382,0.381 0.92287,1.003299 0.008,0.05927 0.008,0.07197 0.0677,0.07197 0.0677,0 0.0677,-0.0127 0.0677,-0.1016 v -1.003299 c 0,-0.07197 0,-0.1016 -0.0466,-0.1016 -0.0169,0 -0.0339,0 -0.0677,0.0508 l -0.21167,0.313266 c -0.13547,-0.135467 -0.36407,-0.364066 -0.78317,-0.364066 -0.7874,0 -1.4732,0.668866 -1.4732,1.536698 0,0.867833 0.67734,1.540932 1.48167,1.540932 0.30903,0 0.6477,-0.110066 0.79163,-0.359833 0.055,0.09313 0.22437,0.262467 0.27094,0.262467 0.0381,0 0.0381,-0.03387 0.0381,-0.09737 v -0.736599 c 0,-0.1651 0.0169,-0.186267 0.29209,-0.186267 z"
         style="stroke-width:0.264583"
         id="path2970" />
      <path
         d="m 122.20527,48.86045 -0.11853,-0.952499 h -2.3241 v 0.131233 h 0.1016 c 0.32596,0 0.33443,0.04657 0.33443,0.198967 v 2.218265 c 0,0.1524 -0.008,0.198966 -0.33443,0.198966 h -0.1016 v 0.131233 c 0.14816,-0.0127 0.47836,-0.0127 0.64346,-0.0127 0.17357,0 0.5588,0 0.7112,0.0127 v -0.131233 h -0.1397 c -0.40216,0 -0.40216,-0.05503 -0.40216,-0.2032 v -1.041399 h 0.36406 c 0.4064,0 0.44874,0.135467 0.44874,0.4953 h 0.10583 V 48.78425 h -0.10583 c 0,0.3556 -0.0423,0.4953 -0.44874,0.4953 h -0.36406 v -1.071032 c 0,-0.1397 0.008,-0.169334 0.20743,-0.169334 h 0.508 c 0.635,0 0.74083,0.237067 0.80857,0.821266 z"
         style="stroke-width:0.264583"
         id="path2972" />
      <path
         d="m 126.65873,48.026484 v -0.131233 c -0.127,0.0085 -0.25823,0.0127 -0.38523,0.0127 l -0.50377,-0.0127 v 0.131233 c 0.28364,0.0042 0.3683,0.143934 0.3683,0.224367 0,0.0254 -0.0127,0.05927 -0.0212,0.08467 l -0.635,1.955799 -0.67734,-2.074332 c -0.004,-0.01693 -0.0127,-0.04233 -0.0127,-0.0635 0,-0.127 0.24554,-0.127 0.3556,-0.127 v -0.131233 c -0.1524,0.0127 -0.44026,0.0127 -0.60113,0.0127 l -0.51647,-0.0127 v 0.131233 c 0.2413,0 0.3302,0 0.381,0.1524 l 0.0931,0.296333 -0.58844,1.816099 -0.68156,-2.082798 c -0.004,-0.0127 -0.008,-0.04233 -0.008,-0.05503 0,-0.127 0.24553,-0.127 0.3556,-0.127 v -0.131233 c -0.1524,0.0127 -0.44027,0.0127 -0.60113,0.0127 l -0.51647,-0.0127 v 0.131233 c 0.3175,0 0.33443,0.02117 0.38523,0.1778 l 0.84667,2.595031 c 0.0127,0.0381 0.0254,0.08043 0.0804,0.08043 0.0593,0 0.0677,-0.02963 0.0847,-0.08467 l 0.6985,-2.150531 0.70273,2.154764 c 0.0127,0.0381 0.0254,0.08043 0.0804,0.08043 0.0593,0 0.0677,-0.02963 0.0847,-0.08467 l 0.80857,-2.484965 c 0.0762,-0.241299 0.25823,-0.283633 0.42333,-0.283633 z"
         style="stroke-width:0.264583"
         id="path2974" />
      <path
         d="m 129.43579,49.80025 c 0,-0.04233 0,-0.07197 -0.055,-0.07197 -0.0466,0 -0.0466,0.0254 -0.0508,0.06773 -0.0339,0.605366 -0.48683,0.952499 -0.94826,0.952499 -0.25823,0 -1.08797,-0.143933 -1.08797,-1.405465 0,-1.265766 0.8255,-1.409699 1.08374,-1.409699 0.46143,0 0.83819,0.385233 0.92286,1.003299 0.008,0.05927 0.008,0.07197 0.0677,0.07197 0.0677,0 0.0677,-0.0127 0.0677,-0.1016 v -1.003299 c 0,-0.07197 0,-0.1016 -0.0466,-0.1016 -0.0169,0 -0.0339,0 -0.0677,0.0508 l -0.21167,0.313266 c -0.15663,-0.1524 -0.37253,-0.364066 -0.77893,-0.364066 -0.79163,0 -1.4732,0.673099 -1.4732,1.536699 0,0.876299 0.6858,1.540932 1.4732,1.540932 0.69003,0 1.1049,-0.588433 1.1049,-1.079499 z"
         style="stroke-width:0.264583"
         id="path2976" />
    </g>
    <g
       aria-label="FG
WC"
       id="text2269"
       style="font-size:4.23333px;line-height:1.25;font-family:'Latin Modern Roman';-inkscape-font-specification:'Latin Modern Roman, ';text-align:center;text-anchor:middle;stroke-width:0.264583">
      <path
         d="m 144.09158,43.285307 -0.11853,-0.9525 h -2.3241 v 0.131234 h 0.1016 c 0.32597,0 0.33443,0.04657 0.33443,0.198966 v 2.218265 c 0,0.1524 -0.008,0.198966 -0.33443,0.198966 h -0.1016 v 0.131234 c 0.14817,-0.0127 0.47837,-0.0127 0.64347,-0.0127 0.17356,0 0.5588,0 0.7112,0.0127 v -0.131234 h -0.1397 c -0.40217,0 -0.40217,-0.05503 -0.40217,-0.203199 v -1.0414 h 0.36407 c 0.4064,0 0.44873,0.135467 0.44873,0.4953 h 0.10583 v -1.121832 h -0.10583 c 0,0.355599 -0.0423,0.495299 -0.44873,0.495299 h -0.36407 v -1.071032 c 0,-0.1397 0.008,-0.169333 0.20743,-0.169333 h 0.508 c 0.635,0 0.74084,0.237066 0.80857,0.821266 z"
         style="stroke-width:0.264583"
         id="path2979" />
      <path
         d="m 147.26657,44.187006 v -0.131233 l -0.51647,0.0127 c -0.16933,0 -0.52916,0 -0.68156,-0.0127 v 0.131233 h 0.13547 c 0.381,0 0.3937,0.04657 0.3937,0.2032 v 0.270933 c 0,0.474133 -0.53764,0.512233 -0.65617,0.512233 -0.27517,0 -1.11337,-0.148167 -1.11337,-1.409699 0,-1.265766 0.83397,-1.405466 1.08797,-1.405466 0.45297,0 0.8382,0.381 0.92286,1.003299 0.008,0.05927 0.008,0.07197 0.0677,0.07197 0.0677,0 0.0677,-0.0127 0.0677,-0.1016 v -1.003299 c 0,-0.07197 0,-0.1016 -0.0466,-0.1016 -0.0169,0 -0.0339,0 -0.0677,0.0508 l -0.21166,0.313266 c -0.13547,-0.135466 -0.36407,-0.364066 -0.78317,-0.364066 -0.7874,0 -1.4732,0.668866 -1.4732,1.536699 0,0.867832 0.67733,1.540932 1.48167,1.540932 0.30903,0 0.6477,-0.110067 0.79163,-0.359833 0.055,0.09313 0.22436,0.262466 0.27093,0.262466 0.0381,0 0.0381,-0.03387 0.0381,-0.09737 v -0.7366 c 0,-0.1651 0.0169,-0.186266 0.2921,-0.186266 z"
         style="stroke-width:0.264583"
         id="path2981" />
      <path
         d="M 145.12028,47.743003 V 47.61177 c -0.127,0.0085 -0.25823,0.0127 -0.38523,0.0127 l -0.50376,-0.0127 v 0.131233 c 0.28363,0.0042 0.36829,0.143933 0.36829,0.224366 0,0.0254 -0.0127,0.05927 -0.0212,0.08467 l -0.635,1.955798 -0.67733,-2.074331 c -0.004,-0.01693 -0.0127,-0.04233 -0.0127,-0.0635 0,-0.127 0.24553,-0.127 0.3556,-0.127 V 47.61177 c -0.1524,0.0127 -0.44027,0.0127 -0.60114,0.0127 l -0.51646,-0.0127 v 0.131233 c 0.2413,0 0.3302,0 0.381,0.1524 l 0.0931,0.296333 -0.58843,1.816098 -0.68157,-2.082798 c -0.004,-0.0127 -0.008,-0.04233 -0.008,-0.05503 0,-0.127 0.24554,-0.127 0.3556,-0.127 V 47.61177 c -0.1524,0.0127 -0.44026,0.0127 -0.60113,0.0127 l -0.51647,-0.0127 v 0.131233 c 0.3175,0 0.33444,0.02117 0.38524,0.1778 l 0.84666,2.595031 c 0.0127,0.0381 0.0254,0.08043 0.0804,0.08043 0.0593,0 0.0677,-0.02963 0.0847,-0.08467 l 0.6985,-2.150531 0.70274,2.154765 c 0.0127,0.0381 0.0254,0.08043 0.0804,0.08043 0.0593,0 0.0677,-0.02963 0.0847,-0.08467 l 0.80856,-2.484964 c 0.0762,-0.2413 0.25823,-0.283633 0.42333,-0.283633 z"
         style="stroke-width:0.264583"
         id="path2983" />
      <path
         d="m 147.89734,49.516768 c 0,-0.04233 0,-0.07197 -0.055,-0.07197 -0.0466,0 -0.0466,0.0254 -0.0508,0.06773 -0.0339,0.605366 -0.48684,0.952499 -0.94827,0.952499 -0.25823,0 -1.08796,-0.143933 -1.08796,-1.405466 0,-1.265765 0.8255,-1.409698 1.08373,-1.409698 0.46143,0 0.8382,0.385233 0.92286,1.003299 0.008,0.05927 0.008,0.07197 0.0677,0.07197 0.0677,0 0.0677,-0.0127 0.0677,-0.1016 v -1.003299 c 0,-0.07197 0,-0.1016 -0.0466,-0.1016 -0.0169,0 -0.0339,0 -0.0677,0.0508 l -0.21167,0.313267 c -0.15663,-0.1524 -0.37253,-0.364067 -0.77893,-0.364067 -0.79163,0 -1.4732,0.6731 -1.4732,1.536699 0,0.876299 0.6858,1.540932 1.4732,1.540932 0.69003,0 1.1049,-0.588433 1.1049,-1.079499 z"
         style="stroke-width:0.264583"
         id="path2985" />
    </g>
    <g
       aria-label="FWGC"
       id="text2275"
       style="font-size:4.23333px;line-height:1.25;font-family:'Latin Modern Roman';-inkscape-font-specification:'Latin Modern Roman, ';text-align:center;text-anchor:middle;fill:#d40000;stroke-width:0.264583">
      <path
         d="m 161.27062,46.403612 -0.11854,-0.952499 h -2.32409 v 0.131233 h 0.1016 c 0.32596,0 0.33443,0.04657 0.33443,0.198966 v 2.218265 c 0,0.1524 -0.008,0.198967 -0.33443,0.198967 h -0.1016 v 0.131233 c 0.14816,-0.0127 0.47836,-0.0127 0.64346,-0.0127 0.17357,0 0.5588,0 0.7112,0.0127 v -0.131233 h -0.1397 c -0.40217,0 -0.40217,-0.05503 -0.40217,-0.2032 v -1.041399 h 0.36407 c 0.4064,0 0.44873,0.135466 0.44873,0.495299 h 0.10584 v -1.121832 h -0.10584 c 0,0.355599 -0.0423,0.495299 -0.44873,0.495299 h -0.36407 v -1.071032 c 0,-0.1397 0.008,-0.169333 0.20744,-0.169333 h 0.508 c 0.635,0 0.74083,0.237066 0.80856,0.821266 z"
         style="fill:#d40000;stroke-width:0.264583"
         id="path2988" />
      <path
         d="m 165.72408,45.569646 v -0.131233 c -0.127,0.0085 -0.25823,0.0127 -0.38523,0.0127 l -0.50377,-0.0127 v 0.131233 c 0.28363,0.0042 0.3683,0.143933 0.3683,0.224366 0,0.0254 -0.0127,0.05927 -0.0212,0.08467 l -0.635,1.955798 -0.67733,-2.074331 c -0.004,-0.01693 -0.0127,-0.04233 -0.0127,-0.0635 0,-0.127 0.24553,-0.127 0.3556,-0.127 v -0.131233 c -0.1524,0.0127 -0.44027,0.0127 -0.60113,0.0127 l -0.51647,-0.0127 v 0.131233 c 0.2413,0 0.3302,0 0.381,0.1524 l 0.0931,0.296333 -0.58843,1.816098 -0.68157,-2.082798 c -0.004,-0.0127 -0.008,-0.04233 -0.008,-0.05503 0,-0.127 0.24553,-0.127 0.3556,-0.127 v -0.131233 c -0.1524,0.0127 -0.44027,0.0127 -0.60113,0.0127 l -0.51647,-0.0127 v 0.131233 c 0.3175,0 0.33443,0.02117 0.38523,0.1778 l 0.84667,2.595031 c 0.0127,0.0381 0.0254,0.08043 0.0804,0.08043 0.0593,0 0.0677,-0.02963 0.0847,-0.08467 l 0.6985,-2.150531 0.70273,2.154765 c 0.0127,0.0381 0.0254,0.08043 0.0804,0.08043 0.0593,0 0.0677,-0.02963 0.0847,-0.08467 l 0.80857,-2.484964 c 0.0762,-0.2413 0.25823,-0.283633 0.42333,-0.283633 z"
         style="fill:#d40000;stroke-width:0.264583"
         id="path2990" />
      <path
         d="m 168.79747,47.305311 v -0.131233 l -0.51647,0.0127 c -0.16933,0 -0.52916,0 -0.68156,-0.0127 v 0.131233 h 0.13546 c 0.381,0 0.3937,0.04657 0.3937,0.2032 v 0.270933 c 0,0.474133 -0.53763,0.512233 -0.65616,0.512233 -0.27517,0 -1.11337,-0.148167 -1.11337,-1.409699 0,-1.265766 0.83397,-1.405466 1.08797,-1.405466 0.45296,0 0.8382,0.381 0.92286,1.0033 0.008,0.05927 0.008,0.07197 0.0677,0.07197 0.0677,0 0.0677,-0.0127 0.0677,-0.1016 v -1.003299 c 0,-0.07197 0,-0.1016 -0.0466,-0.1016 -0.0169,0 -0.0339,0 -0.0677,0.0508 l -0.21167,0.313267 c -0.13546,-0.135467 -0.36406,-0.364067 -0.78316,-0.364067 -0.7874,0 -1.4732,0.668866 -1.4732,1.536699 0,0.867833 0.67733,1.540932 1.48166,1.540932 0.30904,0 0.6477,-0.110067 0.79164,-0.359833 0.055,0.09313 0.22436,0.262466 0.27093,0.262466 0.0381,0 0.0381,-0.03387 0.0381,-0.09737 v -0.7366 c 0,-0.165099 0.0169,-0.186266 0.2921,-0.186266 z"
         style="fill:#d40000;stroke-width:0.264583"
         id="path2992" />
      <path
         d="m 171.8243,47.343411 c 0,-0.04233 0,-0.07197 -0.055,-0.07197 -0.0466,0 -0.0466,0.0254 -0.0508,0.06773 -0.0339,0.605366 -0.48683,0.952499 -0.94826,0.952499 -0.25823,0 -1.08797,-0.143933 -1.08797,-1.405466 0,-1.265765 0.8255,-1.409699 1.08374,-1.409699 0.46143,0 0.83819,0.385234 0.92286,1.0033 0.008,0.05927 0.008,0.07197 0.0677,0.07197 0.0677,0 0.0677,-0.0127 0.0677,-0.1016 v -1.003299 c 0,-0.07197 0,-0.1016 -0.0466,-0.1016 -0.0169,0 -0.0339,0 -0.0677,0.0508 l -0.21167,0.313267 c -0.15663,-0.1524 -0.37253,-0.364067 -0.77893,-0.364067 -0.79163,0 -1.4732,0.6731 -1.4732,1.536699 0,0.876299 0.6858,1.540932 1.4732,1.540932 0.69003,0 1.1049,-0.588433 1.1049,-1.079499 z"
         style="fill:#d40000;stroke-width:0.264583"
         id="path2994" />
    </g>
    <g
       aria-label="Blue: Start"
       id="text2279"
       style="font-size:4.23333px;line-height:1.25;font-family:'Latin Modern Roman';-inkscape-font-specification:'Latin Modern Roman, ';text-align:start;text-anchor:start;fill:#0044aa;stroke-width:0.264583">
      <path
         d="m 13.353413,21.096742 c 0,-0.3683 -0.347133,-0.6858 -0.817033,-0.7366 0.410633,-0.08043 0.702733,-0.351366 0.702733,-0.664633 0,-0.368299 -0.389466,-0.715432 -0.939799,-0.715432 h -1.549399 v 0.131233 h 0.1016 c 0.325966,0 0.334433,0.04657 0.334433,0.198966 v 2.230965 c 0,0.1524 -0.0085,0.198967 -0.334433,0.198967 h -0.1016 v 0.131233 h 1.659465 c 0.563033,0 0.944033,-0.376766 0.944033,-0.774699 z M 12.82848,19.695509 c 0,0.270933 -0.207433,0.626533 -0.677333,0.626533 h -0.613833 v -1.041399 c 0,-0.1397 0.0085,-0.169333 0.207433,-0.169333 h 0.524933 c 0.410633,0 0.5588,0.359833 0.5588,0.584199 z m 0.1016,1.396999 c 0,0.300567 -0.220133,0.6477 -0.656166,0.6477 h -0.529167 c -0.198966,0 -0.207433,-0.02963 -0.207433,-0.169334 v -1.155699 h 0.795866 c 0.4191,0 0.5969,0.3937 0.5969,0.677333 z"
         style="text-align:start;text-anchor:start;fill:#0044aa;stroke-width:0.264583"
         id="path2889" />
      <path
         d="m 14.674204,21.871441 v -0.131233 c -0.283633,0 -0.330199,0 -0.330199,-0.1905 V 18.93351 l -0.6096,0.04657 v 0.131233 c 0.296333,0 0.3302,0.02963 0.3302,0.237066 v 2.201332 c 0,0.1905 -0.04657,0.1905 -0.3302,0.1905 v 0.131233 l 0.4699,-0.0127 z"
         style="text-align:start;text-anchor:start;fill:#0044aa;stroke-width:0.264583"
         id="path2891" />
      <path
         d="m 17.036402,21.871441 v -0.131233 c -0.296333,0 -0.3302,-0.02963 -0.3302,-0.237067 v -1.502832 l -0.6223,0.04657 v 0.131233 c 0.296334,0 0.3302,0.02963 0.3302,0.237066 v 0.753533 c 0,0.3683 -0.2032,0.656166 -0.512233,0.656166 -0.355599,0 -0.372533,-0.198966 -0.372533,-0.419099 v -1.405466 l -0.622299,0.04657 v 0.131233 c 0.330199,0 0.330199,0.0127 0.330199,0.389466 v 0.635 c 0,0.3302 0,0.715433 0.643467,0.715433 0.237066,0 0.423333,-0.118534 0.546099,-0.381 v 0.381 z"
         style="text-align:start;text-anchor:start;fill:#0044aa;stroke-width:0.264583"
         id="path2893" />
      <path
         d="m 18.882132,21.367675 c 0,-0.04233 -0.03387,-0.0508 -0.05503,-0.0508 -0.0381,0 -0.04657,0.0254 -0.05503,0.05927 -0.148167,0.436033 -0.529167,0.436033 -0.5715,0.436033 -0.211666,0 -0.381,-0.127 -0.478366,-0.283633 -0.127,-0.2032 -0.127,-0.482599 -0.127,-0.634999 h 1.181099 c 0.09313,0 0.105833,0 0.105833,-0.0889 0,-0.4191 -0.2286,-0.829733 -0.757766,-0.829733 -0.491066,0 -0.880532,0.436033 -0.880532,0.965199 0,0.567267 0.444499,0.9779 0.931332,0.9779 0.516466,0 0.706966,-0.4699 0.706966,-0.550333 z m -0.2794,-0.563033 h -1.003299 c 0.0254,-0.630766 0.381,-0.7366 0.524933,-0.7366 0.436033,0 0.478366,0.5715 0.478366,0.7366 z"
         style="text-align:start;text-anchor:start;fill:#0044aa;stroke-width:0.264583"
         id="path2895" />
      <path
         d="m 19.817692,20.271242 c 0,-0.122766 -0.1016,-0.224366 -0.224367,-0.224366 -0.122766,0 -0.224366,0.1016 -0.224366,0.224366 0,0.122767 0.1016,0.224367 0.224366,0.224367 0.122767,0 0.224367,-0.1016 0.224367,-0.224367 z m 0,1.375832 c 0,-0.122766 -0.1016,-0.224366 -0.224367,-0.224366 -0.122766,0 -0.224366,0.1016 -0.224366,0.224366 0,0.122767 0.1016,0.224367 0.224366,0.224367 0.122767,0 0.224367,-0.1016 0.224367,-0.224367 z"
         style="text-align:start;text-anchor:start;fill:#0044aa;stroke-width:0.264583"
         id="path2897" />
      <path
         d="m 23.70388,21.084042 c 0,-0.423333 -0.279399,-0.770466 -0.634999,-0.855133 l -0.541866,-0.131233 c -0.262467,-0.0635 -0.427567,-0.2921 -0.427567,-0.537633 0,-0.296333 0.2286,-0.554566 0.5588,-0.554566 0.706966,0 0.800099,0.694266 0.825499,0.884766 0.0042,0.0254 0.0042,0.0508 0.0508,0.0508 0.05503,0 0.05503,-0.02117 0.05503,-0.1016 v -0.8509 c 0,-0.07197 0,-0.1016 -0.04657,-0.1016 -0.02963,0 -0.03387,0.0042 -0.0635,0.05503 l -0.148167,0.241299 c -0.127,-0.122766 -0.300566,-0.296333 -0.677332,-0.296333 -0.4699,0 -0.8255,0.372533 -0.8255,0.821266 0,0.351367 0.224367,0.6604 0.554566,0.7747 0.04657,0.01693 0.262467,0.06773 0.5588,0.1397 0.1143,0.02963 0.2413,0.05927 0.359833,0.215899 0.0889,0.110067 0.131233,0.249767 0.131233,0.389467 0,0.300566 -0.211666,0.605366 -0.567266,0.605366 -0.122767,0 -0.4445,-0.02117 -0.668866,-0.2286 -0.245533,-0.2286 -0.258233,-0.499533 -0.262467,-0.651933 -0.0042,-0.04233 -0.0381,-0.04233 -0.0508,-0.04233 -0.05503,0 -0.05503,0.02963 -0.05503,0.105833 v 0.846666 c 0,0.07197 0,0.1016 0.04657,0.1016 0.02963,0 0.03387,-0.0085 0.0635,-0.05503 0,0 0.0127,-0.01693 0.1524,-0.2413 0.131233,0.143933 0.402166,0.296333 0.778932,0.296333 0.4953,0 0.833966,-0.414866 0.833966,-0.880532 z"
         style="text-align:start;text-anchor:start;fill:#0044aa;stroke-width:0.264583"
         id="path2899" />
      <path
         d="m 25.350644,21.346508 v -0.2413 h -0.105833 v 0.232833 c 0,0.313267 -0.127,0.474133 -0.283633,0.474133 -0.283633,0 -0.283633,-0.385233 -0.283633,-0.457199 v -1.176866 h 0.605366 v -0.131233 h -0.605366 v -0.778933 h -0.105833 c -0.0042,0.347133 -0.131233,0.800099 -0.5461,0.817033 v 0.09313 h 0.359833 v 1.168399 c 0,0.5207 0.3937,0.5715 0.5461,0.5715 0.300566,0 0.419099,-0.300567 0.419099,-0.5715 z"
         style="text-align:start;text-anchor:start;fill:#0044aa;stroke-width:0.264583"
         id="path2901" />
      <path
         d="m 27.636642,21.494675 v -0.237067 h -0.105833 v 0.237067 c 0,0.245533 -0.105833,0.270933 -0.1524,0.270933 -0.1397,0 -0.156633,-0.1905 -0.156633,-0.211667 v -0.846666 c 0,-0.1778 0,-0.3429 -0.1524,-0.499533 -0.1651,-0.1651 -0.376767,-0.232833 -0.579966,-0.232833 -0.347133,0 -0.639233,0.198967 -0.639233,0.478366 0,0.127 0.08467,0.198967 0.194733,0.198967 0.118533,0 0.194733,-0.08467 0.194733,-0.194733 0,-0.0508 -0.02117,-0.1905 -0.2159,-0.194733 0.1143,-0.148167 0.321733,-0.194734 0.4572,-0.194734 0.207433,0 0.448733,0.1651 0.448733,0.541867 v 0.156633 c -0.2159,0.0127 -0.512233,0.0254 -0.778933,0.1524 -0.317499,0.143933 -0.423333,0.364066 -0.423333,0.550333 0,0.342899 0.410633,0.448733 0.677333,0.448733 0.2794,0 0.474133,-0.169334 0.554566,-0.3683 0.01693,0.169333 0.131233,0.347133 0.3302,0.347133 0.0889,0 0.347133,-0.05927 0.347133,-0.402166 z m -0.706966,-0.2159 c 0,0.402166 -0.3048,0.546099 -0.4953,0.546099 -0.207433,0 -0.380999,-0.148166 -0.380999,-0.359833 0,-0.232833 0.1778,-0.584199 0.876299,-0.609599 z"
         style="text-align:start;text-anchor:start;fill:#0044aa;stroke-width:0.264583"
         id="path2903" />
      <path
         d="m 29.249533,20.258542 c 0,-0.135466 -0.131233,-0.258233 -0.313266,-0.258233 -0.309033,0 -0.461433,0.283633 -0.5207,0.465666 v -0.465666 l -0.588433,0.04657 v 0.131233 c 0.296333,0 0.3302,0.02963 0.3302,0.237066 v 1.134533 c 0,0.1905 -0.04657,0.1905 -0.3302,0.1905 v 0.131233 l 0.4826,-0.0127 c 0.169333,0 0.3683,0 0.537633,0.0127 v -0.131233 h -0.0889 c -0.313267,0 -0.321733,-0.04657 -0.321733,-0.198967 v -0.651933 c 0,-0.419099 0.1778,-0.795866 0.499533,-0.795866 0.02963,0 0.0381,0 0.04657,0.0042 -0.0127,0.0042 -0.09737,0.05503 -0.09737,0.1651 0,0.118533 0.0889,0.182033 0.182033,0.182033 0.0762,0 0.182033,-0.0508 0.182033,-0.186267 z"
         style="text-align:start;text-anchor:start;fill:#0044aa;stroke-width:0.264583"
         id="path2905" />
      <path
         d="m 30.773525,21.346508 v -0.2413 h -0.105834 v 0.232833 c 0,0.313267 -0.126999,0.474133 -0.283633,0.474133 -0.283633,0 -0.283633,-0.385233 -0.283633,-0.457199 v -1.176866 h 0.605366 v -0.131233 h -0.605366 v -0.778933 h -0.105833 c -0.0042,0.347133 -0.131233,0.800099 -0.5461,0.817033 v 0.09313 h 0.359833 v 1.168399 c 0,0.5207 0.3937,0.5715 0.5461,0.5715 0.300566,0 0.4191,-0.300567 0.4191,-0.5715 z"
         style="text-align:start;text-anchor:start;fill:#0044aa;stroke-width:0.264583"
         id="path2907" />
    </g>
    <g
       aria-label="Red: End"
       id="text2283"
       style="font-size:4.23333px;line-height:1.25;font-family:'Latin Modern Roman';-inkscape-font-specification:'Latin Modern Roman, ';fill:#d40000;stroke-width:0.264583">
      <path
         d="m 13.694487,26.223609 c 0,-0.0254 0,-0.07197 -0.05503,-0.07197 -0.04657,0 -0.04657,0.0381 -0.0508,0.06773 -0.0254,0.300567 -0.173567,0.376767 -0.2794,0.376767 -0.207433,0 -0.2413,-0.2159 -0.300566,-0.6096 l -0.05503,-0.338666 c -0.0762,-0.270933 -0.283633,-0.410633 -0.516466,-0.491066 0.410633,-0.1016 0.740833,-0.359833 0.740833,-0.690033 0,-0.4064 -0.4826,-0.761999 -1.104899,-0.761999 h -1.329266 v 0.131233 h 0.1016 c 0.325967,0 0.334433,0.04657 0.334433,0.198966 v 2.230965 c 0,0.1524 -0.0085,0.198967 -0.334433,0.198967 h -0.1016 v 0.131233 c 0.1524,-0.0127 0.452967,-0.0127 0.618066,-0.0127 0.1651,0 0.465667,0 0.618067,0.0127 v -0.131233 h -0.1016 c -0.325967,0 -0.334433,-0.04657 -0.334433,-0.198967 V 25.19491 h 0.486833 c 0.06773,0 0.245533,0 0.393699,0.143933 0.160867,0.1524 0.160867,0.283633 0.160867,0.567266 0,0.275166 0,0.4445 0.173566,0.605366 0.173567,0.1524 0.4064,0.1778 0.5334,0.1778 0.3302,0 0.402166,-0.347133 0.402166,-0.465666 z m -0.952499,-1.756832 c 0,0.2921 -0.1016,0.634999 -0.728133,0.634999 h -0.469899 v -1.096432 c 0,-0.09737 0,-0.148167 0.09313,-0.160867 0.04233,-0.0085 0.1651,-0.0085 0.249766,-0.0085 0.381,0 0.855133,0.01693 0.855133,0.630766 z"
         style="fill:#d40000;stroke-width:0.264583"
         id="path2910" />
      <path
         d="m 15.468245,26.092376 c 0,-0.04233 -0.03387,-0.0508 -0.05503,-0.0508 -0.0381,0 -0.04657,0.0254 -0.05503,0.05927 -0.148167,0.436033 -0.529166,0.436033 -0.5715,0.436033 -0.211666,0 -0.380999,-0.127 -0.478366,-0.283633 -0.127,-0.2032 -0.127,-0.482599 -0.127,-0.634999 h 1.181099 c 0.09313,0 0.105834,0 0.105834,-0.0889 0,-0.4191 -0.2286,-0.829733 -0.757767,-0.829733 -0.491066,0 -0.880532,0.436033 -0.880532,0.965199 0,0.567266 0.4445,0.977899 0.931332,0.977899 0.516467,0 0.706967,-0.469899 0.706967,-0.550332 z m -0.2794,-0.563033 h -1.003299 c 0.0254,-0.630766 0.380999,-0.7366 0.524932,-0.7366 0.436033,0 0.478367,0.5715 0.478367,0.7366 z"
         style="fill:#d40000;stroke-width:0.264583"
         id="path2912" />
      <path
         d="m 17.821969,26.596142 v -0.131233 c -0.296333,0 -0.3302,-0.02963 -0.3302,-0.237067 v -2.569631 l -0.6096,0.04657 v 0.131233 c 0.296334,0 0.3302,0.02963 0.3302,0.237066 v 0.9144 c -0.122766,-0.1524 -0.3048,-0.262467 -0.533399,-0.262467 -0.499533,0 -0.944033,0.414866 -0.944033,0.960966 0,0.537633 0.414866,0.956732 0.897466,0.956732 0.270933,0 0.461433,-0.143933 0.567266,-0.279399 v 0.279399 z m -0.6223,-0.499533 c 0,0.0762 0,0.08467 -0.04657,0.156633 -0.127,0.2032 -0.3175,0.296333 -0.499533,0.296333 -0.1905,0 -0.3429,-0.110066 -0.4445,-0.270933 -0.110067,-0.173566 -0.122767,-0.414866 -0.122767,-0.588433 0,-0.156633 0.0085,-0.410633 0.131234,-0.601133 0.0889,-0.131233 0.249766,-0.270933 0.478366,-0.270933 0.148167,0 0.325966,0.0635 0.4572,0.254 0.04657,0.07197 0.04657,0.08043 0.04657,0.156633 z"
         style="fill:#d40000;stroke-width:0.264583"
         id="path2914" />
      <path
         d="m 18.757533,24.995943 c 0,-0.122766 -0.1016,-0.224366 -0.224366,-0.224366 -0.122767,0 -0.224367,0.1016 -0.224367,0.224366 0,0.122767 0.1016,0.224367 0.224367,0.224367 0.122766,0 0.224366,-0.1016 0.224366,-0.224367 z m 0,1.375832 c 0,-0.122766 -0.1016,-0.224366 -0.224366,-0.224366 -0.122767,0 -0.224367,0.1016 -0.224367,0.224366 0,0.122767 0.1016,0.224367 0.224367,0.224367 0.122766,0 0.224366,-0.1016 0.224366,-0.224367 z"
         style="fill:#d40000;stroke-width:0.264583"
         id="path2916" />
      <path
         d="m 23.291422,25.503943 h -0.105833 c -0.105833,0.651933 -0.2032,0.960966 -0.931333,0.960966 h -0.563033 c -0.198966,0 -0.207433,-0.02963 -0.207433,-0.169334 v -1.130299 h 0.381 c 0.410633,0 0.4572,0.135467 0.4572,0.4953 h 0.105833 V 24.538744 H 22.32199 c 0,0.364066 -0.04657,0.495299 -0.4572,0.495299 h -0.381 v -1.015999 c 0,-0.1397 0.0085,-0.169333 0.207433,-0.169333 h 0.5461 c 0.647699,0 0.761999,0.232833 0.829733,0.821266 h 0.105833 l -0.118533,-0.952499 h -2.383365 v 0.131233 h 0.1016 c 0.325966,0 0.334433,0.04657 0.334433,0.198966 v 2.218265 c 0,0.1524 -0.0085,0.198967 -0.334433,0.198967 h -0.1016 v 0.131233 h 2.442631 z"
         style="fill:#d40000;stroke-width:0.264583"
         id="path2918" />
      <path
         d="m 25.679019,26.596142 v -0.131233 c -0.220133,0 -0.325967,0 -0.3302,-0.127 v -0.808566 c 0,-0.364067 0,-0.4953 -0.131233,-0.6477 -0.05927,-0.07197 -0.198967,-0.156633 -0.4445,-0.156633 -0.309033,0 -0.507999,0.182033 -0.626533,0.4445 v -0.4445 l -0.596899,0.04657 v 0.131233 c 0.296333,0 0.3302,0.02963 0.3302,0.237066 v 1.134533 c 0,0.1905 -0.04657,0.1905 -0.3302,0.1905 v 0.131233 l 0.478366,-0.0127 0.474133,0.0127 v -0.131233 c -0.283633,0 -0.3302,0 -0.3302,-0.1905 v -0.778933 c 0,-0.440266 0.300567,-0.677333 0.5715,-0.677333 0.2667,0 0.313266,0.2286 0.313266,0.4699 v 0.986366 c 0,0.1905 -0.04657,0.1905 -0.330199,0.1905 v 0.131233 l 0.478366,-0.0127 z"
         style="fill:#d40000;stroke-width:0.264583"
         id="path2920" />
      <path
         d="m 27.998882,26.596142 v -0.131233 c -0.296333,0 -0.330199,-0.02963 -0.330199,-0.237067 v -2.569631 l -0.6096,0.04657 v 0.131233 c 0.296333,0 0.3302,0.02963 0.3302,0.237066 v 0.9144 c -0.122767,-0.1524 -0.3048,-0.262467 -0.5334,-0.262467 -0.499533,0 -0.944032,0.414866 -0.944032,0.960966 0,0.537633 0.414866,0.956732 0.897466,0.956732 0.270933,0 0.461433,-0.143933 0.567266,-0.279399 v 0.279399 z m -0.622299,-0.499533 c 0,0.0762 0,0.08467 -0.04657,0.156633 -0.127,0.2032 -0.317499,0.296333 -0.499533,0.296333 -0.190499,0 -0.342899,-0.110066 -0.444499,-0.270933 -0.110067,-0.173566 -0.122767,-0.414866 -0.122767,-0.588433 0,-0.156633 0.0085,-0.410633 0.131233,-0.601133 0.0889,-0.131233 0.249767,-0.270933 0.478367,-0.270933 0.148166,0 0.325966,0.0635 0.457199,0.254 0.04657,0.07197 0.04657,0.08043 0.04657,0.156633 z"
         style="fill:#d40000;stroke-width:0.264583"
         id="path2922" />
    </g>
    <path
       style="fill:none;stroke:#000000;stroke-width:0.264583px;stroke-linecap:butt;stroke-linejoin:miter;stroke-opacity:1"
       d="m 37.631357,48.355879 h 8.15172"
       id="path2285" />
    <path
       style="fill:none;stroke:#000000;stroke-width:0.264583px;stroke-linecap:butt;stroke-linejoin:miter;stroke-opacity:1"
       d="m 55.805685,48.088612 h 11.69304"
       id="path2287" />
    <path
       style="fill:none;stroke:#000000;stroke-width:0.264583px;stroke-linecap:butt;stroke-linejoin:miter;stroke-opacity:1"
       d="M 77.588149,58.979844 H 88.345748"
       id="path2289" />
    <path
       style="fill:none;stroke:#000000;stroke-width:0.264583px;stroke-linecap:butt;stroke-linejoin:miter;stroke-opacity:1"
       d="m 78.523594,19.156684 h 11.49259"
       id="path2291" />
    <path
       style="fill:none;stroke:#000000;stroke-width:0.264583px;stroke-linecap:butt;stroke-linejoin:miter;stroke-opacity:1"
       d="M 101.77604,18.956232 H 111.9991"
       id="path2293" />
    <path
       style="fill:none;stroke:#000000;stroke-width:0.264583px;stroke-linecap:butt;stroke-linejoin:miter;stroke-opacity:1"
       d="m 100.8406,58.712575 h 11.29214"
       id="path2295" />
    <path
       style="fill:none;stroke:#000000;stroke-width:0.264583px;stroke-linecap:butt;stroke-linejoin:miter;stroke-opacity:1"
       d="m 118.94811,46.618627 h 11.29214"
       id="path2297" />
    <path
       style="fill:none;stroke:#000000;stroke-width:0.264583px;stroke-linecap:butt;stroke-linejoin:miter;stroke-opacity:1"
       d="m 139.79513,46.551809 h 9.15398"
       id="path2299" />
    <path
       style="fill:none;stroke:#d40000;stroke-width:0.264583px;stroke-linecap:butt;stroke-linejoin:miter;stroke-opacity:1"
       d="M 158.23673,43.879116 H 172.3352"
       id="path2301" />
    <path
       style="fill:none;stroke:#0044aa;stroke-width:0.264583px;stroke-linecap:butt;stroke-linejoin:miter;stroke-opacity:1"
       d="M 10.637134,48.890419 H 24.735602"
       id="path2303" />
    <path
       style="fill:none;stroke:#000000;stroke-width:0.565;stroke-linecap:butt;stroke-linejoin:miter;stroke-miterlimit:4;stroke-dasharray:none;stroke-opacity:1;marker-end:url(#marker1636)"
       d="M 19.667118,40.486768 40.928277,40.297782"
       id="path2305" />
    <path
       style="fill:none;stroke:#000000;stroke-width:0.565;stroke-linecap:butt;stroke-linejoin:miter;stroke-miterlimit:4;stroke-dasharray:none;stroke-opacity:1;marker-end:url(#marker2317)"
       d="m 43.668606,40.297782 18.993302,0.188986"
       id="path2313" />
    <path
       style="fill:none;stroke:#000000;stroke-width:0.565;stroke-linecap:butt;stroke-linejoin:miter;stroke-miterlimit:4;stroke-dasharray:none;stroke-opacity:1;marker-end:url(#marker2371)"
       d="M 65.496731,39.541828 82.600151,27.824567"
       id="path2367" />
    <path
       style="fill:none;stroke:#000000;stroke-width:0.565;stroke-linecap:butt;stroke-linejoin:miter;stroke-miterlimit:4;stroke-dasharray:none;stroke-opacity:1;marker-end:url(#marker2413)"
       d="m 65.402235,41.526202 15.875,8.504465"
       id="path2409" />
    <path
       style="fill:none;stroke:#000000;stroke-width:0.565;stroke-linecap:butt;stroke-linejoin:miter;stroke-miterlimit:4;stroke-dasharray:none;stroke-opacity:1;marker-end:url(#marker2461)"
       d="m 84.39554,51.070102 20.12723,-0.09449"
       id="path2457" />
    <path
       style="fill:none;stroke:#000000;stroke-width:0.565;stroke-linecap:butt;stroke-linejoin:miter;stroke-miterlimit:4;stroke-dasharray:none;stroke-opacity:1;marker-end:url(#marker2515)"
       d="M 85.718457,26.690638 104.80625,26.407156"
       id="path2511" />
    <path
       style="fill:none;stroke:#000000;stroke-width:0.565;stroke-linecap:butt;stroke-linejoin:miter;stroke-miterlimit:4;stroke-dasharray:none;stroke-opacity:1;marker-end:url(#marker2575)"
       d="m 107.73557,27.163108 14.93006,11.150299"
       id="path2571" />
    <path
       style="fill:none;stroke:#000000;stroke-width:0.565;stroke-linecap:butt;stroke-linejoin:miter;stroke-miterlimit:4;stroke-dasharray:none;stroke-opacity:1;marker-end:url(#marker2641)"
       d="M 107.54658,50.503137 122.76012,40.297782"
       id="path2637" />
    <path
       style="fill:none;stroke:#000000;stroke-width:0.565;stroke-linecap:butt;stroke-linejoin:miter;stroke-miterlimit:4;stroke-dasharray:none;stroke-opacity:1;marker-end:url(#marker2713)"
       d="m 125.40596,39.258345 h 17.29241"
       id="path2709" />
    <path
       style="fill:none;stroke:#000000;stroke-width:0.565;stroke-linecap:butt;stroke-linejoin:miter;stroke-miterlimit:4;stroke-dasharray:none;stroke-opacity:1;marker-end:url(#marker2791)"
       d="m 145.91116,39.069358 17.76489,-0.09449"
       id="path2787" />
  </g>
</svg>
