<?xml version="1.0" encoding="UTF-8" standalone="no"?>
<svg
   xmlns:dc="http://purl.org/dc/elements/1.1/"
   xmlns:cc="http://creativecommons.org/ns#"
   xmlns:rdf="http://www.w3.org/1999/02/22-rdf-syntax-ns#"
   xmlns:svg="http://www.w3.org/2000/svg"
   xmlns="http://www.w3.org/2000/svg"
   xmlns:sodipodi="http://sodipodi.sourceforge.net/DTD/sodipodi-0.dtd"
   xmlns:inkscape="http://www.inkscape.org/namespaces/inkscape"
   width="674.43597"
   height="271.69958"
   viewBox="0 0 178.44452 71.887182"
   version="1.1"
   id="svg8"
   inkscape:version="1.0.1 (3bc2e813f5, 2020-09-07)"
   sodipodi:docname="graphvocab.svg">
  <defs
     id="defs2">
    <marker
       style="overflow:visible"
       id="marker1222"
       refX="0"
       refY="0"
       orient="auto"
       inkscape:stockid="Arrow1Mend"
       inkscape:isstock="true">
      <path
         transform="matrix(-0.4,0,0,-0.4,-4,0)"
         style="fill:#000000;fill-opacity:1;fill-rule:evenodd;stroke:#000000;stroke-width:1pt;stroke-opacity:1"
         d="M 0,0 5,-5 -12.5,0 5,5 Z"
         id="path1220" />
    </marker>
    <marker
       style="overflow:visible"
       id="Arrow1Mend"
       refX="0"
       refY="0"
       orient="auto"
       inkscape:stockid="Arrow1Mend"
       inkscape:isstock="true"
       inkscape:collect="always">
      <path
         transform="matrix(-0.4,0,0,-0.4,-4,0)"
         style="fill:#000000;fill-opacity:1;fill-rule:evenodd;stroke:#000000;stroke-width:1pt;stroke-opacity:1"
         d="M 0,0 5,-5 -12.5,0 5,5 Z"
         id="path846" />
    </marker>
  </defs>
  <sodipodi:namedview
     id="base"
     pagecolor="#ffffff"
     bordercolor="#666666"
     borderopacity="1.0"
     inkscape:pageopacity="0.0"
     inkscape:pageshadow="2"
     inkscape:zoom="1.4142136"
     inkscape:cx="293.44709"
     inkscape:cy="161.25915"
     inkscape:document-units="mm"
     inkscape:current-layer="text1258"
     inkscape:document-rotation="0"
     showgrid="false"
     units="px"
     width="852px"
     fit-margin-top="15"
     lock-margins="true"
     fit-margin-left="15"
     fit-margin-right="15"
     fit-margin-bottom="15"
     inkscape:window-width="1920"
     inkscape:window-height="1137"
     inkscape:window-x="1432"
     inkscape:window-y="-8"
     inkscape:window-maximized="1" />
  <metadata
     id="metadata5">
    <rdf:RDF>
      <cc:Work
         rdf:about="">
        <dc:format>image/svg+xml</dc:format>
        <dc:type
           rdf:resource="http://purl.org/dc/dcmitype/StillImage" />
        <dc:title></dc:title>
      </cc:Work>
    </rdf:RDF>
  </metadata>
  <g
     inkscape:label="Layer 1"
     inkscape:groupmode="layer"
     id="layer1"
     transform="translate(-21.24253,-15.230076)">
    <circle
       style="fill:#000000;stroke:#000000;stroke-width:0.0751275;stroke-linecap:square;stroke-miterlimit:4;stroke-dasharray:none;stroke-dashoffset:0;stroke-opacity:1;stop-color:#000000"
       id="path833"
       cx="41.503368"
       cy="22.77618"
       r="1.7412902" />
    <path
       style="fill:none;stroke:#000000;stroke-width:0.565;stroke-linecap:butt;stroke-linejoin:miter;stroke-miterlimit:4;stroke-dasharray:none;stroke-opacity:1"
       d="m 40.036985,22.896051 c 0,0 -14.145616,12.066747 -14.523592,23.972997 -0.377977,11.90625 4.724701,18.331844 14.363096,18.331844 9.638392,0 13.381793,-9.739602 12.746045,-21.036965 -0.55307,-9.828174 -9.638392,-20.78869 -9.638392,-20.78869"
       id="path835"
       sodipodi:nodetypes="csssc" />
    <circle
       style="fill:#000000;stroke:#000000;stroke-width:0.0751274;stroke-linecap:square;stroke-miterlimit:4;stroke-dasharray:none;stroke-dashoffset:0;stroke-opacity:1;stop-color:#000000"
       id="path833-6"
       cx="108.47917"
       cy="21.544645"
       r="1.7412902" />
    <circle
       style="fill:#000000;stroke:#000000;stroke-width:0.0751274;stroke-linecap:square;stroke-miterlimit:4;stroke-dasharray:none;stroke-dashoffset:0;stroke-opacity:1;stop-color:#000000"
       id="path833-5"
       cx="108.10119"
       cy="65.011909"
       r="1.7412902" />
    <circle
       style="fill:#000000;stroke:#000000;stroke-width:0.0751274;stroke-linecap:square;stroke-miterlimit:4;stroke-dasharray:none;stroke-dashoffset:0;stroke-opacity:1;stop-color:#000000"
       id="path833-0"
       cx="176.1369"
       cy="20.97768"
       r="1.7412902" />
    <circle
       style="fill:#000000;stroke:#000000;stroke-width:0.0751274;stroke-linecap:square;stroke-miterlimit:4;stroke-dasharray:none;stroke-dashoffset:0;stroke-opacity:1;stop-color:#000000"
       id="path833-3"
       cx="175.75894"
       cy="64.066963"
       r="1.7412902" />
    <path
       style="fill:none;stroke:#000000;stroke-width:0.565;stroke-linecap:butt;stroke-linejoin:miter;stroke-miterlimit:4;stroke-dasharray:none;stroke-opacity:1"
       d="m 106.89292,65.048264 c 0,0 12.10625,-8.355418 12.73655,-18.935168 0.63083,-10.588655 -6.42727,-21.85113 -9.46447,-24.471177"
       id="path1200"
       sodipodi:nodetypes="csc" />
    <path
       style="fill:none;stroke:#000000;stroke-width:0.565;stroke-linecap:butt;stroke-linejoin:miter;stroke-miterlimit:4;stroke-dasharray:none;stroke-opacity:1"
       d="m 106.89292,65.048264 c 0,0 -7.296195,-8.351835 -7.296195,-20.447074 0,-12.095239 7.895575,-22.825636 7.895575,-22.825636"
       id="path1202"
       sodipodi:nodetypes="csc" />
    <path
       style="fill:none;stroke:#000000;stroke-width:0.565;stroke-linecap:butt;stroke-linejoin:miter;stroke-miterlimit:4;stroke-dasharray:none;stroke-opacity:1;marker-end:url(#Arrow1Mend)"
       d="m 174.9279,64.679226 c 0,0 -8.68626,-6.68174 -8.41899,-18.976136 0.26727,-12.294399 8.01809,-23.653354 8.01809,-23.653354"
       id="path1210" />
    <path
       style="fill:none;stroke:#000000;stroke-width:0.565;stroke-linecap:butt;stroke-linejoin:miter;stroke-miterlimit:4;stroke-dasharray:none;stroke-opacity:1;marker-end:url(#marker1222)"
       d="m 177.33333,21.648831 c 0,0 6.94901,7.884452 6.68174,18.842502 -0.26727,10.958052 -6.94901,22.317006 -6.94901,22.317006"
       id="path1218" />
    <g
       aria-label="Loop"
       id="text1250"
       style="font-size:7.76111px;line-height:1.25;font-family:'Latin Modern Math';-inkscape-font-specification:'Latin Modern Math';stroke-width:0.264583">
      <path
         d="m 33.432144,79.640486 h -0.194028 c -0.08537,0.791634 -0.194027,1.761772 -1.559983,1.761772 h -0.636411 c -0.364772,0 -0.380294,-0.05433 -0.380294,-0.310444 v -4.136672 c 0,-0.263877 0,-0.372533 0.737305,-0.372533 h 0.256117 v -0.240594 c -0.2794,0.02328 -0.985661,0.02328 -1.303866,0.02328 -0.302684,0 -0.90805,0 -1.179689,-0.02328 v 0.240594 h 0.186267 c 0.597605,0 0.613127,0.08537 0.613127,0.364772 v 4.090105 c 0,0.2794 -0.01552,0.364772 -0.613127,0.364772 h -0.186267 v 0.240595 h 4.043538 z"
         style="font-size:7.76111px;stroke-width:0.264583"
         id="path1300" />
      <path
         d="m 37.42134,79.981975 c 0,-0.993422 -0.776111,-1.816099 -1.715205,-1.816099 -0.970139,0 -1.722967,0.845961 -1.722967,1.816099 0,1.001183 0.807156,1.74625 1.715206,1.74625 0.939094,0 1.722966,-0.760589 1.722966,-1.74625 z m -0.644172,-0.06209 c 0,0.2794 0,0.6985 -0.170745,1.039989 -0.170744,0.34925 -0.512233,0.574322 -0.900288,0.574322 -0.333728,0 -0.675217,-0.162983 -0.884767,-0.519994 -0.194028,-0.341489 -0.194028,-0.814917 -0.194028,-1.094317 0,-0.302683 0,-0.721783 0.186267,-1.063272 0.20955,-0.357011 0.574322,-0.519994 0.884767,-0.519994 0.341488,0 0.675216,0.170744 0.877005,0.504472 0.201789,0.333728 0.201789,0.783872 0.201789,1.078794 z"
         style="font-size:7.76111px;stroke-width:0.264583"
         id="path1302" />
      <path
         d="m 41.30188,79.981975 c 0,-0.993422 -0.776111,-1.816099 -1.715205,-1.816099 -0.970139,0 -1.722966,0.845961 -1.722966,1.816099 0,1.001183 0.807155,1.74625 1.715205,1.74625 0.939094,0 1.722966,-0.760589 1.722966,-1.74625 z m -0.644172,-0.06209 c 0,0.2794 0,0.6985 -0.170744,1.039989 -0.170745,0.34925 -0.512233,0.574322 -0.900289,0.574322 -0.333728,0 -0.675217,-0.162983 -0.884766,-0.519994 -0.194028,-0.341489 -0.194028,-0.814917 -0.194028,-1.094317 0,-0.302683 0,-0.721783 0.186266,-1.063272 0.20955,-0.357011 0.574323,-0.519994 0.884767,-0.519994 0.341489,0 0.675216,0.170744 0.877005,0.504472 0.201789,0.333728 0.201789,0.783872 0.201789,1.078794 z"
         style="font-size:7.76111px;stroke-width:0.264583"
         id="path1304" />
      <path
         d="m 45.570476,79.966453 c 0,-0.985661 -0.752828,-1.754011 -1.622072,-1.754011 -0.605367,0 -0.931333,0.341489 -1.086556,0.512233 v -0.512233 l -1.117599,0.08537 v 0.240595 c 0.551038,0 0.605366,0.04657 0.605366,0.388055 v 3.6322 c 0,0.34925 -0.08537,0.34925 -0.605366,0.34925 v 0.240594 l 0.869244,-0.02328 0.877005,0.02328 v -0.240594 c -0.519994,0 -0.605366,0 -0.605366,-0.34925 v -1.303867 -0.06985 c 0.03881,0.124178 0.364772,0.543278 0.954616,0.543278 0.923572,0 1.730728,-0.760589 1.730728,-1.761772 z m -0.644172,0 c 0,0.939094 -0.543278,1.591028 -1.1176,1.591028 -0.310445,0 -0.605367,-0.155223 -0.814917,-0.473428 -0.108655,-0.162983 -0.108655,-0.170745 -0.108655,-0.325967 v -1.730727 c 0.225072,-0.395817 0.605366,-0.620889 1.001183,-0.620889 0.566561,0 1.039989,0.682978 1.039989,1.559983 z"
         style="font-size:7.76111px;stroke-width:0.264583"
         id="path1306" />
    </g>
    <g
       aria-label="Parallel"
       id="text1254"
       style="font-size:7.76111px;line-height:1.25;font-family:'Latin Modern Math';-inkscape-font-specification:'Latin Modern Math';stroke-width:0.264583">
      <path
         d="m 98.770018,77.974577 c 0,-0.760589 -0.768349,-1.443567 -1.831622,-1.443567 h -2.739671 v 0.240595 h 0.186266 c 0.597606,0 0.613128,0.08537 0.613128,0.364772 v 4.090105 c 0,0.2794 -0.01552,0.364772 -0.613128,0.364772 h -0.186266 v 0.240594 c 0.271639,-0.02328 0.845961,-0.02328 1.140883,-0.02328 0.294922,0 0.877005,0 1.148644,0.02328 v -0.240594 h -0.186267 c -0.597605,0 -0.613127,-0.08537 -0.613127,-0.364772 v -1.847145 h 1.311627 c 0.931334,0 1.769533,-0.628649 1.769533,-1.40476 z m -0.799394,0 c 0,0.364772 0,1.202972 -1.234016,1.202972 h -1.071034 v -2.0955 c 0,-0.256117 0.01552,-0.310444 0.380295,-0.310444 h 0.690739 c 1.234016,0 1.234016,0.822677 1.234016,1.202972 z"
         style="font-size:7.76111px;stroke-width:0.264583"
         id="path1283" />
      <path
         d="m 102.96102,81.141109 v -0.434622 h -0.19403 v 0.434622 c 0,0.450145 -0.19403,0.496711 -0.2794,0.496711 -0.25612,0 -0.28716,-0.34925 -0.28716,-0.388055 v -1.552222 c 0,-0.325967 0,-0.62865 -0.2794,-0.915811 -0.30269,-0.302683 -0.69074,-0.426861 -1.06327,-0.426861 -0.63642,0 -1.171932,0.364772 -1.171932,0.877005 0,0.232834 0.155222,0.364773 0.357012,0.364773 0.21731,0 0.35701,-0.155223 0.35701,-0.357012 0,-0.09313 -0.0388,-0.349249 -0.39582,-0.357011 0.20955,-0.271638 0.58985,-0.357011 0.8382,-0.357011 0.3803,0 0.82268,0.302684 0.82268,0.993422 v 0.287161 c -0.39582,0.02328 -0.93909,0.04657 -1.42804,0.2794 -0.582087,0.263878 -0.776115,0.667456 -0.776115,1.008945 0,0.62865 0.752825,0.822677 1.241775,0.822677 0.51224,0 0.86925,-0.310444 1.01671,-0.675216 0.031,0.310444 0.24059,0.636411 0.60537,0.636411 0.16298,0 0.63641,-0.108656 0.63641,-0.737306 z m -1.29611,-0.395816 c 0,0.737305 -0.5588,1.001183 -0.90805,1.001183 -0.38029,0 -0.6985,-0.271639 -0.6985,-0.659694 0,-0.426861 0.32597,-1.071034 1.60655,-1.1176 z"
         style="font-size:7.76111px;stroke-width:0.264583"
         id="path1285" />
      <path
         d="m 105.91798,78.874865 c 0,-0.248355 -0.24059,-0.473427 -0.57432,-0.473427 -0.56656,0 -0.84596,0.519994 -0.95461,0.853722 v -0.853722 l -1.0788,0.08537 v 0.240594 c 0.54328,0 0.60537,0.05433 0.60537,0.434622 v 2.079978 c 0,0.34925 -0.0854,0.34925 -0.60537,0.34925 v 0.240594 l 0.88477,-0.02328 c 0.31044,0 0.67521,0 0.98566,0.02328 v -0.240594 h -0.16298 c -0.57433,0 -0.58985,-0.08537 -0.58985,-0.364772 v -1.195211 c 0,-0.76835 0.32597,-1.459089 0.91581,-1.459089 0.0543,0 0.0699,0 0.0854,0.0078 -0.0233,0.0078 -0.1785,0.100895 -0.1785,0.302683 0,0.217311 0.16298,0.333728 0.33373,0.333728 0.1397,0 0.33372,-0.09313 0.33372,-0.341489 z"
         style="font-size:7.76111px;stroke-width:0.264583"
         id="path1287" />
      <path
         d="m 109.8839,81.141109 v -0.434622 h -0.19403 v 0.434622 c 0,0.450145 -0.19403,0.496711 -0.2794,0.496711 -0.25612,0 -0.28716,-0.34925 -0.28716,-0.388055 v -1.552222 c 0,-0.325967 0,-0.62865 -0.2794,-0.915811 -0.30268,-0.302683 -0.69074,-0.426861 -1.06327,-0.426861 -0.63641,0 -1.17193,0.364772 -1.17193,0.877005 0,0.232834 0.15522,0.364773 0.35701,0.364773 0.21731,0 0.35701,-0.155223 0.35701,-0.357012 0,-0.09313 -0.0388,-0.349249 -0.39582,-0.357011 0.20955,-0.271638 0.58985,-0.357011 0.8382,-0.357011 0.3803,0 0.82268,0.302684 0.82268,0.993422 v 0.287161 c -0.39581,0.02328 -0.93909,0.04657 -1.42804,0.2794 -0.58209,0.263878 -0.77611,0.667456 -0.77611,1.008945 0,0.62865 0.75282,0.822677 1.24177,0.822677 0.51224,0 0.86925,-0.310444 1.01671,-0.675216 0.031,0.310444 0.24059,0.636411 0.60537,0.636411 0.16298,0 0.63641,-0.108656 0.63641,-0.737306 z m -1.29611,-0.395816 c 0,0.737305 -0.5588,1.001183 -0.90805,1.001183 -0.38029,0 -0.6985,-0.271639 -0.6985,-0.659694 0,-0.426861 0.32597,-1.071034 1.60655,-1.1176 z"
         style="font-size:7.76111px;stroke-width:0.264583"
         id="path1289" />
      <path
         d="m 111.9949,81.831848 v -0.240594 c -0.51999,0 -0.60536,0 -0.60536,-0.34925 v -4.796366 l -1.1176,0.08537 v 0.240595 c 0.54328,0 0.60536,0.05433 0.60536,0.434622 v 4.035777 c 0,0.34925 -0.0854,0.34925 -0.60536,0.34925 v 0.240594 l 0.86148,-0.02328 z"
         style="font-size:7.76111px;stroke-width:0.264583"
         id="path1291" />
      <path
         d="m 114.15249,81.831848 v -0.240594 c -0.51999,0 -0.60537,0 -0.60537,-0.34925 v -4.796366 l -1.11759,0.08537 v 0.240595 c 0.54327,0 0.60536,0.05433 0.60536,0.434622 v 4.035777 c 0,0.34925 -0.0854,0.34925 -0.60536,0.34925 v 0.240594 l 0.86148,-0.02328 z"
         style="font-size:7.76111px;stroke-width:0.264583"
         id="path1293" />
      <path
         d="m 117.55186,80.908276 c 0,-0.07761 -0.0621,-0.09313 -0.1009,-0.09313 -0.0698,0 -0.0854,0.04657 -0.10089,0.108655 -0.27164,0.799395 -0.97014,0.799395 -1.04775,0.799395 -0.38806,0 -0.6985,-0.232834 -0.87701,-0.519995 -0.23283,-0.372533 -0.23283,-0.884766 -0.23283,-1.164166 h 2.16535 c 0.17074,0 0.19403,0 0.19403,-0.162984 0,-0.768349 -0.4191,-1.521177 -1.38924,-1.521177 -0.90029,0 -1.61431,0.799394 -1.61431,1.769533 0,1.039989 0.81492,1.792816 1.70744,1.792816 0.94686,0 1.29611,-0.861483 1.29611,-1.008944 z m -0.51224,-1.032228 h -1.83938 c 0.0466,-1.156405 0.6985,-1.350433 0.96238,-1.350433 0.79939,0 0.877,1.04775 0.877,1.350433 z"
         style="font-size:7.76111px;stroke-width:0.264583"
         id="path1295" />
      <path
         d="m 119.756,81.831848 v -0.240594 c -0.51999,0 -0.60537,0 -0.60537,-0.34925 v -4.796366 l -1.1176,0.08537 v 0.240595 c 0.54328,0 0.60537,0.05433 0.60537,0.434622 v 4.035777 c 0,0.34925 -0.0854,0.34925 -0.60537,0.34925 v 0.240594 l 0.86149,-0.02328 z"
         style="font-size:7.76111px;stroke-width:0.264583"
         id="path1297" />
    </g>
    <g
       aria-label="Not Parallel"
       id="text1258"
       style="font-size:7.76111px;line-height:1.25;font-family:'Latin Modern Math';-inkscape-font-specification:'Latin Modern Math';stroke-width:0.264583">
      <path
         d="m 160.14922,76.771597 v -0.240594 l -0.90805,0.02328 -0.90805,-0.02328 v 0.240594 c 0.7994,0 0.7994,0.364772 0.7994,0.574322 v 3.313994 l -2.73967,-4.028016 c -0.0699,-0.09313 -0.0776,-0.100894 -0.22507,-0.100894 h -1.31939 v 0.240594 h 0.22507 c 0.11642,0 0.27164,0.0078 0.38805,0.01552 0.17851,0.02328 0.18627,0.03104 0.18627,0.178506 v 4.051299 c 0,0.20955 0,0.574322 -0.79939,0.574322 v 0.240595 l 0.90805,-0.02328 0.90805,0.02328 v -0.240595 c -0.7994,0 -0.7994,-0.364772 -0.7994,-0.574322 v -4.035777 c 0.0388,0.0388 0.0466,0.04657 0.0776,0.09313 l 3.16654,4.656666 c 0.0699,0.09313 0.0776,0.100895 0.13193,0.100895 0.10866,0 0.10866,-0.05433 0.10866,-0.201789 v -4.284133 c 0,-0.20955 0,-0.574322 0.79939,-0.574322 z"
         style="font-size:7.76111px;stroke-width:0.264583"
         id="path1260" />
      <path
         d="m 164.06857,80.170963 c 0,-0.993422 -0.77611,-1.8161 -1.71521,-1.8161 -0.97013,0 -1.72296,0.845961 -1.72296,1.8161 0,1.001183 0.80715,1.74625 1.7152,1.74625 0.9391,0 1.72297,-0.760589 1.72297,-1.74625 z m -0.64417,-0.06209 c 0,0.2794 0,0.6985 -0.17075,1.039989 -0.17074,0.34925 -0.51223,0.574322 -0.90029,0.574322 -0.33372,0 -0.67521,-0.162983 -0.88476,-0.519994 -0.19403,-0.341489 -0.19403,-0.814917 -0.19403,-1.094317 0,-0.302683 0,-0.721783 0.18627,-1.063272 0.20955,-0.357011 0.57432,-0.519994 0.88476,-0.519994 0.34149,0 0.67522,0.170744 0.87701,0.504472 0.20179,0.333728 0.20179,0.783872 0.20179,1.078794 z"
         style="font-size:7.76111px;stroke-width:0.264583"
         id="path1262" />
      <path
         d="M 166.87032,80.869463 V 80.42708 h -0.19403 v 0.426861 c 0,0.574322 -0.23283,0.869244 -0.52,0.869244 -0.51999,0 -0.51999,-0.706261 -0.51999,-0.8382 v -2.157588 h 1.10984 v -0.240595 h -1.10984 v -1.428044 h -0.19403 c -0.008,0.636411 -0.24059,1.46685 -1.00118,1.497894 v 0.170745 h 0.65969 v 2.142066 c 0,0.954616 0.72179,1.04775 1.00119,1.04775 0.55104,0 0.76835,-0.551039 0.76835,-1.04775 z"
         style="font-size:7.76111px;stroke-width:0.264583"
         id="path1264" />
      <path
         d="m 174.73231,77.974569 c 0,-0.760589 -0.76835,-1.443566 -1.83162,-1.443566 h -2.73967 v 0.240594 h 0.18626 c 0.59761,0 0.61313,0.08537 0.61313,0.364772 v 4.090105 c 0,0.2794 -0.0155,0.364772 -0.61313,0.364772 h -0.18626 v 0.240595 c 0.27164,-0.02328 0.84596,-0.02328 1.14088,-0.02328 0.29492,0 0.877,0 1.14864,0.02328 v -0.240595 h -0.18626 c -0.59761,0 -0.61313,-0.08537 -0.61313,-0.364772 V 79.37933 h 1.31163 c 0.93133,0 1.76953,-0.62865 1.76953,-1.404761 z m -0.79939,0 c 0,0.364772 0,1.202972 -1.23402,1.202972 h -1.07103 v -2.0955 c 0,-0.256116 0.0155,-0.310444 0.38029,-0.310444 h 0.69074 c 1.23402,0 1.23402,0.822678 1.23402,1.202972 z"
         style="font-size:7.76111px;stroke-width:0.264583"
         id="path1266" />
      <path
         d="M 178.92331,81.141102 V 80.70648 h -0.19403 v 0.434622 c 0,0.450144 -0.19403,0.496711 -0.2794,0.496711 -0.25612,0 -0.28716,-0.34925 -0.28716,-0.388056 v -1.552222 c 0,-0.325966 0,-0.62865 -0.2794,-0.915811 -0.30268,-0.302683 -0.69074,-0.426861 -1.06327,-0.426861 -0.63641,0 -1.17193,0.364772 -1.17193,0.877006 0,0.232833 0.15522,0.364772 0.35701,0.364772 0.21731,0 0.35701,-0.155222 0.35701,-0.357011 0,-0.09313 -0.0388,-0.34925 -0.39581,-0.357011 0.20955,-0.271639 0.58984,-0.357011 0.8382,-0.357011 0.38029,0 0.82267,0.302683 0.82267,0.993422 v 0.287161 c -0.39581,0.02328 -0.93909,0.04657 -1.42804,0.2794 -0.58208,0.263878 -0.77611,0.667455 -0.77611,1.008944 0,0.62865 0.75283,0.822678 1.24178,0.822678 0.51223,0 0.86924,-0.310445 1.0167,-0.675217 0.031,0.310445 0.2406,0.636411 0.60537,0.636411 0.16298,0 0.63641,-0.108655 0.63641,-0.737305 z m -1.29611,-0.395817 c 0,0.737306 -0.5588,1.001183 -0.90805,1.001183 -0.38029,0 -0.6985,-0.271639 -0.6985,-0.659694 0,-0.426861 0.32597,-1.071033 1.60655,-1.1176 z"
         style="font-size:7.76111px;stroke-width:0.264583"
         id="path1268" />
      <path
         d="m 181.88028,78.874858 c 0,-0.248356 -0.2406,-0.473428 -0.57433,-0.473428 -0.56656,0 -0.84596,0.519994 -0.95461,0.853722 V 78.40143 l -1.0788,0.08537 v 0.240595 c 0.54328,0 0.60537,0.05433 0.60537,0.434622 v 2.079977 c 0,0.34925 -0.0854,0.34925 -0.60537,0.34925 v 0.240595 l 0.88477,-0.02328 c 0.31044,0 0.67522,0 0.98566,0.02328 v -0.240595 h -0.16298 c -0.57432,0 -0.58985,-0.08537 -0.58985,-0.364772 v -1.195211 c 0,-0.76835 0.32597,-1.459089 0.91581,-1.459089 0.0543,0 0.0699,0 0.0854,0.0078 -0.0233,0.0078 -0.17851,0.100895 -0.17851,0.302684 0,0.217311 0.16298,0.333728 0.33373,0.333728 0.1397,0 0.33373,-0.09313 0.33373,-0.341489 z"
         style="font-size:7.76111px;stroke-width:0.264583"
         id="path1270" />
      <path
         d="M 185.84619,81.141102 V 80.70648 h -0.19403 v 0.434622 c 0,0.450144 -0.19403,0.496711 -0.2794,0.496711 -0.25611,0 -0.28716,-0.34925 -0.28716,-0.388056 v -1.552222 c 0,-0.325966 0,-0.62865 -0.2794,-0.915811 -0.30268,-0.302683 -0.69074,-0.426861 -1.06327,-0.426861 -0.63641,0 -1.17193,0.364772 -1.17193,0.877006 0,0.232833 0.15522,0.364772 0.35701,0.364772 0.21731,0 0.35701,-0.155222 0.35701,-0.357011 0,-0.09313 -0.0388,-0.34925 -0.39581,-0.357011 0.20955,-0.271639 0.58984,-0.357011 0.8382,-0.357011 0.38029,0 0.82267,0.302683 0.82267,0.993422 v 0.287161 c -0.39581,0.02328 -0.93909,0.04657 -1.42804,0.2794 -0.58208,0.263878 -0.77611,0.667455 -0.77611,1.008944 0,0.62865 0.75283,0.822678 1.24178,0.822678 0.51223,0 0.86924,-0.310445 1.0167,-0.675217 0.031,0.310445 0.2406,0.636411 0.60537,0.636411 0.16298,0 0.63641,-0.108655 0.63641,-0.737305 z m -1.29611,-0.395817 c 0,0.737306 -0.55879,1.001183 -0.90804,1.001183 -0.3803,0 -0.6985,-0.271639 -0.6985,-0.659694 0,-0.426861 0.32596,-1.071033 1.60654,-1.1176 z"
         style="font-size:7.76111px;stroke-width:0.264583"
         id="path1272" />
      <path
         d="m 187.9572,81.831841 v -0.240595 c -0.52,0 -0.60537,0 -0.60537,-0.34925 V 76.44563 l -1.1176,0.08537 v 0.240594 c 0.54328,0 0.60537,0.05433 0.60537,0.434622 v 4.035777 c 0,0.34925 -0.0854,0.34925 -0.60537,0.34925 v 0.240595 l 0.86148,-0.02328 z"
         style="font-size:7.76111px;stroke-width:0.264583"
         id="path1274" />
      <path
         d="m 190.11478,81.831841 v -0.240595 c -0.51999,0 -0.60536,0 -0.60536,-0.34925 V 76.44563 l -1.1176,0.08537 v 0.240594 c 0.54327,0 0.60536,0.05433 0.60536,0.434622 v 4.035777 c 0,0.34925 -0.0854,0.34925 -0.60536,0.34925 v 0.240595 l 0.86148,-0.02328 z"
         style="font-size:7.76111px;stroke-width:0.264583"
         id="path1276" />
      <path
         d="m 193.51415,80.908268 c 0,-0.07761 -0.0621,-0.09313 -0.10089,-0.09313 -0.0699,0 -0.0854,0.04657 -0.1009,0.108656 -0.27164,0.799394 -0.97014,0.799394 -1.04775,0.799394 -0.38805,0 -0.6985,-0.232833 -0.877,-0.519994 -0.23284,-0.372534 -0.23284,-0.884767 -0.23284,-1.164167 h 2.16535 c 0.17075,0 0.19403,0 0.19403,-0.162983 0,-0.76835 -0.4191,-1.521178 -1.38924,-1.521178 -0.90029,0 -1.61431,0.799395 -1.61431,1.769533 0,1.039989 0.81492,1.792817 1.70744,1.792817 0.94686,0 1.29611,-0.861483 1.29611,-1.008945 z m -0.51223,-1.032227 h -1.83939 c 0.0466,-1.156406 0.6985,-1.350433 0.96238,-1.350433 0.7994,0 0.87701,1.04775 0.87701,1.350433 z"
         style="font-size:7.76111px;stroke-width:0.264583"
         id="path1278" />
      <path
         d="m 195.71829,81.831841 v -0.240595 c -0.51999,0 -0.60537,0 -0.60537,-0.34925 V 76.44563 l -1.1176,0.08537 v 0.240594 c 0.54328,0 0.60537,0.05433 0.60537,0.434622 v 4.035777 c 0,0.34925 -0.0854,0.34925 -0.60537,0.34925 v 0.240595 l 0.86149,-0.02328 z"
         style="font-size:7.76111px;stroke-width:0.264583"
         id="path1280" />
    </g>
  </g>
</svg>
