<?xml version="1.0" encoding="UTF-8" standalone="no"?>
<svg
   xmlns:dc="http://purl.org/dc/elements/1.1/"
   xmlns:cc="http://creativecommons.org/ns#"
   xmlns:rdf="http://www.w3.org/1999/02/22-rdf-syntax-ns#"
   xmlns:svg="http://www.w3.org/2000/svg"
   xmlns="http://www.w3.org/2000/svg"
   xmlns:sodipodi="http://sodipodi.sourceforge.net/DTD/sodipodi-0.dtd"
   xmlns:inkscape="http://www.inkscape.org/namespaces/inkscape"
   width="474.32141"
   height="213.02618"
   viewBox="0 0 125.49754 56.363178"
   version="1.1"
   id="svg8"
   inkscape:version="1.0.1 (3bc2e813f5, 2020-09-07)"
   sodipodi:docname="inoutdegree.svg">
  <defs
     id="defs2">
    <marker
       style="overflow:visible"
       id="marker1390"
       refX="0"
       refY="0"
       orient="auto"
       inkscape:stockid="Arrow1Mend"
       inkscape:isstock="true">
      <path
         transform="matrix(-0.4,0,0,-0.4,-4,0)"
         style="fill:#000000;fill-opacity:1;fill-rule:evenodd;stroke:#000000;stroke-width:1pt;stroke-opacity:1"
         d="M 0,0 5,-5 -12.5,0 5,5 Z"
         id="path1388" />
    </marker>
    <marker
       style="overflow:visible"
       id="marker1222"
       refX="0"
       refY="0"
       orient="auto"
       inkscape:stockid="Arrow1Mend"
       inkscape:isstock="true"
       inkscape:collect="always">
      <path
         transform="matrix(-0.4,0,0,-0.4,-4,0)"
         style="fill:#000000;fill-opacity:1;fill-rule:evenodd;stroke:#000000;stroke-width:1pt;stroke-opacity:1"
         d="M 0,0 5,-5 -12.5,0 5,5 Z"
         id="path1220" />
    </marker>
  </defs>
  <sodipodi:namedview
     id="base"
     pagecolor="#ffffff"
     bordercolor="#666666"
     borderopacity="1.0"
     inkscape:pageopacity="0.0"
     inkscape:pageshadow="2"
     inkscape:zoom="2"
     inkscape:cx="242.05941"
     inkscape:cy="75.114449"
     inkscape:document-units="mm"
     inkscape:current-layer="layer1"
     inkscape:document-rotation="0"
     showgrid="false"
     units="px"
     width="852px"
     fit-margin-top="15"
     lock-margins="true"
     fit-margin-left="15"
     fit-margin-right="15"
     fit-margin-bottom="15"
     inkscape:window-width="1920"
     inkscape:window-height="1137"
     inkscape:window-x="1432"
     inkscape:window-y="-8"
     inkscape:window-maximized="1" />
  <metadata
     id="metadata5">
    <rdf:RDF>
      <cc:Work
         rdf:about="">
        <dc:format>image/svg+xml</dc:format>
        <dc:type
           rdf:resource="http://purl.org/dc/dcmitype/StillImage" />
        <dc:title></dc:title>
      </cc:Work>
    </rdf:RDF>
  </metadata>
  <g
     inkscape:label="Layer 1"
     inkscape:groupmode="layer"
     id="layer1"
     transform="translate(-38.319741,-18.87022)">
    <circle
       style="fill:#000000;stroke:#000000;stroke-width:0.0751274;stroke-linecap:square;stroke-miterlimit:4;stroke-dasharray:none;stroke-dashoffset:0;stroke-opacity:1;stop-color:#000000"
       id="path833"
       cx="44.067345"
       cy="69.485794"
       r="1.7412902" />
    <circle
       style="fill:#000000;stroke:#000000;stroke-width:0.0751274;stroke-linecap:square;stroke-miterlimit:4;stroke-dasharray:none;stroke-dashoffset:0;stroke-opacity:1;stop-color:#000000"
       id="path833-5"
       cx="72.130646"
       cy="47.409325"
       r="1.7412902" />
    <path
       style="fill:none;stroke:#000000;stroke-width:0.565;stroke-linecap:butt;stroke-linejoin:miter;stroke-miterlimit:4;stroke-dasharray:none;stroke-opacity:1;marker-end:url(#marker1222)"
       d="M 46.031778,67.708446 70.166216,49.186669"
       id="path1378" />
    <path
       style="fill:none;stroke:#000000;stroke-width:0.565;stroke-linecap:butt;stroke-linejoin:miter;stroke-miterlimit:4;stroke-dasharray:none;stroke-opacity:1;marker-end:url(#marker1390)"
       d="m 70.821026,46.660973 c 0,0 -7.390001,-5.238484 -5.051394,-14.21874 2.338609,-8.980256 13.283297,-11.599497 20.579754,-7.296458 7.296457,4.30304 6.735191,14.03165 1.964431,18.989501 -4.77076,4.957849 -13.470383,4.022407 -13.470383,4.022407"
       id="path1386"
       sodipodi:nodetypes="csssc" />
    <g
       aria-label="Indegree(b) = 2
Outdegree(b) = 1"
       id="text1424"
       style="font-size:7.7611px;line-height:1.25;font-family:'Latin Modern Math';-inkscape-font-specification:'Latin Modern Math';stroke-width:0.264583">
      <path
         d="m 103.43319,37.025906 v -0.240594 h -0.20179 c -0.61312,0 -0.63641,-0.08537 -0.63641,-0.364772 v -4.0901 c 0,-0.279399 0.0233,-0.364771 0.63641,-0.364771 h 0.20179 v -0.240595 c -0.27164,0.02328 -0.88476,0.02328 -1.17968,0.02328 -0.30269,0 -0.91581,0 -1.18745,-0.02328 v 0.240595 h 0.20179 c 0.61312,0 0.63641,0.08537 0.63641,0.364771 v 4.0901 c 0,0.279399 -0.0233,0.364772 -0.63641,0.364772 h -0.20179 v 0.240594 c 0.27164,-0.02328 0.88476,-0.02328 1.17969,-0.02328 0.30268,0 0.9158,0 1.18744,0.02328 z"
         style="stroke-width:0.264583"
         id="path1444" />
      <path
         d="m 107.80268,37.025906 v -0.240594 c -0.40358,0 -0.59761,0 -0.60537,-0.232833 v -1.482371 c 0,-0.667454 0,-0.908048 -0.24059,-1.187448 -0.10866,-0.131939 -0.36477,-0.287161 -0.81492,-0.287161 -0.56656,0 -0.93133,0.333728 -1.14864,0.814916 v -0.814916 l -1.09431,0.08537 v 0.240594 c 0.54327,0 0.60536,0.05433 0.60536,0.434621 v 2.079975 c 0,0.34925 -0.0854,0.34925 -0.60536,0.34925 v 0.240594 l 0.877,-0.02328 0.86924,0.02328 v -0.240594 c -0.51999,0 -0.60536,0 -0.60536,-0.34925 V 35.00802 c 0,-0.807155 0.55103,-1.241776 1.04775,-1.241776 0.48894,0 0.57432,0.419099 0.57432,0.861482 v 1.808336 c 0,0.34925 -0.0854,0.34925 -0.60537,0.34925 v 0.240594 l 0.87701,-0.02328 z"
         style="stroke-width:0.264583"
         id="path1446" />
      <path
         d="m 112.05576,37.025906 v -0.240594 c -0.54328,0 -0.60537,-0.05433 -0.60537,-0.434622 v -4.710988 l -1.11759,0.08537 v 0.240595 c 0.54327,0 0.60536,0.05433 0.60536,0.434621 v 1.676398 c -0.22507,-0.2794 -0.5588,-0.481189 -0.9779,-0.481189 -0.91581,0 -1.73072,0.760588 -1.73072,1.76177 0,0.98566 0.76059,1.754009 1.64535,1.754009 0.49671,0 0.84596,-0.263878 1.03999,-0.512233 v 0.512233 z m -1.14088,-0.91581 c 0,0.1397 0,0.155222 -0.0854,0.287161 -0.23284,0.372532 -0.58209,0.543277 -0.91581,0.543277 -0.34925,0 -0.62865,-0.201789 -0.81492,-0.496711 -0.20179,-0.318205 -0.22507,-0.760588 -0.22507,-1.078793 0,-0.28716 0.0155,-0.752826 0.24059,-1.102076 0.16299,-0.240594 0.45791,-0.49671 0.87701,-0.49671 0.27164,0 0.5976,0.116416 0.8382,0.465666 0.0854,0.131938 0.0854,0.147461 0.0854,0.28716 z"
         style="stroke-width:0.264583"
         id="path1448" />
      <path
         d="m 115.50169,36.102335 c 0,-0.07761 -0.0621,-0.09313 -0.1009,-0.09313 -0.0699,0 -0.0854,0.04657 -0.10089,0.108655 -0.27164,0.799393 -0.97014,0.799393 -1.04775,0.799393 -0.38806,0 -0.6985,-0.232833 -0.87701,-0.519993 -0.23283,-0.372533 -0.23283,-0.884766 -0.23283,-1.164165 h 2.16535 c 0.17074,0 0.19403,0 0.19403,-0.162984 0,-0.768348 -0.4191,-1.521175 -1.38924,-1.521175 -0.90029,0 -1.61431,0.799393 -1.61431,1.769531 0,1.039987 0.81492,1.792814 1.70744,1.792814 0.94686,0 1.29611,-0.861482 1.29611,-1.008943 z m -0.51224,-1.032227 h -1.83938 c 0.0466,-1.156403 0.6985,-1.350431 0.96238,-1.350431 0.79939,0 0.877,1.047749 0.877,1.350431 z"
         style="stroke-width:0.264583"
         id="path1450" />
      <path
         d="m 119.49088,33.890421 c 0,-0.131938 -0.0931,-0.380294 -0.39582,-0.380294 -0.15522,0 -0.49671,0.04657 -0.82267,0.364772 -0.32597,-0.256116 -0.65194,-0.2794 -0.82268,-0.2794 -0.72178,0 -1.2573,0.535516 -1.2573,1.133121 0,0.341488 0.17075,0.63641 0.36477,0.799393 -0.10089,0.116417 -0.24059,0.372533 -0.24059,0.644172 0,0.240594 0.10089,0.535516 0.34149,0.690738 -0.46567,0.131938 -0.71402,0.465666 -0.71402,0.776109 0,0.5588 0.76835,0.98566 1.7152,0.98566 0.91581,0 1.72296,-0.395816 1.72296,-1.001182 0,-0.271638 -0.10865,-0.667454 -0.50447,-0.884765 -0.41134,-0.217311 -0.86148,-0.217311 -1.33491,-0.217311 -0.19402,0 -0.52775,0 -0.58208,-0.0078 -0.24835,-0.03104 -0.41134,-0.271638 -0.41134,-0.519994 0,-0.03104 0,-0.209549 0.13194,-0.364771 0.30268,0.21731 0.62089,0.240594 0.76835,0.240594 0.72178,0 1.2573,-0.535516 1.2573,-1.133121 0,-0.287161 -0.12418,-0.574321 -0.31821,-0.752827 0.2794,-0.263877 0.5588,-0.302682 0.6985,-0.302682 0,0 0.0543,0 0.0776,0.0078 -0.0854,0.03104 -0.12417,0.116416 -0.12417,0.209549 0,0.131939 0.10089,0.225072 0.22507,0.225072 0.0776,0 0.22507,-0.05433 0.22507,-0.232833 z m -1.36595,0.838199 c 0,0.20955 -0.008,0.457905 -0.12418,0.651932 -0.0621,0.09313 -0.2406,0.310444 -0.55104,0.310444 -0.67522,0 -0.67522,-0.77611 -0.67522,-0.954615 0,-0.20955 0.008,-0.457905 0.12418,-0.651932 0.0621,-0.09313 0.2406,-0.310444 0.55104,-0.310444 0.67522,0 0.67522,0.77611 0.67522,0.954615 z m 0.85372,2.910412 c 0,0.4191 -0.55104,0.807155 -1.31163,0.807155 -0.78387,0 -1.31939,-0.395816 -1.31939,-0.807155 0,-0.35701 0.29493,-0.644171 0.63641,-0.667454 h 0.45791 c 0.66745,0 1.5367,0 1.5367,0.667454 z"
         style="stroke-width:0.264583"
         id="path1452" />
      <path
         d="m 122.43232,34.068927 c 0,-0.248356 -0.24059,-0.473428 -0.57432,-0.473428 -0.56656,0 -0.84596,0.519994 -0.95462,0.853721 v -0.853721 l -1.07879,0.08537 v 0.240594 c 0.54328,0 0.60537,0.05433 0.60537,0.434621 v 2.079975 c 0,0.34925 -0.0854,0.34925 -0.60537,0.34925 v 0.240594 l 0.88477,-0.02328 c 0.31044,0 0.67521,0 0.98566,0.02328 v -0.240594 h -0.16299 c -0.57432,0 -0.58984,-0.08537 -0.58984,-0.364772 v -1.19521 c 0,-0.768348 0.32597,-1.459086 0.91581,-1.459086 0.0543,0 0.0699,0 0.0854,0.0078 -0.0233,0.0078 -0.1785,0.100894 -0.1785,0.302683 0,0.21731 0.16298,0.333727 0.33372,0.333727 0.1397,0 0.33373,-0.09313 0.33373,-0.341488 z"
         style="stroke-width:0.264583"
         id="path1454" />
      <path
         d="m 125.87047,36.102335 c 0,-0.07761 -0.0621,-0.09313 -0.10089,-0.09313 -0.0699,0 -0.0854,0.04657 -0.10089,0.108655 -0.27164,0.799393 -0.97014,0.799393 -1.04775,0.799393 -0.38806,0 -0.6985,-0.232833 -0.87701,-0.519993 -0.23283,-0.372533 -0.23283,-0.884766 -0.23283,-1.164165 h 2.16535 c 0.17074,0 0.19402,0 0.19402,-0.162984 0,-0.768348 -0.41909,-1.521175 -1.38923,-1.521175 -0.90029,0 -1.61431,0.799393 -1.61431,1.769531 0,1.039987 0.81491,1.792814 1.70744,1.792814 0.94686,0 1.2961,-0.861482 1.2961,-1.008943 z m -0.51223,-1.032227 h -1.83938 c 0.0466,-1.156403 0.6985,-1.350431 0.96238,-1.350431 0.79939,0 0.877,1.047749 0.877,1.350431 z"
         style="stroke-width:0.264583"
         id="path1456" />
      <path
         d="m 129.31639,36.102335 c 0,-0.07761 -0.0621,-0.09313 -0.10089,-0.09313 -0.0699,0 -0.0854,0.04657 -0.1009,0.108655 -0.27164,0.799393 -0.97014,0.799393 -1.04775,0.799393 -0.38805,0 -0.6985,-0.232833 -0.877,-0.519993 -0.23283,-0.372533 -0.23283,-0.884766 -0.23283,-1.164165 h 2.16534 c 0.17075,0 0.19403,0 0.19403,-0.162984 0,-0.768348 -0.4191,-1.521175 -1.38924,-1.521175 -0.90028,0 -1.61431,0.799393 -1.61431,1.769531 0,1.039987 0.81492,1.792814 1.70745,1.792814 0.94685,0 1.2961,-0.861482 1.2961,-1.008943 z m -0.51223,-1.032227 h -1.83938 c 0.0466,-1.156403 0.6985,-1.350431 0.96237,-1.350431 0.7994,0 0.87701,1.047749 0.87701,1.350431 z"
         style="stroke-width:0.264583"
         id="path1458" />
      <path
         d="m 132.11813,38.873047 c 0,-0.02328 -0.0155,-0.04657 -0.031,-0.06209 -0.80716,-0.605366 -1.34267,-2.157586 -1.34267,-3.399362 v -0.651933 c 0,-1.241776 0.53551,-2.793995 1.34267,-3.399361 0.0155,-0.01552 0.031,-0.03881 0.031,-0.06209 0,-0.03881 -0.0388,-0.07761 -0.0776,-0.07761 -0.0155,0 -0.031,0.0078 -0.0466,0.01552 -0.85372,0.644171 -1.66864,2.196391 -1.66864,3.523539 v 0.651933 c 0,1.327148 0.81492,2.879368 1.66864,3.523539 0.0155,0.0078 0.031,0.01552 0.0466,0.01552 0.0388,0 0.0776,-0.0388 0.0776,-0.07761 z"
         style="stroke-width:0.264583"
         id="path1460" />
      <path
         d="m 136.12286,34.806231 c 0,-0.830438 -0.46566,-1.210732 -0.93133,-1.210732 -0.29492,0 -0.5588,0.162984 -0.82268,0.411339 l 0.54328,-2.173108 c 0.008,-0.02328 0.0233,-0.100894 0.0233,-0.100894 0,-0.06985 -0.0466,-0.09313 -0.10865,-0.09313 -0.0233,0 -0.1009,0.0078 -0.12418,0.01552 l -0.76835,0.06209 c -0.0931,0.0078 -0.1785,0.01552 -0.1785,0.162983 0,0.08537 0.0776,0.08537 0.18626,0.08537 0.37253,0 0.38806,0.05433 0.38806,0.131938 0,0.02328 -0.0233,0.131939 -0.0233,0.131939 l -0.76835,3.065634 c -0.008,0.02328 -0.0854,0.341489 -0.0854,0.636411 0,0.651932 0.32597,1.179687 0.89253,1.179687 0.86924,0 1.77729,-1.164165 1.77729,-2.305047 z m -0.95461,1.396998 c -0.0931,0.194028 -0.42686,0.737305 -0.82268,0.737305 -0.19403,0 -0.45014,-0.162984 -0.45014,-0.745066 0,-0.341488 0.0699,-0.613127 0.29492,-1.497892 0.0543,-0.186267 0.0543,-0.201789 0.17074,-0.357011 0.22507,-0.310444 0.52,-0.574321 0.81492,-0.574321 0.34925,0 0.42686,0.442382 0.42686,0.690738 0,0.325966 -0.20955,1.249537 -0.43462,1.746247 z"
         style="font-style:italic;font-variant:normal;font-weight:normal;font-stretch:normal;font-family:'Latin Modern Roman';-inkscape-font-specification:'Latin Modern Roman,  Italic'"
         id="path1462" />
      <path
         d="m 138.36581,35.411597 v -0.651933 c 0,-1.327148 -0.81491,-2.879368 -1.66863,-3.523539 -0.0155,-0.0078 -0.031,-0.01552 -0.0466,-0.01552 -0.0388,0 -0.0776,0.0388 -0.0776,0.07761 0,0.02328 0.0155,0.04657 0.031,0.06209 0.80716,0.605366 1.34267,2.157585 1.34267,3.399361 v 0.651933 c 0,1.241776 -0.53551,2.793996 -1.34267,3.399362 -0.0155,0.01552 -0.031,0.03881 -0.031,0.06209 0,0.03881 0.0388,0.07761 0.0776,0.07761 0.0155,0 0.031,-0.0078 0.0466,-0.01552 0.85372,-0.644171 1.66863,-2.196391 1.66863,-3.523539 z"
         style="stroke-width:0.264583"
         id="path1464" />
      <path
         d="m 147.32987,34.332804 c 0,-0.08537 -0.0699,-0.155222 -0.15522,-0.155222 h -4.85845 c -0.0854,0 -0.15522,0.06985 -0.15522,0.155222 0,0.08537 0.0699,0.155222 0.15522,0.155222 h 4.85845 c 0.0854,0 0.15522,-0.06985 0.15522,-0.155222 z m 0,1.505653 c 0,-0.08537 -0.0699,-0.155222 -0.15522,-0.155222 h -4.85845 c -0.0854,0 -0.15522,0.06985 -0.15522,0.155222 0,0.08537 0.0699,0.155222 0.15522,0.155222 h 4.85845 c 0.0854,0 0.15522,-0.06985 0.15522,-0.155222 z"
         style="stroke-width:0.264583"
         id="path1466" />
      <path
         d="m 153.82591,35.675474 h -0.19403 c -0.0388,0.232833 -0.0931,0.574322 -0.17075,0.690738 -0.0543,0.06209 -0.56656,0.06209 -0.7373,0.06209 h -1.397 l 0.82268,-0.799393 c 1.21073,-1.071032 1.6764,-1.490132 1.6764,-2.266242 0,-0.884765 -0.6985,-1.505653 -1.64536,-1.505653 -0.877,0 -1.45132,0.714021 -1.45132,1.404759 0,0.434622 0.38805,0.434622 0.41133,0.434622 0.13194,0 0.40358,-0.09313 0.40358,-0.411339 0,-0.201788 -0.1397,-0.403577 -0.41134,-0.403577 -0.0621,0 -0.0776,0 -0.10089,0.0078 0.1785,-0.504471 0.5976,-0.791632 1.04775,-0.791632 0.70626,0 1.03998,0.628649 1.03998,1.265059 0,0.620888 -0.38805,1.234015 -0.81491,1.715204 l -1.49013,1.660875 c -0.0854,0.08537 -0.0854,0.100894 -0.0854,0.287161 h 2.87936 z"
         style="stroke-width:0.264583"
         id="path1468" />
      <path
         d="m 106.4445,44.096277 c 0,-1.583264 -1.17193,-2.840563 -2.58445,-2.840563 -1.38923,0 -2.57668,1.241776 -2.57668,2.840563 0,1.591025 1.19521,2.801757 2.57668,2.801757 1.41252,0 2.58445,-1.234015 2.58445,-2.801757 z m -0.79939,-0.108656 c 0,2.056692 -1.06327,2.708624 -1.77729,2.708624 -0.74507,0 -1.78506,-0.682976 -1.78506,-2.708624 0,-2.010124 1.13312,-2.537879 1.77729,-2.537879 0.67522,0 1.78506,0.551038 1.78506,2.537879 z"
         style="stroke-width:0.264583"
         id="path1470" />
      <path
         d="m 111.03907,46.72729 v -0.240594 c -0.54328,0 -0.60537,-0.05433 -0.60537,-0.434622 v -2.75519 l -1.14088,0.08537 v 0.240594 c 0.54328,0 0.60537,0.05433 0.60537,0.434621 v 1.381476 c 0,0.675216 -0.37253,1.202971 -0.93909,1.202971 -0.65194,0 -0.68298,-0.364772 -0.68298,-0.768349 v -2.576685 l -1.14088,0.08537 v 0.240594 c 0.60536,0 0.60536,0.02328 0.60536,0.714021 v 1.164165 c 0,0.605366 0,1.311626 1.17969,1.311626 0.43462,0 0.77611,-0.217311 1.00118,-0.698499 v 0.698499 z"
         style="stroke-width:0.264583"
         id="path1472" />
      <path
         d="m 113.77874,45.764913 v -0.442382 h -0.19403 v 0.42686 c 0,0.574322 -0.23283,0.869243 -0.51999,0.869243 -0.52,0 -0.52,-0.70626 -0.52,-0.838198 V 43.62285 h 1.10984 v -0.240594 h -1.10984 v -1.428043 h -0.19403 c -0.008,0.63641 -0.24059,1.466848 -1.00118,1.497893 v 0.170744 h 0.6597 v 2.142063 c 0,0.954616 0.72178,1.047749 1.00118,1.047749 0.55104,0 0.76835,-0.551038 0.76835,-1.047749 z"
         style="stroke-width:0.264583"
         id="path1474" />
      <path
         d="m 118.31122,46.72729 v -0.240594 c -0.54328,0 -0.60537,-0.05433 -0.60537,-0.434622 v -4.710988 l -1.1176,0.08537 v 0.240594 c 0.54328,0 0.60537,0.05433 0.60537,0.434621 v 1.676398 c -0.22507,-0.2794 -0.5588,-0.481188 -0.9779,-0.481188 -0.91581,0 -1.73072,0.760587 -1.73072,1.761769 0,0.98566 0.76058,1.754009 1.64535,1.754009 0.49671,0 0.84596,-0.263878 1.03999,-0.512233 v 0.512233 z m -1.14088,-0.91581 c 0,0.1397 0,0.155222 -0.0854,0.287161 -0.23283,0.372532 -0.58208,0.543277 -0.91581,0.543277 -0.34924,0 -0.62864,-0.201789 -0.81491,-0.496711 -0.20179,-0.318205 -0.22507,-0.760588 -0.22507,-1.078793 0,-0.28716 0.0155,-0.752826 0.24059,-1.102076 0.16298,-0.240594 0.45791,-0.49671 0.87701,-0.49671 0.27163,0 0.5976,0.116416 0.83819,0.465666 0.0854,0.131938 0.0854,0.147461 0.0854,0.28716 z"
         style="stroke-width:0.264583"
         id="path1476" />
      <path
         d="m 121.75715,45.803719 c 0,-0.07761 -0.0621,-0.09313 -0.1009,-0.09313 -0.0699,0 -0.0854,0.04657 -0.10089,0.108655 -0.27164,0.799393 -0.97014,0.799393 -1.04775,0.799393 -0.38806,0 -0.6985,-0.232833 -0.87701,-0.519993 -0.23283,-0.372533 -0.23283,-0.884766 -0.23283,-1.164165 h 2.16535 c 0.17074,0 0.19403,0 0.19403,-0.162983 0,-0.768349 -0.4191,-1.521176 -1.38924,-1.521176 -0.90029,0 -1.61431,0.799393 -1.61431,1.769531 0,1.039987 0.81492,1.792814 1.70744,1.792814 0.94686,0 1.29611,-0.861482 1.29611,-1.008943 z m -0.51224,-1.032226 h -1.83938 c 0.0466,-1.156404 0.6985,-1.350432 0.96238,-1.350432 0.79939,0 0.877,1.047749 0.877,1.350432 z"
         style="stroke-width:0.264583"
         id="path1478" />
      <path
         d="m 125.74634,43.591805 c 0,-0.131938 -0.0931,-0.380294 -0.39582,-0.380294 -0.15522,0 -0.49671,0.04657 -0.82267,0.364772 -0.32597,-0.256116 -0.65194,-0.279399 -0.82268,-0.279399 -0.72178,0 -1.2573,0.535515 -1.2573,1.13312 0,0.341489 0.17074,0.63641 0.36477,0.799393 -0.10089,0.116417 -0.24059,0.372533 -0.24059,0.644172 0,0.240594 0.10089,0.535516 0.34149,0.690738 -0.46567,0.131938 -0.71402,0.465666 -0.71402,0.77611 0,0.558799 0.76834,0.985659 1.7152,0.985659 0.91581,0 1.72296,-0.395816 1.72296,-1.001182 0,-0.271638 -0.10865,-0.667454 -0.50447,-0.884765 -0.41134,-0.217311 -0.86148,-0.217311 -1.33491,-0.217311 -0.19403,0 -0.52775,0 -0.58208,-0.0078 -0.24836,-0.03104 -0.41134,-0.271638 -0.41134,-0.519994 0,-0.03104 0,-0.209549 0.13194,-0.364771 0.30268,0.217311 0.62089,0.240594 0.76835,0.240594 0.72178,0 1.2573,-0.535516 1.2573,-1.133121 0,-0.28716 -0.12418,-0.574321 -0.31821,-0.752826 0.2794,-0.263878 0.5588,-0.302683 0.6985,-0.302683 0,0 0.0543,0 0.0776,0.0078 -0.0854,0.03104 -0.12418,0.116416 -0.12418,0.209549 0,0.131939 0.1009,0.225072 0.22508,0.225072 0.0776,0 0.22507,-0.05433 0.22507,-0.232833 z m -1.36596,0.838199 c 0,0.20955 -0.008,0.457905 -0.12417,0.651933 -0.0621,0.09313 -0.2406,0.310444 -0.55104,0.310444 -0.67522,0 -0.67522,-0.77611 -0.67522,-0.954616 0,-0.209549 0.008,-0.457905 0.12418,-0.651932 0.0621,-0.09313 0.24059,-0.310444 0.55104,-0.310444 0.67521,0 0.67521,0.77611 0.67521,0.954615 z m 0.85373,2.910413 c 0,0.419099 -0.55104,0.807154 -1.31163,0.807154 -0.78387,0 -1.31939,-0.395816 -1.31939,-0.807154 0,-0.357011 0.29492,-0.644172 0.63641,-0.667455 h 0.45791 c 0.66745,0 1.5367,0 1.5367,0.667455 z"
         style="stroke-width:0.264583"
         id="path1480" />
      <path
         d="m 128.68778,43.770311 c 0,-0.248356 -0.24059,-0.473427 -0.57432,-0.473427 -0.56656,0 -0.84596,0.519993 -0.95462,0.853721 v -0.853721 l -1.07879,0.08537 v 0.240594 c 0.54328,0 0.60537,0.05433 0.60537,0.434621 v 2.079975 c 0,0.34925 -0.0854,0.34925 -0.60537,0.34925 v 0.240594 l 0.88477,-0.02328 c 0.31044,0 0.67521,0 0.98566,0.02328 v -0.240594 h -0.16299 c -0.57432,0 -0.58984,-0.08537 -0.58984,-0.364772 v -1.195209 c 0,-0.768349 0.32596,-1.459087 0.91581,-1.459087 0.0543,0 0.0699,0 0.0854,0.0078 -0.0233,0.0078 -0.1785,0.100894 -0.1785,0.302683 0,0.217311 0.16298,0.333727 0.33372,0.333727 0.1397,0 0.33373,-0.09313 0.33373,-0.341488 z"
         style="stroke-width:0.264583"
         id="path1482" />
      <path
         d="m 132.12593,45.803719 c 0,-0.07761 -0.0621,-0.09313 -0.10089,-0.09313 -0.0699,0 -0.0854,0.04657 -0.1009,0.108655 -0.27163,0.799393 -0.97013,0.799393 -1.04774,0.799393 -0.38806,0 -0.6985,-0.232833 -0.87701,-0.519993 -0.23283,-0.372533 -0.23283,-0.884766 -0.23283,-1.164165 h 2.16535 c 0.17074,0 0.19402,0 0.19402,-0.162983 0,-0.768349 -0.4191,-1.521176 -1.38923,-1.521176 -0.90029,0 -1.61431,0.799393 -1.61431,1.769531 0,1.039987 0.81491,1.792814 1.70744,1.792814 0.94685,0 1.2961,-0.861482 1.2961,-1.008943 z m -0.51223,-1.032226 h -1.83938 c 0.0466,-1.156404 0.6985,-1.350432 0.96238,-1.350432 0.79939,0 0.877,1.047749 0.877,1.350432 z"
         style="stroke-width:0.264583"
         id="path1484" />
      <path
         d="m 135.57185,45.803719 c 0,-0.07761 -0.0621,-0.09313 -0.1009,-0.09313 -0.0698,0 -0.0854,0.04657 -0.10089,0.108655 -0.27164,0.799393 -0.97014,0.799393 -1.04775,0.799393 -0.38805,0 -0.6985,-0.232833 -0.877,-0.519993 -0.23284,-0.372533 -0.23284,-0.884766 -0.23284,-1.164165 h 2.16535 c 0.17075,0 0.19403,0 0.19403,-0.162983 0,-0.768349 -0.4191,-1.521176 -1.38924,-1.521176 -0.90029,0 -1.61431,0.799393 -1.61431,1.769531 0,1.039987 0.81492,1.792814 1.70744,1.792814 0.94686,0 1.29611,-0.861482 1.29611,-1.008943 z m -0.51223,-1.032226 h -1.83938 c 0.0466,-1.156404 0.69849,-1.350432 0.96237,-1.350432 0.7994,0 0.87701,1.047749 0.87701,1.350432 z"
         style="stroke-width:0.264583"
         id="path1486" />
      <path
         d="m 138.37359,48.574431 c 0,-0.02328 -0.0155,-0.04657 -0.031,-0.06209 -0.80715,-0.605366 -1.34267,-2.157586 -1.34267,-3.399362 v -0.651932 c 0,-1.241776 0.53552,-2.793996 1.34267,-3.399362 0.0155,-0.01552 0.031,-0.03881 0.031,-0.06209 0,-0.0388 -0.0388,-0.07761 -0.0776,-0.07761 -0.0155,0 -0.031,0.0078 -0.0466,0.01552 -0.85372,0.644172 -1.66864,2.196391 -1.66864,3.52354 v 0.651932 c 0,1.327148 0.81492,2.879368 1.66864,3.523539 0.0155,0.0078 0.031,0.01552 0.0466,0.01552 0.0388,0 0.0776,-0.03881 0.0776,-0.07761 z"
         style="stroke-width:0.264583"
         id="path1488" />
      <path
         d="m 142.37832,44.507612 c 0,-0.830438 -0.46566,-1.210733 -0.93133,-1.210733 -0.29492,0 -0.5588,0.162983 -0.82268,0.411339 l 0.54328,-2.173111 c 0.008,-0.02328 0.0233,-0.100894 0.0233,-0.100894 0,-0.06985 -0.0466,-0.09313 -0.10865,-0.09313 -0.0233,0 -0.1009,0.0078 -0.12418,0.01552 l -0.76835,0.06209 c -0.0931,0.0078 -0.1785,0.01552 -0.1785,0.162983 0,0.08537 0.0776,0.08537 0.18626,0.08537 0.37254,0 0.38806,0.05433 0.38806,0.131939 0,0.02328 -0.0233,0.131939 -0.0233,0.131939 l -0.76834,3.065638 c -0.008,0.02328 -0.0854,0.341489 -0.0854,0.636411 0,0.651933 0.32597,1.179689 0.89253,1.179689 0.86924,0 1.77729,-1.164167 1.77729,-2.30505 z m -0.95461,1.397 c -0.0931,0.194028 -0.42686,0.737305 -0.82268,0.737305 -0.19403,0 -0.45014,-0.162983 -0.45014,-0.745066 0,-0.341489 0.0699,-0.613128 0.29492,-1.497894 0.0543,-0.186267 0.0543,-0.201789 0.17074,-0.357011 0.22507,-0.310445 0.52,-0.574322 0.81492,-0.574322 0.34925,0 0.42686,0.442383 0.42686,0.690738 0,0.325967 -0.20955,1.249539 -0.43462,1.74625 z"
         style="font-style:italic;font-variant:normal;font-weight:normal;font-stretch:normal;font-size:7.76111px;font-family:'Latin Modern Roman';-inkscape-font-specification:'Latin Modern Roman,  Italic'"
         id="path1490" />
      <path
         d="m 144.62127,45.112981 v -0.651932 c 0,-1.327149 -0.81491,-2.879368 -1.66863,-3.52354 -0.0155,-0.0078 -0.031,-0.01552 -0.0466,-0.01552 -0.0388,0 -0.0776,0.03881 -0.0776,0.07761 0,0.02328 0.0155,0.04657 0.031,0.06209 0.80716,0.605366 1.34268,2.157586 1.34268,3.399362 v 0.651932 c 0,1.241776 -0.53552,2.793996 -1.34268,3.399362 -0.0155,0.01552 -0.031,0.0388 -0.031,0.06209 0,0.03881 0.0388,0.07761 0.0776,0.07761 0.0155,0 0.031,-0.0078 0.0466,-0.01552 0.85372,-0.644171 1.66863,-2.196391 1.66863,-3.523539 z"
         style="stroke-width:0.264583"
         id="path1492" />
      <path
         d="m 153.58534,44.034188 c 0,-0.08537 -0.0699,-0.155222 -0.15522,-0.155222 h -4.85845 c -0.0854,0 -0.15523,0.06985 -0.15523,0.155222 0,0.08537 0.0699,0.155222 0.15523,0.155222 h 4.85845 c 0.0854,0 0.15522,-0.06985 0.15522,-0.155222 z m 0,1.505653 c 0,-0.08537 -0.0699,-0.155222 -0.15522,-0.155222 h -4.85845 c -0.0854,0 -0.15523,0.06985 -0.15523,0.155222 0,0.08537 0.0699,0.155222 0.15523,0.155222 h 4.85845 c 0.0854,0 0.15522,-0.06985 0.15522,-0.155222 z"
         style="stroke-width:0.264583"
         id="path1494" />
      <path
         d="m 159.84853,46.72729 v -0.240594 h -0.24835 c -0.6985,0 -0.72178,-0.08537 -0.72178,-0.372533 v -4.353977 c 0,-0.186267 0,-0.201789 -0.17851,-0.201789 -0.48119,0.496711 -1.16416,0.496711 -1.41252,0.496711 v 0.240594 c 0.15522,0 0.61313,0 1.01671,-0.201789 v 4.02025 c 0,0.279399 -0.0233,0.372533 -0.72179,0.372533 h -0.24835 v 0.240594 c 0.27164,-0.02328 0.94685,-0.02328 1.2573,-0.02328 0.31044,0 0.98566,0 1.25729,0.02328 z"
         style="stroke-width:0.264583"
         id="path1496" />
    </g>
  </g>
</svg>
