<?xml version="1.0" encoding="UTF-8" standalone="no"?>
<svg
   xmlns:dc="http://purl.org/dc/elements/1.1/"
   xmlns:cc="http://creativecommons.org/ns#"
   xmlns:rdf="http://www.w3.org/1999/02/22-rdf-syntax-ns#"
   xmlns:svg="http://www.w3.org/2000/svg"
   xmlns="http://www.w3.org/2000/svg"
   xmlns:sodipodi="http://sodipodi.sourceforge.net/DTD/sodipodi-0.dtd"
   xmlns:inkscape="http://www.inkscape.org/namespaces/inkscape"
   width="240.94983"
   height="252.19646"
   viewBox="0 0 63.751302 66.72698"
   version="1.1"
   id="svg8"
   inkscape:version="1.0.1 (3bc2e813f5, 2020-09-07)"
   sodipodi:docname="k3.svg">
  <defs
     id="defs2">
    <marker
       style="overflow:visible"
       id="marker1390"
       refX="0"
       refY="0"
       orient="auto"
       inkscape:stockid="Arrow1Mend"
       inkscape:isstock="true">
      <path
         transform="matrix(-0.4,0,0,-0.4,-4,0)"
         style="fill:#000000;fill-opacity:1;fill-rule:evenodd;stroke:#000000;stroke-width:1pt;stroke-opacity:1"
         d="M 0,0 5,-5 -12.5,0 5,5 Z"
         id="path1388" />
    </marker>
  </defs>
  <sodipodi:namedview
     id="base"
     pagecolor="#ffffff"
     bordercolor="#666666"
     borderopacity="1.0"
     inkscape:pageopacity="0.0"
     inkscape:pageshadow="2"
     inkscape:zoom="2.0000001"
     inkscape:cx="252.90035"
     inkscape:cy="121.55559"
     inkscape:document-units="mm"
     inkscape:current-layer="text2160"
     inkscape:document-rotation="0"
     showgrid="false"
     units="px"
     width="852px"
     fit-margin-top="15"
     lock-margins="true"
     fit-margin-left="15"
     fit-margin-right="15"
     fit-margin-bottom="15"
     inkscape:window-width="1920"
     inkscape:window-height="1137"
     inkscape:window-x="1432"
     inkscape:window-y="-8"
     inkscape:window-maximized="1" />
  <metadata
     id="metadata5">
    <rdf:RDF>
      <cc:Work
         rdf:about="">
        <dc:format>image/svg+xml</dc:format>
        <dc:type
           rdf:resource="http://purl.org/dc/dcmitype/StillImage" />
        <dc:title />
      </cc:Work>
    </rdf:RDF>
  </metadata>
  <g
     inkscape:label="Layer 1"
     inkscape:groupmode="layer"
     id="layer1"
     transform="translate(-48.208882,-31.839764)">
    <text
       xml:space="preserve"
       style="font-size:7.7611px;line-height:1.25;font-family:'Latin Modern Math';-inkscape-font-specification:'Latin Modern Math';stroke-width:0.264583"
       x="43.479115"
       y="73.638969"
       id="text1560"><tspan
         sodipodi:role="line"
         id="tspan1558"
         x="43.479115"
         y="73.638969"
         style="stroke-width:0.264583" /></text>
    <circle
       style="fill:#000000;stroke:#000000;stroke-width:0.0751274;stroke-linecap:square;stroke-miterlimit:4;stroke-dasharray:none;stroke-dashoffset:0;stroke-opacity:1;stop-color:#000000"
       id="path833-5-03"
       cx="54.088776"
       cy="37.587368"
       r="1.7412902" />
    <circle
       style="fill:#000000;stroke:#000000;stroke-width:0.0751274;stroke-linecap:square;stroke-miterlimit:4;stroke-dasharray:none;stroke-dashoffset:0;stroke-opacity:1;stop-color:#000000"
       id="path833-5-03-5"
       cx="54.088776"
       cy="65.368622"
       r="1.7412902" />
    <circle
       style="fill:#000000;stroke:#000000;stroke-width:0.0751274;stroke-linecap:square;stroke-miterlimit:4;stroke-dasharray:none;stroke-dashoffset:0;stroke-opacity:1;stop-color:#000000"
       id="path833-5-03-5-2"
       cx="53.956486"
       cy="92.752991"
       r="1.7412902" />
    <circle
       style="fill:#000000;stroke:#000000;stroke-width:0.0751274;stroke-linecap:square;stroke-miterlimit:4;stroke-dasharray:none;stroke-dashoffset:0;stroke-opacity:1;stop-color:#000000"
       id="path833-5-03-7"
       cx="85.772629"
       cy="37.653515"
       r="1.7412902" />
    <circle
       style="fill:#000000;stroke:#000000;stroke-width:0.0751274;stroke-linecap:square;stroke-miterlimit:4;stroke-dasharray:none;stroke-dashoffset:0;stroke-opacity:1;stop-color:#000000"
       id="path833-5-03-5-5"
       cx="85.772629"
       cy="65.434769"
       r="1.7412902" />
    <circle
       style="fill:#000000;stroke:#000000;stroke-width:0.0751274;stroke-linecap:square;stroke-miterlimit:4;stroke-dasharray:none;stroke-dashoffset:0;stroke-opacity:1;stop-color:#000000"
       id="path833-5-03-5-2-6"
       cx="85.640343"
       cy="92.819138"
       r="1.7412902" />
    <path
       style="fill:none;stroke:#000000;stroke-width:0.565;stroke-linecap:butt;stroke-linejoin:miter;stroke-miterlimit:4;stroke-dasharray:none;stroke-opacity:1"
       d="M 85.706484,37.587367 54.485651,37.85195 85.706485,65.500909"
       id="path2146" />
    <path
       style="fill:none;stroke:#000000;stroke-width:0.565;stroke-linecap:butt;stroke-linejoin:miter;stroke-miterlimit:4;stroke-dasharray:none;stroke-opacity:1"
       d="M 54.485651,37.85195 85.838776,92.885283"
       id="path2148" />
    <path
       style="fill:none;stroke:#000000;stroke-width:0.565;stroke-linecap:butt;stroke-linejoin:miter;stroke-miterlimit:4;stroke-dasharray:none;stroke-opacity:1"
       d="M 85.706484,37.587367 53.691901,65.236325 85.706485,65.500909"
       id="path2150" />
    <path
       style="fill:none;stroke:#000000;stroke-width:0.565;stroke-linecap:butt;stroke-linejoin:miter;stroke-miterlimit:4;stroke-dasharray:none;stroke-opacity:1"
       d="M 53.691901,65.236325 85.838776,92.885283"
       id="path2152" />
    <path
       style="fill:none;stroke:#000000;stroke-width:0.565;stroke-linecap:butt;stroke-linejoin:miter;stroke-miterlimit:4;stroke-dasharray:none;stroke-opacity:1"
       d="M 85.706484,37.587367 53.824193,92.752991 85.706485,65.500909"
       id="path2154" />
    <path
       style="fill:none;stroke:#000000;stroke-width:0.565;stroke-linecap:butt;stroke-linejoin:miter;stroke-miterlimit:4;stroke-dasharray:none;stroke-opacity:1"
       d="m 53.824193,92.752989 32.014583,0.132294"
       id="path2156" />
    <g
       aria-label="K3"
       id="text2160"
       style="font-size:7.7611px;line-height:1.25;font-family:'Latin Modern Roman';-inkscape-font-specification:'Latin Modern Roman, ';stroke-width:0.264583">
      <path
         d="m 102.71744,67.749863 v -0.240594 c -0.4191,0 -0.58209,-0.03105 -0.81492,-0.372533 l -1.79281,-2.638774 1.397,-1.34267 c 0.0621,-0.06209 0.47342,-0.457905 1.10207,-0.465666 v -0.240595 c -0.20179,0.02328 -0.45014,0.02328 -0.65969,0.02328 -0.2794,0 -0.72178,0 -0.98566,-0.02328 v 0.240595 c 0.31044,0.0078 0.35701,0.186266 0.35701,0.256116 0,0.124177 -0.0776,0.201788 -0.1397,0.256116 l -2.429217,2.320569 v -2.46803 c 0,-0.279399 0.0155,-0.364771 0.61312,-0.364771 h 0.18627 v -0.240595 c -0.27164,0.02328 -0.84596,0.02328 -1.14088,0.02328 -0.29493,0 -0.87701,0 -1.148646,-0.02328 v 0.240595 h 0.186266 c 0.59761,0 0.61313,0.08537 0.61313,0.364771 v 4.0901 c 0,0.279399 -0.0155,0.364772 -0.61313,0.364772 h -0.186266 v 0.240594 c 0.271636,-0.02328 0.845956,-0.02328 1.140886,-0.02328 0.29492,0 0.877,0 1.14864,0.02328 v -0.240594 h -0.18627 c -0.5976,0 -0.61312,-0.08537 -0.61312,-0.364772 v -1.358193 l 0.90028,-0.853721 1.404757,2.079975 c 0.0466,0.06985 0.11642,0.170744 0.11642,0.263878 0,0.232833 -0.30268,0.232833 -0.45791,0.232833 v 0.240594 c 0.27164,-0.02328 0.81492,-0.02328 1.10984,-0.02328 z"
         style="stroke-width:0.264583"
         id="path2162" />
      <path
         d="m 105.46574,68.533164 c 0,-0.414224 -0.31824,-0.808241 -0.8436,-0.914322 0.41423,-0.136391 0.70722,-0.489996 0.70722,-0.889066 0,-0.414223 -0.44454,-0.697108 -0.92949,-0.697108 -0.5102,0 -0.89411,0.303091 -0.89411,0.687006 0,0.166699 0.11113,0.262678 0.25762,0.262678 0.1566,0 0.25763,-0.111133 0.25763,-0.257627 0,-0.252575 -0.23742,-0.252575 -0.31319,-0.252575 0.1566,-0.247524 0.49,-0.313194 0.67185,-0.313194 0.20711,0 0.48494,0.111133 0.48494,0.565769 0,0.06062 -0.0101,0.353605 -0.14144,0.575871 -0.15154,0.242473 -0.3233,0.257627 -0.44958,0.262679 -0.0404,0.0051 -0.16165,0.01515 -0.19701,0.01515 -0.0404,0.0051 -0.0758,0.0101 -0.0758,0.06062 0,0.05557 0.0353,0.05557 0.12123,0.05557 h 0.22227 c 0.41422,0 0.60113,0.343503 0.60113,0.838551 0,0.687004 -0.34855,0.833498 -0.57082,0.833498 -0.21722,0 -0.59608,-0.08588 -0.77288,-0.383915 0.1768,0.02526 0.3334,-0.08588 0.3334,-0.277833 0,-0.181854 -0.13639,-0.282884 -0.28289,-0.282884 -0.12124,0 -0.28288,0.07072 -0.28288,0.292987 0,0.459687 0.46979,0.793087 1.0204,0.793087 0.61628,0 1.07597,-0.459687 1.07597,-0.97494 z"
         style="stroke-width:0.17221"
         id="path2164" />
      <path
         d="m 109.35932,68.476792 c 0,-0.414224 -0.31824,-0.808241 -0.8436,-0.914322 0.41423,-0.136391 0.70722,-0.489996 0.70722,-0.889066 0,-0.414223 -0.44454,-0.697108 -0.92949,-0.697108 -0.5102,0 -0.89411,0.303091 -0.89411,0.687006 0,0.166699 0.11113,0.262678 0.25762,0.262678 0.1566,0 0.25763,-0.111133 0.25763,-0.257627 0,-0.252575 -0.23742,-0.252575 -0.31319,-0.252575 0.1566,-0.247524 0.49,-0.313194 0.67185,-0.313194 0.20711,0 0.48494,0.111133 0.48494,0.565769 0,0.06062 -0.0101,0.353605 -0.14144,0.575871 -0.15154,0.242473 -0.3233,0.257627 -0.44958,0.262679 -0.0404,0.0051 -0.16165,0.01515 -0.19701,0.01515 -0.0404,0.0051 -0.0758,0.0101 -0.0758,0.06062 0,0.05557 0.0353,0.05557 0.12123,0.05557 h 0.22227 c 0.41422,0 0.60113,0.343503 0.60113,0.838551 0,0.687004 -0.34855,0.833498 -0.57082,0.833498 -0.21722,0 -0.59608,-0.08588 -0.77288,-0.383915 0.1768,0.02526 0.3334,-0.08588 0.3334,-0.277833 0,-0.181854 -0.13639,-0.282884 -0.28289,-0.282884 -0.12124,0 -0.28288,0.07072 -0.28288,0.292987 0,0.459687 0.46979,0.793087 1.0204,0.793087 0.61628,0 1.07597,-0.459687 1.07597,-0.97494 z"
         style="font-size:7.7611px;line-height:1.25;font-family:'Latin Modern Roman';-inkscape-font-specification:'Latin Modern Roman, ';stroke-width:0.17221"
         id="path2164-6" />
      <g
         aria-label=","
         id="text904"
         style="font-size:4.23333px;line-height:1.25;font-family:'Latin Modern Roman';-inkscape-font-specification:'Latin Modern Roman, ';stroke-width:0.0700042">
        <path
           d="m 106.36415,69.112947 c 0,-0.270934 -0.1016,-0.4445 -0.27093,-0.4445 -0.14817,0 -0.22437,0.1143 -0.22437,0.224366 0,0.110067 0.072,0.224367 0.22437,0.224367 0.0635,0 0.12276,-0.0254 0.16933,-0.06773 0.008,0.334433 -0.11007,0.592666 -0.29633,0.791632 -0.0254,0.0254 -0.0296,0.02963 -0.0296,0.04657 0,0.02963 0.0212,0.04657 0.0423,0.04657 0.0508,0 0.38523,-0.334434 0.38523,-0.821266 z"
           style="stroke-width:0.0700042"
           id="path906" />
      </g>
    </g>
  </g>
</svg>
