<?xml version="1.0" encoding="UTF-8" standalone="no"?>
<svg
   xmlns:dc="http://purl.org/dc/elements/1.1/"
   xmlns:cc="http://creativecommons.org/ns#"
   xmlns:rdf="http://www.w3.org/1999/02/22-rdf-syntax-ns#"
   xmlns:svg="http://www.w3.org/2000/svg"
   xmlns="http://www.w3.org/2000/svg"
   xmlns:sodipodi="http://sodipodi.sourceforge.net/DTD/sodipodi-0.dtd"
   xmlns:inkscape="http://www.inkscape.org/namespaces/inkscape"
   width="173.37967mm"
   height="88.789482mm"
   viewBox="0 0 173.37967 88.789482"
   version="1.1"
   id="svg915"
   inkscape:version="1.0.1 (3bc2e813f5, 2020-09-07)"
   sodipodi:docname="k33k5.svg">
  <defs
     id="defs909" />
  <sodipodi:namedview
     id="base"
     pagecolor="#ffffff"
     bordercolor="#666666"
     borderopacity="1.0"
     inkscape:pageopacity="0.0"
     inkscape:pageshadow="2"
     inkscape:zoom="1.979899"
     inkscape:cx="334.14027"
     inkscape:cy="224.73069"
     inkscape:document-units="mm"
     inkscape:current-layer="text1551"
     inkscape:document-rotation="0"
     showgrid="false"
     inkscape:snap-global="false"
     fit-margin-top="15"
     fit-margin-left="15"
     fit-margin-right="15"
     fit-margin-bottom="15"
     inkscape:window-width="1920"
     inkscape:window-height="1137"
     inkscape:window-x="1432"
     inkscape:window-y="-8"
     inkscape:window-maximized="1" />
  <metadata
     id="metadata912">
    <rdf:RDF>
      <cc:Work
         rdf:about="">
        <dc:format>image/svg+xml</dc:format>
        <dc:type
           rdf:resource="http://purl.org/dc/dcmitype/StillImage" />
        <dc:title></dc:title>
      </cc:Work>
    </rdf:RDF>
  </metadata>
  <g
     inkscape:label="Layer 1"
     inkscape:groupmode="layer"
     id="layer1"
     transform="translate(8.0610824,7.9200368)">
    <circle
       style="fill:#000000;stroke:#000000;stroke-width:0.0751274;stroke-linecap:square;stroke-miterlimit:4;stroke-dasharray:none;stroke-dashoffset:0;stroke-opacity:1;stop-color:#000000"
       id="path833-5-03"
       cx="8.8500614"
       cy="8.8588171"
       r="1.7412902" />
    <circle
       style="fill:#000000;stroke:#000000;stroke-width:0.0751274;stroke-linecap:square;stroke-miterlimit:4;stroke-dasharray:none;stroke-dashoffset:0;stroke-opacity:1;stop-color:#000000"
       id="path833-5-03-5"
       cx="8.8500614"
       cy="36.640072"
       r="1.7412902" />
    <circle
       style="fill:#000000;stroke:#000000;stroke-width:0.0751274;stroke-linecap:square;stroke-miterlimit:4;stroke-dasharray:none;stroke-dashoffset:0;stroke-opacity:1;stop-color:#000000"
       id="path833-5-03-5-2"
       cx="8.7177715"
       cy="64.024445"
       r="1.7412902" />
    <circle
       style="fill:#000000;stroke:#000000;stroke-width:0.0751274;stroke-linecap:square;stroke-miterlimit:4;stroke-dasharray:none;stroke-dashoffset:0;stroke-opacity:1;stop-color:#000000"
       id="path833-5-03-7"
       cx="40.533913"
       cy="8.924964"
       r="1.7412902" />
    <circle
       style="fill:#000000;stroke:#000000;stroke-width:0.0751274;stroke-linecap:square;stroke-miterlimit:4;stroke-dasharray:none;stroke-dashoffset:0;stroke-opacity:1;stop-color:#000000"
       id="path833-5-03-5-5"
       cx="40.533913"
       cy="36.706215"
       r="1.7412902" />
    <circle
       style="fill:#000000;stroke:#000000;stroke-width:0.0751274;stroke-linecap:square;stroke-miterlimit:4;stroke-dasharray:none;stroke-dashoffset:0;stroke-opacity:1;stop-color:#000000"
       id="path833-5-03-5-2-6"
       cx="40.401627"
       cy="64.090591"
       r="1.7412902" />
    <path
       style="fill:none;stroke:#000000;stroke-width:0.564999;stroke-linecap:butt;stroke-linejoin:miter;stroke-miterlimit:4;stroke-dasharray:none;stroke-opacity:1"
       d="M 40.467769,8.858816 9.2469367,9.123399 40.467772,36.772359"
       id="path2146" />
    <path
       style="fill:none;stroke:#000000;stroke-width:0.564999;stroke-linecap:butt;stroke-linejoin:miter;stroke-miterlimit:4;stroke-dasharray:none;stroke-opacity:1"
       d="M 9.2469367,9.123399 40.600061,64.156732"
       id="path2148" />
    <path
       style="fill:none;stroke:#000000;stroke-width:0.564999;stroke-linecap:butt;stroke-linejoin:miter;stroke-miterlimit:4;stroke-dasharray:none;stroke-opacity:1"
       d="M 40.467769,8.858816 8.4531867,36.507773 40.467772,36.772359"
       id="path2150" />
    <path
       style="fill:none;stroke:#000000;stroke-width:0.564999;stroke-linecap:butt;stroke-linejoin:miter;stroke-miterlimit:4;stroke-dasharray:none;stroke-opacity:1"
       d="M 8.4531867,36.507773 40.600061,64.156732"
       id="path2152" />
    <path
       style="fill:none;stroke:#000000;stroke-width:0.564999;stroke-linecap:butt;stroke-linejoin:miter;stroke-miterlimit:4;stroke-dasharray:none;stroke-opacity:1"
       d="M 40.467769,8.858816 8.5854787,64.02444 40.467772,36.772359"
       id="path2154" />
    <path
       style="fill:none;stroke:#000000;stroke-width:0.564999;stroke-linecap:butt;stroke-linejoin:miter;stroke-miterlimit:4;stroke-dasharray:none;stroke-opacity:1"
       d="M 8.5854787,64.024437 40.600061,64.156732"
       id="path2156" />
    <path
       d="m 57.478726,39.021312 v -0.240593 c -0.4191,0 -0.582092,-0.03105 -0.81492,-0.372534 l -1.792811,-2.638774 1.397,-1.34267 c 0.0621,-0.06209 0.473422,-0.457904 1.102072,-0.465667 V 33.72048 c -0.20179,0.02328 -0.450141,0.02328 -0.659691,0.02328 -0.2794,0 -0.721781,0 -0.98566,-0.02328 v 0.240594 c 0.31044,0.0078 0.35701,0.186267 0.35701,0.256117 0,0.124177 -0.0776,0.201789 -0.1397,0.256116 l -2.429217,2.320568 v -2.468028 c 0,-0.2794 0.0155,-0.364773 0.613119,-0.364773 h 0.18627 V 33.72048 c -0.27164,0.02328 -0.845961,0.02328 -1.140878,0.02328 -0.294931,0 -0.877012,0 -1.148647,-0.02328 v 0.240594 h 0.186264 c 0.597612,0 0.613133,0.08537 0.613133,0.364773 v 4.090099 c 0,0.2794 -0.0155,0.364773 -0.613133,0.364773 h -0.186264 v 0.240593 c 0.271635,-0.02328 0.845955,-0.02328 1.140886,-0.02328 0.294921,0 0.876999,0 1.148639,0.02328 v -0.240593 h -0.18627 c -0.597598,0 -0.613119,-0.08537 -0.613119,-0.364773 v -1.358194 l 0.90028,-0.85372 1.404757,2.079977 c 0.0466,0.06985 0.11642,0.170743 0.11642,0.263876 0,0.232834 -0.302681,0.232834 -0.45791,0.232834 v 0.240593 c 0.27164,-0.02328 0.81492,-0.02328 1.10984,-0.02328 z"
       style="font-size:7.7611px;line-height:1.25;font-family:'Latin Modern Roman';-inkscape-font-specification:'Latin Modern Roman, ';stroke-width:0.264583"
       id="path2162" />
    <g
       aria-label="3, 3"
       id="text1551"
       style="font-size:5.38155px;line-height:1.25;font-family:'Latin Modern Roman';-inkscape-font-specification:'Latin Modern Roman, ';stroke-width:0.183461">
      <path
         d="m 60.57865,39.415498 c 0,-0.441287 -0.339038,-0.861048 -0.898719,-0.974061 0.441287,-0.145301 0.753417,-0.52201 0.753417,-0.947152 0,-0.441287 -0.473576,-0.742654 -0.990205,-0.742654 -0.543537,0 -0.952534,0.322893 -0.952534,0.731891 0,0.177591 0.118394,0.27984 0.274459,0.27984 0.166828,0 0.274459,-0.118394 0.274459,-0.274459 0,-0.269077 -0.252933,-0.269077 -0.333656,-0.269077 0.166828,-0.263696 0.52201,-0.333656 0.715746,-0.333656 0.220643,0 0.516629,0.118394 0.516629,0.602733 0,0.06458 -0.01076,0.376709 -0.150684,0.613497 -0.161446,0.258314 -0.344419,0.274459 -0.478958,0.27984 -0.04305,0.0054 -0.172209,0.01614 -0.20988,0.01614 -0.04305,0.0054 -0.08072,0.01076 -0.08072,0.06458 0,0.0592 0.03767,0.0592 0.129157,0.0592 h 0.236788 c 0.441287,0 0.640404,0.365945 0.640404,0.893337 0,0.731891 -0.371327,0.887956 -0.608115,0.887956 -0.231406,0 -0.635023,-0.09149 -0.823377,-0.408998 0.188354,0.02691 0.355182,-0.09149 0.355182,-0.295985 0,-0.193736 -0.145301,-0.301367 -0.301366,-0.301367 -0.129158,0 -0.301367,0.07534 -0.301367,0.31213 0,0.489721 0.500484,0.844903 1.087073,0.844903 0.656549,0 1.14627,-0.489721 1.14627,-1.038639 z"
         style="stroke-width:0.183461"
         id="path2626" />
      <path
         d="m 61.902501,40.330361 c 0,-0.344419 -0.129157,-0.565062 -0.344419,-0.565062 -0.188354,0 -0.285222,0.145302 -0.285222,0.285222 0,0.13992 0.09149,0.285222 0.285222,0.285222 0.08072,0 0.156065,-0.03229 0.215262,-0.08611 0.01076,0.425143 -0.13992,0.753417 -0.376709,1.00635 -0.03229,0.03229 -0.03767,0.03767 -0.03767,0.0592 0,0.03767 0.02691,0.0592 0.05382,0.0592 0.06458,0 0.489721,-0.425142 0.489721,-1.044021 z"
         style="stroke-width:0.183461"
         id="path2628" />
      <path
         d="m 66.028365,39.415498 c 0,-0.441287 -0.339038,-0.861048 -0.898719,-0.974061 0.441287,-0.145301 0.753417,-0.52201 0.753417,-0.947152 0,-0.441287 -0.473576,-0.742654 -0.990205,-0.742654 -0.543537,0 -0.952534,0.322893 -0.952534,0.731891 0,0.177591 0.118394,0.27984 0.274459,0.27984 0.166828,0 0.274459,-0.118394 0.274459,-0.274459 0,-0.269077 -0.252933,-0.269077 -0.333656,-0.269077 0.166828,-0.263696 0.52201,-0.333656 0.715746,-0.333656 0.220643,0 0.516628,0.118394 0.516628,0.602733 0,0.06458 -0.01076,0.376709 -0.150683,0.613497 -0.161446,0.258314 -0.344419,0.274459 -0.478958,0.27984 -0.04305,0.0054 -0.172209,0.01614 -0.20988,0.01614 -0.04305,0.0054 -0.08072,0.01076 -0.08072,0.06458 0,0.0592 0.03767,0.0592 0.129158,0.0592 h 0.236788 c 0.441287,0 0.640404,0.365945 0.640404,0.893337 0,0.731891 -0.371327,0.887956 -0.608115,0.887956 -0.231407,0 -0.635023,-0.09149 -0.823377,-0.408998 0.188354,0.02691 0.355182,-0.09149 0.355182,-0.295985 0,-0.193736 -0.145302,-0.301367 -0.301367,-0.301367 -0.129157,0 -0.301366,0.07534 -0.301366,0.31213 0,0.489721 0.500484,0.844903 1.087073,0.844903 0.656549,0 1.14627,-0.489721 1.14627,-1.038639 z"
         style="stroke-width:0.183461"
         id="path2630" />
    </g>
    <circle
       style="fill:#000000;stroke:#000000;stroke-width:0.0751274;stroke-linecap:square;stroke-miterlimit:4;stroke-dasharray:none;stroke-dashoffset:0;stroke-opacity:1;stop-color:#000000"
       id="path833-5-03-3"
       cx="110.86227"
       cy="9.574276"
       r="1.7412902" />
    <circle
       style="fill:#000000;stroke:#000000;stroke-width:0.0751274;stroke-linecap:square;stroke-miterlimit:4;stroke-dasharray:none;stroke-dashoffset:0;stroke-opacity:1;stop-color:#000000"
       id="path833-5-03-3-4"
       cx="83.595413"
       cy="34.46244"
       inkscape:transform-center-x="0.13363476"
       inkscape:transform-center-y="0.13363476"
       r="1.7412902" />
    <circle
       style="fill:#000000;stroke:#000000;stroke-width:0.0751274;stroke-linecap:square;stroke-miterlimit:4;stroke-dasharray:none;stroke-dashoffset:0;stroke-opacity:1;stop-color:#000000"
       id="path833-5-03-3-7"
       cx="136.38651"
       cy="34.55061"
       r="1.7412902" />
    <circle
       style="fill:#000000;stroke:#000000;stroke-width:0.0751274;stroke-linecap:square;stroke-miterlimit:4;stroke-dasharray:none;stroke-dashoffset:0;stroke-opacity:1;stop-color:#000000"
       id="path833-5-03-3-9"
       cx="94.278198"
       cy="63.2019"
       r="1.7412902" />
    <circle
       style="fill:#000000;stroke:#000000;stroke-width:0.0751274;stroke-linecap:square;stroke-miterlimit:4;stroke-dasharray:none;stroke-dashoffset:0;stroke-opacity:1;stop-color:#000000"
       id="path833-5-03-3-5"
       cx="124.65337"
       cy="63.442451"
       r="1.7412902" />
    <path
       style="fill:none;stroke:#000000;stroke-width:0.564999;stroke-linecap:butt;stroke-linejoin:miter;stroke-miterlimit:4;stroke-dasharray:none;stroke-opacity:1"
       d="M 110.24754,10.188999 83.28005,34.189802"
       id="path1746"
       sodipodi:nodetypes="cc" />
    <path
       style="fill:none;stroke:#000000;stroke-width:0.564999;stroke-linecap:butt;stroke-linejoin:miter;stroke-miterlimit:4;stroke-dasharray:none;stroke-opacity:1"
       d="M 136.96113,34.697614 111.04935,9.9217291"
       id="path1748"
       sodipodi:nodetypes="cc" />
    <path
       style="fill:none;stroke:#000000;stroke-width:0.564999;stroke-linecap:butt;stroke-linejoin:miter;stroke-miterlimit:4;stroke-dasharray:none;stroke-opacity:1"
       d="M 136.56023,34.430345 124.92065,63.669632"
       id="path1750"
       sodipodi:nodetypes="cc" />
    <path
       style="fill:none;stroke:#000000;stroke-width:0.564999;stroke-linecap:butt;stroke-linejoin:miter;stroke-miterlimit:4;stroke-dasharray:none;stroke-opacity:1"
       d="m 94.051011,63.108367 30.869639,0.160361"
       id="path1752"
       sodipodi:nodetypes="cc" />
    <path
       style="fill:none;stroke:#000000;stroke-width:0.564999;stroke-linecap:butt;stroke-linejoin:miter;stroke-miterlimit:4;stroke-dasharray:none;stroke-opacity:1"
       d="M 136.15933,34.697614 94.31828,63.375637 83.54732,34.457072 124.51974,63.268728"
       id="path1754"
       sodipodi:nodetypes="cccc" />
    <path
       style="fill:none;stroke:#000000;stroke-width:0.564999;stroke-linecap:butt;stroke-linejoin:miter;stroke-miterlimit:4;stroke-dasharray:none;stroke-opacity:1"
       d="M 83.680955,34.189802 136.69387,34.56398"
       id="path1756"
       sodipodi:nodetypes="cc" />
    <path
       style="fill:none;stroke:#000000;stroke-width:0.564999;stroke-linecap:butt;stroke-linejoin:miter;stroke-miterlimit:4;stroke-dasharray:none;stroke-opacity:1"
       d="M 94.31828,63.242002 110.91572,10.055364"
       id="path1758"
       sodipodi:nodetypes="cc" />
    <path
       d="m 147.93905,38.003457 v -0.240596 c -0.41909,0 -0.58208,-0.03104 -0.81491,-0.372533 l -1.79282,-2.638772 1.397,-1.34267 c 0.0621,-0.06209 0.47343,-0.457907 1.10208,-0.465667 v -0.240593 c -0.20179,0.02328 -0.45014,0.02328 -0.65969,0.02328 -0.2794,0 -0.72179,0 -0.98566,-0.02328 v 0.240593 c 0.31044,0.0078 0.35701,0.186267 0.35701,0.256117 0,0.124177 -0.0776,0.201787 -0.1397,0.256116 l -2.42923,2.320568 v -2.468028 c 0,-0.2794 0.0155,-0.364773 0.61313,-0.364773 h 0.18627 v -0.240593 c -0.27164,0.02328 -0.84596,0.02328 -1.14089,0.02328 -0.29492,0 -0.877,0 -1.14864,-0.02328 v 0.240593 h 0.18627 c 0.5976,0 0.61312,0.08537 0.61312,0.364773 v 4.090099 c 0,0.2794 -0.0155,0.36477 -0.61312,0.36477 H 142.483 v 0.240596 c 0.27164,-0.02328 0.84596,-0.02328 1.14088,-0.02328 0.29492,0 0.87701,0 1.14865,0.02328 v -0.240596 h -0.18627 c -0.59761,0 -0.61313,-0.08537 -0.61313,-0.36477 v -1.358194 l 0.90029,-0.85372 1.40476,2.079974 c 0.0466,0.06985 0.11642,0.170746 0.11642,0.263877 0,0.232833 -0.30269,0.232833 -0.45791,0.232833 v 0.240596 c 0.27164,-0.02328 0.81492,-0.02328 1.10984,-0.02328 z"
       style="font-size:7.7611px;line-height:1.25;font-family:'Latin Modern Roman';-inkscape-font-specification:'Latin Modern Roman, ';stroke-width:0.264583"
       id="path1849" />
    <path
       d="m 150.31858,38.114143 c 0,-0.599972 -0.41343,-1.104151 -0.95794,-1.104151 -0.24201,0 -0.45881,0.08067 -0.64031,0.25713 v -0.983147 c 0.10082,0.03026 0.26721,0.06555 0.42855,0.06555 0.62014,0 0.97307,-0.458803 0.97307,-0.524346 0,-0.03026 -0.0151,-0.05545 -0.0504,-0.05545 0,0 -0.0151,0 -0.0404,0.01511 -0.10082,0.04537 -0.34789,0.146214 -0.68568,0.146214 -0.20167,0 -0.4336,-0.03529 -0.67057,-0.141171 -0.0403,-0.01513 -0.0604,-0.01513 -0.0604,-0.01513 -0.0505,0 -0.0505,0.04034 -0.0505,0.121002 v 1.492369 c 0,0.09076 0,0.131085 0.0706,0.131085 0.0353,0 0.0454,-0.01511 0.0656,-0.04537 0.0555,-0.08066 0.24199,-0.352925 0.65039,-0.352925 0.26217,0 0.38821,0.23192 0.42855,0.322673 0.0807,0.186547 0.0907,0.383177 0.0907,0.635264 0,0.176464 0,0.47897 -0.121,0.690724 -0.12101,0.196628 -0.30756,0.327713 -0.53948,0.327713 -0.36805,0 -0.65543,-0.267216 -0.74114,-0.564679 0.0151,0.005 0.0303,0.01008 0.0857,0.01008 0.16638,0 0.25209,-0.126048 0.25209,-0.24705 0,-0.121004 -0.0857,-0.247046 -0.25209,-0.247046 -0.0706,0 -0.24705,0.03529 -0.24705,0.267213 0,0.433594 0.34788,0.922647 0.91256,0.922647 0.58485,0 1.09911,-0.48401 1.09911,-1.124318 z"
       style="font-size:7.7611px;line-height:1.25;font-family:'Latin Modern Roman';-inkscape-font-specification:'Latin Modern Roman, ';stroke-width:0.171879"
       id="path1851" />
    <path
       style="font-size:7.7611px;line-height:1.25;font-family:'Latin Modern Roman';-inkscape-font-specification:'Latin Modern Roman, ';fill:none;stroke:#000000;stroke-width:0.564999;stroke-linecap:butt;stroke-linejoin:miter;stroke-miterlimit:4;stroke-dasharray:none;stroke-opacity:1"
       d="m 110.78208,9.38719 14.2722,54.816979"
       id="path2060"
       sodipodi:nodetypes="cc" />
  </g>
</svg>
