<?xml version="1.0" encoding="UTF-8" standalone="no"?>
<svg
   xmlns:dc="http://purl.org/dc/elements/1.1/"
   xmlns:cc="http://creativecommons.org/ns#"
   xmlns:rdf="http://www.w3.org/1999/02/22-rdf-syntax-ns#"
   xmlns:svg="http://www.w3.org/2000/svg"
   xmlns="http://www.w3.org/2000/svg"
   xmlns:sodipodi="http://sodipodi.sourceforge.net/DTD/sodipodi-0.dtd"
   xmlns:inkscape="http://www.inkscape.org/namespaces/inkscape"
   width="191.97221mm"
   height="138.50322mm"
   viewBox="0 0 191.97221 138.50322"
   version="1.1"
   id="svg2845"
   inkscape:version="1.0.1 (3bc2e813f5, 2020-09-07)"
   sodipodi:docname="minimalmaximal.svg">
  <defs
     id="defs2839">
    <marker
       style="overflow:visible"
       id="marker4683"
       refX="0"
       refY="0"
       orient="auto"
       inkscape:stockid="Arrow1Mend"
       inkscape:isstock="true">
      <path
         transform="matrix(-0.4,0,0,-0.4,-4,0)"
         style="fill:#000000;fill-opacity:1;fill-rule:evenodd;stroke:#000000;stroke-width:1pt;stroke-opacity:1"
         d="M 0,0 5,-5 -12.5,0 5,5 Z"
         id="path4681" />
    </marker>
    <marker
       style="overflow:visible"
       id="marker4569"
       refX="0"
       refY="0"
       orient="auto"
       inkscape:stockid="Arrow1Mend"
       inkscape:isstock="true"
       inkscape:collect="always">
      <path
         transform="matrix(-0.4,0,0,-0.4,-4,0)"
         style="fill:#000000;fill-opacity:1;fill-rule:evenodd;stroke:#000000;stroke-width:1pt;stroke-opacity:1"
         d="M 0,0 5,-5 -12.5,0 5,5 Z"
         id="path4567" />
    </marker>
    <marker
       style="overflow:visible"
       id="marker4473"
       refX="0"
       refY="0"
       orient="auto"
       inkscape:stockid="Arrow1Mend"
       inkscape:isstock="true"
       inkscape:collect="always">
      <path
         transform="matrix(-0.4,0,0,-0.4,-4,0)"
         style="fill:#000000;fill-opacity:1;fill-rule:evenodd;stroke:#000000;stroke-width:1pt;stroke-opacity:1"
         d="M 0,0 5,-5 -12.5,0 5,5 Z"
         id="path4471" />
    </marker>
    <marker
       style="overflow:visible"
       id="marker4383"
       refX="0"
       refY="0"
       orient="auto"
       inkscape:stockid="Arrow1Mend"
       inkscape:isstock="true"
       inkscape:collect="always">
      <path
         transform="matrix(-0.4,0,0,-0.4,-4,0)"
         style="fill:#000000;fill-opacity:1;fill-rule:evenodd;stroke:#000000;stroke-width:1pt;stroke-opacity:1"
         d="M 0,0 5,-5 -12.5,0 5,5 Z"
         id="path4381" />
    </marker>
    <marker
       style="overflow:visible"
       id="marker4285"
       refX="0"
       refY="0"
       orient="auto"
       inkscape:stockid="Arrow1Mend"
       inkscape:isstock="true"
       inkscape:collect="always">
      <path
         transform="matrix(-0.4,0,0,-0.4,-4,0)"
         style="fill:#000000;fill-opacity:1;fill-rule:evenodd;stroke:#000000;stroke-width:1pt;stroke-opacity:1"
         d="M 0,0 5,-5 -12.5,0 5,5 Z"
         id="path4283" />
    </marker>
    <marker
       style="overflow:visible"
       id="marker4207"
       refX="0"
       refY="0"
       orient="auto"
       inkscape:stockid="Arrow1Mend"
       inkscape:isstock="true"
       inkscape:collect="always">
      <path
         transform="matrix(-0.4,0,0,-0.4,-4,0)"
         style="fill:#000000;fill-opacity:1;fill-rule:evenodd;stroke:#000000;stroke-width:1pt;stroke-opacity:1"
         d="M 0,0 5,-5 -12.5,0 5,5 Z"
         id="path4205" />
    </marker>
    <marker
       style="overflow:visible"
       id="marker4135"
       refX="0"
       refY="0"
       orient="auto"
       inkscape:stockid="Arrow1Mend"
       inkscape:isstock="true"
       inkscape:collect="always">
      <path
         transform="matrix(-0.4,0,0,-0.4,-4,0)"
         style="fill:#000000;fill-opacity:1;fill-rule:evenodd;stroke:#000000;stroke-width:1pt;stroke-opacity:1"
         d="M 0,0 5,-5 -12.5,0 5,5 Z"
         id="path4133" />
    </marker>
    <marker
       style="overflow:visible"
       id="marker3869"
       refX="0"
       refY="0"
       orient="auto"
       inkscape:stockid="Arrow1Mend"
       inkscape:isstock="true"
       inkscape:collect="always">
      <path
         transform="matrix(-0.4,0,0,-0.4,-4,0)"
         style="fill:#000000;fill-opacity:1;fill-rule:evenodd;stroke:#000000;stroke-width:1pt;stroke-opacity:1"
         d="M 0,0 5,-5 -12.5,0 5,5 Z"
         id="path3867" />
    </marker>
    <marker
       style="overflow:visible"
       id="marker3809"
       refX="0"
       refY="0"
       orient="auto"
       inkscape:stockid="Arrow1Mend"
       inkscape:isstock="true"
       inkscape:collect="always">
      <path
         transform="matrix(-0.4,0,0,-0.4,-4,0)"
         style="fill:#000000;fill-opacity:1;fill-rule:evenodd;stroke:#000000;stroke-width:1pt;stroke-opacity:1"
         d="M 0,0 5,-5 -12.5,0 5,5 Z"
         id="path3807" />
    </marker>
    <marker
       style="overflow:visible"
       id="marker3695"
       refX="0"
       refY="0"
       orient="auto"
       inkscape:stockid="Arrow1Mend"
       inkscape:isstock="true"
       inkscape:collect="always">
      <path
         transform="matrix(-0.4,0,0,-0.4,-4,0)"
         style="fill:#000000;fill-opacity:1;fill-rule:evenodd;stroke:#000000;stroke-width:1pt;stroke-opacity:1"
         d="M 0,0 5,-5 -12.5,0 5,5 Z"
         id="path3693" />
    </marker>
    <marker
       style="overflow:visible"
       id="marker3641"
       refX="0"
       refY="0"
       orient="auto"
       inkscape:stockid="Arrow1Mend"
       inkscape:isstock="true"
       inkscape:collect="always">
      <path
         transform="matrix(-0.4,0,0,-0.4,-4,0)"
         style="fill:#000000;fill-opacity:1;fill-rule:evenodd;stroke:#000000;stroke-width:1pt;stroke-opacity:1"
         d="M 0,0 5,-5 -12.5,0 5,5 Z"
         id="path3639" />
    </marker>
    <marker
       style="overflow:visible"
       id="marker3551"
       refX="0"
       refY="0"
       orient="auto"
       inkscape:stockid="Arrow1Mend"
       inkscape:isstock="true"
       inkscape:collect="always">
      <path
         transform="matrix(-0.4,0,0,-0.4,-4,0)"
         style="fill:#000000;fill-opacity:1;fill-rule:evenodd;stroke:#000000;stroke-width:1pt;stroke-opacity:1"
         d="M 0,0 5,-5 -12.5,0 5,5 Z"
         id="path3549" />
    </marker>
    <marker
       style="overflow:visible"
       id="marker3515"
       refX="0"
       refY="0"
       orient="auto"
       inkscape:stockid="Arrow1Mend"
       inkscape:isstock="true"
       inkscape:collect="always">
      <path
         transform="matrix(-0.4,0,0,-0.4,-4,0)"
         style="fill:#000000;fill-opacity:1;fill-rule:evenodd;stroke:#000000;stroke-width:1pt;stroke-opacity:1"
         d="M 0,0 5,-5 -12.5,0 5,5 Z"
         id="path3513" />
    </marker>
    <marker
       style="overflow:visible"
       id="marker3485"
       refX="0"
       refY="0"
       orient="auto"
       inkscape:stockid="Arrow1Mend"
       inkscape:isstock="true"
       inkscape:collect="always">
      <path
         transform="matrix(-0.4,0,0,-0.4,-4,0)"
         style="fill:#000000;fill-opacity:1;fill-rule:evenodd;stroke:#000000;stroke-width:1pt;stroke-opacity:1"
         d="M 0,0 5,-5 -12.5,0 5,5 Z"
         id="path3483" />
    </marker>
    <marker
       style="overflow:visible"
       id="Arrow1Mend"
       refX="0"
       refY="0"
       orient="auto"
       inkscape:stockid="Arrow1Mend"
       inkscape:isstock="true"
       inkscape:collect="always">
      <path
         transform="matrix(-0.4,0,0,-0.4,-4,0)"
         style="fill:#000000;fill-opacity:1;fill-rule:evenodd;stroke:#000000;stroke-width:1pt;stroke-opacity:1"
         d="M 0,0 5,-5 -12.5,0 5,5 Z"
         id="path1543" />
    </marker>
  </defs>
  <sodipodi:namedview
     id="base"
     pagecolor="#ffffff"
     bordercolor="#666666"
     borderopacity="1.0"
     inkscape:pageopacity="0.0"
     inkscape:pageshadow="2"
     inkscape:zoom="1.2062149"
     inkscape:cx="321.8238"
     inkscape:cy="354.21632"
     inkscape:document-units="mm"
     inkscape:current-layer="layer1"
     inkscape:document-rotation="0"
     showgrid="false"
     inkscape:snap-global="false"
     lock-margins="true"
     fit-margin-top="15"
     fit-margin-left="15"
     fit-margin-right="15"
     fit-margin-bottom="15"
     inkscape:window-width="1920"
     inkscape:window-height="1137"
     inkscape:window-x="1432"
     inkscape:window-y="-8"
     inkscape:window-maximized="1" />
  <metadata
     id="metadata2842">
    <rdf:RDF>
      <cc:Work
         rdf:about="">
        <dc:format>image/svg+xml</dc:format>
        <dc:type
           rdf:resource="http://purl.org/dc/dcmitype/StillImage" />
        <dc:title></dc:title>
      </cc:Work>
    </rdf:RDF>
  </metadata>
  <g
     inkscape:label="Layer 1"
     inkscape:groupmode="layer"
     id="layer1"
     transform="translate(8.3766874,-9.5254656)">
    <circle
       style="fill:#0055d4;stroke:#0055d4;stroke-width:0.0751274;stroke-linecap:square;stroke-miterlimit:4;stroke-dasharray:none;stroke-dashoffset:0;stroke-opacity:1;stop-color:#000000"
       id="path833-5-03"
       cx="31.50172"
       cy="56.511372"
       r="1.7412902" />
    <circle
       style="fill:#000000;stroke:#000000;stroke-width:0.0751274;stroke-linecap:square;stroke-miterlimit:4;stroke-dasharray:none;stroke-dashoffset:0;stroke-opacity:1;stop-color:#000000"
       id="path833-5-03-1"
       cx="58.966312"
       cy="44.103405"
       r="1.7412902" />
    <circle
       style="fill:#000000;stroke:#000000;stroke-width:0.0751274;stroke-linecap:square;stroke-miterlimit:4;stroke-dasharray:none;stroke-dashoffset:0;stroke-opacity:1;stop-color:#000000"
       id="path833-5-03-8"
       cx="57.897236"
       cy="67.623123"
       r="1.7412902" />
    <circle
       style="fill:#ff6600;stroke:#ff6600;stroke-width:0.0751274;stroke-linecap:square;stroke-miterlimit:4;stroke-dasharray:none;stroke-dashoffset:0;stroke-opacity:1;stop-color:#000000"
       id="path833-5-03-3"
       cx="86.09417"
       cy="32.477184"
       r="1.7412902" />
    <circle
       style="fill:#000000;stroke:#000000;stroke-width:0.0751274;stroke-linecap:square;stroke-miterlimit:4;stroke-dasharray:none;stroke-dashoffset:0;stroke-opacity:1;stop-color:#000000"
       id="path833-5-03-11"
       cx="85.960533"
       cy="55.195091"
       r="1.7412902" />
    <circle
       style="fill:#000000;stroke:#000000;stroke-width:0.0751274;stroke-linecap:square;stroke-miterlimit:4;stroke-dasharray:none;stroke-dashoffset:0;stroke-opacity:1;stop-color:#000000"
       id="path833-5-03-9"
       cx="112.15295"
       cy="43.702503"
       r="1.7412902" />
    <circle
       style="fill:#000000;stroke:#000000;stroke-width:0.0751274;stroke-linecap:square;stroke-miterlimit:4;stroke-dasharray:none;stroke-dashoffset:0;stroke-opacity:1;stop-color:#000000"
       id="path833-5-03-35"
       cx="111.48478"
       cy="67.222214"
       r="1.7412902" />
    <circle
       style="fill:#ff6600;stroke:#ff6600;stroke-width:0.0751274;stroke-linecap:square;stroke-miterlimit:4;stroke-dasharray:none;stroke-dashoffset:0;stroke-opacity:1;stop-color:#000000"
       id="path833-5-03-0"
       cx="137.54355"
       cy="53.858746"
       r="1.7412902" />
    <path
       style="fill:none;stroke:#000000;stroke-width:0.265;stroke-linecap:butt;stroke-linejoin:miter;stroke-miterlimit:4;stroke-dasharray:none;stroke-opacity:1;marker-end:url(#Arrow1Mend)"
       d="M 32.978423,55.468007 56.979911,45.07366"
       id="path3465" />
    <path
       style="fill:none;stroke:#000000;stroke-width:0.264583px;stroke-linecap:butt;stroke-linejoin:miter;stroke-opacity:1;marker-end:url(#marker3485)"
       d="m 32.978423,57.546875 22.962053,9.35491"
       id="path3481" />
    <path
       style="fill:none;stroke:#000000;stroke-width:0.264583px;stroke-linecap:butt;stroke-linejoin:miter;stroke-opacity:1;marker-end:url(#marker3515)"
       d="M 60.570685,43.372767 84.383184,33.450893"
       id="path3511" />
    <path
       style="fill:none;stroke:#000000;stroke-width:0.264583px;stroke-linecap:butt;stroke-linejoin:miter;stroke-opacity:1;marker-end:url(#marker3551)"
       d="M 59.531251,66.901785 84.005209,56.034969"
       id="path3547" />
    <path
       style="fill:none;stroke:#000000;stroke-width:0.264583px;stroke-linecap:butt;stroke-linejoin:miter;stroke-opacity:1;marker-end:url(#marker3641)"
       d="M 87.406993,54.42857 110.46354,44.601191"
       id="path3637" />
    <path
       style="fill:none;stroke:#000000;stroke-width:0.264583px;stroke-linecap:butt;stroke-linejoin:miter;stroke-opacity:1;marker-end:url(#marker3695)"
       d="M 87.406993,55.940476 109.61309,66.33482"
       id="path3691" />
    <path
       style="fill:none;stroke:#000000;stroke-width:0.264583px;stroke-linecap:butt;stroke-linejoin:miter;stroke-opacity:1;marker-end:url(#marker3809)"
       d="m 113.58184,44.506695 22.01712,8.598958"
       id="path3805" />
    <path
       style="fill:none;stroke:#000000;stroke-width:0.264583px;stroke-linecap:butt;stroke-linejoin:miter;stroke-opacity:1;marker-end:url(#marker3869)"
       d="M 113.01488,66.712798 135.69346,54.995535"
       id="path3865" />
    <g
       aria-label="Least &amp;
minimal"
       id="text3939"
       style="font-size:5.64444px;line-height:0.95;font-family:'Latin Modern Roman';-inkscape-font-specification:'Latin Modern Roman, ';fill:#0055d4;stroke-width:0.264583">
      <path
         d="m 10.466612,54.011737 h -0.141111 c -0.06209,0.575733 -0.141111,1.281288 -1.1345327,1.281288 H 8.7281242 c -0.2652886,0 -0.2765775,-0.03951 -0.2765775,-0.225778 V 52.05876 c 0,-0.191911 0,-0.270933 0.5362218,-0.270933 H 9.174035 V 51.61285 c -0.2031998,0.01693 -0.7168439,0.01693 -0.9482659,0.01693 -0.2201332,0 -0.6603995,0 -0.8579549,-0.01693 v 0.174977 h 0.1354665 c 0.4346219,0 0.4459108,0.06209 0.4459108,0.265289 v 2.97462 c 0,0.2032 -0.011289,0.265289 -0.4459108,0.265289 H 7.3678142 v 0.174977 h 2.9407528 z"
         style="fill:#0055d4;stroke-width:0.264583"
         id="path4787" />
      <path
         d="m 13.051755,54.796314 c 0,-0.05644 -0.04516,-0.06773 -0.07338,-0.06773 -0.0508,0 -0.06209,0.03387 -0.07338,0.07902 -0.197555,0.581377 -0.705555,0.581377 -0.761999,0.581377 -0.282222,0 -0.508,-0.169333 -0.637822,-0.378177 -0.169333,-0.270933 -0.169333,-0.643467 -0.169333,-0.846666 h 1.574799 c 0.124177,0 0.141111,0 0.141111,-0.118534 0,-0.558799 -0.3048,-1.10631 -1.010355,-1.10631 -0.654755,0 -1.174044,0.581377 -1.174044,1.286932 0,0.756355 0.592667,1.303866 1.241777,1.303866 0.688622,0 0.942622,-0.626533 0.942622,-0.733777 z m -0.372533,-0.750711 h -1.337733 c 0.03387,-0.841021 0.508,-0.982132 0.699911,-0.982132 0.581377,0 0.637822,0.761999 0.637822,0.982132 z"
         style="fill:#0055d4;stroke-width:0.264583"
         id="path4789" />
      <path
         d="m 15.941699,54.965647 v -0.316089 h -0.141111 v 0.316089 c 0,0.327378 -0.141111,0.361244 -0.2032,0.361244 -0.186267,0 -0.208844,-0.253999 -0.208844,-0.282222 v -1.128888 c 0,-0.237066 0,-0.457199 -0.2032,-0.666044 -0.220133,-0.220133 -0.502355,-0.310444 -0.773289,-0.310444 -0.462844,0 -0.85231,0.265289 -0.85231,0.637822 0,0.169333 0.112889,0.265289 0.259644,0.265289 0.158044,0 0.259644,-0.112889 0.259644,-0.259645 0,-0.06773 -0.02822,-0.254 -0.287866,-0.259644 0.1524,-0.197555 0.428977,-0.259644 0.6096,-0.259644 0.276577,0 0.59831,0.220133 0.59831,0.722488 v 0.208844 c -0.287866,0.01693 -0.682977,0.03387 -1.038577,0.2032 -0.423333,0.191911 -0.564444,0.485422 -0.564444,0.733778 0,0.457199 0.547511,0.59831 0.903111,0.59831 0.372533,0 0.632177,-0.225777 0.739421,-0.491066 0.02258,0.225777 0.174978,0.462844 0.440267,0.462844 0.118533,0 0.462844,-0.07902 0.462844,-0.536222 z m -0.942622,-0.287866 c 0,0.536222 -0.4064,0.728132 -0.660399,0.728132 -0.276578,0 -0.508,-0.197555 -0.508,-0.479777 0,-0.310444 0.237067,-0.778933 1.168399,-0.812799 z"
         style="fill:#0055d4;stroke-width:0.264583"
         id="path4791" />
      <path
         d="m 18.069642,54.745514 c 0,-0.299155 -0.169333,-0.468489 -0.237066,-0.536222 -0.186267,-0.180622 -0.4064,-0.225777 -0.643466,-0.270933 -0.316089,-0.06209 -0.694266,-0.135467 -0.694266,-0.462844 0,-0.197555 0.146755,-0.428978 0.632177,-0.428978 0.620888,0 0.64911,0.508 0.660399,0.682978 0.0056,0.0508 0.06773,0.0508 0.06773,0.0508 0.07338,0 0.07338,-0.02822 0.07338,-0.135467 V 53.07476 c 0,-0.09596 0,-0.135467 -0.06209,-0.135467 -0.02822,0 -0.03951,0 -0.112889,0.06773 -0.01693,0.02258 -0.07338,0.07338 -0.09596,0.09031 -0.214488,-0.158044 -0.445911,-0.158044 -0.530577,-0.158044 -0.688622,0 -0.903111,0.378178 -0.903111,0.694266 0,0.197556 0.09031,0.3556 0.242711,0.479778 0.180622,0.146755 0.338667,0.180622 0.745066,0.259644 0.124178,0.02258 0.587022,0.112889 0.587022,0.519288 0,0.287867 -0.197555,0.513644 -0.637821,0.513644 -0.474133,0 -0.677333,-0.321733 -0.784578,-0.80151 -0.01693,-0.07338 -0.02258,-0.09596 -0.07902,-0.09596 -0.07338,0 -0.07338,0.03951 -0.07338,0.141111 v 0.745067 c 0,0.09596 0,0.135466 0.06209,0.135466 0.02822,0 0.03387,-0.0056 0.141111,-0.112889 0.01129,-0.01129 0.01129,-0.02258 0.112889,-0.129822 0.248355,0.237067 0.502355,0.242711 0.620889,0.242711 0.64911,0 0.908754,-0.378177 0.908754,-0.784577 z"
         style="fill:#0055d4;stroke-width:0.264583"
         id="path4793" />
      <path
         d="m 20.135502,54.768092 v -0.321733 h -0.141111 v 0.310444 c 0,0.417688 -0.169334,0.632177 -0.378178,0.632177 -0.378177,0 -0.378177,-0.513644 -0.378177,-0.609599 v -1.569155 h 0.807155 v -0.174977 h -0.807155 v -1.038577 h -0.141111 c -0.0056,0.462844 -0.174978,1.066799 -0.728133,1.089377 v 0.124177 h 0.479777 v 1.557866 c 0,0.694266 0.524933,0.761999 0.728133,0.761999 0.400755,0 0.5588,-0.400755 0.5588,-0.761999 z"
         style="fill:#0055d4;stroke-width:0.264583"
         id="path4795" />
      <path
         d="m 26.440331,53.210226 v -0.174977 l -0.547511,0.01693 c -0.06209,0 -0.536222,-0.0056 -0.688621,-0.01693 v 0.174977 c 0.259644,0 0.400755,0.107245 0.400755,0.248356 0,0.05644 -0.02822,0.09596 -0.03387,0.112888 -0.310444,0.547511 -0.564444,0.931333 -0.807155,1.230488 -0.07338,-0.08467 -0.688621,-0.857955 -0.936977,-1.507065 0.3048,-0.338667 0.688622,-0.767644 0.688622,-1.140177 0,-0.259644 -0.09031,-0.728133 -0.491066,-0.728133 -0.349956,0 -0.767644,0.310444 -0.767644,0.908755 0,0.237067 0.03387,0.643466 0.231422,1.145821 l -0.513644,0.547511 c -0.254,0.259644 -0.400756,0.412044 -0.400756,0.716844 0,0.491066 0.462845,0.846666 1.021644,0.846666 0.479778,0 0.8128,-0.242711 1.021644,-0.428977 0.389466,0.338666 0.722488,0.428977 0.993421,0.428977 0.428978,0 0.784577,-0.321733 0.795866,-0.807155 H 26.26535 c -0.01693,0.445911 -0.378177,0.632177 -0.632177,0.632177 -0.3048,0 -0.598311,-0.287866 -0.778933,-0.502355 0.259645,-0.299155 0.485422,-0.682977 0.745066,-1.128888 0.220134,-0.372533 0.338667,-0.570088 0.841022,-0.575733 z m -2.065865,-1.061155 c 0,0.372534 -0.4572,0.8636 -0.592666,1.010355 -0.1524,-0.451555 -0.169334,-0.778932 -0.169334,-0.95391 0,-0.474133 0.225778,-0.654755 0.423333,-0.654755 0.338667,0 0.338667,0.59831 0.338667,0.59831 z m 0.135466,2.906887 c -0.361244,0.321733 -0.711199,0.361244 -0.869243,0.361244 -0.468489,0 -0.598311,-0.54751 -0.598311,-0.85231 0,-0.4572 0.191911,-0.6604 0.496711,-0.95391 0.124177,0.265288 0.208844,0.434621 0.451555,0.784577 0.107244,0.158044 0.310444,0.451555 0.519288,0.660399 z"
         style="fill:#0055d4;stroke-width:0.264583"
         id="path4797" />
      <path
         d="m 11.770478,60.83022 v -0.174977 c -0.293511,0 -0.434622,0 -0.440267,-0.169333 v -1.078089 c 0,-0.485421 0,-0.660399 -0.174977,-0.863599 -0.07902,-0.09595 -0.265289,-0.208844 -0.592667,-0.208844 -0.474133,0 -0.722488,0.338666 -0.8184435,0.553155 -0.079022,-0.491066 -0.4967108,-0.553155 -0.7507106,-0.553155 -0.4120441,0 -0.6773328,0.242711 -0.8353771,0.592666 v -0.592666 l -0.7958661,0.06209 v 0.174977 c 0.3951108,0 0.4402664,0.03951 0.4402664,0.316089 v 1.51271 c 0,0.254 -0.062089,0.254 -0.4402664,0.254 v 0.174977 l 0.6378218,-0.01693 0.6321773,0.01693 v -0.174977 c -0.3781775,0 -0.4402664,0 -0.4402664,-0.254 v -1.038577 c 0,-0.587022 0.4007553,-0.90311 0.7619995,-0.90311 0.3555997,0 0.4176885,0.304799 0.4176885,0.626532 v 1.315155 c 0,0.254 -0.062089,0.254 -0.4402663,0.254 v 0.174977 l 0.6378217,-0.01693 0.6321772,0.01693 v -0.174977 c -0.3781774,0 -0.4402662,0 -0.4402662,-0.254 v -1.038577 c 0,-0.587022 0.4007552,-0.90311 0.7619992,-0.90311 0.3556,0 0.417689,0.304799 0.417689,0.626532 v 1.315155 c 0,0.254 -0.06209,0.254 -0.440267,0.254 v 0.174977 l 0.637822,-0.01693 z"
         style="fill:#0055d4;stroke-width:0.264583"
         id="path4799" />
      <path
         d="m 13.277533,60.83022 v -0.174977 c -0.372533,0 -0.395111,-0.02822 -0.395111,-0.248356 v -2.071509 l -0.790221,0.06209 v 0.174977 c 0.366888,0 0.417688,0.03387 0.417688,0.310445 v 1.518354 c 0,0.254 -0.06209,0.254 -0.440266,0.254 v 0.174977 l 0.620889,-0.01693 c 0.197555,0 0.39511,0.01129 0.587021,0.01693 z m -0.310444,-3.409241 c 0,-0.1524 -0.129822,-0.299156 -0.299155,-0.299156 -0.191911,0 -0.3048,0.158045 -0.3048,0.299156 0,0.152399 0.129822,0.299155 0.299155,0.299155 0.191911,0 0.3048,-0.158044 0.3048,-0.299155 z"
         style="fill:#0055d4;stroke-width:0.264583"
         id="path4801" />
      <path
         d="m 16.472286,60.83022 v -0.174977 c -0.293511,0 -0.434622,0 -0.440266,-0.169333 v -1.078089 c 0,-0.485421 0,-0.660399 -0.174978,-0.863599 -0.07902,-0.09595 -0.265289,-0.208844 -0.592666,-0.208844 -0.412044,0 -0.677333,0.242711 -0.835377,0.592666 v -0.592666 l -0.795867,0.06209 v 0.174977 c 0.395111,0 0.440267,0.03951 0.440267,0.316089 v 1.51271 c 0,0.254 -0.06209,0.254 -0.440267,0.254 v 0.174977 l 0.637822,-0.01693 0.632177,0.01693 v -0.174977 c -0.378177,0 -0.440266,0 -0.440266,-0.254 v -1.038577 c 0,-0.587022 0.400755,-0.90311 0.762,-0.90311 0.355599,0 0.417688,0.304799 0.417688,0.626532 v 1.315155 c 0,0.254 -0.06209,0.254 -0.440266,0.254 v 0.174977 l 0.637822,-0.01693 z"
         style="fill:#0055d4;stroke-width:0.264583"
         id="path4803" />
      <path
         d="m 17.984995,60.83022 v -0.174977 c -0.372533,0 -0.395111,-0.02822 -0.395111,-0.248356 v -2.071509 l -0.790222,0.06209 v 0.174977 c 0.366889,0 0.417689,0.03387 0.417689,0.310445 v 1.518354 c 0,0.254 -0.06209,0.254 -0.440267,0.254 v 0.174977 l 0.620889,-0.01693 c 0.197555,0 0.395111,0.01129 0.587022,0.01693 z M 17.67455,57.420979 c 0,-0.1524 -0.129822,-0.299156 -0.299155,-0.299156 -0.191911,0 -0.3048,0.158045 -0.3048,0.299156 0,0.152399 0.129822,0.299155 0.299156,0.299155 0.191911,0 0.304799,-0.158044 0.304799,-0.299155 z"
         style="fill:#0055d4;stroke-width:0.264583"
         id="path4805" />
      <path
         d="m 22.748902,60.83022 v -0.174977 c -0.293511,0 -0.434622,0 -0.440267,-0.169333 v -1.078089 c 0,-0.485421 0,-0.660399 -0.174977,-0.863599 -0.07902,-0.09595 -0.265289,-0.208844 -0.592667,-0.208844 -0.474133,0 -0.722488,0.338666 -0.818443,0.553155 -0.07902,-0.491066 -0.496711,-0.553155 -0.750711,-0.553155 -0.412044,0 -0.677333,0.242711 -0.835377,0.592666 v -0.592666 l -0.795866,0.06209 v 0.174977 c 0.395111,0 0.440266,0.03951 0.440266,0.316089 v 1.51271 c 0,0.254 -0.06209,0.254 -0.440266,0.254 v 0.174977 l 0.637822,-0.01693 0.632177,0.01693 v -0.174977 c -0.378178,0 -0.440266,0 -0.440266,-0.254 v -1.038577 c 0,-0.587022 0.400755,-0.90311 0.761999,-0.90311 0.3556,0 0.417689,0.304799 0.417689,0.626532 v 1.315155 c 0,0.254 -0.06209,0.254 -0.440267,0.254 v 0.174977 l 0.637822,-0.01693 0.632177,0.01693 v -0.174977 c -0.378177,0 -0.440266,0 -0.440266,-0.254 v -1.038577 c 0,-0.587022 0.400755,-0.90311 0.761999,-0.90311 0.3556,0 0.417689,0.304799 0.417689,0.626532 v 1.315155 c 0,0.254 -0.06209,0.254 -0.440266,0.254 v 0.174977 l 0.637821,-0.01693 z"
         style="fill:#0055d4;stroke-width:0.264583"
         id="path4807" />
      <path
         d="m 25.588045,60.327865 v -0.316088 h -0.141111 v 0.316088 c 0,0.327378 -0.141111,0.361244 -0.2032,0.361244 -0.186266,0 -0.208844,-0.253999 -0.208844,-0.282222 v -1.128888 c 0,-0.237066 0,-0.457199 -0.2032,-0.666044 -0.220133,-0.220133 -0.502355,-0.310444 -0.773288,-0.310444 -0.462844,0 -0.852311,0.265289 -0.852311,0.637822 0,0.169333 0.112889,0.265289 0.259645,0.265289 0.158044,0 0.259644,-0.112889 0.259644,-0.259645 0,-0.06773 -0.02822,-0.253999 -0.287866,-0.259644 0.152399,-0.197555 0.428977,-0.259644 0.609599,-0.259644 0.276578,0 0.598311,0.220133 0.598311,0.722488 v 0.208845 c -0.287867,0.01693 -0.682978,0.03387 -1.038577,0.203199 -0.423333,0.191911 -0.564444,0.485422 -0.564444,0.733778 0,0.457199 0.54751,0.59831 0.90311,0.59831 0.372533,0 0.632177,-0.225777 0.739422,-0.491066 0.02258,0.225778 0.174977,0.462844 0.440266,0.462844 0.118533,0 0.462844,-0.07902 0.462844,-0.536222 z m -0.942621,-0.287866 c 0,0.536222 -0.4064,0.728133 -0.6604,0.728133 -0.276577,0 -0.507999,-0.197556 -0.507999,-0.479778 0,-0.310444 0.237066,-0.778933 1.168399,-0.812799 z"
         style="fill:#0055d4;stroke-width:0.264583"
         id="path4809" />
      <path
         d="m 27.123321,60.83022 v -0.174977 c -0.378177,0 -0.440266,0 -0.440266,-0.254 v -3.488264 l -0.812799,0.06209 v 0.174977 c 0.39511,0 0.440266,0.03951 0.440266,0.316089 v 2.935109 c 0,0.254 -0.06209,0.254 -0.440266,0.254 v 0.174977 l 0.626532,-0.01693 z"
         style="fill:#0055d4;stroke-width:0.264583"
         id="path4811" />
    </g>
    <g
       aria-label="Maximal"
       id="text3945"
       style="font-size:5.64444px;line-height:1.25;font-family:'Latin Modern Roman';-inkscape-font-specification:'Latin Modern Roman, ';fill:#ff6600;stroke-width:0.264583">
      <path
         d="m 79.895247,28.442707 v -0.174978 h -0.135466 c -0.434622,0 -0.445911,-0.06209 -0.445911,-0.265288 v -2.97462 c 0,-0.2032 0.01129,-0.265289 0.445911,-0.265289 h 0.135466 v -0.174978 h -0.95391 c -0.146755,0 -0.146755,0.0056 -0.186267,0.107245 l -1.236132,3.17782 -1.224843,-3.160887 c -0.0508,-0.124178 -0.06773,-0.124178 -0.197556,-0.124178 h -0.95391 v 0.174978 h 0.135466 c 0.434622,0 0.445911,0.06209 0.445911,0.265289 v 2.82222 c 0,0.1524 0,0.417688 -0.581377,0.417688 v 0.174978 l 0.660399,-0.01693 0.6604,0.01693 v -0.174978 c -0.581378,0 -0.581378,-0.265288 -0.581378,-0.417688 v -3.042353 h 0.0056 l 1.36031,3.510841 c 0.02822,0.07338 0.05644,0.124178 0.112889,0.124178 0.06209,0 0.07902,-0.04515 0.1016,-0.107244 l 1.388532,-3.572931 h 0.0056 v 3.239909 c 0,0.2032 -0.01129,0.265288 -0.44591,0.265288 h -0.135467 v 0.174978 c 0.208844,-0.01693 0.592666,-0.01693 0.812799,-0.01693 0.220134,0 0.598311,0 0.807155,0.01693 z"
         style="fill:#ff6600;stroke-width:0.264583"
         id="path4907" />
      <path
         d="m 82.836,27.940352 v -0.316089 h -0.141111 v 0.316089 c 0,0.327377 -0.141111,0.361244 -0.2032,0.361244 -0.186267,0 -0.208845,-0.254 -0.208845,-0.282222 v -1.128888 c 0,-0.237066 0,-0.4572 -0.203199,-0.666044 -0.220134,-0.220133 -0.502356,-0.310444 -0.773289,-0.310444 -0.462844,0 -0.85231,0.265289 -0.85231,0.637822 0,0.169333 0.112889,0.265288 0.259644,0.265288 0.158044,0 0.259644,-0.112889 0.259644,-0.259644 0,-0.06773 -0.02822,-0.254 -0.287866,-0.259644 0.1524,-0.197556 0.428977,-0.259644 0.609599,-0.259644 0.276578,0 0.598311,0.220133 0.598311,0.722488 v 0.208844 c -0.287866,0.01693 -0.682977,0.03387 -1.038577,0.2032 -0.423333,0.191911 -0.564444,0.485422 -0.564444,0.733777 0,0.4572 0.547511,0.598311 0.903111,0.598311 0.372533,0 0.632177,-0.225778 0.739421,-0.491066 0.02258,0.225777 0.174978,0.462844 0.440267,0.462844 0.118533,0 0.462844,-0.07902 0.462844,-0.536222 z m -0.942622,-0.287867 c 0,0.536222 -0.4064,0.728133 -0.660399,0.728133 -0.276578,0 -0.508,-0.197555 -0.508,-0.479777 0,-0.310444 0.237066,-0.778933 1.168399,-0.8128 z"
         style="fill:#ff6600;stroke-width:0.264583"
         id="path4909" />
      <path
         d="m 85.844476,28.442707 v -0.174978 c -0.3048,0 -0.4064,-0.01129 -0.536222,-0.174977 l -0.756355,-0.976488 c 0.169333,-0.214489 0.383822,-0.491067 0.519288,-0.637822 0.174978,-0.2032 0.4064,-0.287867 0.671689,-0.293511 v -0.174978 c -0.146756,0.01129 -0.316089,0.01693 -0.462845,0.01693 -0.169333,0 -0.468488,-0.01129 -0.541866,-0.01693 v 0.174978 c 0.118533,0.01129 0.163689,0.08467 0.163689,0.174978 0,0.09031 -0.05644,0.163688 -0.08467,0.197555 l -0.349955,0.440266 -0.440266,-0.570088 c -0.0508,-0.05644 -0.0508,-0.06773 -0.0508,-0.1016 0,-0.08467 0.08467,-0.135467 0.197555,-0.141111 v -0.174978 l -0.609599,0.01693 c -0.118534,0 -0.383822,-0.0056 -0.536222,-0.01693 v 0.174978 c 0.395111,0 0.400755,0.0056 0.666044,0.344311 l 0.558799,0.728133 c -0.265288,0.338666 -0.265288,0.349955 -0.530577,0.671688 -0.270933,0.327378 -0.603955,0.338666 -0.722488,0.338666 v 0.174978 c 0.146755,-0.01129 0.321733,-0.01693 0.468488,-0.01693 l 0.536222,0.01693 v -0.174978 c -0.124178,-0.01693 -0.163689,-0.09031 -0.163689,-0.174977 0,-0.124178 0.163689,-0.310444 0.508,-0.716844 l 0.428977,0.564444 c 0.04516,0.06209 0.118534,0.1524 0.118534,0.186266 0,0.0508 -0.0508,0.135467 -0.2032,0.141111 v 0.174978 l 0.609599,-0.01693 c 0.1524,0 0.372533,0.0056 0.541867,0.01693 z"
         style="fill:#ff6600;stroke-width:0.264583"
         id="path4911" />
      <path
         d="m 87.306385,28.442707 v -0.174978 c -0.372533,0 -0.395111,-0.02822 -0.395111,-0.248355 v -2.071509 l -0.790221,0.06209 v 0.174978 c 0.366888,0 0.417688,0.03387 0.417688,0.310444 v 1.518355 c 0,0.253999 -0.06209,0.253999 -0.440266,0.253999 v 0.174978 l 0.620889,-0.01693 c 0.197555,0 0.39511,0.01129 0.587021,0.01693 z m -0.310444,-3.409242 c 0,-0.1524 -0.129822,-0.299155 -0.299155,-0.299155 -0.191911,0 -0.3048,0.158044 -0.3048,0.299155 0,0.1524 0.129822,0.299156 0.299155,0.299156 0.191911,0 0.3048,-0.158045 0.3048,-0.299156 z"
         style="fill:#ff6600;stroke-width:0.264583"
         id="path4913" />
      <path
         d="m 92.070291,28.442707 v -0.174978 c -0.293511,0 -0.434622,0 -0.440266,-0.169333 v -1.078088 c 0,-0.485422 0,-0.660399 -0.174978,-0.863599 -0.07902,-0.09596 -0.265288,-0.208844 -0.592666,-0.208844 -0.474133,0 -0.722488,0.338666 -0.818444,0.553155 -0.07902,-0.491067 -0.496711,-0.553155 -0.75071,-0.553155 -0.412044,0 -0.677333,0.24271 -0.835377,0.592666 v -0.592666 l -0.795867,0.06209 v 0.174978 c 0.395111,0 0.440267,0.03951 0.440267,0.316089 v 1.51271 c 0,0.253999 -0.06209,0.253999 -0.440267,0.253999 v 0.174978 l 0.637822,-0.01693 0.632178,0.01693 v -0.174978 c -0.378178,0 -0.440267,0 -0.440267,-0.253999 v -1.038577 c 0,-0.587022 0.400755,-0.903111 0.762,-0.903111 0.355599,0 0.417688,0.3048 0.417688,0.626533 v 1.315155 c 0,0.253999 -0.06209,0.253999 -0.440266,0.253999 v 0.174978 l 0.637822,-0.01693 0.632177,0.01693 v -0.174978 c -0.378178,0 -0.440266,0 -0.440266,-0.253999 v -1.038577 c 0,-0.587022 0.400755,-0.903111 0.761999,-0.903111 0.3556,0 0.417689,0.3048 0.417689,0.626533 v 1.315155 c 0,0.253999 -0.06209,0.253999 -0.440267,0.253999 v 0.174978 l 0.637822,-0.01693 z"
         style="fill:#ff6600;stroke-width:0.264583"
         id="path4915" />
      <path
         d="m 94.909435,27.940352 v -0.316089 h -0.141111 v 0.316089 c 0,0.327377 -0.141111,0.361244 -0.2032,0.361244 -0.186266,0 -0.208844,-0.254 -0.208844,-0.282222 v -1.128888 c 0,-0.237066 0,-0.4572 -0.2032,-0.666044 -0.220133,-0.220133 -0.502355,-0.310444 -0.773288,-0.310444 -0.462844,0 -0.852311,0.265289 -0.852311,0.637822 0,0.169333 0.112889,0.265288 0.259644,0.265288 0.158045,0 0.259645,-0.112889 0.259645,-0.259644 0,-0.06773 -0.02822,-0.254 -0.287867,-0.259644 0.1524,-0.197556 0.428978,-0.259644 0.6096,-0.259644 0.276577,0 0.59831,0.220133 0.59831,0.722488 v 0.208844 c -0.287866,0.01693 -0.682977,0.03387 -1.038577,0.2032 -0.423333,0.191911 -0.564444,0.485422 -0.564444,0.733777 0,0.4572 0.547511,0.598311 0.903111,0.598311 0.372533,0 0.632177,-0.225778 0.739421,-0.491066 0.02258,0.225777 0.174978,0.462844 0.440267,0.462844 0.118533,0 0.462844,-0.07902 0.462844,-0.536222 z m -0.942622,-0.287867 c 0,0.536222 -0.406399,0.728133 -0.660399,0.728133 -0.276578,0 -0.508,-0.197555 -0.508,-0.479777 0,-0.310444 0.237067,-0.778933 1.168399,-0.8128 z"
         style="fill:#ff6600;stroke-width:0.264583"
         id="path4917" />
      <path
         d="m 96.444713,28.442707 v -0.174978 c -0.378178,0 -0.440266,0 -0.440266,-0.253999 v -3.488264 l -0.8128,0.06209 v 0.174978 c 0.395111,0 0.440266,0.03951 0.440266,0.316089 v 2.935109 c 0,0.253999 -0.06209,0.253999 -0.440266,0.253999 v 0.174978 l 0.626533,-0.01693 z"
         style="fill:#ff6600;stroke-width:0.264583"
         id="path4919" />
    </g>
    <g
       aria-label="Maximal"
       id="text3949"
       style="font-size:5.64444px;line-height:1.25;font-family:'Latin Modern Roman';-inkscape-font-specification:'Latin Modern Roman, ';fill:#ff6600;stroke-width:0.264583">
      <path
         d="m 147.08051,56.034973 v -0.174978 h -0.13546 c -0.43463,0 -0.44592,-0.06209 -0.44592,-0.265288 v -2.97462 c 0,-0.2032 0.0113,-0.265289 0.44592,-0.265289 h 0.13546 v -0.174977 h -0.95391 c -0.14675,0 -0.14675,0.0056 -0.18626,0.107244 l -1.23614,3.17782 -1.22484,-3.160887 c -0.0508,-0.124177 -0.0677,-0.124177 -0.19756,-0.124177 h -0.95391 v 0.174977 h 0.13547 c 0.43462,0 0.44591,0.06209 0.44591,0.265289 v 2.82222 c 0,0.1524 0,0.417688 -0.58138,0.417688 v 0.174978 l 0.6604,-0.01693 0.6604,0.01693 v -0.174978 c -0.58137,0 -0.58137,-0.265288 -0.58137,-0.417688 v -3.042353 h 0.006 l 1.36031,3.510841 c 0.0282,0.07338 0.0564,0.124178 0.11289,0.124178 0.0621,0 0.079,-0.04516 0.1016,-0.107244 l 1.38853,-3.572931 h 0.006 v 3.239909 c 0,0.2032 -0.0113,0.265288 -0.44591,0.265288 h -0.13546 v 0.174978 c 0.20884,-0.01693 0.59266,-0.01693 0.8128,-0.01693 0.22013,0 0.59831,0 0.80715,0.01693 z"
         style="fill:#ff6600;stroke-width:0.264583"
         id="path4859" />
      <path
         d="m 150.02126,55.532618 v -0.316089 h -0.14111 v 0.316089 c 0,0.327377 -0.14111,0.361244 -0.2032,0.361244 -0.18626,0 -0.20884,-0.254 -0.20884,-0.282222 v -1.128888 c 0,-0.237066 0,-0.4572 -0.2032,-0.666044 -0.22013,-0.220133 -0.50236,-0.310444 -0.77329,-0.310444 -0.46284,0 -0.85231,0.265289 -0.85231,0.637822 0,0.169333 0.11289,0.265288 0.25964,0.265288 0.15805,0 0.25965,-0.112888 0.25965,-0.259644 0,-0.06773 -0.0282,-0.254 -0.28787,-0.259644 0.1524,-0.197556 0.42898,-0.259644 0.6096,-0.259644 0.27658,0 0.59831,0.220133 0.59831,0.722488 v 0.208844 c -0.28786,0.01693 -0.68297,0.03387 -1.03857,0.2032 -0.42334,0.191911 -0.56445,0.485422 -0.56445,0.733777 0,0.4572 0.54751,0.598311 0.90311,0.598311 0.37254,0 0.63218,-0.225778 0.73942,-0.491066 0.0226,0.225777 0.17498,0.462844 0.44027,0.462844 0.11853,0 0.46284,-0.07902 0.46284,-0.536222 z m -0.94262,-0.287866 c 0,0.536221 -0.4064,0.728132 -0.6604,0.728132 -0.27657,0 -0.508,-0.197555 -0.508,-0.479777 0,-0.310444 0.23707,-0.778933 1.1684,-0.812799 z"
         style="fill:#ff6600;stroke-width:0.264583"
         id="path4861" />
      <path
         d="m 153.02974,56.034973 v -0.174978 c -0.3048,0 -0.4064,-0.01129 -0.53622,-0.174977 l -0.75636,-0.976488 c 0.16934,-0.214489 0.38383,-0.491067 0.51929,-0.637822 0.17498,-0.2032 0.4064,-0.287866 0.67169,-0.293511 v -0.174978 c -0.14676,0.01129 -0.31609,0.01693 -0.46284,0.01693 -0.16934,0 -0.46849,-0.01129 -0.54187,-0.01693 v 0.174978 c 0.11853,0.01129 0.16369,0.08467 0.16369,0.174978 0,0.09031 -0.0565,0.163688 -0.0847,0.197555 l -0.34995,0.440266 -0.44027,-0.570088 c -0.0508,-0.05644 -0.0508,-0.06773 -0.0508,-0.1016 0,-0.08467 0.0847,-0.135466 0.19756,-0.141111 v -0.174978 l -0.6096,0.01693 c -0.11854,0 -0.38383,-0.0056 -0.53623,-0.01693 v 0.174978 c 0.39512,0 0.40076,0.0056 0.66605,0.344311 l 0.5588,0.728133 c -0.26529,0.338666 -0.26529,0.349955 -0.53058,0.671688 -0.27093,0.327378 -0.60395,0.338666 -0.72249,0.338666 v 0.174978 c 0.14676,-0.01129 0.32174,-0.01693 0.46849,-0.01693 l 0.53622,0.01693 v -0.174978 c -0.12418,-0.01693 -0.16369,-0.09031 -0.16369,-0.174977 0,-0.124178 0.16369,-0.310444 0.508,-0.716844 l 0.42898,0.564444 c 0.0452,0.06209 0.11853,0.1524 0.11853,0.186266 0,0.0508 -0.0508,0.135467 -0.2032,0.141111 v 0.174978 l 0.6096,-0.01693 c 0.1524,0 0.37254,0.0056 0.54187,0.01693 z"
         style="fill:#ff6600;stroke-width:0.264583"
         id="path4863" />
      <path
         d="m 154.49165,56.034973 v -0.174978 c -0.37253,0 -0.39511,-0.02822 -0.39511,-0.248355 v -2.071509 l -0.79022,0.06209 v 0.174978 c 0.36689,0 0.41769,0.03387 0.41769,0.310444 v 1.518355 c 0,0.253999 -0.0621,0.253999 -0.44027,0.253999 v 0.174978 l 0.62089,-0.01693 c 0.19755,0 0.39511,0.01129 0.58702,0.01693 z m -0.31044,-3.409242 c 0,-0.1524 -0.12983,-0.299155 -0.29916,-0.299155 -0.19191,0 -0.3048,0.158044 -0.3048,0.299155 0,0.1524 0.12982,0.299156 0.29916,0.299156 0.19191,0 0.3048,-0.158045 0.3048,-0.299156 z"
         style="fill:#ff6600;stroke-width:0.264583"
         id="path4865" />
      <path
         d="m 159.25556,56.034973 v -0.174978 c -0.29352,0 -0.43463,0 -0.44027,-0.169333 v -1.078088 c 0,-0.485422 0,-0.660399 -0.17498,-0.863599 -0.079,-0.09596 -0.26529,-0.208844 -0.59266,-0.208844 -0.47414,0 -0.72249,0.338666 -0.81845,0.553155 -0.079,-0.491067 -0.49671,-0.553155 -0.75071,-0.553155 -0.41204,0 -0.67733,0.242711 -0.83538,0.592666 v -0.592666 l -0.79586,0.06209 v 0.174978 c 0.39511,0 0.44026,0.03951 0.44026,0.316089 v 1.51271 c 0,0.253999 -0.0621,0.253999 -0.44026,0.253999 v 0.174978 l 0.63782,-0.01693 0.63218,0.01693 v -0.174978 c -0.37818,0 -0.44027,0 -0.44027,-0.253999 v -1.038577 c 0,-0.587022 0.40076,-0.903111 0.762,-0.903111 0.3556,0 0.41769,0.3048 0.41769,0.626533 v 1.315155 c 0,0.253999 -0.0621,0.253999 -0.44027,0.253999 v 0.174978 l 0.63782,-0.01693 0.63218,0.01693 v -0.174978 c -0.37818,0 -0.44026,0 -0.44026,-0.253999 v -1.038577 c 0,-0.587022 0.40075,-0.903111 0.76199,-0.903111 0.3556,0 0.41769,0.3048 0.41769,0.626533 v 1.315155 c 0,0.253999 -0.0621,0.253999 -0.44026,0.253999 v 0.174978 l 0.63782,-0.01693 z"
         style="fill:#ff6600;stroke-width:0.264583"
         id="path4867" />
      <path
         d="m 162.0947,55.532618 v -0.316089 h -0.14111 v 0.316089 c 0,0.327377 -0.14111,0.361244 -0.2032,0.361244 -0.18627,0 -0.20885,-0.254 -0.20885,-0.282222 v -1.128888 c 0,-0.237066 0,-0.4572 -0.2032,-0.666044 -0.22013,-0.220133 -0.50235,-0.310444 -0.77328,-0.310444 -0.46285,0 -0.85231,0.265289 -0.85231,0.637822 0,0.169333 0.11288,0.265288 0.25964,0.265288 0.15804,0 0.25964,-0.112888 0.25964,-0.259644 0,-0.06773 -0.0282,-0.254 -0.28786,-0.259644 0.1524,-0.197556 0.42898,-0.259644 0.6096,-0.259644 0.27657,0 0.59831,0.220133 0.59831,0.722488 v 0.208844 c -0.28787,0.01693 -0.68298,0.03387 -1.03858,0.2032 -0.42333,0.191911 -0.56444,0.485422 -0.56444,0.733777 0,0.4572 0.54751,0.598311 0.90311,0.598311 0.37253,0 0.63217,-0.225778 0.73942,-0.491066 0.0226,0.225777 0.17498,0.462844 0.44027,0.462844 0.11853,0 0.46284,-0.07902 0.46284,-0.536222 z m -0.94262,-0.287866 c 0,0.536221 -0.4064,0.728132 -0.6604,0.728132 -0.27658,0 -0.508,-0.197555 -0.508,-0.479777 0,-0.310444 0.23707,-0.778933 1.1684,-0.812799 z"
         style="fill:#ff6600;stroke-width:0.264583"
         id="path4869" />
      <path
         d="m 163.62998,56.034973 v -0.174978 c -0.37818,0 -0.44027,0 -0.44027,-0.253999 v -3.488264 l -0.8128,0.06209 v 0.174977 c 0.39511,0 0.44027,0.03951 0.44027,0.316089 v 2.935109 c 0,0.253999 -0.0621,0.253999 -0.44027,0.253999 v 0.174978 l 0.62653,-0.01693 z"
         style="fill:#ff6600;stroke-width:0.264583"
         id="path4871" />
    </g>
    <circle
       style="fill:#7137c8;stroke:#7137c8;stroke-width:0.0751274;stroke-linecap:square;stroke-miterlimit:4;stroke-dasharray:none;stroke-dashoffset:0;stroke-opacity:1;stop-color:#000000"
       id="path833-5-03-94"
       cx="31.372026"
       cy="92.793159"
       r="1.7412902" />
    <circle
       style="fill:#7137c8;stroke:#7137c8;stroke-width:0.0751274;stroke-linecap:square;stroke-miterlimit:4;stroke-dasharray:none;stroke-dashoffset:0;stroke-opacity:1;stop-color:#000000"
       id="path833-5-03-7"
       cx="30.782131"
       cy="112.16165"
       r="1.7412902" />
    <circle
       style="fill:#7137c8;stroke:#7137c8;stroke-width:0.0751274;stroke-linecap:square;stroke-miterlimit:4;stroke-dasharray:none;stroke-dashoffset:0;stroke-opacity:1;stop-color:#000000"
       id="path833-5-03-6"
       cx="30.247591"
       cy="131.15775"
       r="1.7412902" />
    <circle
       style="fill:#000000;stroke:#000000;stroke-width:0.0751274;stroke-linecap:square;stroke-miterlimit:4;stroke-dasharray:none;stroke-dashoffset:0;stroke-opacity:1;stop-color:#000000"
       id="path833-5-03-12"
       cx="58.39732"
       cy="121.14137"
       r="1.7412902" />
    <circle
       style="fill:#000000;stroke:#000000;stroke-width:0.0751274;stroke-linecap:square;stroke-miterlimit:4;stroke-dasharray:none;stroke-dashoffset:0;stroke-opacity:1;stop-color:#000000"
       id="path833-5-03-92"
       cx="59.53125"
       cy="99.21875"
       r="1.7412902" />
    <circle
       style="fill:#000000;stroke:#000000;stroke-width:0.0751274;stroke-linecap:square;stroke-miterlimit:4;stroke-dasharray:none;stroke-dashoffset:0;stroke-opacity:1;stop-color:#000000"
       id="path833-5-03-98"
       cx="88.123802"
       cy="109.46603"
       r="1.7412902" />
    <circle
       style="fill:#000000;stroke:#000000;stroke-width:0.0751274;stroke-linecap:square;stroke-miterlimit:4;stroke-dasharray:none;stroke-dashoffset:0;stroke-opacity:1;stop-color:#000000"
       id="path833-5-03-18"
       cx="112.99196"
       cy="97.23716"
       r="1.7412902" />
    <circle
       style="fill:#d40000;stroke:#d40000;stroke-width:0.0751274;stroke-linecap:square;stroke-miterlimit:4;stroke-dasharray:none;stroke-dashoffset:0;stroke-opacity:1;stop-color:#000000"
       id="path833-5-03-91"
       cx="136.1687"
       cy="108.95049"
       r="1.7412902" />
    <g
       aria-label="Minimal"
       id="text4115"
       style="font-size:5.64444px;line-height:1.25;font-family:'Latin Modern Roman';-inkscape-font-specification:'Latin Modern Roman, ';fill:#7137c8;stroke-width:0.264583">
      <path
         d="m 12.44501,94.479782 v -0.174978 h -0.135467 c -0.434622,0 -0.445911,-0.06209 -0.445911,-0.265288 v -2.97462 c 0,-0.2032 0.01129,-0.265289 0.445911,-0.265289 h 0.135467 v -0.174978 h -0.953911 c -0.146755,0 -0.146755,0.0056 -0.186266,0.107245 L 10.0687,93.909694 8.8438568,90.748807 c -0.0508,-0.124178 -0.067733,-0.124178 -0.1975554,-0.124178 H 7.692391 v 0.174978 h 0.1354666 c 0.4346219,0 0.4459108,0.06209 0.4459108,0.265289 v 2.82222 c 0,0.1524 0,0.417688 -0.5813774,0.417688 v 0.174978 l 0.6603995,-0.01693 0.6603995,0.01693 v -0.174978 c -0.5813773,0 -0.5813773,-0.265288 -0.5813773,-0.417688 v -3.042353 h 0.00564 l 1.3603101,3.510841 c 0.028222,0.07338 0.056444,0.124178 0.1128888,0.124178 0.062089,0 0.079022,-0.04515 0.1016004,-0.107244 l 1.388532,-3.572931 h 0.0056 v 3.239909 c 0,0.2032 -0.01129,0.265288 -0.445911,0.265288 h -0.135467 v 0.174978 c 0.208845,-0.01693 0.592667,-0.01693 0.8128,-0.01693 0.220133,0 0.59831,0 0.807155,0.01693 z"
         style="fill:#7137c8;stroke-width:0.264583"
         id="path4814" />
      <path
         d="m 14.053674,94.479782 v -0.174978 c -0.372533,0 -0.395111,-0.02822 -0.395111,-0.248355 V 91.98494 l -0.790221,0.06209 v 0.174978 c 0.366888,0 0.417688,0.03387 0.417688,0.310444 v 1.518355 c 0,0.253999 -0.06209,0.253999 -0.440266,0.253999 v 0.174978 l 0.620888,-0.01693 c 0.197556,0 0.395111,0.01129 0.587022,0.01693 z M 13.74323,91.07054 c 0,-0.1524 -0.129822,-0.299155 -0.299156,-0.299155 -0.191911,0 -0.304799,0.158044 -0.304799,0.299155 0,0.1524 0.129822,0.299156 0.299155,0.299156 0.191911,0 0.3048,-0.158045 0.3048,-0.299156 z"
         style="fill:#7137c8;stroke-width:0.264583"
         id="path4816" />
      <path
         d="m 17.248427,94.479782 v -0.174978 c -0.293511,0 -0.434622,0 -0.440267,-0.169333 v -1.078088 c 0,-0.485422 0,-0.660399 -0.174977,-0.863599 -0.07902,-0.09596 -0.265289,-0.208844 -0.592667,-0.208844 -0.412044,0 -0.677332,0.24271 -0.835377,0.592666 V 91.98494 l -0.795866,0.06209 v 0.174978 c 0.395111,0 0.440266,0.03951 0.440266,0.316089 v 1.51271 c 0,0.253999 -0.06209,0.253999 -0.440266,0.253999 v 0.174978 l 0.637822,-0.01693 0.632177,0.01693 v -0.174978 c -0.378177,0 -0.440266,0 -0.440266,-0.253999 V 93.01223 c 0,-0.587022 0.400755,-0.903111 0.761999,-0.903111 0.3556,0 0.417689,0.3048 0.417689,0.626533 v 1.315155 c 0,0.253999 -0.06209,0.253999 -0.440266,0.253999 v 0.174978 l 0.637821,-0.01693 z"
         style="fill:#7137c8;stroke-width:0.264583"
         id="path4818" />
      <path
         d="m 18.761135,94.479782 v -0.174978 c -0.372533,0 -0.395111,-0.02822 -0.395111,-0.248355 V 91.98494 l -0.790222,0.06209 v 0.174978 c 0.366889,0 0.417689,0.03387 0.417689,0.310444 v 1.518355 c 0,0.253999 -0.06209,0.253999 -0.440266,0.253999 v 0.174978 l 0.620888,-0.01693 c 0.197555,0 0.395111,0.01129 0.587022,0.01693 z M 18.450691,91.07054 c 0,-0.1524 -0.129822,-0.299155 -0.299156,-0.299155 -0.191911,0 -0.304799,0.158044 -0.304799,0.299155 0,0.1524 0.129822,0.299156 0.299155,0.299156 0.191911,0 0.3048,-0.158045 0.3048,-0.299156 z"
         style="fill:#7137c8;stroke-width:0.264583"
         id="path4820" />
      <path
         d="m 23.525042,94.479782 v -0.174978 c -0.293511,0 -0.434622,0 -0.440267,-0.169333 v -1.078088 c 0,-0.485422 0,-0.660399 -0.174977,-0.863599 -0.07902,-0.09596 -0.265289,-0.208844 -0.592666,-0.208844 -0.474133,0 -0.722489,0.338666 -0.818444,0.553155 -0.07902,-0.491067 -0.496711,-0.553155 -0.750711,-0.553155 -0.412044,0 -0.677333,0.24271 -0.835377,0.592666 V 91.98494 l -0.795866,0.06209 v 0.174978 c 0.395111,0 0.440266,0.03951 0.440266,0.316089 v 1.51271 c 0,0.253999 -0.06209,0.253999 -0.440266,0.253999 v 0.174978 l 0.637822,-0.01693 0.632177,0.01693 v -0.174978 c -0.378177,0 -0.440266,0 -0.440266,-0.253999 V 93.01223 c 0,-0.587022 0.400755,-0.903111 0.761999,-0.903111 0.3556,0 0.417689,0.3048 0.417689,0.626533 v 1.315155 c 0,0.253999 -0.06209,0.253999 -0.440267,0.253999 v 0.174978 l 0.637822,-0.01693 0.632177,0.01693 v -0.174978 c -0.378177,0 -0.440266,0 -0.440266,-0.253999 V 93.01223 c 0,-0.587022 0.400755,-0.903111 0.762,-0.903111 0.355599,0 0.417688,0.3048 0.417688,0.626533 v 1.315155 c 0,0.253999 -0.06209,0.253999 -0.440266,0.253999 v 0.174978 l 0.637821,-0.01693 z"
         style="fill:#7137c8;stroke-width:0.264583"
         id="path4822" />
      <path
         d="m 26.364185,93.977427 v -0.316089 h -0.141111 v 0.316089 c 0,0.327377 -0.141112,0.361244 -0.2032,0.361244 -0.186267,0 -0.208845,-0.254 -0.208845,-0.282222 v -1.128888 c 0,-0.237066 0,-0.4572 -0.203199,-0.666044 -0.220134,-0.220133 -0.502356,-0.310444 -0.773289,-0.310444 -0.462844,0 -0.85231,0.265289 -0.85231,0.637822 0,0.169333 0.112889,0.265288 0.259644,0.265288 0.158044,0 0.259644,-0.112888 0.259644,-0.259644 0,-0.06773 -0.02822,-0.254 -0.287866,-0.259644 0.1524,-0.197556 0.428977,-0.259644 0.609599,-0.259644 0.276578,0 0.598311,0.220133 0.598311,0.722488 v 0.208844 c -0.287866,0.01693 -0.682977,0.03387 -1.038577,0.2032 -0.423333,0.191911 -0.564444,0.485422 -0.564444,0.733777 0,0.4572 0.547511,0.598311 0.90311,0.598311 0.372533,0 0.632178,-0.225778 0.739422,-0.491066 0.02258,0.225777 0.174978,0.462844 0.440266,0.462844 0.118534,0 0.462845,-0.07902 0.462845,-0.536222 z M 25.421563,93.68956 c 0,0.536222 -0.4064,0.728133 -0.6604,0.728133 -0.276577,0 -0.507999,-0.197555 -0.507999,-0.479777 0,-0.310444 0.237066,-0.778933 1.168399,-0.8128 z"
         style="fill:#7137c8;stroke-width:0.264583"
         id="path4824" />
      <path
         d="m 27.899462,94.479782 v -0.174978 c -0.378177,0 -0.440266,0 -0.440266,-0.253999 v -3.488264 l -0.812799,0.06209 v 0.174978 c 0.395111,0 0.440266,0.03951 0.440266,0.316089 v 2.935109 c 0,0.253999 -0.06209,0.253999 -0.440266,0.253999 v 0.174978 l 0.626533,-0.01693 z"
         style="fill:#7137c8;stroke-width:0.264583"
         id="path4826" />
    </g>
    <g
       aria-label="Minimal"
       id="text4119"
       style="font-size:5.64444px;line-height:1.25;font-family:'Latin Modern Roman';-inkscape-font-specification:'Latin Modern Roman, ';fill:#7137c8;stroke-width:0.264583">
      <path
         d="m 11.91047,113.58955 v -0.17498 h -0.135466 c -0.434622,0 -0.445911,-0.0621 -0.445911,-0.26529 v -2.97462 c 0,-0.2032 0.01129,-0.26529 0.445911,-0.26529 h 0.135466 v -0.17498 h -0.95391 c -0.146755,0 -0.146755,0.006 -0.186266,0.10725 l -1.2361329,3.17782 -1.2248435,-3.16089 c -0.0508,-0.12418 -0.067733,-0.12418 -0.1975554,-0.12418 H 7.1578518 v 0.17498 h 0.1354666 c 0.4346219,0 0.4459107,0.0621 0.4459107,0.26529 v 2.82222 c 0,0.1524 0,0.41769 -0.5813773,0.41769 v 0.17498 l 0.6603995,-0.0169 0.6603995,0.0169 v -0.17498 c -0.5813773,0 -0.5813773,-0.26529 -0.5813773,-0.41769 v -3.04235 h 0.00564 l 1.3603101,3.51084 c 0.028222,0.0734 0.056444,0.12418 0.1128888,0.12418 0.062089,0 0.079022,-0.0452 0.1015999,-0.10725 l 1.3885327,-3.57293 h 0.0056 v 3.23991 c 0,0.2032 -0.01129,0.26529 -0.44591,0.26529 h -0.135467 v 0.17498 c 0.208844,-0.0169 0.592666,-0.0169 0.812799,-0.0169 0.220134,0 0.598311,0 0.807155,0.0169 z"
         style="fill:#7137c8;stroke-width:0.264583"
         id="path4829" />
      <path
         d="m 13.519135,113.58955 v -0.17498 c -0.372533,0 -0.395111,-0.0282 -0.395111,-0.24836 v -2.07151 l -0.790222,0.0621 v 0.17498 c 0.366889,0 0.417689,0.0339 0.417689,0.31044 v 1.51836 c 0,0.254 -0.06209,0.254 -0.440266,0.254 v 0.17498 l 0.620888,-0.0169 c 0.197555,0 0.395111,0.0113 0.587022,0.0169 z m -0.310444,-3.40925 c 0,-0.1524 -0.129823,-0.29915 -0.299156,-0.29915 -0.191911,0 -0.3048,0.15804 -0.3048,0.29915 0,0.1524 0.129823,0.29916 0.299156,0.29916 0.191911,0 0.3048,-0.15804 0.3048,-0.29916 z"
         style="fill:#7137c8;stroke-width:0.264583"
         id="path4831" />
      <path
         d="m 16.713887,113.58955 v -0.17498 c -0.293511,0 -0.434622,0 -0.440266,-0.16933 v -1.07809 c 0,-0.48542 0,-0.6604 -0.174978,-0.8636 -0.07902,-0.096 -0.265288,-0.20885 -0.592666,-0.20885 -0.412044,0 -0.677333,0.24271 -0.835377,0.59267 v -0.59267 l -0.795866,0.0621 v 0.17498 c 0.395111,0 0.440266,0.0395 0.440266,0.31609 v 1.51271 c 0,0.254 -0.06209,0.254 -0.440266,0.254 v 0.17498 l 0.637822,-0.0169 0.632177,0.0169 v -0.17498 c -0.378178,0 -0.440266,0 -0.440266,-0.254 V 112.122 c 0,-0.58702 0.400755,-0.90311 0.761999,-0.90311 0.3556,0 0.417689,0.3048 0.417689,0.62653 v 1.31516 c 0,0.254 -0.06209,0.254 -0.440267,0.254 v 0.17498 l 0.637822,-0.0169 z"
         style="fill:#7137c8;stroke-width:0.264583"
         id="path4833" />
      <path
         d="m 18.226596,113.58955 v -0.17498 c -0.372533,0 -0.395111,-0.0282 -0.395111,-0.24836 v -2.07151 l -0.790222,0.0621 v 0.17498 c 0.366889,0 0.417689,0.0339 0.417689,0.31044 v 1.51836 c 0,0.254 -0.06209,0.254 -0.440267,0.254 v 0.17498 l 0.620889,-0.0169 c 0.197555,0 0.395111,0.0113 0.587022,0.0169 z m -0.310445,-3.40925 c 0,-0.1524 -0.129822,-0.29915 -0.299155,-0.29915 -0.191911,0 -0.3048,0.15804 -0.3048,0.29915 0,0.1524 0.129822,0.29916 0.299156,0.29916 0.191911,0 0.304799,-0.15804 0.304799,-0.29916 z"
         style="fill:#7137c8;stroke-width:0.264583"
         id="path4835" />
      <path
         d="m 22.990503,113.58955 v -0.17498 c -0.293511,0 -0.434622,0 -0.440267,-0.16933 v -1.07809 c 0,-0.48542 0,-0.6604 -0.174977,-0.8636 -0.07902,-0.096 -0.265289,-0.20885 -0.592667,-0.20885 -0.474133,0 -0.722488,0.33867 -0.818443,0.55316 -0.07902,-0.49107 -0.496711,-0.55316 -0.750711,-0.55316 -0.412044,0 -0.677333,0.24271 -0.835377,0.59267 v -0.59267 l -0.795866,0.0621 v 0.17498 c 0.395111,0 0.440266,0.0395 0.440266,0.31609 v 1.51271 c 0,0.254 -0.06209,0.254 -0.440266,0.254 v 0.17498 l 0.637822,-0.0169 0.632177,0.0169 v -0.17498 c -0.378178,0 -0.440267,0 -0.440267,-0.254 V 112.122 c 0,-0.58702 0.400756,-0.90311 0.762,-0.90311 0.3556,0 0.417688,0.3048 0.417688,0.62653 v 1.31516 c 0,0.254 -0.06209,0.254 -0.440266,0.254 v 0.17498 l 0.637822,-0.0169 0.632177,0.0169 v -0.17498 c -0.378177,0 -0.440266,0 -0.440266,-0.254 V 112.122 c 0,-0.58702 0.400755,-0.90311 0.761999,-0.90311 0.3556,0 0.417689,0.3048 0.417689,0.62653 v 1.31516 c 0,0.254 -0.06209,0.254 -0.440266,0.254 v 0.17498 l 0.637821,-0.0169 z"
         style="fill:#7137c8;stroke-width:0.264583"
         id="path4837" />
      <path
         d="m 25.829645,113.08719 v -0.31609 h -0.141111 v 0.31609 c 0,0.32738 -0.141111,0.36125 -0.2032,0.36125 -0.186266,0 -0.208844,-0.254 -0.208844,-0.28223 v -1.12888 c 0,-0.23707 0,-0.4572 -0.2032,-0.66605 -0.220133,-0.22013 -0.502355,-0.31044 -0.773288,-0.31044 -0.462844,0 -0.85231,0.26529 -0.85231,0.63782 0,0.16933 0.112888,0.26529 0.259644,0.26529 0.158044,0 0.259644,-0.11289 0.259644,-0.25965 0,-0.0677 -0.02822,-0.254 -0.287866,-0.25964 0.152399,-0.19756 0.428977,-0.25965 0.609599,-0.25965 0.276578,0 0.598311,0.22014 0.598311,0.72249 v 0.20885 c -0.287867,0.0169 -0.682977,0.0339 -1.038577,0.2032 -0.423333,0.19191 -0.564444,0.48542 -0.564444,0.73377 0,0.4572 0.54751,0.59832 0.90311,0.59832 0.372533,0 0.632177,-0.22578 0.739422,-0.49107 0.02258,0.22578 0.174978,0.46284 0.440266,0.46284 0.118533,0 0.462844,-0.079 0.462844,-0.53622 z m -0.942621,-0.28787 c 0,0.53623 -0.4064,0.72814 -0.6604,0.72814 -0.276577,0 -0.507999,-0.19756 -0.507999,-0.47978 0,-0.31044 0.237066,-0.77893 1.168399,-0.8128 z"
         style="fill:#7137c8;stroke-width:0.264583"
         id="path4839" />
      <path
         d="m 27.364923,113.58955 v -0.17498 c -0.378177,0 -0.440266,0 -0.440266,-0.254 v -3.48827 l -0.812799,0.0621 v 0.17498 c 0.39511,0 0.440266,0.0395 0.440266,0.31609 v 2.93511 c 0,0.254 -0.06209,0.254 -0.440266,0.254 v 0.17498 l 0.626532,-0.0169 z"
         style="fill:#7137c8;stroke-width:0.264583"
         id="path4841" />
    </g>
    <g
       aria-label="Minimal"
       id="text4123"
       style="font-size:5.64444px;line-height:1.25;font-family:'Latin Modern Roman';-inkscape-font-specification:'Latin Modern Roman, ';fill:#7137c8;stroke-width:0.264583">
      <path
         d="m 11.375931,132.9666 v -0.17498 h -0.135466 c -0.434622,0 -0.445911,-0.0621 -0.445911,-0.26529 v -2.97462 c 0,-0.2032 0.01129,-0.26529 0.445911,-0.26529 h 0.135466 v -0.17497 h -0.95391 c -0.146756,0 -0.146756,0.006 -0.186267,0.10724 l -1.2361321,3.17782 -1.2248435,-3.16089 c -0.0508,-0.12417 -0.067733,-0.12417 -0.1975554,-0.12417 H 6.6233126 v 0.17497 h 0.1354665 c 0.4346219,0 0.4459108,0.0621 0.4459108,0.26529 v 2.82222 c 0,0.1524 0,0.41769 -0.5813773,0.41769 v 0.17498 l 0.6603995,-0.0169 0.6603995,0.0169 v -0.17498 c -0.5813774,0 -0.5813774,-0.26529 -0.5813774,-0.41769 v -3.04235 h 0.00564 l 1.3603101,3.51084 c 0.028222,0.0734 0.056444,0.12418 0.1128888,0.12418 0.062089,0 0.079022,-0.0452 0.1015999,-0.10725 l 1.388533,-3.57293 h 0.0056 v 3.23991 c 0,0.2032 -0.01129,0.26529 -0.4459111,0.26529 h -0.135418 v 0.17498 c 0.2088443,-0.0169 0.5926661,-0.0169 0.8127991,-0.0169 0.220133,0 0.598311,0 0.807155,0.0169 z"
         style="fill:#7137c8;stroke-width:0.264583"
         id="path4844" />
      <path
         d="m 12.984596,132.9666 v -0.17498 c -0.372534,0 -0.395111,-0.0282 -0.395111,-0.24835 v -2.07151 l -0.790222,0.0621 v 0.17498 c 0.366889,0 0.417689,0.0339 0.417689,0.31045 v 1.51835 c 0,0.254 -0.06209,0.254 -0.440267,0.254 v 0.17498 l 0.620889,-0.0169 c 0.197555,0 0.395111,0.0113 0.587022,0.0169 z m -0.310445,-3.40924 c 0,-0.1524 -0.129822,-0.29916 -0.299155,-0.29916 -0.191911,0 -0.3048,0.15805 -0.3048,0.29916 0,0.1524 0.129822,0.29915 0.299156,0.29915 0.191911,0 0.304799,-0.15804 0.304799,-0.29915 z"
         style="fill:#7137c8;stroke-width:0.264583"
         id="path4846" />
      <path
         d="m 16.179348,132.9666 v -0.17498 c -0.293511,0 -0.434622,0 -0.440266,-0.16933 v -1.07809 c 0,-0.48542 0,-0.6604 -0.174978,-0.8636 -0.07902,-0.096 -0.265289,-0.20884 -0.592666,-0.20884 -0.412044,0 -0.677333,0.24271 -0.835377,0.59266 v -0.59266 l -0.795866,0.0621 v 0.17498 c 0.39511,0 0.440266,0.0395 0.440266,0.31609 v 1.51271 c 0,0.254 -0.06209,0.254 -0.440266,0.254 v 0.17498 l 0.637821,-0.0169 0.632178,0.0169 v -0.17498 c -0.378178,0 -0.440267,0 -0.440267,-0.254 v -1.03858 c 0,-0.58702 0.400756,-0.90311 0.762,-0.90311 0.3556,0 0.417688,0.3048 0.417688,0.62654 v 1.31515 c 0,0.254 -0.06209,0.254 -0.440266,0.254 v 0.17498 l 0.637822,-0.0169 z"
         style="fill:#7137c8;stroke-width:0.264583"
         id="path4848" />
      <path
         d="m 17.692056,132.9666 v -0.17498 c -0.372533,0 -0.39511,-0.0282 -0.39511,-0.24835 v -2.07151 l -0.790222,0.0621 v 0.17498 c 0.366889,0 0.417689,0.0339 0.417689,0.31045 v 1.51835 c 0,0.254 -0.06209,0.254 -0.440267,0.254 v 0.17498 l 0.620889,-0.0169 c 0.197555,0 0.39511,0.0113 0.587021,0.0169 z m -0.310444,-3.40924 c 0,-0.1524 -0.129822,-0.29916 -0.299155,-0.29916 -0.191911,0 -0.3048,0.15805 -0.3048,0.29916 0,0.1524 0.129822,0.29915 0.299155,0.29915 0.191911,0 0.3048,-0.15804 0.3048,-0.29915 z"
         style="fill:#7137c8;stroke-width:0.264583"
         id="path4850" />
      <path
         d="m 22.455963,132.9666 v -0.17498 c -0.293511,0 -0.434622,0 -0.440266,-0.16933 v -1.07809 c 0,-0.48542 0,-0.6604 -0.174978,-0.8636 -0.07902,-0.096 -0.265288,-0.20884 -0.592666,-0.20884 -0.474133,0 -0.722488,0.33866 -0.818444,0.55315 -0.07902,-0.49107 -0.49671,-0.55315 -0.75071,-0.55315 -0.412044,0 -0.677333,0.24271 -0.835377,0.59266 v -0.59266 l -0.795866,0.0621 v 0.17498 c 0.39511,0 0.440266,0.0395 0.440266,0.31609 v 1.51271 c 0,0.254 -0.06209,0.254 -0.440266,0.254 v 0.17498 l 0.637821,-0.0169 0.632178,0.0169 v -0.17498 c -0.378178,0 -0.440267,0 -0.440267,-0.254 v -1.03858 c 0,-0.58702 0.400756,-0.90311 0.762,-0.90311 0.355599,0 0.417688,0.3048 0.417688,0.62654 v 1.31515 c 0,0.254 -0.06209,0.254 -0.440266,0.254 v 0.17498 l 0.637822,-0.0169 0.632177,0.0169 v -0.17498 c -0.378178,0 -0.440266,0 -0.440266,-0.254 v -1.03858 c 0,-0.58702 0.400755,-0.90311 0.761999,-0.90311 0.3556,0 0.417689,0.3048 0.417689,0.62654 v 1.31515 c 0,0.254 -0.06209,0.254 -0.440267,0.254 v 0.17498 l 0.637822,-0.0169 z"
         style="fill:#7137c8;stroke-width:0.264583"
         id="path4852" />
      <path
         d="m 25.295106,132.46424 v -0.31609 h -0.141111 v 0.31609 c 0,0.32738 -0.141111,0.36125 -0.2032,0.36125 -0.186266,0 -0.208844,-0.254 -0.208844,-0.28222 v -1.12889 c 0,-0.23707 0,-0.4572 -0.2032,-0.66605 -0.220133,-0.22013 -0.502355,-0.31044 -0.773288,-0.31044 -0.462844,0 -0.852311,0.26529 -0.852311,0.63782 0,0.16933 0.112889,0.26529 0.259645,0.26529 0.158044,0 0.259644,-0.11289 0.259644,-0.25964 0,-0.0677 -0.02822,-0.254 -0.287867,-0.25965 0.1524,-0.19755 0.428978,-0.25964 0.6096,-0.25964 0.276577,0 0.598311,0.22013 0.598311,0.72249 v 0.20884 c -0.287867,0.0169 -0.682978,0.0339 -1.038577,0.2032 -0.423333,0.19191 -0.564444,0.48542 -0.564444,0.73378 0,0.4572 0.54751,0.59831 0.90311,0.59831 0.372533,0 0.632177,-0.22578 0.739422,-0.49107 0.02258,0.22578 0.174977,0.46285 0.440266,0.46285 0.118533,0 0.462844,-0.079 0.462844,-0.53623 z m -0.942621,-0.28786 c 0,0.53622 -0.4064,0.72813 -0.6604,0.72813 -0.276578,0 -0.508,-0.19756 -0.508,-0.47978 0,-0.31044 0.237067,-0.77893 1.1684,-0.8128 z"
         style="fill:#7137c8;stroke-width:0.264583"
         id="path4854" />
      <path
         d="m 26.830384,132.9666 v -0.17498 c -0.378177,0 -0.440266,0 -0.440266,-0.254 v -3.48826 l -0.8128,0.0621 v 0.17497 c 0.395111,0 0.440267,0.0395 0.440267,0.31609 v 2.93511 c 0,0.254 -0.06209,0.254 -0.440267,0.254 v 0.17498 l 0.626533,-0.0169 z"
         style="fill:#7137c8;stroke-width:0.264583"
         id="path4856" />
    </g>
    <g
       aria-label="Greatest &amp;
Maximal"
       id="text4127"
       style="font-size:5.64444px;line-height:0.95;font-family:'Latin Modern Roman';-inkscape-font-specification:'Latin Modern Roman, ';fill:#d40000;stroke-width:0.264583">
      <path
         d="m 145.66786,106.74457 v -0.17498 l -0.68862,0.0169 c -0.22578,0 -0.70556,0 -0.90876,-0.0169 v 0.17498 h 0.18062 c 0.508,0 0.52494,0.0621 0.52494,0.27094 v 0.36124 c 0,0.63218 -0.71685,0.68298 -0.87489,0.68298 -0.36689,0 -1.48449,-0.19756 -1.48449,-1.8796 0,-1.68769 1.11196,-1.87396 1.45062,-1.87396 0.60396,0 1.1176,0.508 1.23049,1.33774 0.0113,0.079 0.0113,0.0959 0.0903,0.0959 0.0903,0 0.0903,-0.0169 0.0903,-0.13546 v -1.33774 c 0,-0.096 0,-0.13546 -0.0621,-0.13546 -0.0226,0 -0.0451,0 -0.0903,0.0677 l -0.28222,0.41769 c -0.18062,-0.18062 -0.48542,-0.48542 -1.04422,-0.48542 -1.04987,0 -1.96427,0.89182 -1.96427,2.04893 0,1.15711 0.90311,2.05457 1.97556,2.05457 0.41204,0 0.8636,-0.14675 1.05551,-0.47977 0.0734,0.12417 0.29915,0.34995 0.36124,0.34995 0.0508,0 0.0508,-0.0451 0.0508,-0.12982 v -0.98213 c 0,-0.22014 0.0226,-0.24836 0.38947,-0.24836 z"
         style="fill:#d40000;stroke-width:0.264583"
         id="path4874" />
      <path
         d="m 148.00466,105.96 c 0,-0.18063 -0.17498,-0.34432 -0.41769,-0.34432 -0.41205,0 -0.61525,0.37818 -0.69427,0.62089 v -0.62089 l -0.78458,0.0621 v 0.17498 c 0.39512,0 0.44027,0.0395 0.44027,0.31609 v 1.51271 c 0,0.254 -0.0621,0.254 -0.44027,0.254 v 0.17498 l 0.64347,-0.0169 c 0.22578,0 0.49107,0 0.71684,0.0169 v -0.17498 h -0.11853 c -0.41769,0 -0.42898,-0.0621 -0.42898,-0.26529 v -0.86924 c 0,-0.5588 0.23707,-1.06116 0.66605,-1.06116 0.0395,0 0.0508,0 0.0621,0.006 -0.0169,0.006 -0.12983,0.0734 -0.12983,0.22013 0,0.15804 0.11854,0.24271 0.24272,0.24271 0.1016,0 0.24271,-0.0677 0.24271,-0.24835 z"
         style="fill:#d40000;stroke-width:0.264583"
         id="path4876" />
      <path
         d="m 150.50513,107.43884 c 0,-0.0564 -0.0452,-0.0677 -0.0734,-0.0677 -0.0508,0 -0.0621,0.0339 -0.0734,0.079 -0.19756,0.58137 -0.70556,0.58137 -0.762,0.58137 -0.28222,0 -0.508,-0.16933 -0.63782,-0.37817 -0.16934,-0.27094 -0.16934,-0.64347 -0.16934,-0.84667 h 1.5748 c 0.12418,0 0.14111,0 0.14111,-0.11853 0,-0.5588 -0.3048,-1.10631 -1.01035,-1.10631 -0.65476,0 -1.17404,0.58138 -1.17404,1.28693 0,0.75636 0.59266,1.30387 1.24177,1.30387 0.68862,0 0.94262,-0.62654 0.94262,-0.73378 z m -0.37253,-0.75071 h -1.33773 c 0.0339,-0.84102 0.508,-0.98213 0.69991,-0.98213 0.58138,0 0.63782,0.76199 0.63782,0.98213 z"
         style="fill:#d40000;stroke-width:0.264583"
         id="path4878" />
      <path
         d="m 153.39508,107.60817 v -0.31609 h -0.14111 v 0.31609 c 0,0.32738 -0.14111,0.36125 -0.2032,0.36125 -0.18627,0 -0.20885,-0.254 -0.20885,-0.28223 v -1.12888 c 0,-0.23707 0,-0.4572 -0.2032,-0.66605 -0.22013,-0.22013 -0.50235,-0.31044 -0.77328,-0.31044 -0.46285,0 -0.85232,0.26529 -0.85232,0.63782 0,0.16933 0.11289,0.26529 0.25965,0.26529 0.15804,0 0.25964,-0.11289 0.25964,-0.25965 0,-0.0677 -0.0282,-0.254 -0.28786,-0.25964 0.1524,-0.19756 0.42897,-0.25964 0.6096,-0.25964 0.27657,0 0.59831,0.22013 0.59831,0.72248 v 0.20885 c -0.28787,0.0169 -0.68298,0.0339 -1.03858,0.2032 -0.42333,0.19191 -0.56444,0.48542 -0.56444,0.73378 0,0.45719 0.54751,0.59831 0.90311,0.59831 0.37253,0 0.63217,-0.22578 0.73942,-0.49107 0.0226,0.22578 0.17498,0.46284 0.44026,0.46284 0.11854,0 0.46285,-0.079 0.46285,-0.53622 z m -0.94262,-0.28786 c 0,0.53622 -0.4064,0.72813 -0.6604,0.72813 -0.27658,0 -0.508,-0.19756 -0.508,-0.47978 0,-0.31044 0.23706,-0.77893 1.1684,-0.8128 z"
         style="fill:#d40000;stroke-width:0.264583"
         id="path4880" />
      <path
         d="m 155.36498,107.41062 v -0.32174 h -0.14111 v 0.31045 c 0,0.41769 -0.16934,0.63217 -0.37818,0.63217 -0.37818,0 -0.37818,-0.51364 -0.37818,-0.60959 v -1.56916 h 0.80716 v -0.17498 h -0.80716 v -1.03857 h -0.14111 c -0.006,0.46284 -0.17498,1.0668 -0.72813,1.08937 v 0.12418 h 0.47977 v 1.55787 c 0,0.69426 0.52494,0.762 0.72814,0.762 0.40075,0 0.5588,-0.40076 0.5588,-0.762 z"
         style="fill:#d40000;stroke-width:0.264583"
         id="path4882" />
      <path
         d="m 158.02915,107.43884 c 0,-0.0564 -0.0451,-0.0677 -0.0734,-0.0677 -0.0508,0 -0.0621,0.0339 -0.0734,0.079 -0.19756,0.58137 -0.70556,0.58137 -0.762,0.58137 -0.28222,0 -0.508,-0.16933 -0.63782,-0.37817 -0.16934,-0.27094 -0.16934,-0.64347 -0.16934,-0.84667 h 1.5748 c 0.12418,0 0.14111,0 0.14111,-0.11853 0,-0.5588 -0.3048,-1.10631 -1.01035,-1.10631 -0.65476,0 -1.17405,0.58138 -1.17405,1.28693 0,0.75636 0.59267,1.30387 1.24178,1.30387 0.68862,0 0.94262,-0.62654 0.94262,-0.73378 z m -0.37253,-0.75071 h -1.33773 c 0.0339,-0.84102 0.508,-0.98213 0.69991,-0.98213 0.58137,0 0.63782,0.76199 0.63782,0.98213 z"
         style="fill:#d40000;stroke-width:0.264583"
         id="path4884" />
      <path
         d="m 160.22483,107.38804 c 0,-0.29916 -0.16933,-0.46849 -0.23707,-0.53622 -0.18626,-0.18063 -0.4064,-0.22578 -0.64346,-0.27094 -0.31609,-0.0621 -0.69427,-0.13546 -0.69427,-0.46284 0,-0.19756 0.14676,-0.42898 0.63218,-0.42898 0.62089,0 0.64911,0.508 0.6604,0.68298 0.006,0.0508 0.0677,0.0508 0.0677,0.0508 0.0734,0 0.0734,-0.0282 0.0734,-0.13547 v -0.57009 c 0,-0.096 0,-0.13546 -0.0621,-0.13546 -0.0282,0 -0.0395,0 -0.11289,0.0677 -0.0169,0.0226 -0.0734,0.0734 -0.0959,0.0903 -0.21449,-0.15804 -0.44592,-0.15804 -0.53058,-0.15804 -0.68862,0 -0.90311,0.37818 -0.90311,0.69426 0,0.19756 0.0903,0.3556 0.24271,0.47978 0.18062,0.14676 0.33866,0.18062 0.74506,0.25965 0.12418,0.0226 0.58703,0.11288 0.58703,0.51928 0,0.28787 -0.19756,0.51365 -0.63783,0.51365 -0.47413,0 -0.67733,-0.32173 -0.78457,-0.80151 -0.0169,-0.0734 -0.0226,-0.096 -0.079,-0.096 -0.0734,0 -0.0734,0.0395 -0.0734,0.14111 v 0.74507 c 0,0.096 0,0.13547 0.0621,0.13547 0.0282,0 0.0339,-0.006 0.14111,-0.11289 0.0113,-0.0113 0.0113,-0.0226 0.11289,-0.12983 0.24835,0.23707 0.50235,0.24272 0.62088,0.24272 0.64912,0 0.90876,-0.37818 0.90876,-0.78458 z"
         style="fill:#d40000;stroke-width:0.264583"
         id="path4886" />
      <path
         d="m 162.29069,107.41062 v -0.32174 h -0.14111 v 0.31045 c 0,0.41769 -0.16933,0.63217 -0.37818,0.63217 -0.37818,0 -0.37818,-0.51364 -0.37818,-0.60959 v -1.56916 h 0.80716 v -0.17498 h -0.80716 v -1.03857 h -0.14111 c -0.006,0.46284 -0.17497,1.0668 -0.72813,1.08937 v 0.12418 h 0.47978 v 1.55787 c 0,0.69426 0.52493,0.762 0.72813,0.762 0.40076,0 0.5588,-0.40076 0.5588,-0.762 z"
         style="fill:#d40000;stroke-width:0.264583"
         id="path4888" />
      <path
         d="m 168.59552,105.85275 v -0.17498 l -0.54751,0.0169 c -0.0621,0 -0.53622,-0.006 -0.68862,-0.0169 v 0.17498 c 0.25964,0 0.40075,0.10725 0.40075,0.24836 0,0.0564 -0.0282,0.0959 -0.0339,0.11289 -0.31045,0.54751 -0.56445,0.93133 -0.80716,1.23048 -0.0734,-0.0847 -0.68862,-0.85795 -0.93698,-1.50706 0.3048,-0.33867 0.68863,-0.76765 0.68863,-1.14018 0,-0.25964 -0.0903,-0.72813 -0.49107,-0.72813 -0.34996,0 -0.76764,0.31044 -0.76764,0.90875 0,0.23707 0.0339,0.64347 0.23142,1.14582 l -0.51365,0.54751 c -0.254,0.25965 -0.40075,0.41205 -0.40075,0.71685 0,0.49106 0.46284,0.84666 1.02164,0.84666 0.47978,0 0.8128,-0.24271 1.02165,-0.42897 0.38946,0.33866 0.72248,0.42897 0.99342,0.42897 0.42897,0 0.78457,-0.32173 0.79586,-0.80715 h -0.14111 c -0.0169,0.44591 -0.37818,0.63218 -0.63217,0.63218 -0.3048,0 -0.59832,-0.28787 -0.77894,-0.50236 0.25965,-0.29915 0.48542,-0.68298 0.74507,-1.12889 0.22013,-0.37253 0.33866,-0.57008 0.84102,-0.57573 z m -2.06587,-1.06115 c 0,0.37253 -0.45719,0.8636 -0.59266,1.01035 -0.1524,-0.45155 -0.16933,-0.77893 -0.16933,-0.95391 0,-0.47413 0.22577,-0.65475 0.42333,-0.65475 0.33866,0 0.33866,0.59831 0.33866,0.59831 z m 0.13547,2.90688 c -0.36124,0.32174 -0.7112,0.36125 -0.86924,0.36125 -0.46849,0 -0.59831,-0.54751 -0.59831,-0.85231 0,-0.4572 0.19191,-0.6604 0.49671,-0.95391 0.12418,0.26528 0.20884,0.43462 0.45155,0.78457 0.10725,0.15805 0.31045,0.45156 0.51929,0.6604 z"
         style="fill:#d40000;stroke-width:0.264583"
         id="path4890" />
      <path
         d="m 146.48066,113.47275 v -0.17498 h -0.13547 c -0.43462,0 -0.44591,-0.0621 -0.44591,-0.26529 v -2.97462 c 0,-0.2032 0.0113,-0.26529 0.44591,-0.26529 h 0.13547 v -0.17498 h -0.95391 c -0.14676,0 -0.14676,0.006 -0.18627,0.10725 l -1.23613,3.17782 -1.22484,-3.16089 c -0.0508,-0.12418 -0.0677,-0.12418 -0.19756,-0.12418 h -0.95391 v 0.17498 h 0.13547 c 0.43462,0 0.44591,0.0621 0.44591,0.26529 v 2.82222 c 0,0.1524 0,0.41769 -0.58138,0.41769 v 0.17498 l 0.6604,-0.0169 0.6604,0.0169 v -0.17498 c -0.58138,0 -0.58138,-0.26529 -0.58138,-0.41769 v -3.04235 h 0.006 l 1.36031,3.51084 c 0.0282,0.0734 0.0564,0.12418 0.11288,0.12418 0.0621,0 0.079,-0.0452 0.1016,-0.10725 l 1.38854,-3.57293 h 0.006 v 3.23991 c 0,0.2032 -0.0113,0.26529 -0.44591,0.26529 h -0.13547 v 0.17498 c 0.20885,-0.0169 0.59267,-0.0169 0.8128,-0.0169 0.22014,0 0.59831,0 0.80716,0.0169 z"
         style="fill:#d40000;stroke-width:0.264583"
         id="path4892" />
      <path
         d="m 149.42141,112.97039 v -0.31609 h -0.14111 v 0.31609 c 0,0.32738 -0.14111,0.36124 -0.2032,0.36124 -0.18627,0 -0.20884,-0.254 -0.20884,-0.28222 v -1.12889 c 0,-0.23706 0,-0.4572 -0.2032,-0.66604 -0.22014,-0.22013 -0.50236,-0.31044 -0.77329,-0.31044 -0.46285,0 -0.85231,0.26528 -0.85231,0.63782 0,0.16933 0.11289,0.26529 0.25964,0.26529 0.15805,0 0.25965,-0.11289 0.25965,-0.25965 0,-0.0677 -0.0282,-0.254 -0.28787,-0.25964 0.1524,-0.19756 0.42898,-0.25965 0.6096,-0.25965 0.27658,0 0.59831,0.22014 0.59831,0.72249 v 0.20885 c -0.28787,0.0169 -0.68298,0.0339 -1.03858,0.2032 -0.42333,0.19191 -0.56444,0.48542 -0.56444,0.73377 0,0.4572 0.54751,0.59831 0.90311,0.59831 0.37253,0 0.63218,-0.22577 0.73942,-0.49106 0.0226,0.22578 0.17498,0.46284 0.44027,0.46284 0.11853,0 0.46284,-0.079 0.46284,-0.53622 z m -0.94262,-0.28787 c 0,0.53623 -0.4064,0.72814 -0.6604,0.72814 -0.27658,0 -0.508,-0.19756 -0.508,-0.47978 0,-0.31045 0.23707,-0.77893 1.1684,-0.8128 z"
         style="fill:#d40000;stroke-width:0.264583"
         id="path4894" />
      <path
         d="m 152.42989,113.47275 v -0.17498 c -0.3048,0 -0.4064,-0.0113 -0.53623,-0.17498 l -0.75635,-0.97649 c 0.16933,-0.21449 0.38382,-0.49106 0.51929,-0.63782 0.17498,-0.2032 0.4064,-0.28787 0.67169,-0.29351 v -0.17498 c -0.14676,0.0113 -0.31609,0.0169 -0.46285,0.0169 -0.16933,0 -0.46849,-0.0113 -0.54186,-0.0169 v 0.17498 c 0.11853,0.0113 0.16369,0.0847 0.16369,0.17498 0,0.0903 -0.0564,0.16369 -0.0847,0.19755 l -0.34996,0.44027 -0.44026,-0.57009 c -0.0508,-0.0564 -0.0508,-0.0677 -0.0508,-0.1016 0,-0.0847 0.0847,-0.13547 0.19755,-0.14111 v -0.17498 l -0.6096,0.0169 c -0.11853,0 -0.38382,-0.006 -0.53622,-0.0169 v 0.17498 c 0.39511,0 0.40076,0.006 0.66604,0.34431 l 0.5588,0.72813 c -0.26528,0.33867 -0.26528,0.34996 -0.53057,0.67169 -0.27094,0.32738 -0.60396,0.33867 -0.72249,0.33867 v 0.17498 c 0.14675,-0.0113 0.32173,-0.0169 0.46849,-0.0169 l 0.53622,0.0169 v -0.17498 c -0.12418,-0.0169 -0.16369,-0.0903 -0.16369,-0.17498 0,-0.12418 0.16369,-0.31044 0.508,-0.71684 l 0.42898,0.56444 c 0.0452,0.0621 0.11853,0.1524 0.11853,0.18627 0,0.0508 -0.0508,0.13546 -0.2032,0.14111 v 0.17498 l 0.6096,-0.0169 c 0.1524,0 0.37253,0.006 0.54187,0.0169 z"
         style="fill:#d40000;stroke-width:0.264583"
         id="path4896" />
      <path
         d="m 153.8918,113.47275 v -0.17498 c -0.37254,0 -0.39511,-0.0282 -0.39511,-0.24836 v -2.07151 l -0.79023,0.0621 v 0.17498 c 0.36689,0 0.41769,0.0339 0.41769,0.31044 v 1.51836 c 0,0.254 -0.0621,0.254 -0.44026,0.254 v 0.17498 l 0.62088,-0.0169 c 0.19756,0 0.39512,0.0113 0.58703,0.0169 z m -0.31045,-3.40925 c 0,-0.1524 -0.12982,-0.29915 -0.29915,-0.29915 -0.19191,0 -0.3048,0.15804 -0.3048,0.29915 0,0.1524 0.12982,0.29916 0.29915,0.29916 0.19191,0 0.3048,-0.15805 0.3048,-0.29916 z"
         style="fill:#d40000;stroke-width:0.264583"
         id="path4898" />
      <path
         d="m 158.6557,113.47275 v -0.17498 c -0.29351,0 -0.43462,0 -0.44026,-0.16934 v -1.07808 c 0,-0.48543 0,-0.6604 -0.17498,-0.8636 -0.079,-0.096 -0.26529,-0.20885 -0.59267,-0.20885 -0.47413,0 -0.72249,0.33867 -0.81844,0.55316 -0.079,-0.49107 -0.49671,-0.55316 -0.75071,-0.55316 -0.41205,0 -0.67734,0.24271 -0.83538,0.59267 v -0.59267 l -0.79587,0.0621 v 0.17498 c 0.39512,0 0.44027,0.0395 0.44027,0.31609 v 1.51271 c 0,0.254 -0.0621,0.254 -0.44027,0.254 v 0.17498 l 0.63783,-0.0169 0.63217,0.0169 v -0.17498 c -0.37817,0 -0.44026,0 -0.44026,-0.254 v -1.03858 c 0,-0.58702 0.40075,-0.90311 0.762,-0.90311 0.3556,0 0.41769,0.3048 0.41769,0.62653 v 1.31516 c 0,0.254 -0.0621,0.254 -0.44027,0.254 v 0.17498 l 0.63782,-0.0169 0.63218,0.0169 v -0.17498 c -0.37818,0 -0.44027,0 -0.44027,-0.254 v -1.03858 c 0,-0.58702 0.40076,-0.90311 0.762,-0.90311 0.3556,0 0.41769,0.3048 0.41769,0.62653 v 1.31516 c 0,0.254 -0.0621,0.254 -0.44027,0.254 v 0.17498 l 0.63783,-0.0169 z"
         style="fill:#d40000;stroke-width:0.264583"
         id="path4900" />
      <path
         d="m 161.49485,112.97039 v -0.31609 h -0.14112 v 0.31609 c 0,0.32738 -0.14111,0.36124 -0.20319,0.36124 -0.18627,0 -0.20885,-0.254 -0.20885,-0.28222 v -1.12889 c 0,-0.23706 0,-0.4572 -0.2032,-0.66604 -0.22013,-0.22013 -0.50235,-0.31044 -0.77329,-0.31044 -0.46284,0 -0.85231,0.26528 -0.85231,0.63782 0,0.16933 0.11289,0.26529 0.25965,0.26529 0.15804,0 0.25964,-0.11289 0.25964,-0.25965 0,-0.0677 -0.0282,-0.254 -0.28787,-0.25964 0.1524,-0.19756 0.42898,-0.25965 0.6096,-0.25965 0.27658,0 0.59831,0.22014 0.59831,0.72249 v 0.20885 c -0.28786,0.0169 -0.68297,0.0339 -1.03857,0.2032 -0.42334,0.19191 -0.56445,0.48542 -0.56445,0.73377 0,0.4572 0.54751,0.59831 0.90311,0.59831 0.37254,0 0.63218,-0.22577 0.73943,-0.49106 0.0226,0.22578 0.17497,0.46284 0.44026,0.46284 0.11854,0 0.46285,-0.079 0.46285,-0.53622 z m -0.94263,-0.28787 c 0,0.53623 -0.4064,0.72814 -0.6604,0.72814 -0.27657,0 -0.50799,-0.19756 -0.50799,-0.47978 0,-0.31045 0.23706,-0.77893 1.16839,-0.8128 z"
         style="fill:#d40000;stroke-width:0.264583"
         id="path4902" />
      <path
         d="m 163.03012,113.47275 v -0.17498 c -0.37817,0 -0.44026,0 -0.44026,-0.254 v -3.48827 l -0.8128,0.0621 v 0.17498 c 0.39511,0 0.44026,0.0395 0.44026,0.31609 v 2.93511 c 0,0.254 -0.0621,0.254 -0.44026,0.254 v 0.17498 l 0.62653,-0.0169 z"
         style="fill:#d40000;stroke-width:0.264583"
         id="path4904" />
    </g>
    <path
       style="fill:none;stroke:#000000;stroke-width:0.264583px;stroke-linecap:butt;stroke-linejoin:miter;stroke-opacity:1;marker-end:url(#marker4135)"
       d="m 33.16741,93.171131 24.190475,5.291666"
       id="path4131" />
    <path
       style="fill:none;stroke:#000000;stroke-width:0.264583px;stroke-linecap:butt;stroke-linejoin:miter;stroke-opacity:1;marker-end:url(#marker4207)"
       d="m 32.411458,112.44792 23.906993,7.74851"
       id="path4203" />
    <path
       style="fill:none;stroke:#000000;stroke-width:0.264583px;stroke-linecap:butt;stroke-linejoin:miter;stroke-opacity:1;marker-end:url(#marker4285)"
       d="m 31.938989,130.40178 24.662944,-8.31547"
       id="path4371" />
    <path
       style="fill:none;stroke:#000000;stroke-width:0.264583px;stroke-linecap:butt;stroke-linejoin:miter;stroke-opacity:1;marker-end:url(#marker4383)"
       d="m 61.137648,99.691218 24.946428,8.976932"
       id="path4379" />
    <path
       style="fill:none;stroke:#000000;stroke-width:0.264583px;stroke-linecap:butt;stroke-linejoin:miter;stroke-opacity:1;marker-end:url(#marker4473)"
       d="M 60.098214,120.76339 86.178571,110.36905"
       id="path4469" />
    <path
       style="fill:none;stroke:#000000;stroke-width:0.264583;stroke-linecap:butt;stroke-linejoin:miter;stroke-miterlimit:3.9;stroke-dasharray:none;stroke-opacity:1;marker-end:url(#marker4569)"
       d="M 89.580356,108.57366 111.21949,98.273808"
       id="path4565" />
    <path
       style="fill:none;stroke:#000000;stroke-width:0.264583px;stroke-linecap:butt;stroke-linejoin:miter;stroke-opacity:1;marker-end:url(#marker4683)"
       d="m 114.62128,97.990325 19.84375,9.921875"
       id="path4679" />
  </g>
</svg>
