<?xml version="1.0" encoding="UTF-8" standalone="no"?>
<svg
   xmlns:dc="http://purl.org/dc/elements/1.1/"
   xmlns:cc="http://creativecommons.org/ns#"
   xmlns:rdf="http://www.w3.org/1999/02/22-rdf-syntax-ns#"
   xmlns:svg="http://www.w3.org/2000/svg"
   xmlns="http://www.w3.org/2000/svg"
   xmlns:sodipodi="http://sodipodi.sourceforge.net/DTD/sodipodi-0.dtd"
   xmlns:inkscape="http://www.inkscape.org/namespaces/inkscape"
   width="409.72971"
   height="170.14281"
   viewBox="0 0 108.40765 45.016952"
   version="1.1"
   id="svg8"
   inkscape:version="1.0.1 (3bc2e813f5, 2020-09-07)"
   sodipodi:docname="nonsimplewalk.svg">
  <defs
     id="defs2">
    <marker
       style="overflow:visible"
       id="marker1636"
       refX="0"
       refY="0"
       orient="auto"
       inkscape:stockid="Arrow1Mend"
       inkscape:isstock="true">
      <path
         transform="matrix(-0.4,0,0,-0.4,-4,0)"
         style="fill:#000000;fill-opacity:1;fill-rule:evenodd;stroke:#000000;stroke-width:1pt;stroke-opacity:1"
         d="M 0,0 5,-5 -12.5,0 5,5 Z"
         id="path1634" />
    </marker>
    <marker
       style="overflow:visible"
       id="marker1558"
       refX="0"
       refY="0"
       orient="auto"
       inkscape:stockid="Arrow1Mend"
       inkscape:isstock="true"
       inkscape:collect="always">
      <path
         transform="matrix(-0.4,0,0,-0.4,-4,0)"
         style="fill:#000000;fill-opacity:1;fill-rule:evenodd;stroke:#000000;stroke-width:1pt;stroke-opacity:1"
         d="M 0,0 5,-5 -12.5,0 5,5 Z"
         id="path1556" />
    </marker>
    <marker
       style="overflow:visible"
       id="marker1486"
       refX="0"
       refY="0"
       orient="auto"
       inkscape:stockid="Arrow1Mend"
       inkscape:isstock="true"
       inkscape:collect="always">
      <path
         transform="matrix(-0.4,0,0,-0.4,-4,0)"
         style="fill:#000000;fill-opacity:1;fill-rule:evenodd;stroke:#000000;stroke-width:1pt;stroke-opacity:1"
         d="M 0,0 5,-5 -12.5,0 5,5 Z"
         id="path1484" />
    </marker>
    <marker
       style="overflow:visible"
       id="marker1420"
       refX="0"
       refY="0"
       orient="auto"
       inkscape:stockid="Arrow1Mend"
       inkscape:isstock="true"
       inkscape:collect="always">
      <path
         transform="matrix(-0.4,0,0,-0.4,-4,0)"
         style="fill:#000000;fill-opacity:1;fill-rule:evenodd;stroke:#000000;stroke-width:1pt;stroke-opacity:1"
         d="M 0,0 5,-5 -12.5,0 5,5 Z"
         id="path1418" />
    </marker>
    <marker
       style="overflow:visible"
       id="marker1360"
       refX="0"
       refY="0"
       orient="auto"
       inkscape:stockid="Arrow1Mend"
       inkscape:isstock="true"
       inkscape:collect="always">
      <path
         transform="matrix(-0.4,0,0,-0.4,-4,0)"
         style="fill:#000000;fill-opacity:1;fill-rule:evenodd;stroke:#000000;stroke-width:1pt;stroke-opacity:1"
         d="M 0,0 5,-5 -12.5,0 5,5 Z"
         id="path1358" />
    </marker>
    <marker
       style="overflow:visible"
       id="marker1306"
       refX="0"
       refY="0"
       orient="auto"
       inkscape:stockid="Arrow1Mend"
       inkscape:isstock="true"
       inkscape:collect="always">
      <path
         transform="matrix(-0.4,0,0,-0.4,-4,0)"
         style="fill:#000000;fill-opacity:1;fill-rule:evenodd;stroke:#000000;stroke-width:1pt;stroke-opacity:1"
         d="M 0,0 5,-5 -12.5,0 5,5 Z"
         id="path1304" />
    </marker>
    <marker
       style="overflow:visible"
       id="marker1258"
       refX="0"
       refY="0"
       orient="auto"
       inkscape:stockid="Arrow1Mend"
       inkscape:isstock="true"
       inkscape:collect="always">
      <path
         transform="matrix(-0.4,0,0,-0.4,-4,0)"
         style="fill:#000000;fill-opacity:1;fill-rule:evenodd;stroke:#000000;stroke-width:1pt;stroke-opacity:1"
         d="M 0,0 5,-5 -12.5,0 5,5 Z"
         id="path1256" />
    </marker>
    <marker
       style="overflow:visible"
       id="marker1204"
       refX="0"
       refY="0"
       orient="auto"
       inkscape:stockid="Arrow1Mend"
       inkscape:isstock="true"
       inkscape:collect="always">
      <path
         transform="matrix(-0.4,0,0,-0.4,-4,0)"
         style="fill:#000000;fill-opacity:1;fill-rule:evenodd;stroke:#000000;stroke-width:1pt;stroke-opacity:1"
         d="M 0,0 5,-5 -12.5,0 5,5 Z"
         id="path1202" />
    </marker>
    <marker
       style="overflow:visible"
       id="marker1168"
       refX="0"
       refY="0"
       orient="auto"
       inkscape:stockid="Arrow1Mend"
       inkscape:isstock="true"
       inkscape:collect="always">
      <path
         transform="matrix(-0.4,0,0,-0.4,-4,0)"
         style="fill:#000000;fill-opacity:1;fill-rule:evenodd;stroke:#000000;stroke-width:1pt;stroke-opacity:1"
         d="M 0,0 5,-5 -12.5,0 5,5 Z"
         id="path1166" />
    </marker>
    <marker
       style="overflow:visible"
       id="Arrow1Send"
       refX="0"
       refY="0"
       orient="auto"
       inkscape:stockid="Arrow1Send"
       inkscape:isstock="true">
      <path
         transform="matrix(-0.2,0,0,-0.2,-1.2,0)"
         style="fill:#000000;fill-opacity:1;fill-rule:evenodd;stroke:#000000;stroke-width:1pt;stroke-opacity:1"
         d="M 0,0 5,-5 -12.5,0 5,5 Z"
         id="path877" />
    </marker>
    <marker
       style="overflow:visible"
       id="Arrow1Mend"
       refX="0"
       refY="0"
       orient="auto"
       inkscape:stockid="Arrow1Mend"
       inkscape:isstock="true"
       inkscape:collect="always">
      <path
         transform="matrix(-0.4,0,0,-0.4,-4,0)"
         style="fill:#000000;fill-opacity:1;fill-rule:evenodd;stroke:#000000;stroke-width:1pt;stroke-opacity:1"
         d="M 0,0 5,-5 -12.5,0 5,5 Z"
         id="path871" />
    </marker>
  </defs>
  <sodipodi:namedview
     id="base"
     pagecolor="#ffffff"
     bordercolor="#666666"
     borderopacity="1.0"
     inkscape:pageopacity="0.0"
     inkscape:pageshadow="2"
     inkscape:zoom="2.8"
     inkscape:cx="205.36249"
     inkscape:cy="107.17546"
     inkscape:document-units="mm"
     inkscape:current-layer="layer1"
     inkscape:document-rotation="0"
     showgrid="false"
     units="px"
     inkscape:snap-global="false"
     fit-margin-top="15"
     fit-margin-left="15"
     fit-margin-bottom="15"
     fit-margin-right="15"
     inkscape:window-width="1920"
     inkscape:window-height="1137"
     inkscape:window-x="1432"
     inkscape:window-y="-8"
     inkscape:window-maximized="1" />
  <metadata
     id="metadata5">
    <rdf:RDF>
      <cc:Work
         rdf:about="">
        <dc:format>image/svg+xml</dc:format>
        <dc:type
           rdf:resource="http://purl.org/dc/dcmitype/StillImage" />
        <dc:title></dc:title>
      </cc:Work>
    </rdf:RDF>
  </metadata>
  <g
     inkscape:label="Layer 1"
     inkscape:groupmode="layer"
     id="layer1"
     transform="translate(-2.7526834,-4.390043)">
    <circle
       style="fill:#000000;stroke:#000000;stroke-width:0.524545;stroke-linecap:square;stop-color:#000000"
       id="path833"
       cx="8.8525162"
       cy="27.470758"
       r="1.184333" />
    <circle
       style="fill:#000000;stroke:#000000;stroke-width:0.524546;stroke-linecap:square;stop-color:#000000"
       id="path833-4"
       cx="58.924072"
       cy="31.28804"
       r="1.184333" />
    <circle
       style="fill:#000000;stroke:#000000;stroke-width:0.524546;stroke-linecap:square;stop-color:#000000"
       id="path833-6"
       cx="105.74498"
       cy="24.53381"
       r="1.184333" />
    <g
       aria-label="(Abstract representation)"
       id="text858"
       style="font-size:7.7611px;line-height:1.25;font-family:'Latin Modern Roman';-inkscape-font-specification:'Latin Modern Roman, ';stroke-width:0.264583"
       transform="translate(16.62376,6.4570661)">
      <path
         d="m 5.8767119,38.910612 c 0,-0.02117 0,-0.03528 -0.1199445,-0.155222 -0.881945,-0.889001 -1.1077229,-2.222502 -1.1077229,-3.302003 0,-1.227667 0.2681112,-2.455334 1.1359451,-3.337279 0.091722,-0.08467 0.091722,-0.09878 0.091722,-0.119945 0,-0.04939 -0.028222,-0.07056 -0.070556,-0.07056 -0.070556,0 -0.705556,0.479779 -1.121834,1.375835 -0.3598336,0.776111 -0.4445003,1.559278 -0.4445003,2.151945 0,0.550334 0.077611,1.404057 0.4656669,2.201335 0.4233336,0.867834 1.0301118,1.326446 1.1006674,1.326446 0.042333,0 0.070556,-0.02117 0.070556,-0.07056 z"
         style="font-size:7.05556px;stroke-width:0.264583"
         id="path1779" />
      <path
         d="M 11.344771,37.217278 V 36.998555 H 11.21777 c -0.423333,0 -0.522111,-0.04939 -0.599722,-0.282222 L 9.0940469,32.306608 c -0.035278,-0.09172 -0.049389,-0.141112 -0.1622779,-0.141112 -0.1128889,0 -0.1340556,0.04233 -0.1693334,0.141112 l -1.460501,4.219225 C 7.1749345,36.885666 6.8927121,36.9915 6.5117119,36.998555 v 0.218723 l 0.7196671,-0.02117 0.8113894,0.02117 v -0.218723 c -0.352778,0 -0.529167,-0.176389 -0.529167,-0.359833 0,-0.02117 0.00706,-0.09172 0.014111,-0.105834 L 7.8522683,35.60861 h 1.7427234 l 0.3739446,1.079501 c 0.00706,0.02822 0.021167,0.07055 0.021167,0.09878 0,0.211667 -0.3951113,0.211667 -0.5856115,0.211667 v 0.218723 c 0.2540002,-0.02117 0.7478892,-0.02117 1.0160002,-0.02117 z M 9.5173805,35.389887 H 7.9298795 L 8.7201022,33.09683 Z"
         style="font-size:7.05556px;stroke-width:0.264583"
         id="path1781" />
      <path
         d="m 15.253538,35.693277 c 0,-0.896057 -0.691445,-1.594557 -1.495779,-1.594557 -0.550334,0 -0.853723,0.331611 -0.966612,0.458611 v -2.236612 l -1.016001,0.07761 v 0.218722 c 0.49389,0 0.550334,0.04939 0.550334,0.395112 v 4.205114 h 0.176389 l 0.254,-0.437445 c 0.105834,0.162278 0.402167,0.515056 0.924279,0.515056 0.839611,0 1.57339,-0.691445 1.57339,-1.601612 z m -0.585612,-0.0071 c 0,0.261056 -0.01411,0.684389 -0.218722,1.00189 -0.148167,0.218722 -0.416278,0.451555 -0.797279,0.451555 -0.3175,0 -0.5715,-0.169333 -0.740833,-0.430389 -0.09878,-0.148167 -0.09878,-0.169333 -0.09878,-0.296333 v -1.453446 c 0,-0.134055 0,-0.141111 0.07761,-0.254 0.275167,-0.395111 0.663223,-0.451556 0.832556,-0.451556 0.3175,0 0.5715,0.183445 0.740834,0.451556 0.183444,0.289278 0.204611,0.691445 0.204611,0.980723 z"
         style="font-size:7.05556px;stroke-width:0.264583"
         id="path1783" />
      <path
         d="m 18.040482,36.314166 c 0,-0.373945 -0.211667,-0.585612 -0.296333,-0.670278 -0.232834,-0.225778 -0.508001,-0.282223 -0.804334,-0.338667 -0.395112,-0.07761 -0.867834,-0.169334 -0.867834,-0.578556 0,-0.246945 0.183444,-0.536223 0.790223,-0.536223 0.776111,0 0.811389,0.635001 0.8255,0.853723 0.0071,0.0635 0.08467,0.0635 0.08467,0.0635 0.09172,0 0.09172,-0.03528 0.09172,-0.169333 V 34.22572 c 0,-0.119944 0,-0.169333 -0.07761,-0.169333 -0.03528,0 -0.04939,0 -0.141111,0.08467 -0.02117,0.02822 -0.09172,0.09172 -0.119945,0.112889 -0.268111,-0.197555 -0.557389,-0.197555 -0.663222,-0.197555 -0.860779,0 -1.12889,0.472722 -1.12889,0.867833 0,0.246945 0.112889,0.444501 0.303389,0.599723 0.225778,0.183445 0.423334,0.225778 0.931334,0.324556 0.155222,0.02822 0.733778,0.141111 0.733778,0.649111 0,0.359834 -0.246944,0.642056 -0.797278,0.642056 -0.592667,0 -0.846667,-0.402167 -0.980723,-1.001889 -0.02117,-0.09172 -0.02822,-0.119945 -0.09878,-0.119945 -0.09172,0 -0.09172,0.04939 -0.09172,0.176389 v 0.931334 c 0,0.119945 0,0.169334 0.07761,0.169334 0.03528,0 0.04233,-0.0071 0.176389,-0.141112 0.01411,-0.01411 0.01411,-0.02822 0.141111,-0.162277 0.310445,0.296333 0.627945,0.303389 0.776112,0.303389 0.811389,0 1.135945,-0.472723 1.135945,-0.980723 z"
         style="font-size:7.05556px;stroke-width:0.264583"
         id="path1785" />
      <path
         d="m 20.622811,36.342388 v -0.402167 h -0.176389 v 0.388056 c 0,0.522111 -0.211667,0.790223 -0.472723,0.790223 -0.472722,0 -0.472722,-0.642056 -0.472722,-0.762001 v -1.961446 h 1.008945 v -0.218722 h -1.008945 v -1.298223 h -0.176389 c -0.0071,0.578556 -0.218723,1.333501 -0.910168,1.361723 v 0.155222 h 0.599723 v 1.947335 c 0,0.867834 0.656167,0.952501 0.910167,0.952501 0.500945,0 0.698501,-0.500945 0.698501,-0.952501 z"
         style="font-size:7.05556px;stroke-width:0.264583"
         id="path1787" />
      <path
         d="m 23.593201,34.529109 c 0,-0.225778 -0.218722,-0.430389 -0.522111,-0.430389 -0.515056,0 -0.769056,0.472722 -0.867834,0.776112 V 34.09872 l -0.980723,0.07761 v 0.218722 c 0.493889,0 0.550334,0.04939 0.550334,0.395112 v 1.89089 c 0,0.3175 -0.07761,0.3175 -0.550334,0.3175 v 0.218723 l 0.804334,-0.02117 c 0.282222,0 0.613834,0 0.896056,0.02117 v -0.218723 h -0.148167 c -0.522111,0 -0.536222,-0.07761 -0.536222,-0.331611 v -1.086556 c 0,-0.698501 0.296333,-1.326446 0.832556,-1.326446 0.04939,0 0.0635,0 0.07761,0.0071 -0.02117,0.0071 -0.162278,0.09172 -0.162278,0.275167 0,0.197555 0.148167,0.303389 0.303389,0.303389 0.127,0 0.303389,-0.08467 0.303389,-0.310445 z"
         style="font-size:7.05556px;stroke-width:0.264583"
         id="path1789" />
      <path
         d="m 27.198581,36.589333 v -0.395112 h -0.176389 v 0.395112 c 0,0.409222 -0.176389,0.451556 -0.254,0.451556 -0.232834,0 -0.261056,-0.317501 -0.261056,-0.352778 v -1.411113 c 0,-0.296333 0,-0.5715 -0.254,-0.832556 -0.275167,-0.275166 -0.627945,-0.388055 -0.966612,-0.388055 -0.578556,0 -1.065389,0.331611 -1.065389,0.797278 0,0.211667 0.141111,0.331611 0.324555,0.331611 0.197556,0 0.324556,-0.141111 0.324556,-0.324556 0,-0.08467 -0.03528,-0.3175 -0.359833,-0.324555 0.1905,-0.246945 0.536222,-0.324556 0.762,-0.324556 0.345723,0 0.747889,0.275167 0.747889,0.903112 v 0.261055 c -0.359833,0.02117 -0.853722,0.04233 -1.298223,0.254001 -0.529167,0.239889 -0.705556,0.606778 -0.705556,0.917222 0,0.571501 0.68439,0.74789 1.12889,0.74789 0.465667,0 0.790223,-0.282223 0.924278,-0.613834 0.02822,0.282222 0.218723,0.578556 0.550334,0.578556 0.148167,0 0.578556,-0.09878 0.578556,-0.670278 z m -1.178279,-0.359834 c 0,0.670278 -0.508,0.910167 -0.8255,0.910167 -0.345722,0 -0.635,-0.246944 -0.635,-0.599722 0,-0.388056 0.296333,-0.973668 1.4605,-1.016001 z"
         style="font-size:7.05556px;stroke-width:0.264583"
         id="path1791" />
      <path
         d="m 30.246568,36.377666 c 0,-0.07056 -0.07055,-0.07056 -0.09172,-0.07056 -0.0635,0 -0.07761,0.02822 -0.09172,0.07056 -0.204612,0.656167 -0.663223,0.740834 -0.924279,0.740834 -0.373944,0 -0.994834,-0.303389 -0.994834,-1.439335 0,-1.150056 0.578556,-1.446389 0.952501,-1.446389 0.0635,0 0.508,0.0071 0.754945,0.261055 -0.289278,0.02117 -0.331611,0.232834 -0.331611,0.324556 0,0.183445 0.127,0.324556 0.324555,0.324556 0.183445,0 0.324556,-0.119945 0.324556,-0.331611 0,-0.479779 -0.536223,-0.754945 -1.079501,-0.754945 -0.881945,0 -1.531056,0.762 -1.531056,1.63689 0,0.903111 0.6985,1.601612 1.516945,1.601612 0.945445,0 1.171223,-0.846668 1.171223,-0.917223 z"
         style="font-size:7.05556px;stroke-width:0.264583"
         id="path1793" />
      <path
         d="m 32.793615,36.342388 v -0.402167 h -0.176389 v 0.388056 c 0,0.522111 -0.211667,0.790223 -0.472723,0.790223 -0.472722,0 -0.472722,-0.642056 -0.472722,-0.762001 v -1.961446 h 1.008945 v -0.218722 h -1.008945 v -1.298223 h -0.176389 c -0.0071,0.578556 -0.218723,1.333501 -0.910168,1.361723 v 0.155222 h 0.599723 v 1.947335 c 0,0.867834 0.656167,0.952501 0.910167,0.952501 0.500945,0 0.698501,-0.500945 0.698501,-0.952501 z"
         style="font-size:7.05556px;stroke-width:0.264583"
         id="path1795" />
      <path
         d="m 38.113494,34.529109 c 0,-0.225778 -0.218723,-0.430389 -0.522112,-0.430389 -0.515056,0 -0.769056,0.472722 -0.867834,0.776112 V 34.09872 l -0.980723,0.07761 v 0.218722 c 0.49389,0 0.550334,0.04939 0.550334,0.395112 v 1.89089 c 0,0.3175 -0.07761,0.3175 -0.550334,0.3175 v 0.218723 l 0.804334,-0.02117 c 0.282223,0 0.613834,0 0.896056,0.02117 v -0.218723 h -0.148166 c -0.522112,0 -0.536223,-0.07761 -0.536223,-0.331611 v -1.086556 c 0,-0.698501 0.296334,-1.326446 0.832556,-1.326446 0.04939,0 0.0635,0 0.07761,0.0071 -0.02117,0.0071 -0.162278,0.09172 -0.162278,0.275167 0,0.197555 0.148167,0.303389 0.30339,0.303389 0.127,0 0.303389,-0.08467 0.303389,-0.310445 z"
         style="font-size:7.05556px;stroke-width:0.264583"
         id="path1797" />
      <path
         d="m 41.239093,36.377666 c 0,-0.07056 -0.05644,-0.08467 -0.09172,-0.08467 -0.0635,0 -0.07761,0.04233 -0.09172,0.09878 -0.246945,0.726723 -0.881945,0.726723 -0.952501,0.726723 -0.352778,0 -0.635,-0.211667 -0.797278,-0.472723 -0.211667,-0.338667 -0.211667,-0.804334 -0.211667,-1.058334 h 1.968501 c 0.155223,0 0.176389,0 0.176389,-0.148167 0,-0.6985 -0.381,-1.382889 -1.262945,-1.382889 -0.818445,0 -1.467556,0.726722 -1.467556,1.608667 0,0.945445 0.740833,1.629835 1.552223,1.629835 0.860778,0 1.178278,-0.783167 1.178278,-0.917223 z m -0.465667,-0.93839 h -1.672167 c 0.04233,-1.051278 0.635,-1.227667 0.874889,-1.227667 0.726723,0 0.797278,0.952501 0.797278,1.227667 z"
         style="font-size:7.05556px;stroke-width:0.264583"
         id="path1799" />
      <path
         d="m 45.119643,35.693277 c 0,-0.896057 -0.68439,-1.594557 -1.474612,-1.594557 -0.550334,0 -0.846668,0.310445 -0.987779,0.465667 V 34.09872 l -1.016001,0.07761 v 0.218722 c 0.500945,0 0.550334,0.04233 0.550334,0.352778 v 3.302003 c 0,0.3175 -0.07761,0.3175 -0.550334,0.3175 v 0.218722 l 0.790223,-0.02117 0.797278,0.02117 v -0.218722 c -0.472722,0 -0.550333,0 -0.550333,-0.3175 v -1.185334 -0.0635 c 0.03528,0.112889 0.331611,0.49389 0.867834,0.49389 0.839611,0 1.57339,-0.691445 1.57339,-1.601612 z m -0.585612,0 c 0,0.853722 -0.493889,1.446389 -1.016001,1.446389 -0.282222,0 -0.550333,-0.141111 -0.740833,-0.430389 -0.09878,-0.148167 -0.09878,-0.155222 -0.09878,-0.296333 v -1.57339 c 0.204611,-0.359834 0.550333,-0.564445 0.910167,-0.564445 0.515056,0 0.945445,0.620889 0.945445,1.418168 z"
         style="font-size:7.05556px;stroke-width:0.264583"
         id="path1801" />
      <path
         d="m 47.934809,34.529109 c 0,-0.225778 -0.218722,-0.430389 -0.522111,-0.430389 -0.515056,0 -0.769056,0.472722 -0.867834,0.776112 V 34.09872 l -0.980723,0.07761 v 0.218722 c 0.493889,0 0.550334,0.04939 0.550334,0.395112 v 1.89089 c 0,0.3175 -0.07761,0.3175 -0.550334,0.3175 v 0.218723 l 0.804334,-0.02117 c 0.282222,0 0.613834,0 0.896056,0.02117 v -0.218723 h -0.148167 c -0.522111,0 -0.536222,-0.07761 -0.536222,-0.331611 v -1.086556 c 0,-0.698501 0.296333,-1.326446 0.832556,-1.326446 0.04939,0 0.0635,0 0.07761,0.0071 -0.02117,0.0071 -0.162278,0.09172 -0.162278,0.275167 0,0.197555 0.148167,0.303389 0.303389,0.303389 0.127,0 0.303389,-0.08467 0.303389,-0.310445 z"
         style="font-size:7.05556px;stroke-width:0.264583"
         id="path1803" />
      <path
         d="m 51.060409,36.377666 c 0,-0.07056 -0.05644,-0.08467 -0.09172,-0.08467 -0.0635,0 -0.07761,0.04233 -0.09172,0.09878 C 50.63002,37.1185 49.99502,37.1185 49.924464,37.1185 c -0.352778,0 -0.635001,-0.211667 -0.797278,-0.472723 -0.211667,-0.338667 -0.211667,-0.804334 -0.211667,-1.058334 h 1.968501 c 0.155222,0 0.176389,0 0.176389,-0.148167 0,-0.6985 -0.381,-1.382889 -1.262945,-1.382889 -0.818445,0 -1.467557,0.726722 -1.467557,1.608667 0,0.945445 0.740834,1.629835 1.552224,1.629835 0.860778,0 1.178278,-0.783167 1.178278,-0.917223 z m -0.465667,-0.93839 h -1.672168 c 0.04233,-1.051278 0.635001,-1.227667 0.87489,-1.227667 0.726723,0 0.797278,0.952501 0.797278,1.227667 z"
         style="font-size:7.05556px;stroke-width:0.264583"
         id="path1805" />
      <path
         d="m 53.805009,36.314166 c 0,-0.373945 -0.211666,-0.585612 -0.296333,-0.670278 -0.232834,-0.225778 -0.508,-0.282223 -0.804334,-0.338667 -0.395111,-0.07761 -0.867834,-0.169334 -0.867834,-0.578556 0,-0.246945 0.183445,-0.536223 0.790223,-0.536223 0.776111,0 0.811389,0.635001 0.8255,0.853723 0.0071,0.0635 0.08467,0.0635 0.08467,0.0635 0.09172,0 0.09172,-0.03528 0.09172,-0.169333 V 34.22572 c 0,-0.119944 0,-0.169333 -0.07761,-0.169333 -0.03528,0 -0.04939,0 -0.141111,0.08467 -0.02117,0.02822 -0.09172,0.09172 -0.119945,0.112889 -0.268111,-0.197555 -0.557389,-0.197555 -0.663222,-0.197555 -0.860778,0 -1.12889,0.472722 -1.12889,0.867833 0,0.246945 0.112889,0.444501 0.303389,0.599723 0.225778,0.183445 0.423334,0.225778 0.931334,0.324556 0.155223,0.02822 0.733778,0.141111 0.733778,0.649111 0,0.359834 -0.246944,0.642056 -0.797278,0.642056 -0.592667,0 -0.846667,-0.402167 -0.980723,-1.001889 -0.02117,-0.09172 -0.02822,-0.119945 -0.09878,-0.119945 -0.09172,0 -0.09172,0.04939 -0.09172,0.176389 v 0.931334 c 0,0.119945 0,0.169334 0.07761,0.169334 0.03528,0 0.04233,-0.0071 0.176389,-0.141112 0.01411,-0.01411 0.01411,-0.02822 0.141112,-0.162277 0.310444,0.296333 0.627944,0.303389 0.776111,0.303389 0.81139,0 1.135945,-0.472723 1.135945,-0.980723 z"
         style="font-size:7.05556px;stroke-width:0.264583"
         id="path1807" />
      <path
         d="m 56.97295,36.377666 c 0,-0.07056 -0.05644,-0.08467 -0.09172,-0.08467 -0.0635,0 -0.07761,0.04233 -0.09172,0.09878 -0.24695,0.726724 -0.88195,0.726724 -0.952506,0.726724 -0.352778,0 -0.635,-0.211667 -0.797278,-0.472723 -0.211667,-0.338667 -0.211667,-0.804334 -0.211667,-1.058334 h 1.968502 c 0.155222,0 0.176389,0 0.176389,-0.148167 0,-0.6985 -0.381001,-1.382889 -1.262946,-1.382889 -0.818445,0 -1.467556,0.726722 -1.467556,1.608667 0,0.945445 0.740834,1.629835 1.552223,1.629835 0.860778,0 1.178279,-0.783167 1.178279,-0.917223 z m -0.465667,-0.93839 h -1.672168 c 0.04233,-1.051278 0.635,-1.227667 0.874889,-1.227667 0.726723,0 0.797279,0.952501 0.797279,1.227667 z"
         style="font-size:7.05556px;stroke-width:0.264583"
         id="path1809" />
      <path
         d="m 60.952277,37.217278 v -0.218723 c -0.366889,0 -0.543278,0 -0.550334,-0.211667 v -1.347612 c 0,-0.606778 0,-0.8255 -0.218722,-1.0795 -0.09878,-0.119945 -0.331612,-0.261056 -0.740834,-0.261056 -0.515056,0 -0.846667,0.303389 -1.044223,0.740834 V 34.09872 l -0.994834,0.07761 v 0.218722 c 0.493889,0 0.550334,0.04939 0.550334,0.395112 v 1.89089 c 0,0.3175 -0.07761,0.3175 -0.550334,0.3175 v 0.218723 l 0.797278,-0.02117 0.790223,0.02117 v -0.218723 c -0.472723,0 -0.550334,0 -0.550334,-0.3175 v -1.298223 c 0,-0.733778 0.500945,-1.12889 0.952501,-1.12889 0.4445,0 0.522111,0.381001 0.522111,0.783167 v 1.643946 c 0,0.3175 -0.07761,0.3175 -0.550333,0.3175 v 0.218723 l 0.797278,-0.02117 z"
         style="font-size:7.05556px;stroke-width:0.264583"
         id="path1811" />
      <path
         d="m 63.245317,36.342388 v -0.402167 h -0.176389 v 0.388056 c 0,0.522111 -0.211667,0.790223 -0.472723,0.790223 -0.472722,0 -0.472722,-0.642056 -0.472722,-0.762001 v -1.961446 h 1.008945 v -0.218722 h -1.008945 v -1.298223 h -0.176389 c -0.0071,0.578556 -0.218723,1.333501 -0.910167,1.361723 v 0.155222 h 0.599722 v 1.947335 c 0,0.867834 0.656167,0.952501 0.910167,0.952501 0.500945,0 0.698501,-0.500945 0.698501,-0.952501 z"
         style="font-size:7.05556px;stroke-width:0.264583"
         id="path1813" />
      <path
         d="m 67.05532,36.589333 v -0.395112 h -0.176389 v 0.395112 c 0,0.409222 -0.176389,0.451556 -0.254,0.451556 -0.232834,0 -0.261056,-0.317501 -0.261056,-0.352778 v -1.411113 c 0,-0.296333 0,-0.5715 -0.254,-0.832556 -0.275167,-0.275166 -0.627945,-0.388055 -0.966612,-0.388055 -0.578556,0 -1.065389,0.331611 -1.065389,0.797278 0,0.211667 0.141111,0.331611 0.324555,0.331611 0.197556,0 0.324556,-0.141111 0.324556,-0.324556 0,-0.08467 -0.03528,-0.3175 -0.359833,-0.324555 0.1905,-0.246945 0.536222,-0.324556 0.762,-0.324556 0.345723,0 0.74789,0.275167 0.74789,0.903112 v 0.261055 c -0.359834,0.02117 -0.853723,0.04233 -1.298224,0.254001 -0.529167,0.239889 -0.705556,0.606778 -0.705556,0.917222 0,0.571501 0.68439,0.74789 1.12889,0.74789 0.465667,0 0.790223,-0.282223 0.924278,-0.613834 0.02822,0.282222 0.218723,0.578556 0.550334,0.578556 0.148167,0 0.578556,-0.09878 0.578556,-0.670278 z m -1.178278,-0.359834 c 0,0.670278 -0.508001,0.910167 -0.825501,0.910167 -0.345722,0 -0.635,-0.246944 -0.635,-0.599722 0,-0.388056 0.296333,-0.973668 1.460501,-1.016001 z"
         style="font-size:7.05556px;stroke-width:0.264583"
         id="path1815" />
      <path
         d="m 69.517698,36.342388 v -0.402167 h -0.176389 v 0.388056 c 0,0.522111 -0.211667,0.790223 -0.472723,0.790223 -0.472722,0 -0.472722,-0.642056 -0.472722,-0.762001 v -1.961446 h 1.008945 v -0.218722 h -1.008945 v -1.298223 h -0.176389 c -0.0071,0.578556 -0.218723,1.333501 -0.910168,1.361723 v 0.155222 h 0.599723 v 1.947335 c 0,0.867834 0.656167,0.952501 0.910167,0.952501 0.500945,0 0.698501,-0.500945 0.698501,-0.952501 z"
         style="font-size:7.05556px;stroke-width:0.264583"
         id="path1817" />
      <path
         d="m 71.662585,37.217278 v -0.218723 c -0.465667,0 -0.493889,-0.03528 -0.493889,-0.310444 V 34.09872 l -0.987779,0.07761 v 0.218722 c 0.458612,0 0.522112,0.04233 0.522112,0.388056 v 1.897946 c 0,0.3175 -0.07761,0.3175 -0.550334,0.3175 v 0.218723 l 0.776112,-0.02117 c 0.246944,0 0.493889,0.01411 0.733778,0.02117 z m -0.388056,-4.261559 c 0,-0.1905 -0.162278,-0.373944 -0.373945,-0.373944 -0.239889,0 -0.381,0.197555 -0.381,0.373944 0,0.1905 0.162278,0.373945 0.373945,0.373945 0.239889,0 0.381,-0.197556 0.381,-0.373945 z"
         style="font-size:7.05556px;stroke-width:0.264583"
         id="path1819" />
      <path
         d="m 75.204479,35.707388 c 0,-0.903112 -0.705556,-1.651001 -1.559279,-1.651001 -0.881945,0 -1.566334,0.769056 -1.566334,1.651001 0,0.910167 0.733778,1.587501 1.559279,1.587501 0.853722,0 1.566334,-0.691445 1.566334,-1.587501 z m -0.585611,-0.05645 c 0,0.254 0,0.635001 -0.155223,0.945445 -0.155222,0.3175 -0.465667,0.522112 -0.818445,0.522112 -0.303389,0 -0.613833,-0.148167 -0.804334,-0.472723 -0.176389,-0.310444 -0.176389,-0.740834 -0.176389,-0.994834 0,-0.275167 0,-0.656167 0.169334,-0.966612 0.1905,-0.324555 0.522111,-0.472722 0.804334,-0.472722 0.310444,0 0.613833,0.155222 0.797278,0.458611 0.183445,0.303389 0.183445,0.712612 0.183445,0.980723 z"
         style="font-size:7.05556px;stroke-width:0.264583"
         id="path1821" />
      <path
         d="m 79.183798,37.217278 v -0.218723 c -0.366889,0 -0.543278,0 -0.550333,-0.211667 v -1.347612 c 0,-0.606778 0,-0.8255 -0.218723,-1.0795 -0.09878,-0.119945 -0.331611,-0.261056 -0.740834,-0.261056 -0.515056,0 -0.846667,0.303389 -1.044223,0.740834 V 34.09872 l -0.994833,0.07761 v 0.218722 c 0.493889,0 0.550333,0.04939 0.550333,0.395112 v 1.89089 c 0,0.3175 -0.07761,0.3175 -0.550333,0.3175 v 0.218723 l 0.797278,-0.02117 0.790223,0.02117 v -0.218723 c -0.472723,0 -0.550334,0 -0.550334,-0.3175 v -1.298223 c 0,-0.733778 0.500945,-1.12889 0.9525,-1.12889 0.444501,0 0.522112,0.381001 0.522112,0.783167 v 1.643946 c 0,0.3175 -0.07761,0.3175 -0.550334,0.3175 v 0.218723 l 0.797279,-0.02117 z"
         style="font-size:7.05556px;stroke-width:0.264583"
         id="path1823" />
      <path
         d="m 81.37102,35.453387 c 0,-0.550333 -0.07761,-1.404056 -0.465667,-2.201334 -0.423333,-0.867834 -1.030112,-1.326446 -1.100667,-1.326446 -0.04233,0 -0.07056,0.02822 -0.07056,0.07056 0,0.02117 0,0.03528 0.134056,0.162278 0.691445,0.6985 1.093612,1.820334 1.093612,3.294946 0,1.206501 -0.261056,2.44828 -1.135945,3.33728 -0.09172,0.08467 -0.09172,0.09878 -0.09172,0.119945 0,0.04233 0.02822,0.07056 0.07056,0.07056 0.07055,0 0.705556,-0.479779 1.121834,-1.375835 0.359833,-0.776111 0.4445,-1.559278 0.4445,-2.151946 z"
         style="font-size:7.05556px;stroke-width:0.264583"
         id="path1825" />
    </g>
    <path
       style="fill:none;stroke:#000000;stroke-width:0.565;stroke-linecap:butt;stroke-linejoin:miter;stroke-miterlimit:4;stroke-dasharray:none;stroke-opacity:1;marker-end:url(#Arrow1Mend)"
       d="M 9.4116544,26.74853 24.112194,26.24306"
       id="path860"
       sodipodi:nodetypes="cc" />
    <path
       style="fill:none;stroke:#000000;stroke-width:0.565;stroke-linecap:butt;stroke-linejoin:miter;stroke-miterlimit:4;stroke-dasharray:none;stroke-opacity:1;marker-end:url(#marker1168)"
       d="m 26.071057,26.321777 14.249131,1.910027"
       id="path1144"
       sodipodi:nodetypes="cc" />
    <path
       style="fill:none;stroke:#000000;stroke-width:0.565;stroke-linecap:butt;stroke-linejoin:miter;stroke-miterlimit:4;stroke-dasharray:none;stroke-opacity:1;marker-end:url(#marker1204)"
       d="m 42.34092,28.333014 14.25551,3.243593"
       id="path1200"
       sodipodi:nodetypes="cc" />
    <path
       style="fill:none;stroke:#000000;stroke-width:0.565;stroke-linecap:butt;stroke-linejoin:miter;stroke-miterlimit:4;stroke-dasharray:none;stroke-opacity:1;marker-end:url(#marker1258)"
       d="M 57.843031,30.45889 48.193989,22.461767"
       id="path1254"
       sodipodi:nodetypes="cc" />
    <path
       style="fill:none;stroke:#000000;stroke-width:0.565;stroke-linecap:butt;stroke-linejoin:miter;stroke-miterlimit:4;stroke-dasharray:none;stroke-opacity:1;marker-end:url(#marker1306)"
       d="M 47.514351,20.985068 54.63498,9.3093919"
       id="path1302"
       sodipodi:nodetypes="cc" />
    <path
       style="fill:none;stroke:#000000;stroke-width:0.565;stroke-linecap:butt;stroke-linejoin:miter;stroke-miterlimit:4;stroke-dasharray:none;stroke-opacity:1;marker-end:url(#marker1360)"
       d="m 56.310164,8.8072781 9.966103,7.7069269"
       id="path1356"
       sodipodi:nodetypes="cc" />
    <path
       style="fill:none;stroke:#000000;stroke-width:0.565;stroke-linecap:butt;stroke-linejoin:miter;stroke-miterlimit:4;stroke-dasharray:none;stroke-opacity:1;marker-end:url(#marker1420)"
       d="M 67.310951,18.101609 59.439934,29.368851"
       id="path1416"
       sodipodi:nodetypes="cc" />
    <path
       style="fill:none;stroke:#000000;stroke-width:0.565;stroke-linecap:butt;stroke-linejoin:miter;stroke-miterlimit:4;stroke-dasharray:none;stroke-opacity:1;marker-end:url(#marker1486)"
       d="m 60.151519,30.495589 11.714817,-4.55308"
       id="path1482"
       sodipodi:nodetypes="cc" />
    <path
       style="fill:none;stroke:#000000;stroke-width:0.565;stroke-linecap:butt;stroke-linejoin:miter;stroke-miterlimit:4;stroke-dasharray:none;stroke-opacity:1;marker-end:url(#marker1558)"
       d="M 73.509572,25.601369 88.224454,24.034925"
       id="path1554"
       sodipodi:nodetypes="cc" />
    <path
       style="fill:none;stroke:#000000;stroke-width:0.565;stroke-linecap:butt;stroke-linejoin:miter;stroke-miterlimit:4;stroke-dasharray:none;stroke-opacity:1;marker-end:url(#marker1636)"
       d="m 90.567812,24.078814 13.337428,-0.0095"
       id="path1632"
       sodipodi:nodetypes="cc" />
    <g
       aria-label="v"
       id="text1742"
       style="font-style:italic;font-size:7.7611px;line-height:1.25;font-family:'Latin Modern Roman';-inkscape-font-specification:'Latin Modern Roman, Italic';stroke-width:0.264583"
       transform="translate(-0.06485047,6.6370342)">
      <path
         d="m 9.9683349,25.524534 c 0,-0.271639 -0.093133,-0.512233 -0.3182051,-0.512233 -0.1785052,0 -0.3725327,0.178505 -0.3725327,0.357011 0,0.100894 0.054328,0.155222 0.1008943,0.209549 0.1862664,0.201789 0.2095496,0.450144 0.2095496,0.613127 0,0.217311 -0.3647716,2.165347 -1.2572981,2.165347 -0.4190994,0 -0.5044715,-0.388055 -0.5044715,-0.644171 0,-0.450144 0.2483552,-1.12536 0.4579049,-1.684159 0.038806,-0.124178 0.085372,-0.240594 0.085372,-0.388055 0,-0.388055 -0.2561163,-0.628649 -0.5898436,-0.628649 -0.7217823,0 -0.9934208,1.148643 -0.9934208,1.195209 0,0.07761 0.077611,0.07761 0.1164165,0.07761 0.1008943,0 0.1086554,-0.01552 0.1396998,-0.124177 0.062089,-0.240594 0.2716385,-0.977899 0.7217823,-0.977899 0.085372,0 0.1707442,0.02328 0.1707442,0.225072 0,0.186266 -0.077611,0.395816 -0.1862664,0.698499 -0.2405941,0.659694 -0.3958161,1.125359 -0.3958161,1.490131 0,0.70626 0.4967104,0.931332 0.9546153,0.931332 1.3038647,0 1.6608753,-2.801757 1.6608753,-3.003545 z"
         style="stroke-width:0.264583"
         id="path1773" />
    </g>
    <g
       aria-label="w"
       id="text1742-4"
       style="font-style:italic;font-size:7.7611px;line-height:1.25;font-family:'Latin Modern Roman';-inkscape-font-specification:'Latin Modern Roman, Italic';stroke-width:0.264583"
       transform="translate(16.542696,5.7944553)">
      <path
         d="m 44.751673,28.708957 c 0,-0.271639 -0.09313,-0.512233 -0.318206,-0.512233 -0.178505,0 -0.372532,0.178506 -0.372532,0.357011 0,0.100894 0.05433,0.155222 0.100894,0.20955 0.186266,0.201788 0.20955,0.450143 0.20955,0.613127 0,0.310444 -0.248356,1.125359 -0.380294,1.443564 -0.170744,0.403577 -0.4191,0.721782 -0.77611,0.721782 -0.388055,0 -0.512233,-0.318205 -0.512233,-0.644171 0,-0.06985 0.0078,-0.256116 0.09313,-0.597605 l 0.325967,-1.303864 c 0.04657,-0.170745 0.124177,-0.481189 0.124177,-0.512233 0,-0.08537 -0.06209,-0.201789 -0.217311,-0.201789 -0.225072,0 -0.279399,0.20955 -0.294921,0.271639 l -0.442383,1.769531 c -0.05433,0.217311 -0.06209,0.380294 -0.06209,0.488949 0,0.08537 -0.240594,0.729543 -0.651932,0.729543 -0.543277,0 -0.543277,-0.574321 -0.543277,-0.675215 0,-0.4191 0.201788,-0.993421 0.442382,-1.629831 0.05433,-0.147461 0.09313,-0.263878 0.09313,-0.411339 0,-0.388055 -0.256117,-0.628649 -0.589844,-0.628649 -0.721782,0 -0.993421,1.148643 -0.993421,1.19521 0,0.07761 0.07761,0.07761 0.116417,0.07761 0.100894,0 0.108655,-0.01552 0.1397,-0.124178 0.06209,-0.240594 0.271638,-0.977898 0.721782,-0.977898 0.08537,0 0.170744,0.02328 0.170744,0.225071 0,0.186267 -0.07761,0.395817 -0.186266,0.698499 -0.388055,1.05551 -0.388055,1.257299 -0.388055,1.466848 0,0.263878 0.06209,0.527755 0.263877,0.714022 0.248355,0.21731 0.597605,0.240594 0.729543,0.240594 0.248356,0 0.519994,-0.100895 0.752827,-0.496711 0.116417,0.287161 0.426861,0.496711 0.884765,0.496711 0.465666,0 0.791633,-0.318205 1.024466,-0.869244 0.232833,-0.527754 0.535516,-1.722964 0.535516,-2.134302 z"
         style="stroke-width:0.264583"
         id="path1770" />
    </g>
    <g
       aria-label="z"
       id="text1742-42"
       style="font-style:italic;font-size:7.7611px;line-height:1.25;font-family:'Latin Modern Roman';-inkscape-font-specification:'Latin Modern Roman, Italic';stroke-width:0.264583"
       transform="translate(30.034721,5.0630606)">
      <path
         d="m 76.34262,25.320121 c 0,-0.07761 -0.09313,-0.07761 -0.116417,-0.07761 -0.09313,0 -0.100894,0.02328 -0.131939,0.124178 -0.139699,0.388055 -0.512232,0.651932 -0.84596,0.651932 -0.155222,0 -0.279399,-0.05433 -0.434621,-0.124178 -0.232833,-0.100894 -0.325966,-0.131938 -0.481188,-0.131938 -0.03881,0 -0.100895,0 -0.1397,0.0078 0.05433,-0.06209 0.217311,-0.256116 0.434621,-0.473427 L 75.752776,24.187 c 0.457905,-0.450143 0.830438,-1.039987 0.830438,-1.109837 0,-0.07761 -0.06209,-0.07761 -0.108656,-0.07761 -0.09313,0 -0.100894,0.0078 -0.147461,0.100895 -0.256116,0.442382 -0.35701,0.481188 -0.481188,0.481188 -0.1397,0 -0.217311,-0.07761 -0.364772,-0.2794 -0.09313,-0.124177 -0.225071,-0.302683 -0.473427,-0.302683 -0.574321,0 -0.908048,0.729544 -0.908048,0.884766 0,0.06985 0.05433,0.08537 0.116416,0.08537 0.09313,0 0.100894,-0.01552 0.1397,-0.108656 0.06209,-0.170744 0.287161,-0.364771 0.574321,-0.364771 0.155222,0 0.294922,0.06209 0.465666,0.139699 0.256117,0.116417 0.341489,0.116417 0.457905,0.116417 -0.116416,0.131939 -0.186266,0.217311 -0.310444,0.341488 l -1.27282,1.26506 c -0.434622,0.42686 -0.807155,1.001181 -0.807155,1.078792 0,0.07761 0.06985,0.07761 0.116417,0.07761 0.08537,0 0.09313,-0.01552 0.124178,-0.06985 0.108655,-0.162984 0.318205,-0.512233 0.613126,-0.512233 0.170745,0 0.232833,0.08537 0.372533,0.2794 0.124178,0.155222 0.240594,0.302682 0.481188,0.302682 0.752827,0 1.171927,-1.008943 1.171927,-1.195209 z"
         style="stroke-width:0.264583"
         id="path1776" />
    </g>
  </g>
</svg>
