<?xml version="1.0" encoding="UTF-8" standalone="no"?>
<svg
   xmlns:dc="http://purl.org/dc/elements/1.1/"
   xmlns:cc="http://creativecommons.org/ns#"
   xmlns:rdf="http://www.w3.org/1999/02/22-rdf-syntax-ns#"
   xmlns:svg="http://www.w3.org/2000/svg"
   xmlns="http://www.w3.org/2000/svg"
   xmlns:sodipodi="http://sodipodi.sourceforge.net/DTD/sodipodi-0.dtd"
   xmlns:inkscape="http://www.inkscape.org/namespaces/inkscape"
   width="399.41211"
   height="231.82343"
   viewBox="0 0 105.67779 61.336613"
   version="1.1"
   id="svg3079"
   inkscape:version="1.0.1 (3bc2e813f5, 2020-09-07)"
   sodipodi:docname="noughtsandcrosses.svg">
  <defs
     id="defs3073">
    <marker
       style="overflow:visible"
       id="marker3983"
       refX="0"
       refY="0"
       orient="auto"
       inkscape:stockid="Arrow1Mend"
       inkscape:isstock="true">
      <path
         transform="matrix(-0.4,0,0,-0.4,-4,0)"
         style="fill:#000000;fill-opacity:1;fill-rule:evenodd;stroke:#000000;stroke-width:1pt;stroke-opacity:1"
         d="M 0,0 5,-5 -12.5,0 5,5 Z"
         id="path3981" />
    </marker>
    <marker
       style="overflow:visible"
       id="marker3941"
       refX="0"
       refY="0"
       orient="auto"
       inkscape:stockid="Arrow1Mend"
       inkscape:isstock="true"
       inkscape:collect="always">
      <path
         transform="matrix(-0.4,0,0,-0.4,-4,0)"
         style="fill:#000000;fill-opacity:1;fill-rule:evenodd;stroke:#000000;stroke-width:1pt;stroke-opacity:1"
         d="M 0,0 5,-5 -12.5,0 5,5 Z"
         id="path3939" />
    </marker>
    <marker
       style="overflow:visible"
       id="marker3905"
       refX="0"
       refY="0"
       orient="auto"
       inkscape:stockid="Arrow1Mend"
       inkscape:isstock="true">
      <path
         transform="matrix(-0.4,0,0,-0.4,-4,0)"
         style="fill:#000000;fill-opacity:1;fill-rule:evenodd;stroke:#000000;stroke-width:1pt;stroke-opacity:1"
         d="M 0,0 5,-5 -12.5,0 5,5 Z"
         id="path3903" />
    </marker>
    <marker
       style="overflow:visible"
       id="Arrow1Mend"
       refX="0"
       refY="0"
       orient="auto"
       inkscape:stockid="Arrow1Mend"
       inkscape:isstock="true"
       inkscape:collect="always">
      <path
         transform="matrix(-0.4,0,0,-0.4,-4,0)"
         style="fill:#000000;fill-opacity:1;fill-rule:evenodd;stroke:#000000;stroke-width:1pt;stroke-opacity:1"
         d="M 0,0 5,-5 -12.5,0 5,5 Z"
         id="path871" />
    </marker>
    <marker
       style="overflow:visible"
       id="Arrow1Lend"
       refX="0"
       refY="0"
       orient="auto"
       inkscape:stockid="Arrow1Lend"
       inkscape:isstock="true">
      <path
         transform="matrix(-0.8,0,0,-0.8,-10,0)"
         style="fill:#000000;fill-opacity:1;fill-rule:evenodd;stroke:#000000;stroke-width:1pt;stroke-opacity:1"
         d="M 0,0 5,-5 -12.5,0 5,5 Z"
         id="path865" />
    </marker>
  </defs>
  <sodipodi:namedview
     id="base"
     pagecolor="#ffffff"
     bordercolor="#666666"
     borderopacity="1.0"
     inkscape:pageopacity="0.0"
     inkscape:pageshadow="2"
     inkscape:zoom="1.4"
     inkscape:cx="215.12167"
     inkscape:cy="181.63902"
     inkscape:document-units="mm"
     inkscape:current-layer="layer1"
     inkscape:document-rotation="0"
     showgrid="false"
     units="px"
     fit-margin-top="15"
     fit-margin-left="15"
     fit-margin-right="15"
     fit-margin-bottom="15"
     inkscape:window-width="1920"
     inkscape:window-height="1137"
     inkscape:window-x="1432"
     inkscape:window-y="-8"
     inkscape:window-maximized="1" />
  <metadata
     id="metadata3076">
    <rdf:RDF>
      <cc:Work
         rdf:about="">
        <dc:format>image/svg+xml</dc:format>
        <dc:type
           rdf:resource="http://purl.org/dc/dcmitype/StillImage" />
        <dc:title></dc:title>
      </cc:Work>
    </rdf:RDF>
  </metadata>
  <g
     inkscape:label="Layer 1"
     inkscape:groupmode="layer"
     id="layer1"
     transform="translate(-55.262296,-15.125792)">
    <path
       id="rect3642"
       style="fill:none;stroke:#000000;stroke-width:0.294905;stroke-linecap:square;stop-color:#000000"
       d="M 98.754677,19.241995 H 119.47089 V 39.958208 H 98.754677 Z" />
    <path
       style="fill:none;stroke:#000000;stroke-width:0.294906;stroke-linecap:butt;stroke-linejoin:miter;stroke-miterlimit:4;stroke-dasharray:none;stroke-opacity:1"
       d="M 105.73544,19.207118 V 39.958207"
       id="path3644" />
    <path
       style="fill:none;stroke:#000000;stroke-width:0.294906;stroke-linecap:butt;stroke-linejoin:miter;stroke-miterlimit:4;stroke-dasharray:none;stroke-opacity:1"
       d="m 112.63804,19.311745 v 20.57671"
       id="path3646" />
    <path
       style="fill:none;stroke:#000000;stroke-width:0.294905;stroke-linecap:butt;stroke-linejoin:miter;stroke-miterlimit:4;stroke-dasharray:none;stroke-opacity:1"
       d="M 119.48833,26.250623 H 98.737239"
       id="path3644-3" />
    <path
       style="fill:none;stroke:#000000;stroke-width:0.294905;stroke-linecap:butt;stroke-linejoin:miter;stroke-miterlimit:4;stroke-dasharray:none;stroke-opacity:1"
       d="M 119.3837,33.153224 H 98.806993"
       id="path3646-6" />
    <g
       aria-label="X"
       id="text3672"
       style="font-size:4.23333px;line-height:1.25;font-family:'Latin Modern Roman';-inkscape-font-specification:'Latin Modern Roman, ';stroke-width:0.264583">
      <path
         d="m 110.70847,24.799837 v -0.131233 h -0.0804 c -0.22013,0 -0.30903,-0.02117 -0.39793,-0.1524 l -0.89323,-1.350432 0.57997,-0.850899 c 0.0931,-0.135467 0.23706,-0.270934 0.61383,-0.275167 v -0.131233 l -0.4699,0.0127 c -0.16933,0 -0.37253,0 -0.54187,-0.0127 v 0.131233 c 0.16934,0.0042 0.26247,0.09737 0.26247,0.194733 0,0.04233 -0.008,0.0508 -0.0381,0.09737 l -0.4826,0.715433 -0.5461,-0.817033 c -0.008,-0.0127 -0.0296,-0.04657 -0.0296,-0.0635 0,-0.0508 0.0931,-0.122767 0.27516,-0.127 v -0.131233 c -0.14816,0.0127 -0.4572,0.0127 -0.61806,0.0127 l -0.55034,-0.0127 v 0.131233 h 0.0804 c 0.23283,0 0.31326,0.02963 0.3937,0.148167 l 0.77893,1.176865 -0.69427,1.024466 c -0.0593,0.08467 -0.18626,0.2794 -0.61383,0.2794 v 0.131233 l 0.4699,-0.0127 c 0.15663,0 0.38947,0 0.54187,0.0127 v -0.131233 c -0.19474,-0.0042 -0.2667,-0.118533 -0.2667,-0.194733 0,-0.0381 0.0127,-0.05503 0.0423,-0.1016 l 0.60113,-0.888999 0.66887,1.011765 c 0.008,0.01693 0.0212,0.03387 0.0212,0.04657 0,0.0508 -0.0931,0.122767 -0.27517,0.127 v 0.131233 c 0.14817,-0.0127 0.4572,-0.0127 0.61807,-0.0127 z"
         style="stroke-width:0.264583"
         id="path4961" />
    </g>
    <g
       aria-label="X"
       id="text3676"
       style="font-size:4.23333px;line-height:1.25;font-family:'Latin Modern Roman';-inkscape-font-specification:'Latin Modern Roman, ';stroke-width:0.264583">
      <path
         d="m 117.60654,31.886896 v -0.131233 h -0.0804 c -0.22014,0 -0.30904,-0.02117 -0.39794,-0.1524 l -0.89323,-1.350432 0.57997,-0.850899 c 0.0931,-0.135467 0.23706,-0.270934 0.61383,-0.275167 v -0.131233 l -0.4699,0.0127 c -0.16933,0 -0.37253,0 -0.54187,-0.0127 v 0.131233 c 0.16934,0.0042 0.26247,0.09737 0.26247,0.194733 0,0.04233 -0.008,0.0508 -0.0381,0.09737 l -0.4826,0.715433 -0.5461,-0.817033 c -0.008,-0.0127 -0.0296,-0.04657 -0.0296,-0.0635 0,-0.0508 0.0931,-0.122767 0.27516,-0.127 v -0.131233 c -0.14816,0.0127 -0.4572,0.0127 -0.61806,0.0127 l -0.55033,-0.0127 v 0.131233 h 0.0804 c 0.23283,0 0.31326,0.02963 0.3937,0.148167 l 0.77893,1.176865 -0.69427,1.024466 c -0.0593,0.08467 -0.18626,0.2794 -0.61383,0.2794 v 0.131233 l 0.4699,-0.0127 c 0.15663,0 0.38947,0 0.54187,0.0127 v -0.131233 c -0.19474,-0.0042 -0.2667,-0.118533 -0.2667,-0.194733 0,-0.0381 0.0127,-0.05503 0.0423,-0.1016 l 0.60113,-0.888999 0.66887,1.011765 c 0.008,0.01693 0.0212,0.03387 0.0212,0.04657 0,0.0508 -0.0931,0.122767 -0.27517,0.127 v 0.131233 c 0.14817,-0.0127 0.4572,-0.0127 0.61807,-0.0127 z"
         style="stroke-width:0.264583"
         id="path4934" />
    </g>
    <g
       aria-label="X"
       id="text3680"
       style="font-size:4.23333px;line-height:1.25;font-family:'Latin Modern Roman';-inkscape-font-specification:'Latin Modern Roman, ';stroke-width:0.264583">
      <path
         d="m 117.51203,38.737709 v -0.131233 h -0.0804 c -0.22013,0 -0.30903,-0.02117 -0.39793,-0.1524 l -0.89323,-1.350432 0.57996,-0.8509 c 0.0931,-0.135466 0.23707,-0.270933 0.61383,-0.275166 v -0.131233 l -0.4699,0.0127 c -0.16933,0 -0.37253,0 -0.54186,-0.0127 v 0.131233 c 0.16933,0.0042 0.26246,0.09737 0.26246,0.194733 0,0.04233 -0.008,0.0508 -0.0381,0.09737 l -0.4826,0.715433 -0.5461,-0.817033 c -0.008,-0.0127 -0.0296,-0.04657 -0.0296,-0.0635 0,-0.0508 0.0931,-0.122767 0.27517,-0.127 v -0.131233 c -0.14817,0.0127 -0.4572,0.0127 -0.61807,0.0127 l -0.55033,-0.0127 v 0.131233 h 0.0804 c 0.23284,0 0.31327,0.02963 0.3937,0.148167 l 0.77894,1.176865 -0.69427,1.024466 c -0.0593,0.08467 -0.18627,0.2794 -0.61383,0.2794 v 0.131233 l 0.4699,-0.0127 c 0.15663,0 0.38946,0 0.54186,0.0127 v -0.131233 c -0.19473,-0.0042 -0.2667,-0.118533 -0.2667,-0.194733 0,-0.0381 0.0127,-0.05503 0.0423,-0.1016 l 0.60113,-0.889 0.66886,1.011766 c 0.008,0.01693 0.0212,0.03387 0.0212,0.04657 0,0.0508 -0.0931,0.122766 -0.27516,0.127 v 0.131233 c 0.14816,-0.0127 0.45719,-0.0127 0.61806,-0.0127 z"
         style="stroke-width:0.264583"
         id="path4907" />
    </g>
    <g
       aria-label="O"
       id="text3684"
       style="font-size:4.23333px;line-height:1.25;font-family:'Latin Modern Roman';-inkscape-font-specification:'Latin Modern Roman, ';stroke-width:0.264583">
      <path
         d="m 110.68731,37.20812 c 0,-0.863599 -0.63923,-1.549398 -1.4097,-1.549398 -0.75777,0 -1.40547,0.677332 -1.40547,1.549398 0,0.867833 0.65194,1.528232 1.40547,1.528232 0.77047,0 1.4097,-0.673099 1.4097,-1.528232 z m -0.43603,-0.05927 c 0,1.121832 -0.57997,1.477432 -0.96944,1.477432 -0.4064,0 -0.97366,-0.372533 -0.97366,-1.477432 0,-1.096433 0.61806,-1.384299 0.96943,-1.384299 0.3683,0 0.97367,0.300566 0.97367,1.384299 z"
         style="stroke-width:0.264583"
         id="path4880" />
    </g>
    <g
       aria-label="O"
       id="text3688"
       style="font-size:4.23333px;line-height:1.25;font-family:'Latin Modern Roman';-inkscape-font-specification:'Latin Modern Roman, ';stroke-width:0.264583">
      <path
         d="m 103.6475,37.113623 c 0,-0.8636 -0.63923,-1.549399 -1.4097,-1.549399 -0.75777,0 -1.40547,0.677333 -1.40547,1.549399 0,0.867832 0.65194,1.528232 1.40547,1.528232 0.77047,0 1.4097,-0.6731 1.4097,-1.528232 z m -0.43603,-0.05927 c 0,1.121832 -0.57997,1.477432 -0.96944,1.477432 -0.4064,0 -0.97366,-0.372533 -0.97366,-1.477432 0,-1.096433 0.61806,-1.384299 0.96943,-1.384299 0.3683,0 0.97367,0.300566 0.97367,1.384299 z"
         style="stroke-width:0.264583"
         id="path4853" />
    </g>
    <path
       id="rect3642-9"
       style="fill:none;stroke:#000000;stroke-width:0.294905;stroke-linecap:square;stop-color:#000000"
       d="M 85.080887,51.535496 H 105.7971 V 72.251709 H 85.080887 Z" />
    <path
       style="fill:none;stroke:#000000;stroke-width:0.294907;stroke-linecap:butt;stroke-linejoin:miter;stroke-miterlimit:4;stroke-dasharray:none;stroke-opacity:1"
       d="M 92.061643,51.500618 V 72.251707"
       id="path3644-7" />
    <path
       style="fill:none;stroke:#000000;stroke-width:0.294907;stroke-linecap:butt;stroke-linejoin:miter;stroke-miterlimit:4;stroke-dasharray:none;stroke-opacity:1"
       d="m 98.964243,51.605245 v 20.57671"
       id="path3646-5" />
    <path
       style="fill:none;stroke:#000000;stroke-width:0.294905;stroke-linecap:butt;stroke-linejoin:miter;stroke-miterlimit:4;stroke-dasharray:none;stroke-opacity:1"
       d="M 105.81453,58.544123 H 85.063443"
       id="path3644-3-3" />
    <path
       style="fill:none;stroke:#000000;stroke-width:0.294905;stroke-linecap:butt;stroke-linejoin:miter;stroke-miterlimit:4;stroke-dasharray:none;stroke-opacity:1"
       d="M 105.7099,65.446724 H 85.133193"
       id="path3646-6-5" />
    <g
       aria-label="X"
       id="text3672-5"
       style="font-size:4.23333px;line-height:1.25;font-family:'Latin Modern Roman';-inkscape-font-specification:'Latin Modern Roman, ';stroke-width:0.264583">
      <path
         d="m 97.034671,57.093338 v -0.131233 h -0.08043 c -0.220133,0 -0.309033,-0.02117 -0.397933,-0.1524 l -0.893232,-1.350432 0.579966,-0.8509 c 0.09313,-0.135466 0.237066,-0.270933 0.613833,-0.275166 v -0.131233 l -0.4699,0.0127 c -0.169333,0 -0.372533,0 -0.541866,-0.0127 v 0.131233 c 0.169333,0.0042 0.262466,0.09737 0.262466,0.194733 0,0.04233 -0.0085,0.0508 -0.0381,0.09737 l -0.482599,0.715432 -0.5461,-0.817032 c -0.0085,-0.0127 -0.02963,-0.04657 -0.02963,-0.0635 0,-0.0508 0.09313,-0.122767 0.275166,-0.127 v -0.131233 c -0.148166,0.0127 -0.457199,0.0127 -0.618066,0.0127 l -0.550333,-0.0127 v 0.131233 h 0.08043 c 0.232833,0 0.313266,0.02963 0.393699,0.148167 l 0.778933,1.176865 -0.694266,1.024466 c -0.05927,0.08467 -0.186267,0.2794 -0.613833,0.2794 v 0.131233 l 0.4699,-0.0127 c 0.156633,0 0.389466,0 0.541866,0.0127 v -0.131233 c -0.194733,-0.0042 -0.2667,-0.118533 -0.2667,-0.194733 0,-0.0381 0.0127,-0.05503 0.04233,-0.1016 l 0.601133,-0.889 0.668866,1.011766 c 0.0085,0.01693 0.02117,0.03387 0.02117,0.04657 0,0.0508 -0.09313,0.122766 -0.275166,0.127 v 0.131233 c 0.148166,-0.0127 0.457199,-0.0127 0.618066,-0.0127 z"
         style="stroke-width:0.264583"
         id="path4801" />
    </g>
    <g
       aria-label="X"
       id="text3676-6"
       style="font-size:4.23333px;line-height:1.25;font-family:'Latin Modern Roman';-inkscape-font-specification:'Latin Modern Roman, ';stroke-width:0.264583">
      <path
         d="m 103.93275,64.180397 v -0.131233 h -0.0804 c -0.22014,0 -0.30904,-0.02117 -0.39794,-0.1524 l -0.89323,-1.350432 0.57997,-0.8509 c 0.0931,-0.135466 0.23706,-0.270933 0.61383,-0.275166 v -0.131233 l -0.4699,0.0127 c -0.16933,0 -0.37253,0 -0.54187,-0.0127 v 0.131233 c 0.16934,0.0042 0.26247,0.09737 0.26247,0.194733 0,0.04233 -0.008,0.0508 -0.0381,0.09737 l -0.4826,0.715433 -0.5461,-0.817033 c -0.008,-0.0127 -0.0296,-0.04657 -0.0296,-0.0635 0,-0.0508 0.0931,-0.122767 0.27516,-0.127 v -0.131233 c -0.14816,0.0127 -0.4572,0.0127 -0.61806,0.0127 l -0.55033,-0.0127 v 0.131233 h 0.0804 c 0.23283,0 0.31326,0.02963 0.3937,0.148167 l 0.77893,1.176865 -0.69427,1.024466 c -0.0593,0.08467 -0.18626,0.2794 -0.61383,0.2794 v 0.131233 l 0.4699,-0.0127 c 0.15663,0 0.38947,0 0.54187,0.0127 v -0.131233 c -0.19474,-0.0042 -0.2667,-0.118533 -0.2667,-0.194733 0,-0.0381 0.0127,-0.05503 0.0423,-0.1016 l 0.60113,-0.889 0.66887,1.011766 c 0.008,0.01693 0.0212,0.03387 0.0212,0.04657 0,0.0508 -0.0931,0.122766 -0.27517,0.127 v 0.131233 c 0.14817,-0.0127 0.4572,-0.0127 0.61807,-0.0127 z"
         style="stroke-width:0.264583"
         id="path4774" />
    </g>
    <g
       aria-label="X"
       id="text3680-6"
       style="font-size:4.23333px;line-height:1.25;font-family:'Latin Modern Roman';-inkscape-font-specification:'Latin Modern Roman, ';stroke-width:0.264583">
      <path
         d="m 103.83824,71.031212 v -0.131233 h -0.0804 c -0.22013,0 -0.30903,-0.02117 -0.39793,-0.1524 l -0.89323,-1.350432 0.57996,-0.8509 c 0.0931,-0.135466 0.23707,-0.270933 0.61383,-0.275166 v -0.131233 l -0.4699,0.0127 c -0.16933,0 -0.37253,0 -0.54186,-0.0127 v 0.131233 c 0.16933,0.0042 0.26246,0.09737 0.26246,0.194733 0,0.04233 -0.008,0.0508 -0.0381,0.09737 l -0.4826,0.715432 -0.5461,-0.817032 c -0.008,-0.0127 -0.0296,-0.04657 -0.0296,-0.0635 0,-0.0508 0.0931,-0.122767 0.27517,-0.127 v -0.131233 c -0.14817,0.0127 -0.4572,0.0127 -0.61807,0.0127 l -0.55033,-0.0127 v 0.131233 h 0.0804 c 0.23284,0 0.31327,0.02963 0.3937,0.148166 l 0.77894,1.176866 -0.69427,1.024466 c -0.0593,0.08467 -0.18627,0.2794 -0.61383,0.2794 v 0.131233 l 0.4699,-0.0127 c 0.15663,0 0.38946,0 0.54186,0.0127 v -0.131233 c -0.19473,-0.0042 -0.2667,-0.118534 -0.2667,-0.194734 0,-0.0381 0.0127,-0.05503 0.0423,-0.101599 l 0.60113,-0.889 0.66886,1.011766 c 0.008,0.01693 0.0212,0.03387 0.0212,0.04657 0,0.0508 -0.0931,0.122766 -0.27516,0.127 v 0.131233 c 0.14816,-0.0127 0.45719,-0.0127 0.61806,-0.0127 z"
         style="stroke-width:0.264583"
         id="path4747" />
    </g>
    <g
       aria-label="O"
       id="text3684-2"
       style="font-size:4.23333px;line-height:1.25;font-family:'Latin Modern Roman';-inkscape-font-specification:'Latin Modern Roman, ';stroke-width:0.264583">
      <path
         d="m 97.013519,69.501623 c 0,-0.863599 -0.639233,-1.549399 -1.409699,-1.549399 -0.757766,0 -1.405465,0.677333 -1.405465,1.549399 0,0.867833 0.651933,1.528232 1.405465,1.528232 0.770466,0 1.409699,-0.673099 1.409699,-1.528232 z m -0.436033,-0.05927 c 0,1.121833 -0.579966,1.477432 -0.969432,1.477432 -0.4064,0 -0.973666,-0.372533 -0.973666,-1.477432 0,-1.096432 0.618066,-1.384298 0.969432,-1.384298 0.3683,0 0.973666,0.300566 0.973666,1.384298 z"
         style="stroke-width:0.264583"
         id="path4720" />
    </g>
    <g
       aria-label="O"
       id="text3688-4"
       style="font-size:4.23333px;line-height:1.25;font-family:'Latin Modern Roman';-inkscape-font-specification:'Latin Modern Roman, ';stroke-width:0.264583">
      <path
         d="m 89.973709,69.407125 c 0,-0.863599 -0.639233,-1.549398 -1.409699,-1.549398 -0.757766,0 -1.405465,0.677332 -1.405465,1.549398 0,0.867833 0.651933,1.528232 1.405465,1.528232 0.770466,0 1.409699,-0.673099 1.409699,-1.528232 z m -0.436033,-0.05927 c 0,1.121832 -0.579966,1.477432 -0.969432,1.477432 -0.4064,0 -0.973666,-0.372533 -0.973666,-1.477432 0,-1.096433 0.618066,-1.384299 0.969432,-1.384299 0.3683,0 0.973666,0.300566 0.973666,1.384299 z"
         style="stroke-width:0.264583"
         id="path4693" />
    </g>
    <path
       id="rect3642-2"
       style="fill:none;stroke:#000000;stroke-width:0.294905;stroke-linecap:square;stop-color:#000000"
       d="m 110.59427,51.535496 h 20.71621 v 20.716213 h -20.71621 z" />
    <path
       style="fill:none;stroke:#000000;stroke-width:0.294907;stroke-linecap:butt;stroke-linejoin:miter;stroke-miterlimit:4;stroke-dasharray:none;stroke-opacity:1"
       d="M 117.57503,51.500618 V 72.251707"
       id="path3644-2" />
    <path
       style="fill:none;stroke:#000000;stroke-width:0.294907;stroke-linecap:butt;stroke-linejoin:miter;stroke-miterlimit:4;stroke-dasharray:none;stroke-opacity:1"
       d="m 124.47763,51.605245 v 20.57671"
       id="path3646-3" />
    <path
       style="fill:none;stroke:#000000;stroke-width:0.294905;stroke-linecap:butt;stroke-linejoin:miter;stroke-miterlimit:4;stroke-dasharray:none;stroke-opacity:1"
       d="M 131.32792,58.544123 H 110.57684"
       id="path3644-3-0" />
    <path
       style="fill:none;stroke:#000000;stroke-width:0.294905;stroke-linecap:butt;stroke-linejoin:miter;stroke-miterlimit:4;stroke-dasharray:none;stroke-opacity:1"
       d="m 131.22329,65.446724 h -20.5767"
       id="path3646-6-3" />
    <g
       aria-label="X"
       id="text3672-7"
       style="font-size:4.23333px;line-height:1.25;font-family:'Latin Modern Roman';-inkscape-font-specification:'Latin Modern Roman, ';stroke-width:0.264583">
      <path
         d="m 122.54806,57.093338 v -0.131233 h -0.0804 c -0.22014,0 -0.30904,-0.02117 -0.39794,-0.1524 l -0.89323,-1.350432 0.57997,-0.8509 c 0.0931,-0.135466 0.23706,-0.270933 0.61383,-0.275166 v -0.131233 l -0.4699,0.0127 c -0.16933,0 -0.37253,0 -0.54187,-0.0127 v 0.131233 c 0.16934,0.0042 0.26247,0.09737 0.26247,0.194733 0,0.04233 -0.008,0.0508 -0.0381,0.09737 l -0.4826,0.715432 -0.5461,-0.817032 c -0.008,-0.0127 -0.0296,-0.04657 -0.0296,-0.0635 0,-0.0508 0.0931,-0.122767 0.27516,-0.127 v -0.131233 c -0.14816,0.0127 -0.45719,0.0127 -0.61806,0.0127 l -0.55033,-0.0127 v 0.131233 h 0.0804 c 0.23283,0 0.31327,0.02963 0.3937,0.148167 l 0.77893,1.176865 -0.69426,1.024466 c -0.0593,0.08467 -0.18627,0.2794 -0.61384,0.2794 v 0.131233 l 0.4699,-0.0127 c 0.15664,0 0.38947,0 0.54187,0.0127 v -0.131233 c -0.19473,-0.0042 -0.2667,-0.118533 -0.2667,-0.194733 0,-0.0381 0.0127,-0.05503 0.0423,-0.1016 l 0.60113,-0.889 0.66887,1.011766 c 0.008,0.01693 0.0212,0.03387 0.0212,0.04657 0,0.0508 -0.0931,0.122766 -0.27517,0.127 v 0.131233 c 0.14817,-0.0127 0.4572,-0.0127 0.61807,-0.0127 z"
         style="stroke-width:0.264583"
         id="path4641" />
    </g>
    <g
       aria-label="X"
       id="text3676-2"
       style="font-size:4.23333px;line-height:1.25;font-family:'Latin Modern Roman';-inkscape-font-specification:'Latin Modern Roman, ';stroke-width:0.264583">
      <path
         d="m 129.44614,64.180397 v -0.131233 h -0.0804 c -0.22014,0 -0.30904,-0.02117 -0.39794,-0.1524 l -0.89323,-1.350432 0.57997,-0.8509 c 0.0931,-0.135466 0.23706,-0.270933 0.61383,-0.275166 v -0.131233 l -0.4699,0.0127 c -0.16933,0 -0.37253,0 -0.54187,-0.0127 v 0.131233 c 0.16934,0.0042 0.26247,0.09737 0.26247,0.194733 0,0.04233 -0.008,0.0508 -0.0381,0.09737 l -0.4826,0.715433 -0.5461,-0.817033 c -0.008,-0.0127 -0.0296,-0.04657 -0.0296,-0.0635 0,-0.0508 0.0931,-0.122767 0.27516,-0.127 v -0.131233 c -0.14816,0.0127 -0.4572,0.0127 -0.61806,0.0127 l -0.55034,-0.0127 v 0.131233 h 0.0804 c 0.23283,0 0.31326,0.02963 0.3937,0.148167 l 0.77893,1.176865 -0.69427,1.024466 c -0.0593,0.08467 -0.18626,0.2794 -0.61383,0.2794 v 0.131233 l 0.4699,-0.0127 c 0.15663,0 0.38947,0 0.54187,0.0127 v -0.131233 c -0.19474,-0.0042 -0.2667,-0.118533 -0.2667,-0.194733 0,-0.0381 0.0127,-0.05503 0.0423,-0.1016 l 0.60113,-0.889 0.66887,1.011766 c 0.008,0.01693 0.0212,0.03387 0.0212,0.04657 0,0.0508 -0.0931,0.122766 -0.27517,0.127 v 0.131233 c 0.14817,-0.0127 0.4572,-0.0127 0.61807,-0.0127 z"
         style="stroke-width:0.264583"
         id="path4614" />
    </g>
    <g
       aria-label="X"
       id="text3680-9"
       style="font-size:4.23333px;line-height:1.25;font-family:'Latin Modern Roman';-inkscape-font-specification:'Latin Modern Roman, ';stroke-width:0.264583">
      <path
         d="m 129.35163,71.031212 v -0.131233 h -0.0804 c -0.22013,0 -0.30903,-0.02117 -0.39793,-0.1524 l -0.89323,-1.350432 0.57996,-0.8509 c 0.0931,-0.135466 0.23707,-0.270933 0.61384,-0.275166 v -0.131233 l -0.4699,0.0127 c -0.16934,0 -0.37254,0 -0.54187,-0.0127 v 0.131233 c 0.16933,0.0042 0.26247,0.09737 0.26247,0.194733 0,0.04233 -0.008,0.0508 -0.0381,0.09737 l -0.4826,0.715432 -0.5461,-0.817032 c -0.008,-0.0127 -0.0296,-0.04657 -0.0296,-0.0635 0,-0.0508 0.0931,-0.122767 0.27517,-0.127 v -0.131233 c -0.14817,0.0127 -0.4572,0.0127 -0.61807,0.0127 l -0.55033,-0.0127 v 0.131233 h 0.0804 c 0.23283,0 0.31326,0.02963 0.39369,0.148166 l 0.77894,1.176866 -0.69427,1.024466 c -0.0593,0.08467 -0.18627,0.2794 -0.61383,0.2794 v 0.131233 l 0.4699,-0.0127 c 0.15663,0 0.38946,0 0.54186,0.0127 v -0.131233 c -0.19473,-0.0042 -0.2667,-0.118534 -0.2667,-0.194734 0,-0.0381 0.0127,-0.05503 0.0423,-0.101599 l 0.60113,-0.889 0.66887,1.011766 c 0.008,0.01693 0.0212,0.03387 0.0212,0.04657 0,0.0508 -0.0931,0.122766 -0.27516,0.127 v 0.131233 c 0.14816,-0.0127 0.4572,-0.0127 0.61806,-0.0127 z"
         style="stroke-width:0.264583"
         id="path4587" />
    </g>
    <g
       aria-label="O"
       id="text3684-6"
       style="font-size:4.23333px;line-height:1.25;font-family:'Latin Modern Roman';-inkscape-font-specification:'Latin Modern Roman, ';stroke-width:0.264583">
      <path
         d="m 122.52691,69.501623 c 0,-0.863599 -0.63923,-1.549399 -1.4097,-1.549399 -0.75777,0 -1.40547,0.677333 -1.40547,1.549399 0,0.867833 0.65194,1.528232 1.40547,1.528232 0.77047,0 1.4097,-0.673099 1.4097,-1.528232 z m -0.43603,-0.05927 c 0,1.121833 -0.57997,1.477432 -0.96944,1.477432 -0.4064,0 -0.97366,-0.372533 -0.97366,-1.477432 0,-1.096432 0.61806,-1.384298 0.96943,-1.384298 0.3683,0 0.97367,0.300566 0.97367,1.384298 z"
         style="stroke-width:0.264583"
         id="path4560" />
    </g>
    <g
       aria-label="O"
       id="text3688-7"
       style="font-size:4.23333px;line-height:1.25;font-family:'Latin Modern Roman';-inkscape-font-specification:'Latin Modern Roman, ';stroke-width:0.264583">
      <path
         d="m 115.48709,69.407118 c 0,-0.8636 -0.63923,-1.549399 -1.4097,-1.549399 -0.75776,0 -1.40546,0.677333 -1.40546,1.549399 0,0.867832 0.65193,1.528232 1.40546,1.528232 0.77047,0 1.4097,-0.6731 1.4097,-1.528232 z m -0.43603,-0.05927 c 0,1.121832 -0.57997,1.477432 -0.96943,1.477432 -0.4064,0 -0.97367,-0.372533 -0.97367,-1.477432 0,-1.096432 0.61807,-1.384299 0.96943,-1.384299 0.3683,0 0.97367,0.300567 0.97367,1.384299 z"
         style="stroke-width:0.264583"
         id="path4533" />
    </g>
    <path
       id="rect3642-3"
       style="fill:none;stroke:#000000;stroke-width:0.294905;stroke-linecap:square;stop-color:#000000"
       d="m 136.10767,51.535492 h 20.71621 v 20.716213 h -20.71621 z" />
    <path
       style="fill:none;stroke:#000000;stroke-width:0.294907;stroke-linecap:butt;stroke-linejoin:miter;stroke-miterlimit:4;stroke-dasharray:none;stroke-opacity:1"
       d="M 143.08843,51.500618 V 72.251707"
       id="path3644-5" />
    <path
       style="fill:none;stroke:#000000;stroke-width:0.294907;stroke-linecap:butt;stroke-linejoin:miter;stroke-miterlimit:4;stroke-dasharray:none;stroke-opacity:1"
       d="m 149.99103,51.605245 v 20.57671"
       id="path3646-9" />
    <path
       style="fill:none;stroke:#000000;stroke-width:0.294905;stroke-linecap:butt;stroke-linejoin:miter;stroke-miterlimit:4;stroke-dasharray:none;stroke-opacity:1"
       d="m 156.84132,58.544123 h -20.7511"
       id="path3644-3-9" />
    <path
       style="fill:none;stroke:#000000;stroke-width:0.294905;stroke-linecap:butt;stroke-linejoin:miter;stroke-miterlimit:4;stroke-dasharray:none;stroke-opacity:1"
       d="M 156.73669,65.446724 H 136.15998"
       id="path3646-6-31" />
    <g
       aria-label="X"
       id="text3672-4"
       style="font-size:4.23333px;line-height:1.25;font-family:'Latin Modern Roman';-inkscape-font-specification:'Latin Modern Roman, ';stroke-width:0.264583">
      <path
         d="m 148.06145,57.093334 v -0.131233 h -0.0804 c -0.22014,0 -0.30904,-0.02117 -0.39794,-0.1524 l -0.89323,-1.350432 0.57997,-0.850899 c 0.0931,-0.135467 0.23706,-0.270933 0.61383,-0.275167 V 54.20197 l -0.4699,0.0127 c -0.16933,0 -0.37253,0 -0.54187,-0.0127 v 0.131233 c 0.16934,0.0042 0.26247,0.09737 0.26247,0.194733 0,0.04233 -0.008,0.0508 -0.0381,0.09737 l -0.4826,0.715433 -0.5461,-0.817033 c -0.008,-0.0127 -0.0296,-0.04657 -0.0296,-0.0635 0,-0.0508 0.0931,-0.122766 0.27516,-0.127 V 54.20197 c -0.14816,0.0127 -0.4572,0.0127 -0.61806,0.0127 l -0.55033,-0.0127 v 0.131233 h 0.0804 c 0.23283,0 0.31327,0.02963 0.3937,0.148167 l 0.77893,1.176865 -0.69426,1.024466 c -0.0593,0.08467 -0.18627,0.2794 -0.61384,0.2794 v 0.131233 l 0.4699,-0.0127 c 0.15664,0 0.38947,0 0.54187,0.0127 v -0.131233 c -0.19474,-0.0042 -0.2667,-0.118533 -0.2667,-0.194733 0,-0.0381 0.0127,-0.05503 0.0423,-0.1016 l 0.60113,-0.888999 0.66887,1.011765 c 0.008,0.01693 0.0212,0.03387 0.0212,0.04657 0,0.0508 -0.0931,0.122767 -0.27517,0.127 v 0.131233 c 0.14817,-0.0127 0.4572,-0.0127 0.61807,-0.0127 z"
         style="stroke-width:0.264583"
         id="path4481" />
    </g>
    <g
       aria-label="X"
       id="text3676-3"
       style="font-size:4.23333px;line-height:1.25;font-family:'Latin Modern Roman';-inkscape-font-specification:'Latin Modern Roman, ';stroke-width:0.264583">
      <path
         d="m 154.95952,64.180397 v -0.131233 h -0.0804 c -0.22014,0 -0.30904,-0.02117 -0.39794,-0.1524 l -0.89323,-1.350432 0.57997,-0.8509 c 0.0931,-0.135466 0.23706,-0.270933 0.61383,-0.275166 v -0.131233 l -0.4699,0.0127 c -0.16933,0 -0.37253,0 -0.54186,-0.0127 v 0.131233 c 0.16933,0.0042 0.26246,0.09737 0.26246,0.194733 0,0.04233 -0.008,0.0508 -0.0381,0.09737 l -0.4826,0.715433 -0.5461,-0.817033 c -0.008,-0.0127 -0.0296,-0.04657 -0.0296,-0.0635 0,-0.0508 0.0931,-0.122767 0.27517,-0.127 v -0.131233 c -0.14817,0.0127 -0.4572,0.0127 -0.61807,0.0127 l -0.55033,-0.0127 v 0.131233 h 0.0804 c 0.23283,0 0.31327,0.02963 0.3937,0.148167 l 0.77893,1.176865 -0.69426,1.024466 c -0.0593,0.08467 -0.18627,0.2794 -0.61384,0.2794 v 0.131233 l 0.4699,-0.0127 c 0.15664,0 0.38947,0 0.54187,0.0127 v -0.131233 c -0.19473,-0.0042 -0.2667,-0.118533 -0.2667,-0.194733 0,-0.0381 0.0127,-0.05503 0.0423,-0.1016 l 0.60114,-0.889 0.66886,1.011766 c 0.008,0.01693 0.0212,0.03387 0.0212,0.04657 0,0.0508 -0.0931,0.122766 -0.27517,0.127 v 0.131233 c 0.14817,-0.0127 0.4572,-0.0127 0.61807,-0.0127 z"
         style="stroke-width:0.264583"
         id="path4454" />
    </g>
    <g
       aria-label="X"
       id="text3680-8"
       style="font-size:4.23333px;line-height:1.25;font-family:'Latin Modern Roman';-inkscape-font-specification:'Latin Modern Roman, ';stroke-width:0.264583">
      <path
         d="m 154.86502,71.031212 v -0.131233 h -0.0804 c -0.22013,0 -0.30903,-0.02117 -0.39793,-0.1524 l -0.89324,-1.350432 0.57997,-0.8509 c 0.0931,-0.135466 0.23707,-0.270933 0.61383,-0.275166 v -0.131233 l -0.4699,0.0127 c -0.16933,0 -0.37253,0 -0.54186,-0.0127 v 0.131233 c 0.16933,0.0042 0.26246,0.09737 0.26246,0.194733 0,0.04233 -0.008,0.0508 -0.0381,0.09737 l -0.4826,0.715432 -0.54609,-0.817032 c -0.008,-0.0127 -0.0296,-0.04657 -0.0296,-0.0635 0,-0.0508 0.0931,-0.122767 0.27517,-0.127 v -0.131233 c -0.14817,0.0127 -0.4572,0.0127 -0.61807,0.0127 l -0.55033,-0.0127 v 0.131233 h 0.0804 c 0.23284,0 0.31327,0.02963 0.3937,0.148166 l 0.77893,1.176866 -0.69426,1.024466 c -0.0593,0.08467 -0.18627,0.2794 -0.61383,0.2794 v 0.131233 l 0.4699,-0.0127 c 0.15663,0 0.38946,0 0.54186,0.0127 v -0.131233 c -0.19473,-0.0042 -0.2667,-0.118534 -0.2667,-0.194734 0,-0.0381 0.0127,-0.05503 0.0423,-0.101599 l 0.60113,-0.889 0.66886,1.011766 c 0.008,0.01693 0.0212,0.03387 0.0212,0.04657 0,0.0508 -0.0931,0.122766 -0.27517,0.127 v 0.131233 c 0.14817,-0.0127 0.4572,-0.0127 0.61807,-0.0127 z"
         style="stroke-width:0.264583"
         id="path4427" />
    </g>
    <g
       aria-label="O"
       id="text3684-27"
       style="font-size:4.23333px;line-height:1.25;font-family:'Latin Modern Roman';-inkscape-font-specification:'Latin Modern Roman, ';stroke-width:0.264583">
      <path
         d="m 148.0403,69.501623 c 0,-0.863599 -0.63923,-1.549399 -1.4097,-1.549399 -0.75777,0 -1.40547,0.677333 -1.40547,1.549399 0,0.867833 0.65194,1.528232 1.40547,1.528232 0.77047,0 1.4097,-0.673099 1.4097,-1.528232 z m -0.43603,-0.05927 c 0,1.121833 -0.57997,1.477432 -0.96944,1.477432 -0.4064,0 -0.97366,-0.372533 -0.97366,-1.477432 0,-1.096432 0.61806,-1.384298 0.96943,-1.384298 0.3683,0 0.97367,0.300566 0.97367,1.384298 z"
         style="stroke-width:0.264583"
         id="path4400" />
    </g>
    <g
       aria-label="O"
       id="text3688-43"
       style="font-size:4.23333px;line-height:1.25;font-family:'Latin Modern Roman';-inkscape-font-specification:'Latin Modern Roman, ';stroke-width:0.264583">
      <path
         d="m 141.0005,69.407125 c 0,-0.863599 -0.63923,-1.549398 -1.4097,-1.549398 -0.75776,0 -1.40546,0.677332 -1.40546,1.549398 0,0.867833 0.65193,1.528232 1.40546,1.528232 0.77047,0 1.4097,-0.673099 1.4097,-1.528232 z m -0.43603,-0.05927 c 0,1.121832 -0.57997,1.477432 -0.96943,1.477432 -0.4064,0 -0.97367,-0.372533 -0.97367,-1.477432 0,-1.096433 0.61807,-1.384299 0.96943,-1.384299 0.3683,0 0.97367,0.300566 0.97367,1.384299 z"
         style="stroke-width:0.264583"
         id="path4373" />
    </g>
    <path
       id="rect3642-5"
       style="fill:none;stroke:#000000;stroke-width:0.294905;stroke-linecap:square;stop-color:#000000"
       d="M 59.378498,51.62999 H 80.094711 V 72.346203 H 59.378498 Z" />
    <path
       style="fill:none;stroke:#000000;stroke-width:0.294907;stroke-linecap:butt;stroke-linejoin:miter;stroke-miterlimit:4;stroke-dasharray:none;stroke-opacity:1"
       d="M 66.359264,51.595112 V 72.346201"
       id="path3644-8" />
    <path
       style="fill:none;stroke:#000000;stroke-width:0.294907;stroke-linecap:butt;stroke-linejoin:miter;stroke-miterlimit:4;stroke-dasharray:none;stroke-opacity:1"
       d="m 73.261864,51.699739 v 20.57671"
       id="path3646-2" />
    <path
       style="fill:none;stroke:#000000;stroke-width:0.294905;stroke-linecap:butt;stroke-linejoin:miter;stroke-miterlimit:4;stroke-dasharray:none;stroke-opacity:1"
       d="M 80.112154,58.638617 H 59.361064"
       id="path3644-3-8" />
    <path
       style="fill:none;stroke:#000000;stroke-width:0.294905;stroke-linecap:butt;stroke-linejoin:miter;stroke-miterlimit:4;stroke-dasharray:none;stroke-opacity:1"
       d="M 80.007524,65.541218 H 59.430814"
       id="path3646-6-6" />
    <g
       aria-label="X"
       id="text3672-51"
       style="font-size:4.23333px;line-height:1.25;font-family:'Latin Modern Roman';-inkscape-font-specification:'Latin Modern Roman, ';stroke-width:0.264583">
      <path
         d="m 71.332301,57.187832 v -0.131233 h -0.08043 c -0.220133,0 -0.309033,-0.02117 -0.397933,-0.1524 l -0.893233,-1.350432 0.579966,-0.8509 c 0.09313,-0.135466 0.237067,-0.270933 0.613833,-0.275166 v -0.131233 l -0.4699,0.0127 c -0.169333,0 -0.372533,0 -0.541866,-0.0127 v 0.131233 c 0.169333,0.0042 0.262467,0.09737 0.262467,0.194733 0,0.04233 -0.0085,0.0508 -0.0381,0.09737 l -0.4826,0.715432 -0.546099,-0.817032 c -0.0085,-0.0127 -0.02963,-0.04657 -0.02963,-0.0635 0,-0.0508 0.09313,-0.122767 0.275167,-0.127 v -0.131233 c -0.148167,0.0127 -0.4572,0.0127 -0.618066,0.0127 l -0.550333,-0.0127 v 0.131233 h 0.08043 c 0.232833,0 0.313266,0.02963 0.3937,0.148166 l 0.778932,1.176866 -0.694266,1.024466 c -0.05927,0.08467 -0.186266,0.2794 -0.613833,0.2794 v 0.131233 l 0.4699,-0.0127 c 0.156633,0 0.389466,0 0.541866,0.0127 v -0.131233 c -0.194733,-0.0042 -0.2667,-0.118534 -0.2667,-0.194734 0,-0.0381 0.0127,-0.05503 0.04233,-0.101599 l 0.601133,-0.889 0.668866,1.011766 c 0.0085,0.01693 0.02117,0.03387 0.02117,0.04657 0,0.0508 -0.09313,0.122766 -0.275166,0.127 v 0.131233 c 0.148166,-0.0127 0.4572,-0.0127 0.618066,-0.0127 z"
         style="stroke-width:0.264583"
         id="path4321" />
    </g>
    <g
       aria-label="X"
       id="text3676-7"
       style="font-size:4.23333px;line-height:1.25;font-family:'Latin Modern Roman';-inkscape-font-specification:'Latin Modern Roman, ';stroke-width:0.264583">
      <path
         d="m 78.230372,64.274887 v -0.131233 h -0.08043 c -0.220133,0 -0.309033,-0.02117 -0.397933,-0.1524 l -0.893233,-1.350432 0.579967,-0.850899 c 0.09313,-0.135467 0.237066,-0.270934 0.613832,-0.275167 v -0.131233 l -0.469899,0.0127 c -0.169333,0 -0.372533,0 -0.541866,-0.0127 v 0.131233 c 0.169333,0.0042 0.262466,0.09737 0.262466,0.194733 0,0.04233 -0.0085,0.0508 -0.0381,0.09737 l -0.4826,0.715433 -0.546099,-0.817033 c -0.0085,-0.0127 -0.02963,-0.04657 -0.02963,-0.0635 0,-0.0508 0.09313,-0.122767 0.275166,-0.127 v -0.131233 c -0.148167,0.0127 -0.4572,0.0127 -0.618066,0.0127 l -0.550333,-0.0127 v 0.131233 h 0.08043 c 0.232833,0 0.313267,0.02963 0.3937,0.148167 l 0.778933,1.176865 -0.694266,1.024466 c -0.05927,0.08467 -0.186267,0.2794 -0.613833,0.2794 v 0.131233 l 0.469899,-0.0127 c 0.156634,0 0.389467,0 0.541867,0.0127 v -0.131233 c -0.194734,-0.0042 -0.2667,-0.118533 -0.2667,-0.194733 0,-0.0381 0.0127,-0.05503 0.04233,-0.1016 l 0.601133,-0.888999 0.668866,1.011765 c 0.0085,0.01693 0.02117,0.03387 0.02117,0.04657 0,0.0508 -0.09313,0.122767 -0.275167,0.127 v 0.131233 c 0.148167,-0.0127 0.4572,-0.0127 0.618066,-0.0127 z"
         style="stroke-width:0.264583"
         id="path4294" />
    </g>
    <g
       aria-label="X"
       id="text3680-4"
       style="font-size:4.23333px;line-height:1.25;font-family:'Latin Modern Roman';-inkscape-font-specification:'Latin Modern Roman, ';stroke-width:0.264583">
      <path
         d="m 78.135859,71.125702 v -0.131233 h -0.08043 c -0.220133,0 -0.309033,-0.02117 -0.397933,-0.1524 l -0.893233,-1.350432 0.579967,-0.8509 c 0.09313,-0.135466 0.237066,-0.270933 0.613832,-0.275166 v -0.131233 l -0.469899,0.0127 c -0.169333,0 -0.372533,0 -0.541866,-0.0127 v 0.131233 c 0.169333,0.0042 0.262466,0.09737 0.262466,0.194733 0,0.04233 -0.0085,0.0508 -0.0381,0.09737 l -0.4826,0.715432 -0.546099,-0.817032 c -0.0085,-0.0127 -0.02963,-0.04657 -0.02963,-0.0635 0,-0.0508 0.09313,-0.122767 0.275166,-0.127 v -0.131233 c -0.148166,0.0127 -0.4572,0.0127 -0.618066,0.0127 l -0.550333,-0.0127 v 0.131233 h 0.08043 c 0.232833,0 0.313267,0.02963 0.3937,0.148166 l 0.778933,1.176866 -0.694266,1.024466 c -0.05927,0.08467 -0.186267,0.2794 -0.613833,0.2794 v 0.131233 l 0.469899,-0.0127 c 0.156634,0 0.389467,0 0.541867,0.0127 v -0.131233 c -0.194734,-0.0042 -0.2667,-0.118534 -0.2667,-0.194733 0,-0.0381 0.0127,-0.05503 0.04233,-0.1016 l 0.601133,-0.889 0.668866,1.011766 c 0.0085,0.01693 0.02117,0.03387 0.02117,0.04657 0,0.0508 -0.09313,0.122766 -0.275167,0.127 v 0.131233 c 0.148167,-0.0127 0.4572,-0.0127 0.618066,-0.0127 z"
         style="stroke-width:0.264583"
         id="path4267" />
    </g>
    <g
       aria-label="O"
       id="text3684-0"
       style="font-size:4.23333px;line-height:1.25;font-family:'Latin Modern Roman';-inkscape-font-specification:'Latin Modern Roman, ';stroke-width:0.264583">
      <path
         d="m 71.311134,69.596113 c 0,-0.863599 -0.639233,-1.549399 -1.409699,-1.549399 -0.757766,0 -1.405465,0.677333 -1.405465,1.549399 0,0.867833 0.651933,1.528232 1.405465,1.528232 0.770466,0 1.409699,-0.673099 1.409699,-1.528232 z m -0.436033,-0.05927 c 0,1.121833 -0.579966,1.477433 -0.969432,1.477433 -0.4064,0 -0.973666,-0.372533 -0.973666,-1.477433 0,-1.096432 0.618066,-1.384298 0.969432,-1.384298 0.3683,0 0.973666,0.300566 0.973666,1.384298 z"
         style="stroke-width:0.264583"
         id="path4240" />
    </g>
    <g
       aria-label="O"
       id="text3688-8"
       style="font-size:4.23333px;line-height:1.25;font-family:'Latin Modern Roman';-inkscape-font-specification:'Latin Modern Roman, ';stroke-width:0.264583">
      <path
         d="m 64.27132,69.501615 c 0,-0.863599 -0.639233,-1.549398 -1.409699,-1.549398 -0.757766,0 -1.405465,0.677332 -1.405465,1.549398 0,0.867833 0.651933,1.528232 1.405465,1.528232 0.770466,0 1.409699,-0.673099 1.409699,-1.528232 z m -0.436033,-0.05927 c 0,1.121832 -0.579966,1.477432 -0.969432,1.477432 -0.4064,0 -0.973666,-0.372533 -0.973666,-1.477432 0,-1.096433 0.618066,-1.384299 0.969432,-1.384299 0.3683,0 0.973666,0.300566 0.973666,1.384299 z"
         style="stroke-width:0.264583"
         id="path4213" />
    </g>
    <g
       aria-label="O"
       id="text3851"
       style="font-size:4.23333px;line-height:1.25;font-family:'Latin Modern Roman';-inkscape-font-specification:'Latin Modern Roman, ';stroke-width:0.264583">
      <path
         d="m 64.25695,55.693762 c 0,-0.8636 -0.639232,-1.549399 -1.409699,-1.549399 -0.757766,0 -1.405465,0.677333 -1.405465,1.549399 0,0.867832 0.651933,1.528232 1.405465,1.528232 0.770467,0 1.409699,-0.6731 1.409699,-1.528232 z m -0.436033,-0.05927 c 0,1.121832 -0.579966,1.477432 -0.969432,1.477432 -0.4064,0 -0.973666,-0.372533 -0.973666,-1.477432 0,-1.096432 0.618066,-1.384299 0.969432,-1.384299 0.3683,0 0.973666,0.300567 0.973666,1.384299 z"
         style="stroke-width:0.264583"
         id="path4186" />
    </g>
    <g
       aria-label="O"
       id="text3855"
       style="font-size:4.23333px;line-height:1.25;font-family:'Latin Modern Roman';-inkscape-font-specification:'Latin Modern Roman, ';stroke-width:0.264583">
      <path
         d="m 103.67921,55.693765 c 0,-0.863599 -0.63923,-1.549398 -1.40969,-1.549398 -0.75777,0 -1.40547,0.677333 -1.40547,1.549398 0,0.867833 0.65193,1.528233 1.40547,1.528233 0.77046,0 1.40969,-0.6731 1.40969,-1.528233 z m -0.43603,-0.05927 c 0,1.121832 -0.57996,1.477432 -0.96943,1.477432 -0.4064,0 -0.97367,-0.372533 -0.97367,-1.477432 0,-1.096433 0.61807,-1.384299 0.96944,-1.384299 0.3683,0 0.97366,0.300566 0.97366,1.384299 z"
         style="stroke-width:0.264583"
         id="path4159" />
    </g>
    <g
       aria-label="O"
       id="text3859"
       style="font-size:4.23333px;line-height:1.25;font-family:'Latin Modern Roman';-inkscape-font-specification:'Latin Modern Roman, ';stroke-width:0.264583">
      <path
         d="m 115.50588,62.241865 c 0,-0.863599 -0.63923,-1.549399 -1.4097,-1.549399 -0.75776,0 -1.40546,0.677333 -1.40546,1.549399 0,0.867833 0.65193,1.528232 1.40546,1.528232 0.77047,0 1.4097,-0.673099 1.4097,-1.528232 z m -0.43603,-0.05927 c 0,1.121833 -0.57997,1.477432 -0.96943,1.477432 -0.4064,0 -0.97367,-0.372533 -0.97367,-1.477432 0,-1.096432 0.61807,-1.384298 0.96943,-1.384298 0.3683,0 0.97367,0.300566 0.97367,1.384298 z"
         style="stroke-width:0.264583"
         id="path4132" />
    </g>
    <g
       aria-label="O"
       id="text3863"
       style="font-size:4.23333px;line-height:1.25;font-family:'Latin Modern Roman';-inkscape-font-specification:'Latin Modern Roman, ';stroke-width:0.264583">
      <path
         d="m 148.17958,62.509134 c 0,-0.863599 -0.63923,-1.549399 -1.4097,-1.549399 -0.75776,0 -1.40546,0.677333 -1.40546,1.549399 0,0.867833 0.65193,1.528232 1.40546,1.528232 0.77047,0 1.4097,-0.673099 1.4097,-1.528232 z m -0.43603,-0.05927 c 0,1.121832 -0.57997,1.477432 -0.96943,1.477432 -0.4064,0 -0.97367,-0.372533 -0.97367,-1.477432 0,-1.096433 0.61807,-1.384299 0.96943,-1.384299 0.3683,0 0.97367,0.300566 0.97367,1.384299 z"
         style="stroke-width:0.264583"
         id="path4105" />
    </g>
    <path
       style="fill:none;stroke:#000000;stroke-width:0.565;stroke-linecap:butt;stroke-linejoin:miter;stroke-miterlimit:4;stroke-dasharray:none;stroke-opacity:1;marker-end:url(#Arrow1Mend)"
       d="M 109.11278,40.090428 71.093694,51.449385"
       id="path3865" />
    <path
       style="fill:none;stroke:#000000;stroke-width:0.565;stroke-linecap:butt;stroke-linejoin:miter;stroke-miterlimit:4;stroke-dasharray:none;stroke-opacity:1;marker-end:url(#marker3905)"
       d="M 109.11278,40.090428 96.68475,51.115295"
       id="path3901" />
    <path
       style="fill:none;stroke:#000000;stroke-width:0.565;stroke-linecap:butt;stroke-linejoin:miter;stroke-miterlimit:4;stroke-dasharray:none;stroke-opacity:1;marker-end:url(#marker3941)"
       d="m 109.11278,40.090428 12.56167,10.891234"
       id="path3937" />
    <path
       style="fill:none;stroke:#000000;stroke-width:0.565;stroke-linecap:butt;stroke-linejoin:miter;stroke-miterlimit:4;stroke-dasharray:none;stroke-opacity:1;marker-end:url(#marker3983)"
       d="m 109.11278,40.090428 36.95001,11.024868"
       id="path3979"
       sodipodi:nodetypes="cc" />
  </g>
</svg>
