<?xml version="1.0" encoding="UTF-8" standalone="no"?>
<svg
   xmlns:dc="http://purl.org/dc/elements/1.1/"
   xmlns:cc="http://creativecommons.org/ns#"
   xmlns:rdf="http://www.w3.org/1999/02/22-rdf-syntax-ns#"
   xmlns:svg="http://www.w3.org/2000/svg"
   xmlns="http://www.w3.org/2000/svg"
   xmlns:sodipodi="http://sodipodi.sourceforge.net/DTD/sodipodi-0.dtd"
   xmlns:inkscape="http://www.inkscape.org/namespaces/inkscape"
   width="202.6767mm"
   height="104.49358mm"
   viewBox="0 0 202.6767 104.49358"
   version="1.1"
   id="svg913"
   inkscape:version="1.0.1 (3bc2e813f5, 2020-09-07)"
   sodipodi:docname="partialordergraph.svg">
  <defs
     id="defs907">
    <marker
       style="overflow:visible"
       id="marker2592"
       refX="0"
       refY="0"
       orient="auto"
       inkscape:stockid="Arrow1Mend"
       inkscape:isstock="true">
      <path
         transform="matrix(-0.4,0,0,-0.4,-4,0)"
         style="fill:#000000;fill-opacity:1;fill-rule:evenodd;stroke:#000000;stroke-width:1pt;stroke-opacity:1"
         d="M 0,0 5,-5 -12.5,0 5,5 Z"
         id="path2590" />
    </marker>
    <marker
       style="overflow:visible"
       id="marker2502"
       refX="0"
       refY="0"
       orient="auto"
       inkscape:stockid="Arrow1Mend"
       inkscape:isstock="true"
       inkscape:collect="always">
      <path
         transform="matrix(-0.4,0,0,-0.4,-4,0)"
         style="fill:#000000;fill-opacity:1;fill-rule:evenodd;stroke:#000000;stroke-width:1pt;stroke-opacity:1"
         d="M 0,0 5,-5 -12.5,0 5,5 Z"
         id="path2500" />
    </marker>
    <marker
       style="overflow:visible"
       id="marker2410"
       refX="0"
       refY="0"
       orient="auto"
       inkscape:stockid="Arrow1Mend"
       inkscape:isstock="true"
       inkscape:collect="always">
      <path
         transform="matrix(-0.4,0,0,-0.4,-4,0)"
         style="fill:#000000;fill-opacity:1;fill-rule:evenodd;stroke:#000000;stroke-width:1pt;stroke-opacity:1"
         d="M 0,0 5,-5 -12.5,0 5,5 Z"
         id="path2408" />
    </marker>
    <marker
       style="overflow:visible"
       id="marker2332"
       refX="0"
       refY="0"
       orient="auto"
       inkscape:stockid="Arrow1Mend"
       inkscape:isstock="true"
       inkscape:collect="always">
      <path
         transform="matrix(-0.4,0,0,-0.4,-4,0)"
         style="fill:#000000;fill-opacity:1;fill-rule:evenodd;stroke:#000000;stroke-width:1pt;stroke-opacity:1"
         d="M 0,0 5,-5 -12.5,0 5,5 Z"
         id="path2330" />
    </marker>
    <marker
       style="overflow:visible"
       id="marker2260"
       refX="0"
       refY="0"
       orient="auto"
       inkscape:stockid="Arrow1Mend"
       inkscape:isstock="true"
       inkscape:collect="always">
      <path
         transform="matrix(-0.4,0,0,-0.4,-4,0)"
         style="fill:#000000;fill-opacity:1;fill-rule:evenodd;stroke:#000000;stroke-width:1pt;stroke-opacity:1"
         d="M 0,0 5,-5 -12.5,0 5,5 Z"
         id="path2258" />
    </marker>
    <marker
       style="overflow:visible"
       id="marker2194"
       refX="0"
       refY="0"
       orient="auto"
       inkscape:stockid="Arrow1Mend"
       inkscape:isstock="true"
       inkscape:collect="always">
      <path
         transform="matrix(-0.4,0,0,-0.4,-4,0)"
         style="fill:#000000;fill-opacity:1;fill-rule:evenodd;stroke:#000000;stroke-width:1pt;stroke-opacity:1"
         d="M 0,0 5,-5 -12.5,0 5,5 Z"
         id="path2192" />
    </marker>
    <marker
       style="overflow:visible"
       id="marker2134"
       refX="0"
       refY="0"
       orient="auto"
       inkscape:stockid="Arrow1Mend"
       inkscape:isstock="true"
       inkscape:collect="always">
      <path
         transform="matrix(-0.4,0,0,-0.4,-4,0)"
         style="fill:#000000;fill-opacity:1;fill-rule:evenodd;stroke:#000000;stroke-width:1pt;stroke-opacity:1"
         d="M 0,0 5,-5 -12.5,0 5,5 Z"
         id="path2132" />
    </marker>
    <marker
       style="overflow:visible"
       id="marker2080"
       refX="0"
       refY="0"
       orient="auto"
       inkscape:stockid="Arrow1Mend"
       inkscape:isstock="true"
       inkscape:collect="always">
      <path
         transform="matrix(-0.4,0,0,-0.4,-4,0)"
         style="fill:#000000;fill-opacity:1;fill-rule:evenodd;stroke:#000000;stroke-width:1pt;stroke-opacity:1"
         d="M 0,0 5,-5 -12.5,0 5,5 Z"
         id="path2078" />
    </marker>
    <marker
       style="overflow:visible"
       id="marker2032"
       refX="0"
       refY="0"
       orient="auto"
       inkscape:stockid="Arrow1Mend"
       inkscape:isstock="true"
       inkscape:collect="always">
      <path
         transform="matrix(-0.4,0,0,-0.4,-4,0)"
         style="fill:#000000;fill-opacity:1;fill-rule:evenodd;stroke:#000000;stroke-width:1pt;stroke-opacity:1"
         d="M 0,0 5,-5 -12.5,0 5,5 Z"
         id="path2030" />
    </marker>
    <marker
       style="overflow:visible"
       id="marker1896"
       refX="0"
       refY="0"
       orient="auto"
       inkscape:stockid="Arrow1Mend"
       inkscape:isstock="true"
       inkscape:collect="always">
      <path
         transform="matrix(-0.4,0,0,-0.4,-4,0)"
         style="fill:#000000;fill-opacity:1;fill-rule:evenodd;stroke:#000000;stroke-width:1pt;stroke-opacity:1"
         d="M 0,0 5,-5 -12.5,0 5,5 Z"
         id="path1894" />
    </marker>
    <marker
       style="overflow:visible"
       id="marker1844"
       refX="0"
       refY="0"
       orient="auto"
       inkscape:stockid="Arrow1Mend"
       inkscape:isstock="true"
       inkscape:collect="always">
      <path
         transform="matrix(-0.4,0,0,-0.4,-4,0)"
         style="fill:#000000;fill-opacity:1;fill-rule:evenodd;stroke:#000000;stroke-width:1pt;stroke-opacity:1"
         d="M 0,0 5,-5 -12.5,0 5,5 Z"
         id="path1842" />
    </marker>
    <marker
       style="overflow:visible"
       id="marker1814"
       refX="0"
       refY="0"
       orient="auto"
       inkscape:stockid="Arrow1Mend"
       inkscape:isstock="true"
       inkscape:collect="always">
      <path
         transform="matrix(-0.4,0,0,-0.4,-4,0)"
         style="fill:#000000;fill-opacity:1;fill-rule:evenodd;stroke:#000000;stroke-width:1pt;stroke-opacity:1"
         d="M 0,0 5,-5 -12.5,0 5,5 Z"
         id="path1812" />
    </marker>
    <marker
       style="overflow:visible"
       id="Arrow1Mend"
       refX="0"
       refY="0"
       orient="auto"
       inkscape:stockid="Arrow1Mend"
       inkscape:isstock="true"
       inkscape:collect="always">
      <path
         transform="matrix(-0.4,0,0,-0.4,-4,0)"
         style="fill:#000000;fill-opacity:1;fill-rule:evenodd;stroke:#000000;stroke-width:1pt;stroke-opacity:1"
         d="M 0,0 5,-5 -12.5,0 5,5 Z"
         id="path1543" />
    </marker>
  </defs>
  <sodipodi:namedview
     id="base"
     pagecolor="#ffffff"
     bordercolor="#666666"
     borderopacity="1.0"
     inkscape:pageopacity="0.0"
     inkscape:pageshadow="2"
     inkscape:zoom="3.959798"
     inkscape:cx="231.87639"
     inkscape:cy="105.02979"
     inkscape:document-units="mm"
     inkscape:current-layer="text1497"
     inkscape:document-rotation="0"
     showgrid="false"
     inkscape:snap-global="false"
     fit-margin-top="15"
     fit-margin-left="15"
     fit-margin-bottom="15"
     fit-margin-right="15"
     inkscape:window-width="1920"
     inkscape:window-height="1137"
     inkscape:window-x="1432"
     inkscape:window-y="-8"
     inkscape:window-maximized="1" />
  <metadata
     id="metadata910">
    <rdf:RDF>
      <cc:Work
         rdf:about="">
        <dc:format>image/svg+xml</dc:format>
        <dc:type
           rdf:resource="http://purl.org/dc/dcmitype/StillImage" />
        <dc:title></dc:title>
      </cc:Work>
    </rdf:RDF>
  </metadata>
  <g
     inkscape:label="Layer 1"
     inkscape:groupmode="layer"
     id="layer1"
     transform="translate(8.135808,0.45123474)">
    <circle
       style="fill:#000000;stroke:#000000;stroke-width:0.0751274;stroke-linecap:square;stroke-miterlimit:4;stroke-dasharray:none;stroke-dashoffset:0;stroke-opacity:1;stop-color:#000000"
       id="path833-5-03-7"
       cx="69.890984"
       cy="22.317005"
       r="1.7412902" />
    <g
       aria-label="Structure of (ℤ, ≤)"
       id="text1497"
       style="font-size:5.64444px;line-height:1.25;font-family:'Latin Modern Math';-inkscape-font-specification:'Latin Modern Math';stroke-width:0.264583">
      <path
         d="m 9.364679,22.737123 c 0,-0.564444 -0.3725331,-1.027288 -0.846666,-1.140177 L 7.7955246,21.421969 c -0.3499553,-0.08467 -0.5700884,-0.389467 -0.5700884,-0.716844 0,-0.395111 0.3047997,-0.739422 0.7450661,-0.739422 0.9426215,0 1.0667991,0.925688 1.1006658,1.179688 0.00564,0.03387 0.00564,0.06773 0.067733,0.06773 0.073378,0 0.073378,-0.02822 0.073378,-0.135466 v -1.134533 c 0,-0.09596 0,-0.135466 -0.062089,-0.135466 -0.039511,0 -0.045156,0.0056 -0.084667,0.07338 L 8.8679682,20.20277 C 8.698635,20.039081 8.467213,19.807659 7.9648578,19.807659 c -0.6265328,0 -1.1006658,0.496711 -1.1006658,1.095021 0,0.468489 0.2991553,0.880533 0.7394216,1.032933 0.062089,0.02258 0.3499553,0.09031 0.7450661,0.186266 0.1523999,0.03951 0.3217331,0.07902 0.4797775,0.287867 0.1185332,0.146755 0.1749776,0.333022 0.1749776,0.519288 0,0.400756 -0.282222,0.807155 -0.756355,0.807155 -0.1636887,0 -0.5926662,-0.02822 -0.8918215,-0.3048 C 7.0278807,23.12659 7.0109474,22.765346 7.005303,22.562146 c -0.00564,-0.05645 -0.0508,-0.05645 -0.067733,-0.05645 -0.073378,0 -0.073378,0.03951 -0.073378,0.141111 V 23.7757 c 0,0.09596 0,0.135467 0.062089,0.135467 0.039511,0 0.045155,-0.01129 0.084667,-0.07338 0,0 0.016933,-0.02258 0.2031999,-0.321733 0.1749776,0.191911 0.5362218,0.395111 1.038577,0.395111 0.6603995,0 1.1119547,-0.553155 1.1119547,-1.174044 z"
         style="stroke-width:0.264583"
         id="path2688" />
      <path
         d="m 11.560365,23.087079 v -0.321733 h -0.141111 v 0.310444 c 0,0.417688 -0.169333,0.632177 -0.378178,0.632177 -0.378177,0 -0.378177,-0.513644 -0.378177,-0.609599 v -1.569155 h 0.807155 v -0.174978 h -0.807155 v -1.038576 h -0.141111 c -0.0056,0.462844 -0.174978,1.066799 -0.728133,1.089376 v 0.124178 h 0.479777 v 1.557866 c 0,0.694266 0.524933,0.761999 0.728133,0.761999 0.400755,0 0.5588,-0.400755 0.5588,-0.761999 z"
         style="stroke-width:0.264583"
         id="path2690" />
      <path
         d="m 13.936673,21.636458 c 0,-0.180623 -0.174977,-0.344311 -0.417688,-0.344311 -0.412044,0 -0.615244,0.378177 -0.694266,0.620888 v -0.620888 l -0.784577,0.06209 v 0.174978 c 0.39511,0 0.440266,0.03951 0.440266,0.316089 v 1.51271 c 0,0.254 -0.06209,0.254 -0.440266,0.254 v 0.174977 l 0.643466,-0.01693 c 0.225777,0 0.491066,0 0.716844,0.01693 v -0.174977 h -0.118534 c -0.417688,0 -0.428977,-0.06209 -0.428977,-0.265289 v -0.869244 c 0,-0.558799 0.237066,-1.061155 0.666044,-1.061155 0.03951,0 0.0508,0 0.06209,0.0056 -0.01693,0.0056 -0.129822,0.07338 -0.129822,0.220133 0,0.158044 0.118533,0.242711 0.242711,0.242711 0.101599,0 0.24271,-0.06773 0.24271,-0.248355 z"
         style="stroke-width:0.264583"
         id="path2692" />
      <path
         d="m 17.114484,23.786989 v -0.174977 c -0.395111,0 -0.440266,-0.03951 -0.440266,-0.316089 v -2.003776 l -0.829733,0.06209 v 0.174978 c 0.395111,0 0.440266,0.03951 0.440266,0.316089 v 1.00471 c 0,0.491066 -0.270933,0.874888 -0.682977,0.874888 -0.474133,0 -0.496711,-0.265288 -0.496711,-0.558799 v -1.873954 l -0.829732,0.06209 v 0.174978 c 0.440266,0 0.440266,0.01693 0.440266,0.519289 v 0.846666 c 0,0.440266 0,0.95391 0.857955,0.95391 0.316088,0 0.564444,-0.158044 0.728133,-0.508 v 0.508 z"
         style="stroke-width:0.264583"
         id="path2694" />
      <path
         d="m 19.575459,23.115301 c 0,-0.05645 -0.05645,-0.05645 -0.07338,-0.05645 -0.0508,0 -0.06209,0.02258 -0.07338,0.05645 -0.163689,0.524933 -0.530577,0.592666 -0.739421,0.592666 -0.299156,0 -0.795866,-0.242711 -0.795866,-1.151466 0,-0.920043 0.462844,-1.15711 0.761999,-1.15711 0.0508,0 0.4064,0.0056 0.603955,0.208844 -0.231422,0.01693 -0.265289,0.186267 -0.265289,0.259645 0,0.146755 0.1016,0.259644 0.259645,0.259644 0.146755,0 0.259644,-0.09596 0.259644,-0.265289 0,-0.383822 -0.428978,-0.603955 -0.8636,-0.603955 -0.705555,0 -1.224843,0.6096 -1.224843,1.30951 0,0.722488 0.5588,1.281288 1.213555,1.281288 0.756355,0 0.936977,-0.677333 0.936977,-0.733777 z"
         style="stroke-width:0.264583"
         id="path2696" />
      <path
         d="m 21.613092,23.087079 v -0.321733 h -0.141111 v 0.310444 c 0,0.417688 -0.169333,0.632177 -0.378178,0.632177 -0.378177,0 -0.378177,-0.513644 -0.378177,-0.609599 v -1.569155 h 0.807155 v -0.174978 h -0.807155 v -1.038576 h -0.141111 c -0.0056,0.462844 -0.174978,1.066799 -0.728133,1.089376 v 0.124178 h 0.479777 v 1.557866 c 0,0.694266 0.524933,0.761999 0.728133,0.761999 0.400755,0 0.5588,-0.400755 0.5588,-0.761999 z"
         style="stroke-width:0.264583"
         id="path2698" />
      <path
         d="m 24.9546,23.786989 v -0.174977 c -0.39511,0 -0.440266,-0.03951 -0.440266,-0.316089 v -2.003776 l -0.829733,0.06209 v 0.174978 c 0.395111,0 0.440267,0.03951 0.440267,0.316089 v 1.00471 c 0,0.491066 -0.270933,0.874888 -0.682978,0.874888 -0.474133,0 -0.49671,-0.265288 -0.49671,-0.558799 v -1.873954 l -0.829733,0.06209 v 0.174978 c 0.440266,0 0.440266,0.01693 0.440266,0.519289 v 0.846666 c 0,0.440266 0,0.95391 0.857955,0.95391 0.316089,0 0.564444,-0.158044 0.728133,-0.508 v 0.508 z"
         style="stroke-width:0.264583"
         id="path2700" />
      <path
         d="m 27.127708,21.636458 c 0,-0.180623 -0.174978,-0.344311 -0.417689,-0.344311 -0.412044,0 -0.615244,0.378177 -0.694266,0.620888 v -0.620888 l -0.784577,0.06209 v 0.174978 c 0.395111,0 0.440266,0.03951 0.440266,0.316089 v 1.51271 c 0,0.254 -0.06209,0.254 -0.440266,0.254 v 0.174977 l 0.643466,-0.01693 c 0.225778,0 0.491066,0 0.716844,0.01693 v -0.174977 h -0.118533 c -0.417689,0 -0.428978,-0.06209 -0.428978,-0.265289 v -0.869244 c 0,-0.558799 0.237067,-1.061155 0.666044,-1.061155 0.03951,0 0.0508,0 0.06209,0.0056 -0.01693,0.0056 -0.129822,0.07338 -0.129822,0.220133 0,0.158044 0.118533,0.242711 0.242711,0.242711 0.1016,0 0.242711,-0.06773 0.242711,-0.248355 z"
         style="stroke-width:0.264583"
         id="path2702" />
      <path
         d="m 29.628186,23.115301 c 0,-0.05645 -0.04516,-0.06773 -0.07338,-0.06773 -0.0508,0 -0.06209,0.03387 -0.07338,0.07902 -0.197555,0.581377 -0.705555,0.581377 -0.761999,0.581377 -0.282222,0 -0.508,-0.169333 -0.637822,-0.378177 -0.169333,-0.270934 -0.169333,-0.643467 -0.169333,-0.846666 h 1.574798 c 0.124178,0 0.141111,0 0.141111,-0.118534 0,-0.558799 -0.304799,-1.10631 -1.010354,-1.10631 -0.654755,0 -1.174044,0.581377 -1.174044,1.286932 0,0.756355 0.592666,1.303866 1.241777,1.303866 0.688622,0 0.942621,-0.626533 0.942621,-0.733777 z M 29.255653,22.36459 h -1.337732 c 0.03387,-0.841021 0.508,-0.982132 0.699911,-0.982132 0.581377,0 0.637821,0.761999 0.637821,0.982132 z"
         style="stroke-width:0.264583"
         id="path2704" />
      <path
         d="m 34.324345,22.579079 c 0,-0.722488 -0.564444,-1.320799 -1.247422,-1.320799 -0.705555,0 -1.253065,0.615244 -1.253065,1.320799 0,0.728133 0.587022,1.269999 1.247421,1.269999 0.682977,0 1.253066,-0.553155 1.253066,-1.269999 z m -0.468489,-0.04516 c 0,0.2032 0,0.508 -0.124177,0.756355 -0.124178,0.254 -0.372534,0.417689 -0.654756,0.417689 -0.24271,0 -0.491066,-0.118533 -0.643466,-0.378177 -0.141111,-0.248356 -0.141111,-0.592667 -0.141111,-0.795867 0,-0.220133 0,-0.524932 0.135467,-0.773288 0.1524,-0.259644 0.417688,-0.378177 0.643466,-0.378177 0.248355,0 0.491066,0.124177 0.637822,0.366888 0.146755,0.242711 0.146755,0.570089 0.146755,0.784577 z"
         style="stroke-width:0.264583"
         id="path2706" />
      <path
         d="m 36.503087,20.20277 c 0,-0.208845 -0.208844,-0.395111 -0.508,-0.395111 -0.39511,0 -0.874888,0.299155 -0.874888,0.897466 v 0.64911 h -0.445911 v 0.174978 h 0.445911 v 1.828799 c 0,0.254 -0.06209,0.254 -0.440266,0.254 v 0.174977 l 0.643466,-0.01693 c 0.225778,0 0.491066,0 0.716844,0.01693 V 23.612012 H 35.92171 c -0.417689,0 -0.428978,-0.06209 -0.428978,-0.265289 v -1.81751 h 0.643466 V 21.354235 H 35.475799 V 20.69948 c 0,-0.49671 0.270933,-0.767643 0.519288,-0.767643 0.01693,0 0.1016,0 0.186267,0.03951 -0.06773,0.02258 -0.169333,0.09596 -0.169333,0.237066 0,0.129822 0.09031,0.242711 0.242711,0.242711 0.163688,0 0.248355,-0.112889 0.248355,-0.248355 z"
         style="stroke-width:0.264583"
         id="path2708" />
      <path
         d="m 39.963121,25.130366 c 0,-0.01693 -0.01129,-0.03387 -0.02258,-0.04516 -0.587022,-0.440266 -0.976488,-1.569154 -0.976488,-2.472264 v -0.474133 c 0,-0.903111 0.389466,-2.031999 0.976488,-2.472265 0.01129,-0.01129 0.02258,-0.02822 0.02258,-0.04516 0,-0.02822 -0.02822,-0.05644 -0.05645,-0.05644 -0.01129,0 -0.02258,0.0056 -0.03387,0.01129 -0.620889,0.468488 -1.213555,1.597376 -1.213555,2.562576 v 0.474133 c 0,0.965199 0.592666,2.094087 1.213555,2.562575 0.01129,0.0056 0.02258,0.01129 0.03387,0.01129 0.02822,0 0.05645,-0.02822 0.05645,-0.05644 z"
         style="stroke-width:0.264583"
         id="path2710" />
      <path
         d="m 40.543926,23.786989 v -0.129535 l 1.653644,-3.351387 h -0.763432 q -0.129536,0 -0.201194,0.02756 -0.0689,0.02756 -0.129535,0.09095 -0.06063,0.06339 -0.121267,0.201193 -0.06063,0.137804 -0.124024,0.37207 h -0.270095 v -0.972894 h 2.88561 v 0.135047 l -1.653645,3.345875 h 0.727604 q 0.184657,0 0.272851,-0.03307 0.09095,-0.03583 0.148828,-0.107487 0.05788,-0.07441 0.104731,-0.206706 0.04685,-0.132291 0.112999,-0.410655 h 0.270095 v 1.03904 z m 2.524564,-3.519507 h -0.504362 l -1.615059,3.276973 h 0.504361 z"
         style="font-style:normal;font-variant:normal;font-weight:normal;font-stretch:normal;font-family:'Cambria Math';-inkscape-font-specification:'Cambria Math'"
         id="path2712" />
      <path
         d="m 44.83167,23.781345 c 0,-0.372533 -0.141111,-0.592666 -0.361245,-0.592666 -0.186266,0 -0.299155,0.141111 -0.299155,0.299155 0,0.1524 0.112889,0.299155 0.299155,0.299155 0.06773,0 0.141111,-0.02258 0.197556,-0.07338 0.01693,-0.01129 0.02822,-0.01693 0.02822,-0.01693 0,0 0.01129,0.0056 0.01129,0.08467 0,0.417688 -0.197555,0.756355 -0.383822,0.942621 -0.06209,0.06209 -0.06209,0.07338 -0.06209,0.09031 0,0.03951 0.02822,0.06209 0.05645,0.06209 0.06209,0 0.513644,-0.434622 0.513644,-1.095021 z"
         style="stroke-width:0.264583"
         id="path2714" />
      <path
         d="m 51.02926,23.363656 -3.093153,-1.46191 3.093153,-1.46191 c 0.135467,-0.06209 0.03951,-0.265288 -0.1016,-0.2032 l -3.279419,1.552221 c -0.09596,0.04516 -0.09596,0.180622 0,0.225778 l 3.279419,1.552221 c 0.141111,0.06209 0.237067,-0.141111 0.1016,-0.2032 z m 0.06209,0.982133 c 0,-0.06209 -0.0508,-0.112889 -0.112889,-0.112889 h -3.307642 c -0.06209,0 -0.112889,0.0508 -0.112889,0.112889 0,0.06209 0.0508,0.112889 0.112889,0.112889 h 3.307642 c 0.06209,0 0.112889,-0.0508 0.112889,-0.112889 z"
         style="stroke-width:0.264583"
         id="path2716" />
      <path
         d="m 53.145923,22.612946 v -0.474133 c 0,-0.9652 -0.592666,-2.094088 -1.213554,-2.562576 -0.01129,-0.0056 -0.02258,-0.01129 -0.03387,-0.01129 -0.02822,0 -0.05644,0.02822 -0.05644,0.05644 0,0.01693 0.01129,0.03387 0.02258,0.04516 0.587021,0.440266 0.976488,1.569154 0.976488,2.472265 v 0.474133 c 0,0.90311 -0.389467,2.031998 -0.976488,2.472264 -0.01129,0.01129 -0.02258,0.02822 -0.02258,0.04516 0,0.02822 0.02822,0.05644 0.05644,0.05644 0.01129,0 0.02258,-0.0056 0.03387,-0.01129 0.620888,-0.468488 1.213554,-1.597376 1.213554,-2.562575 z"
         style="stroke-width:0.264583"
         id="path2718" />
      <path
         d="m 42.049175,55.150962 v -0.129535 l 1.653644,-3.351387 h -0.763432 q -0.129536,0 -0.201194,0.02756 -0.0689,0.02756 -0.129535,0.09095 -0.06063,0.06339 -0.121267,0.201193 -0.06063,0.137804 -0.124024,0.37207 h -0.270095 v -0.972894 h 2.88561 v 0.135047 l -1.653645,3.345875 h 0.727604 q 0.184657,0 0.272851,-0.03307 0.09095,-0.03583 0.148828,-0.107487 0.05788,-0.07441 0.104731,-0.206706 0.04685,-0.132291 0.112999,-0.410655 h 0.270095 v 1.03904 z m 2.524564,-3.519507 h -0.504362 l -1.615059,3.276973 h 0.504361 z"
         style="font-style:normal;font-variant:normal;font-weight:normal;font-stretch:normal;font-size:5.64444px;line-height:1.25;font-family:'Cambria Math';-inkscape-font-specification:'Cambria Math';stroke-width:0.264583"
         id="path2712-5" />
    </g>
    <g
       aria-label="Structure of (ℤ, |)"
       id="text1503"
       style="font-size:5.64444px;line-height:1.25;font-family:'Latin Modern Math';-inkscape-font-specification:'Latin Modern Math';stroke-width:0.264583">
      <path
         d="m 10.618812,54.088241 c 0,-0.564444 -0.372533,-1.027288 -0.8466663,-1.140176 L 9.0496574,52.773087 C 8.6997021,52.68842 8.4795689,52.38362 8.4795689,52.056243 c 0,-0.395111 0.3047998,-0.739422 0.7450661,-0.739422 0.942622,0 1.066799,0.925688 1.100666,1.179688 0.0056,0.03387 0.0056,0.06773 0.06773,0.06773 0.07338,0 0.07338,-0.02822 0.07338,-0.135467 V 51.29424 c 0,-0.09596 0,-0.135467 -0.06209,-0.135467 -0.03951,0 -0.04516,0.0056 -0.08467,0.07338 l -0.197555,0.321733 C 9.9527678,51.390199 9.7213457,51.158777 9.2189906,51.158777 c -0.6265329,0 -1.1006659,0.496711 -1.1006659,1.095021 0,0.468489 0.2991554,0.880533 0.7394217,1.032933 0.062089,0.02258 0.3499553,0.09031 0.7450661,0.186266 0.1523999,0.03951 0.3217331,0.07902 0.4797775,0.287867 0.118533,0.146755 0.174978,0.333022 0.174978,0.519288 0,0.400756 -0.2822225,0.807155 -0.7563554,0.807155 -0.1636888,0 -0.5926662,-0.02822 -0.8918216,-0.304799 -0.3273775,-0.3048 -0.3443108,-0.666044 -0.3499553,-0.869244 -0.00564,-0.05644 -0.0508,-0.05644 -0.067733,-0.05644 -0.073378,0 -0.073378,0.03951 -0.073378,0.141111 v 1.128888 c 0,0.09596 0,0.135467 0.062089,0.135467 0.039511,0 0.045155,-0.01129 0.084667,-0.07338 0,0 0.016933,-0.02258 0.2031998,-0.321733 0.1749777,0.191911 0.5362218,0.395111 1.038577,0.395111 0.6603995,0 1.1119545,-0.553155 1.1119545,-1.174044 z"
         style="stroke-width:0.264583"
         id="path2721" />
      <path
         d="m 12.814498,54.438197 v -0.321733 h -0.141111 v 0.310444 c 0,0.417688 -0.169334,0.632177 -0.378178,0.632177 -0.378177,0 -0.378177,-0.513644 -0.378177,-0.609599 v -1.569155 h 0.807155 v -0.174977 h -0.807155 v -1.038577 h -0.141111 c -0.0056,0.462844 -0.174978,1.066799 -0.728133,1.089377 v 0.124177 h 0.479777 v 1.557866 c 0,0.694266 0.524933,0.761999 0.728133,0.761999 0.400755,0 0.5588,-0.400755 0.5588,-0.761999 z"
         style="stroke-width:0.264583"
         id="path2723" />
      <path
         d="m 15.190806,52.987576 c 0,-0.180622 -0.174977,-0.344311 -0.417688,-0.344311 -0.412044,0 -0.615244,0.378177 -0.694266,0.620888 v -0.620888 l -0.784578,0.06209 v 0.174977 c 0.395111,0 0.440267,0.03951 0.440267,0.316089 v 1.51271 c 0,0.254 -0.06209,0.254 -0.440267,0.254 v 0.174977 l 0.643466,-0.01693 c 0.225778,0 0.491067,0 0.716844,0.01693 V 54.96313 h -0.118533 c -0.417688,0 -0.428977,-0.06209 -0.428977,-0.265289 v -0.869244 c 0,-0.558799 0.237066,-1.061155 0.666044,-1.061155 0.03951,0 0.0508,0 0.06209,0.0056 -0.01693,0.0056 -0.129822,0.07338 -0.129822,0.220133 0,0.158044 0.118534,0.242711 0.242711,0.242711 0.1016,0 0.242711,-0.06773 0.242711,-0.248355 z"
         style="stroke-width:0.264583"
         id="path2725" />
      <path
         d="M 18.368617,55.138107 V 54.96313 c -0.395111,0 -0.440267,-0.03951 -0.440267,-0.316089 v -2.003776 l -0.829732,0.06209 v 0.174977 c 0.39511,0 0.440266,0.03951 0.440266,0.316089 v 1.00471 c 0,0.491067 -0.270933,0.874888 -0.682977,0.874888 -0.474133,0 -0.496711,-0.265288 -0.496711,-0.558799 v -1.873954 l -0.829733,0.06209 v 0.174977 c 0.440267,0 0.440267,0.01693 0.440267,0.519289 v 0.846666 c 0,0.440266 0,0.95391 0.857955,0.95391 0.316088,0 0.564444,-0.158044 0.728132,-0.507999 v 0.507999 z"
         style="stroke-width:0.264583"
         id="path2727" />
      <path
         d="m 20.829591,54.466419 c 0,-0.05644 -0.05644,-0.05644 -0.07338,-0.05644 -0.0508,0 -0.06209,0.02258 -0.07338,0.05644 -0.163689,0.524933 -0.530577,0.592666 -0.739422,0.592666 -0.299155,0 -0.795866,-0.242711 -0.795866,-1.151466 0,-0.920043 0.462844,-1.15711 0.762,-1.15711 0.0508,0 0.406399,0.0056 0.603955,0.208844 -0.231422,0.01693 -0.265289,0.186267 -0.265289,0.259645 0,0.146755 0.1016,0.259644 0.259644,0.259644 0.146756,0 0.259645,-0.09596 0.259645,-0.265289 0,-0.383822 -0.428978,-0.603955 -0.8636,-0.603955 -0.705555,0 -1.224843,0.6096 -1.224843,1.30951 0,0.722489 0.558799,1.281288 1.213554,1.281288 0.756355,0 0.936977,-0.677333 0.936977,-0.733777 z"
         style="stroke-width:0.264583"
         id="path2729" />
      <path
         d="m 22.867225,54.438197 v -0.321733 h -0.141111 v 0.310444 c 0,0.417688 -0.169334,0.632177 -0.378178,0.632177 -0.378177,0 -0.378177,-0.513644 -0.378177,-0.609599 v -1.569155 h 0.807154 v -0.174977 h -0.807154 v -1.038577 h -0.141111 c -0.0056,0.462844 -0.174978,1.066799 -0.728133,1.089377 v 0.124177 h 0.479777 v 1.557866 c 0,0.694266 0.524933,0.761999 0.728133,0.761999 0.400755,0 0.5588,-0.400755 0.5588,-0.761999 z"
         style="stroke-width:0.264583"
         id="path2731" />
      <path
         d="M 26.208733,55.138107 V 54.96313 c -0.395111,0 -0.440266,-0.03951 -0.440266,-0.316089 v -2.003776 l -0.829733,0.06209 v 0.174977 c 0.395111,0 0.440266,0.03951 0.440266,0.316089 v 1.00471 c 0,0.491067 -0.270933,0.874888 -0.682977,0.874888 -0.474133,0 -0.496711,-0.265288 -0.496711,-0.558799 v -1.873954 l -0.829732,0.06209 v 0.174977 c 0.440266,0 0.440266,0.01693 0.440266,0.519289 v 0.846666 c 0,0.440266 0,0.95391 0.857955,0.95391 0.316089,0 0.564444,-0.158044 0.728133,-0.507999 v 0.507999 z"
         style="stroke-width:0.264583"
         id="path2733" />
      <path
         d="m 28.381841,52.987576 c 0,-0.180622 -0.174978,-0.344311 -0.417689,-0.344311 -0.412044,0 -0.615244,0.378177 -0.694266,0.620888 v -0.620888 l -0.784577,0.06209 v 0.174977 c 0.39511,0 0.440266,0.03951 0.440266,0.316089 v 1.51271 c 0,0.254 -0.06209,0.254 -0.440266,0.254 v 0.174977 l 0.643466,-0.01693 c 0.225777,0 0.491066,0 0.716844,0.01693 V 54.96313 h -0.118534 c -0.417688,0 -0.428977,-0.06209 -0.428977,-0.265289 v -0.869244 c 0,-0.558799 0.237067,-1.061155 0.666044,-1.061155 0.03951,0 0.0508,0 0.06209,0.0056 -0.01693,0.0056 -0.129822,0.07338 -0.129822,0.220133 0,0.158044 0.118533,0.242711 0.242711,0.242711 0.1016,0 0.242711,-0.06773 0.242711,-0.248355 z"
         style="stroke-width:0.264583"
         id="path2735" />
      <path
         d="m 30.882319,54.466419 c 0,-0.05644 -0.04515,-0.06773 -0.07338,-0.06773 -0.0508,0 -0.06209,0.03387 -0.07338,0.07902 -0.197556,0.581377 -0.705555,0.581377 -0.762,0.581377 -0.282222,0 -0.507999,-0.169333 -0.637821,-0.378177 -0.169334,-0.270933 -0.169334,-0.643467 -0.169334,-0.846666 h 1.574799 c 0.124178,0 0.141111,0 0.141111,-0.118534 0,-0.558799 -0.3048,-1.10631 -1.010355,-1.10631 -0.654755,0 -1.174043,0.581377 -1.174043,1.286932 0,0.756355 0.592666,1.303866 1.241777,1.303866 0.688621,0 0.942621,-0.626533 0.942621,-0.733777 z m -0.372533,-0.750711 h -1.337732 c 0.03387,-0.841021 0.507999,-0.982132 0.69991,-0.982132 0.581378,0 0.637822,0.761999 0.637822,0.982132 z"
         style="stroke-width:0.264583"
         id="path2737" />
      <path
         d="m 35.578478,53.930197 c 0,-0.722488 -0.564445,-1.320799 -1.247422,-1.320799 -0.705555,0 -1.253065,0.615244 -1.253065,1.320799 0,0.728133 0.587021,1.269999 1.247421,1.269999 0.682977,0 1.253066,-0.553155 1.253066,-1.269999 z m -0.468489,-0.04516 c 0,0.203199 0,0.507999 -0.124178,0.756355 -0.124177,0.253999 -0.372533,0.417688 -0.654755,0.417688 -0.242711,0 -0.491066,-0.118533 -0.643466,-0.378177 -0.141111,-0.248356 -0.141111,-0.592667 -0.141111,-0.795866 0,-0.220134 0,-0.524933 0.135467,-0.773289 0.1524,-0.259644 0.417688,-0.378177 0.643466,-0.378177 0.248355,0 0.491066,0.124177 0.637822,0.366888 0.146755,0.242711 0.146755,0.570089 0.146755,0.784578 z"
         style="stroke-width:0.264583"
         id="path2739" />
      <path
         d="m 37.75722,51.553888 c 0,-0.208844 -0.208845,-0.395111 -0.508,-0.395111 -0.395111,0 -0.874888,0.299155 -0.874888,0.897466 v 0.649111 h -0.445911 v 0.174977 h 0.445911 v 1.828799 c 0,0.254 -0.06209,0.254 -0.440266,0.254 v 0.174977 l 0.643466,-0.01693 c 0.225777,0 0.491066,0 0.716844,0.01693 V 54.96313 h -0.118534 c -0.417688,0 -0.428977,-0.06209 -0.428977,-0.265289 v -1.81751 h 0.643466 v -0.174977 h -0.660399 v -0.654755 c 0,-0.496711 0.270933,-0.767644 0.519288,-0.767644 0.01693,0 0.1016,0 0.186267,0.03951 -0.06773,0.02258 -0.169334,0.09596 -0.169334,0.237066 0,0.129822 0.09031,0.242711 0.242711,0.242711 0.163689,0 0.248356,-0.112889 0.248356,-0.248354 z"
         style="stroke-width:0.264583"
         id="path2741" />
      <path
         d="m 41.217254,56.481484 c 0,-0.01693 -0.01129,-0.03387 -0.02258,-0.04516 -0.587022,-0.440267 -0.976488,-1.569155 -0.976488,-2.472265 v -0.474133 c 0,-0.903111 0.389466,-2.031999 0.976488,-2.472265 0.01129,-0.01129 0.02258,-0.02822 0.02258,-0.04516 0,-0.02822 -0.02822,-0.05644 -0.05644,-0.05644 -0.01129,0 -0.02258,0.0056 -0.03387,0.01129 -0.620888,0.468488 -1.213554,1.597376 -1.213554,2.562576 v 0.474133 c 0,0.965199 0.592666,2.094087 1.213554,2.562576 0.01129,0.0056 0.02258,0.01129 0.03387,0.01129 0.02822,0 0.05644,-0.02822 0.05644,-0.05644 z"
         style="stroke-width:0.264583"
         id="path2743" />
      <path
         d="m 46.449648,55.132463 c 0,-0.372533 -0.141111,-0.592666 -0.361244,-0.592666 -0.186267,0 -0.299155,0.141111 -0.299155,0.299155 0,0.1524 0.112888,0.299155 0.299155,0.299155 0.06773,0 0.141111,-0.02258 0.197555,-0.07338 0.01693,-0.01129 0.02822,-0.01693 0.02822,-0.01693 0,0 0.01129,0.0056 0.01129,0.08467 0,0.417688 -0.197555,0.756355 -0.383821,0.942621 -0.06209,0.06209 -0.06209,0.07338 -0.06209,0.09031 0,0.03951 0.02822,0.06209 0.05644,0.06209 0.06209,0 0.513644,-0.434622 0.513644,-1.095021 z"
         style="stroke-width:0.264583"
         id="path2747" />
      <path
         d="m 49.644393,56.436329 v -5.418663 c 0,-0.06209 -0.0508,-0.112889 -0.112889,-0.112889 -0.06209,0 -0.112889,0.0508 -0.112889,0.112889 v 5.418663 c 0,0.06209 0.0508,0.112888 0.112889,0.112888 0.06209,0 0.112889,-0.0508 0.112889,-0.112888 z"
         style="stroke-width:0.264583"
         id="path2749" />
      <path
         d="m 51.941682,53.964064 v -0.474133 c 0,-0.9652 -0.592666,-2.094088 -1.213554,-2.562576 -0.01129,-0.0056 -0.02258,-0.01129 -0.03387,-0.01129 -0.02822,0 -0.05644,0.02822 -0.05644,0.05644 0,0.01693 0.01129,0.03387 0.02258,0.04516 0.587022,0.440266 0.976488,1.569154 0.976488,2.472265 v 0.474133 c 0,0.90311 -0.389466,2.031998 -0.976488,2.472265 -0.01129,0.01129 -0.02258,0.02822 -0.02258,0.04516 0,0.02822 0.02822,0.05644 0.05644,0.05644 0.01129,0 0.02258,-0.0056 0.03387,-0.01129 0.620888,-0.468489 1.213554,-1.597377 1.213554,-2.562576 z"
         style="stroke-width:0.264583"
         id="path2751" />
    </g>
    <circle
       style="fill:#000000;stroke:#000000;stroke-width:0.0751274;stroke-linecap:square;stroke-miterlimit:4;stroke-dasharray:none;stroke-dashoffset:0;stroke-opacity:1;stop-color:#000000"
       id="path833-5-03-7-5"
       cx="96.484299"
       cy="22.584276"
       r="1.7412902" />
    <circle
       style="fill:#000000;stroke:#000000;stroke-width:0.0751274;stroke-linecap:square;stroke-miterlimit:4;stroke-dasharray:none;stroke-dashoffset:0;stroke-opacity:1;stop-color:#000000"
       id="path833-5-03-7-9"
       cx="121.87491"
       cy="22.851543"
       r="1.7412902" />
    <circle
       style="fill:#000000;stroke:#000000;stroke-width:0.0751274;stroke-linecap:square;stroke-miterlimit:4;stroke-dasharray:none;stroke-dashoffset:0;stroke-opacity:1;stop-color:#000000"
       id="path833-5-03-7-3"
       cx="147.80005"
       cy="22.985178"
       r="1.7412902" />
    <path
       style="fill:none;stroke:#000000;stroke-width:0.265;stroke-linecap:butt;stroke-linejoin:miter;stroke-miterlimit:4;stroke-dasharray:none;stroke-opacity:1;marker-end:url(#Arrow1Mend)"
       d="m 71.059523,22.300595 23.151042,0.188988"
       id="path1532" />
    <path
       style="fill:none;stroke:#000000;stroke-width:0.264583px;stroke-linecap:butt;stroke-linejoin:miter;stroke-opacity:1;marker-end:url(#marker1814)"
       d="m 97.895832,22.678571 21.922618,0.188988"
       id="path1810" />
    <path
       style="fill:none;stroke:#000000;stroke-width:0.264583px;stroke-linecap:butt;stroke-linejoin:miter;stroke-opacity:1;marker-end:url(#marker1844)"
       d="m 123.40922,22.867559 22.2061,0.09449"
       id="path1840" />
    <g
       aria-label="1"
       id="text1878"
       style="font-size:5.64444px;line-height:1.25;font-family:'Latin Modern Math';-inkscape-font-specification:'Latin Modern Math';stroke-width:0.264583">
      <path
         d="m 70.919655,18.307962 v -0.174977 h -0.180623 c -0.507999,0 -0.524932,-0.06209 -0.524932,-0.270933 v -3.166531 c 0,-0.135467 0,-0.146756 -0.129823,-0.146756 -0.349955,0.361244 -0.846666,0.361244 -1.027288,0.361244 v 0.174978 c 0.112889,0 0.445911,0 0.739422,-0.146755 v 2.92382 c 0,0.203199 -0.01693,0.270933 -0.524933,0.270933 h -0.180622 v 0.174977 c 0.197555,-0.01693 0.688622,-0.01693 0.914399,-0.01693 0.225778,0 0.716844,0 0.9144,0.01693 z"
         style="stroke-width:0.264583"
         id="path2771" />
    </g>
    <g
       aria-label="2"
       id="text1882"
       style="font-size:5.64444px;line-height:1.25;font-family:'Latin Modern Math';-inkscape-font-specification:'Latin Modern Math';stroke-width:0.264583">
      <path
         d="m 97.548666,17.726734 h -0.141111 c -0.02822,0.169333 -0.06773,0.417688 -0.124177,0.502355 -0.03951,0.04516 -0.412044,0.04516 -0.536222,0.04516 h -1.015999 l 0.59831,-0.581377 c 0.880533,-0.778933 1.219199,-1.083733 1.219199,-1.648177 0,-0.643466 -0.507999,-1.095021 -1.196621,-1.095021 -0.637822,0 -1.05551,0.519288 -1.05551,1.021644 0,0.316088 0.282222,0.316088 0.299155,0.316088 0.09596,0 0.293511,-0.06773 0.293511,-0.299155 0,-0.146755 -0.1016,-0.293511 -0.299155,-0.293511 -0.04516,0 -0.05644,0 -0.07338,0.0056 0.129822,-0.366889 0.434622,-0.575733 0.761999,-0.575733 0.513644,0 0.756355,0.457199 0.756355,0.920043 0,0.451556 -0.282222,0.897466 -0.592666,1.247422 l -1.083732,1.20791 c -0.06209,0.06209 -0.06209,0.07338 -0.06209,0.208844 h 2.094087 z"
         style="stroke-width:0.264583"
         id="path2774" />
    </g>
    <g
       aria-label="3"
       id="text1886"
       style="font-size:5.64444px;line-height:1.25;font-family:'Latin Modern Math';-inkscape-font-specification:'Latin Modern Math';stroke-width:0.264583">
      <path
         d="m 122.96821,18.199926 c 0,-0.462844 -0.3556,-0.903111 -0.94262,-1.021644 0.46284,-0.1524 0.79022,-0.547511 0.79022,-0.993422 0,-0.462844 -0.49671,-0.778932 -1.03858,-0.778932 -0.57008,0 -0.99906,0.338666 -0.99906,0.767644 0,0.186266 0.12418,0.29351 0.28787,0.29351 0.17497,0 0.28786,-0.124177 0.28786,-0.287866 0,-0.282222 -0.26529,-0.282222 -0.34995,-0.282222 0.17497,-0.276578 0.54751,-0.349955 0.75071,-0.349955 0.23142,0 0.54186,0.124177 0.54186,0.632177 0,0.06773 -0.0113,0.395111 -0.15804,0.643466 -0.16933,0.270933 -0.36125,0.287867 -0.50236,0.293511 -0.0452,0.0056 -0.18062,0.01693 -0.22013,0.01693 -0.0452,0.0056 -0.0847,0.01129 -0.0847,0.06773 0,0.06209 0.0395,0.06209 0.13547,0.06209 h 0.24836 c 0.46284,0 0.67168,0.383821 0.67168,0.936977 0,0.767643 -0.38946,0.931332 -0.63782,0.931332 -0.24271,0 -0.66604,-0.09596 -0.8636,-0.428977 0.19756,0.02822 0.37254,-0.09596 0.37254,-0.310444 0,-0.2032 -0.1524,-0.316089 -0.31609,-0.316089 -0.13547,0 -0.31609,0.07902 -0.31609,0.327377 0,0.513645 0.52493,0.886178 1.14018,0.886178 0.68862,0 1.20226,-0.513644 1.20226,-1.089377 z"
         style="stroke-width:0.264583"
         id="path2777" />
    </g>
    <g
       aria-label="4"
       id="text1890"
       style="font-size:5.64444px;line-height:1.25;font-family:'Latin Modern Math';-inkscape-font-specification:'Latin Modern Math';stroke-width:0.264583">
      <path
         d="m 148.7051,18.540202 v -0.174978 h -0.56444 v -2.56822 c 0,-0.112889 0,-0.146755 -0.0903,-0.146755 -0.0508,0 -0.0677,0 -0.11289,0.06773 l -1.73285,2.647242 v 0.174978 h 1.50143 v 0.491066 c 0,0.2032 -0.0113,0.265289 -0.42898,0.265289 h -0.11854 v 0.174978 c 0.23143,-0.01693 0.52494,-0.01693 0.762,-0.01693 0.23707,0 0.53623,0 0.76765,0.01693 v -0.174978 h -0.11854 c -0.41768,0 -0.42897,-0.06209 -0.42897,-0.265289 v -0.491066 z m -0.9652,-0.174978 h -1.37724 l 1.37724,-2.105376 z"
         style="stroke-width:0.264583"
         id="path2780" />
    </g>
    <path
       style="fill:none;stroke:#000000;stroke-width:0.264583px;stroke-linecap:butt;stroke-linejoin:miter;stroke-opacity:1;marker-end:url(#marker1896)"
       d="m 149.30059,22.962053 h 17.4814"
       id="path1892" />
    <g
       aria-label=". . ."
       id="text1936"
       style="font-size:5.64444px;line-height:1.25;font-family:'Latin Modern Math';-inkscape-font-specification:'Latin Modern Math';stroke-width:0.264583">
      <path
         d="m 169.47213,22.946381 c 0,-0.163688 -0.13547,-0.299155 -0.29916,-0.299155 -0.16368,0 -0.29915,0.135467 -0.29915,0.299155 0,0.163689 0.13547,0.299156 0.29915,0.299156 0.16369,0 0.29916,-0.135467 0.29916,-0.299156 z"
         style="stroke-width:0.264583"
         id="path2783" />
      <path
         d="m 172.91523,22.946381 c 0,-0.163688 -0.13547,-0.299155 -0.29915,-0.299155 -0.16369,0 -0.29916,0.135467 -0.29916,0.299155 0,0.163689 0.13547,0.299156 0.29916,0.299156 0.16368,0 0.29915,-0.135467 0.29915,-0.299156 z"
         style="stroke-width:0.264583"
         id="path2785" />
      <path
         d="m 176.35833,22.946381 c 0,-0.163688 -0.13546,-0.299155 -0.29915,-0.299155 -0.16369,0 -0.29916,0.135467 -0.29916,0.299155 0,0.163689 0.13547,0.299156 0.29916,0.299156 0.16369,0 0.29915,-0.135467 0.29915,-0.299156 z"
         style="stroke-width:0.264583"
         id="path2787" />
    </g>
    <circle
       style="fill:#000000;stroke:#000000;stroke-width:0.0751274;stroke-linecap:square;stroke-miterlimit:4;stroke-dasharray:none;stroke-dashoffset:0;stroke-opacity:1;stop-color:#000000"
       id="path833-5-03-7-1"
       cx="67.485558"
       cy="53.453907"
       r="1.7412902" />
    <circle
       style="fill:#000000;stroke:#000000;stroke-width:0.0751274;stroke-linecap:square;stroke-miterlimit:4;stroke-dasharray:none;stroke-dashoffset:0;stroke-opacity:1;stop-color:#000000"
       id="path833-5-03-7-0"
       cx="94.369064"
       cy="38.076412"
       r="1.7412902" />
    <circle
       style="fill:#000000;stroke:#000000;stroke-width:0.0751274;stroke-linecap:square;stroke-miterlimit:4;stroke-dasharray:none;stroke-dashoffset:0;stroke-opacity:1;stop-color:#000000"
       id="path833-5-03-7-2"
       cx="118.57317"
       cy="38.187119"
       r="1.7412902" />
    <circle
       style="fill:#000000;stroke:#000000;stroke-width:0.0751274;stroke-linecap:square;stroke-miterlimit:4;stroke-dasharray:none;stroke-dashoffset:0;stroke-opacity:1;stop-color:#000000"
       id="path833-5-03-7-11"
       cx="118.26675"
       cy="53.988445"
       r="1.7412902" />
    <circle
       style="fill:#000000;stroke:#000000;stroke-width:0.0751274;stroke-linecap:square;stroke-miterlimit:4;stroke-dasharray:none;stroke-dashoffset:0;stroke-opacity:1;stop-color:#000000"
       id="path833-5-03-7-30"
       cx="94.078865"
       cy="53.854809"
       r="1.7412902" />
    <circle
       style="fill:#000000;stroke:#000000;stroke-width:0.0751274;stroke-linecap:square;stroke-miterlimit:4;stroke-dasharray:none;stroke-dashoffset:0;stroke-opacity:1;stop-color:#000000"
       id="path833-5-03-7-97"
       cx="117.86586"
       cy="70.024612"
       r="1.7412902" />
    <circle
       style="fill:#000000;stroke:#000000;stroke-width:0.0751274;stroke-linecap:square;stroke-miterlimit:4;stroke-dasharray:none;stroke-dashoffset:0;stroke-opacity:1;stop-color:#000000"
       id="path833-5-03-7-06"
       cx="142.45465"
       cy="38.115547"
       r="1.7412902" />
    <circle
       style="fill:#000000;stroke:#000000;stroke-width:0.0751274;stroke-linecap:square;stroke-miterlimit:4;stroke-dasharray:none;stroke-dashoffset:0;stroke-opacity:1;stop-color:#000000"
       id="path833-5-03-7-6"
       cx="93.733322"
       cy="69.946335"
       r="1.7412902" />
    <circle
       style="fill:#000000;stroke:#000000;stroke-width:0.0751274;stroke-linecap:square;stroke-miterlimit:4;stroke-dasharray:none;stroke-dashoffset:0;stroke-opacity:1;stop-color:#000000"
       id="path833-5-03-7-13"
       cx="93.277069"
       cy="87.263496"
       r="1.7412902" />
    <g
       aria-label="1"
       id="text1994"
       style="font-size:5.64444px;line-height:1.25;font-family:'Latin Modern Math';-inkscape-font-specification:'Latin Modern Math';stroke-width:0.264583">
      <path
         d="m 68.781494,49.311226 v -0.174978 h -0.180622 c -0.508,0 -0.524933,-0.06209 -0.524933,-0.270933 v -3.166531 c 0,-0.135466 0,-0.146755 -0.129822,-0.146755 -0.349956,0.361244 -0.846666,0.361244 -1.027288,0.361244 v 0.174978 c 0.112888,0 0.44591,0 0.739421,-0.146756 v 2.92382 c 0,0.2032 -0.01693,0.270933 -0.524933,0.270933 h -0.180622 v 0.174978 c 0.197556,-0.01693 0.688622,-0.01693 0.9144,-0.01693 0.225777,0 0.716843,0 0.914399,0.01693 z"
         style="stroke-width:0.264583"
         id="path2799" />
    </g>
    <g
       aria-label="2"
       id="text1998"
       style="font-size:5.64444px;line-height:1.25;font-family:'Latin Modern Math';-inkscape-font-specification:'Latin Modern Math';stroke-width:0.264583">
      <path
         d="m 95.590002,34.14088 h -0.141111 c -0.02822,0.169333 -0.06773,0.417689 -0.124177,0.502355 -0.03951,0.04516 -0.412044,0.04516 -0.536222,0.04516 h -1.015999 l 0.59831,-0.581378 c 0.880533,-0.778932 1.219199,-1.083732 1.219199,-1.648176 0,-0.643466 -0.507999,-1.095022 -1.196621,-1.095022 -0.637822,0 -1.05551,0.519289 -1.05551,1.021644 0,0.316089 0.282222,0.316089 0.299155,0.316089 0.09596,0 0.293511,-0.06773 0.293511,-0.299156 0,-0.146755 -0.1016,-0.293511 -0.299155,-0.293511 -0.04516,0 -0.05644,0 -0.07338,0.0056 0.129822,-0.366889 0.434622,-0.575733 0.761999,-0.575733 0.513644,0 0.756355,0.4572 0.756355,0.920044 0,0.451555 -0.282222,0.897466 -0.592666,1.247421 l -1.083732,1.20791 c -0.06209,0.06209 -0.06209,0.07338 -0.06209,0.208845 h 2.094087 z"
         style="stroke-width:0.264583"
         id="path2796" />
    </g>
    <g
       aria-label="4"
       id="text2002"
       style="font-size:5.64444px;line-height:1.25;font-family:'Latin Modern Math';-inkscape-font-specification:'Latin Modern Math';stroke-width:0.264583">
      <path
         d="m 120.08435,34.276679 v -0.174978 h -0.56444 v -2.56822 c 0,-0.112889 0,-0.146755 -0.0903,-0.146755 -0.0508,0 -0.0677,0 -0.11289,0.06773 l -1.73285,2.647242 v 0.174978 h 1.50142 v 0.491066 c 0,0.2032 -0.0113,0.265289 -0.42897,0.265289 h -0.11854 v 0.174978 c 0.23143,-0.01693 0.52494,-0.01693 0.762,-0.01693 0.23707,0 0.53623,0 0.76765,0.01693 v -0.174978 h -0.11854 c -0.41768,0 -0.42897,-0.06209 -0.42897,-0.265289 v -0.491066 z m -0.9652,-0.174978 h -1.37724 l 1.37724,-2.105376 z"
         style="stroke-width:0.264583"
         id="path2793" />
    </g>
    <g
       aria-label="8"
       id="text2006"
       style="font-size:5.64444px;line-height:1.25;font-family:'Latin Modern Math';-inkscape-font-specification:'Latin Modern Math';stroke-width:0.264583">
      <path
         d="m 143.59268,34.207172 c 0,-0.2032 -0.0621,-0.4572 -0.27658,-0.694267 -0.10724,-0.118533 -0.19756,-0.174977 -0.5588,-0.400755 0.4064,-0.208844 0.68298,-0.502355 0.68298,-0.874888 0,-0.519289 -0.50236,-0.841022 -1.016,-0.841022 -0.56445,0 -1.02165,0.417689 -1.02165,0.942622 0,0.1016 0.0113,0.3556 0.24836,0.620888 0.0621,0.06773 0.27093,0.208845 0.41204,0.3048 -0.32737,0.163689 -0.8128,0.479777 -0.8128,1.038577 0,0.598311 0.57574,0.976488 1.1684,0.976488 0.63783,0 1.17405,-0.468488 1.17405,-1.072443 z m -0.40076,-1.96991 c 0,0.321733 -0.22013,0.592666 -0.5588,0.790222 l -0.69991,-0.451556 c -0.25964,-0.169333 -0.28222,-0.361244 -0.28222,-0.457199 0,-0.344311 0.36689,-0.581378 0.76764,-0.581378 0.41205,0 0.77329,0.293511 0.77329,0.699911 z m 0.11854,2.173109 c 0,0.417689 -0.42334,0.7112 -0.88618,0.7112 -0.48542,0 -0.89182,-0.349955 -0.89182,-0.818444 0,-0.327378 0.18062,-0.688622 0.6604,-0.95391 l 0.69426,0.440266 c 0.15805,0.107244 0.42334,0.276578 0.42334,0.620888 z"
         style="stroke-width:0.264583"
         id="path2790" />
    </g>
    <g
       aria-label="3"
       id="text2010"
       style="font-size:5.64444px;line-height:1.25;font-family:'Latin Modern Math';-inkscape-font-specification:'Latin Modern Math';stroke-width:0.264583">
      <path
         d="m 95.566371,49.613593 c 0,-0.462844 -0.355599,-0.90311 -0.942621,-1.021643 0.462844,-0.1524 0.790221,-0.547511 0.790221,-0.993422 0,-0.462844 -0.49671,-0.778933 -1.038577,-0.778933 -0.570088,0 -0.999065,0.338667 -0.999065,0.767644 0,0.186267 0.124177,0.293511 0.287866,0.293511 0.174978,0 0.287866,-0.124178 0.287866,-0.287866 0,-0.282222 -0.265288,-0.282222 -0.349955,-0.282222 0.174978,-0.276578 0.547511,-0.349956 0.750711,-0.349956 0.231422,0 0.541866,0.124178 0.541866,0.632178 0,0.06773 -0.01129,0.395111 -0.158044,0.643466 -0.169334,0.270933 -0.361245,0.287866 -0.502356,0.293511 -0.04516,0.0056 -0.180622,0.01693 -0.220133,0.01693 -0.04515,0.0056 -0.08467,0.01129 -0.08467,0.06773 0,0.06209 0.03951,0.06209 0.135466,0.06209 h 0.248356 c 0.462844,0 0.671688,0.383822 0.671688,0.936977 0,0.767644 -0.389466,0.931333 -0.637822,0.931333 -0.242711,0 -0.666044,-0.09596 -0.863599,-0.428978 0.197555,0.02822 0.372533,-0.09596 0.372533,-0.310444 0,-0.2032 -0.1524,-0.316088 -0.316089,-0.316088 -0.135466,0 -0.316088,0.07902 -0.316088,0.327377 0,0.513644 0.524933,0.886177 1.140177,0.886177 0.688621,0 1.202265,-0.513644 1.202265,-1.089377 z"
         style="stroke-width:0.264583"
         id="path2809" />
    </g>
    <g
       aria-label="6"
       id="text2014"
       style="font-size:5.64444px;line-height:1.25;font-family:'Latin Modern Math';-inkscape-font-specification:'Latin Modern Math';stroke-width:0.264583">
      <path
         d="m 119.79342,49.733735 c 0,-0.716844 -0.50235,-1.25871 -1.12889,-1.25871 -0.38382,0 -0.59266,0.287866 -0.70555,0.558799 v -0.135466 c 0,-1.428044 0.69991,-1.631244 0.98778,-1.631244 0.13546,0 0.37253,0.03387 0.49671,0.225778 -0.0847,0 -0.31045,0 -0.31045,0.254 0,0.174977 0.13547,0.259644 0.25965,0.259644 0.0903,0 0.25964,-0.0508 0.25964,-0.270933 0,-0.338667 -0.24835,-0.6096 -0.71684,-0.6096 -0.72249,0 -1.48449,0.728133 -1.48449,1.975554 0,1.507066 0.65475,1.907821 1.17969,1.907821 0.62653,0 1.16275,-0.530577 1.16275,-1.275643 z m -0.508,-0.0056 c 0,0.270933 0,0.553155 -0.096,0.756355 -0.16934,0.338667 -0.42898,0.366889 -0.5588,0.366889 -0.3556,0 -0.52494,-0.338667 -0.5588,-0.423333 -0.1016,-0.265289 -0.1016,-0.716844 -0.1016,-0.818444 0,-0.440266 0.18062,-1.00471 0.68862,-1.00471 0.0903,0 0.34995,0 0.52493,0.349955 0.1016,0.208844 0.1016,0.496711 0.1016,0.773288 z"
         style="stroke-width:0.264583"
         id="path2812" />
    </g>
    <g
       aria-label="9"
       id="text2018"
       style="font-size:5.64444px;line-height:1.25;font-family:'Latin Modern Math';-inkscape-font-specification:'Latin Modern Math';stroke-width:0.264583">
      <path
         d="m 119.487,64.024914 c 0,-1.518354 -0.64911,-1.902176 -1.15146,-1.902176 -0.31045,0 -0.58702,0.1016 -0.82974,0.3556 -0.23142,0.254 -0.36124,0.491066 -0.36124,0.914399 0,0.705555 0.49671,1.25871 1.12889,1.25871 0.34431,0 0.57573,-0.237066 0.70555,-0.564444 v 0.180622 c 0,1.320799 -0.58702,1.580443 -0.9144,1.580443 -0.096,0 -0.40075,-0.01129 -0.55315,-0.203199 0.24835,0 0.29351,-0.163689 0.29351,-0.259645 0,-0.174977 -0.13547,-0.259644 -0.25964,-0.259644 -0.0903,0 -0.25965,0.0508 -0.25965,0.270933 0,0.378178 0.3048,0.6096 0.78458,0.6096 0.72813,0 1.41675,-0.767644 1.41675,-1.981199 z m -0.51929,-0.519288 c 0,0.468488 -0.19191,1.015999 -0.68862,1.015999 -0.0903,0 -0.34995,0 -0.52493,-0.3556 -0.1016,-0.208844 -0.1016,-0.491066 -0.1016,-0.767644 0,-0.304799 0,-0.570088 0.11853,-0.778932 0.1524,-0.282222 0.36689,-0.3556 0.56445,-0.3556 0.25964,0 0.44591,0.191911 0.54186,0.445911 0.0677,0.180622 0.0903,0.536222 0.0903,0.795866 z"
         style="stroke-width:0.264583"
         id="path2815" />
    </g>
    <g
       aria-label="5"
       id="text2022"
       style="font-size:5.64444px;line-height:1.25;font-family:'Latin Modern Math';-inkscape-font-specification:'Latin Modern Math';stroke-width:0.264583">
      <path
         d="m 94.924612,65.402142 c 0,-0.671688 -0.462844,-1.236132 -1.072443,-1.236132 -0.270933,0 -0.513644,0.09031 -0.716844,0.287866 V 63.35321 c 0.112889,0.03387 0.299155,0.07338 0.479777,0.07338 0.694266,0 1.089377,-0.513644 1.089377,-0.587022 0,-0.03387 -0.01693,-0.06209 -0.05644,-0.06209 0,0 -0.01693,0 -0.04516,0.01693 -0.112888,0.0508 -0.389466,0.163688 -0.767644,0.163688 -0.225777,0 -0.485421,-0.03951 -0.75071,-0.158044 -0.04516,-0.01693 -0.06773,-0.01693 -0.06773,-0.01693 -0.05644,0 -0.05644,0.04516 -0.05644,0.135466 v 1.670755 c 0,0.1016 0,0.146755 0.07902,0.146755 0.03951,0 0.0508,-0.01693 0.07338,-0.0508 0.06209,-0.09031 0.270933,-0.395111 0.728133,-0.395111 0.293511,0 0.434622,0.259645 0.479777,0.361244 0.09031,0.208845 0.1016,0.428978 0.1016,0.7112 0,0.197555 0,0.536222 -0.135466,0.773288 -0.135467,0.220133 -0.344311,0.366889 -0.603955,0.366889 -0.412045,0 -0.733778,-0.299155 -0.829733,-0.632177 0.01693,0.0056 0.03387,0.01129 0.09595,0.01129 0.186267,0 0.282222,-0.141111 0.282222,-0.276577 0,-0.135467 -0.09596,-0.276578 -0.282222,-0.276578 -0.07902,0 -0.276577,0.03951 -0.276577,0.299156 0,0.485421 0.389466,1.032932 1.021643,1.032932 0.654756,0 1.230488,-0.541866 1.230488,-1.25871 z"
         style="stroke-width:0.264583"
         id="path2818" />
    </g>
    <g
       aria-label="7"
       id="text2026"
       style="font-size:5.64444px;line-height:1.25;font-family:'Latin Modern Math';-inkscape-font-specification:'Latin Modern Math';stroke-width:0.264583">
      <path
         d="m 94.678273,79.352171 h -1.371599 c -0.688622,0 -0.69991,-0.07338 -0.722488,-0.180622 h -0.141111 l -0.186267,1.162754 h 0.141111 c 0.01693,-0.09031 0.06773,-0.44591 0.141111,-0.513644 0.03951,-0.03387 0.479778,-0.03387 0.553155,-0.03387 h 1.1684 l -0.632178,0.891821 c -0.507999,0.762 -0.694266,1.546577 -0.694266,2.12231 0,0.05644 0,0.310444 0.259644,0.310444 0.259645,0 0.259645,-0.254 0.259645,-0.310444 v -0.287867 c 0,-0.310444 0.01693,-0.620888 0.06209,-0.925688 0.02258,-0.129822 0.1016,-0.615244 0.349956,-0.965199 l 0.761999,-1.072444 c 0.0508,-0.06773 0.0508,-0.07902 0.0508,-0.197555 z"
         style="stroke-width:0.264583"
         id="path2821" />
    </g>
    <path
       style="fill:none;stroke:#000000;stroke-width:0.264583px;stroke-linecap:butt;stroke-linejoin:miter;stroke-opacity:1;marker-end:url(#marker2032)"
       d="M 68.41369,52.822173 92.604166,39.309524"
       id="path2028" />
    <path
       style="fill:none;stroke:#000000;stroke-width:0.264583px;stroke-linecap:butt;stroke-linejoin:miter;stroke-opacity:1;marker-end:url(#marker2080)"
       d="M 95.533481,37.986607 H 116.32217"
       id="path2076" />
    <path
       style="fill:none;stroke:#000000;stroke-width:0.264583px;stroke-linecap:butt;stroke-linejoin:miter;stroke-opacity:1;marker-end:url(#marker2134)"
       d="m 119.91295,37.986607 h 20.5052"
       id="path2130" />
    <path
       style="fill:none;stroke:#000000;stroke-width:0.264583px;stroke-linecap:butt;stroke-linejoin:miter;stroke-opacity:1;marker-end:url(#marker2194)"
       d="M 95.344492,39.309524 116.60565,52.916666"
       id="path2190" />
    <path
       style="fill:none;stroke:#000000;stroke-width:0.264583px;stroke-linecap:butt;stroke-linejoin:miter;stroke-opacity:1;marker-end:url(#marker2260)"
       d="M 68.886159,53.861607 H 92.0372"
       id="path2256" />
    <path
       style="fill:none;stroke:#000000;stroke-width:0.264583px;stroke-linecap:butt;stroke-linejoin:miter;stroke-opacity:1;marker-end:url(#marker2332)"
       d="M 68.41369,54.712052 91.848214,69.075148"
       id="path2328" />
    <path
       style="fill:none;stroke:#000000;stroke-width:0.264583px;stroke-linecap:butt;stroke-linejoin:miter;stroke-opacity:1;marker-end:url(#marker2410)"
       d="M 67.846725,54.428572 91.281249,86.556547"
       id="path2406" />
    <g
       aria-label=". . ."
       transform="rotate(90)"
       id="text2492"
       style="font-size:5.64444px;line-height:1.25;font-family:'Latin Modern Math';-inkscape-font-specification:'Latin Modern Math';stroke-width:0.264583">
      <path
         d="m 57.505558,-67.44419 c 0,-0.163689 -0.135467,-0.299155 -0.299155,-0.299155 -0.163689,0 -0.299156,0.135466 -0.299156,0.299155 0,0.163689 0.135467,0.299155 0.299156,0.299155 0.163688,0 0.299155,-0.135466 0.299155,-0.299155 z"
         style="stroke-width:0.264583"
         id="path2802" />
      <path
         d="m 60.948659,-67.44419 c 0,-0.163689 -0.135466,-0.299155 -0.299155,-0.299155 -0.163689,0 -0.299156,0.135466 -0.299156,0.299155 0,0.163689 0.135467,0.299155 0.299156,0.299155 0.163689,0 0.299155,-0.135466 0.299155,-0.299155 z"
         style="stroke-width:0.264583"
         id="path2804" />
      <path
         d="m 64.39176,-67.44419 c 0,-0.163689 -0.135466,-0.299155 -0.299155,-0.299155 -0.163689,0 -0.299155,0.135466 -0.299155,0.299155 0,0.163689 0.135466,0.299155 0.299155,0.299155 0.163689,0 0.299155,-0.135466 0.299155,-0.299155 z"
         style="stroke-width:0.264583"
         id="path2806" />
    </g>
    <path
       style="fill:none;stroke:#000000;stroke-width:0.264583px;stroke-linecap:butt;stroke-linejoin:miter;stroke-opacity:1;marker-end:url(#marker2502)"
       d="M 95.438988,53.9561 H 116.13318"
       id="path2498" />
    <path
       style="fill:none;stroke:#000000;stroke-width:0.264583px;stroke-linecap:butt;stroke-linejoin:miter;stroke-opacity:1;marker-end:url(#marker2592)"
       d="M 94.966516,54.901041 115.9442,69.264135"
       id="path2588" />
    <g
       aria-label="(sample)"
       id="text2686"
       style="font-size:5.64444px;line-height:1.25;font-family:'Latin Modern Math';-inkscape-font-specification:'Latin Modern Math';stroke-width:0.264583">
      <path
         d="m 160.63206,55.999993 c 0,-0.01693 -0.0113,-0.03387 -0.0226,-0.04516 -0.58702,-0.440266 -0.97649,-1.569154 -0.97649,-2.472264 V 53.00844 c 0,-0.903111 0.38947,-2.031999 0.97649,-2.472265 0.0113,-0.01129 0.0226,-0.02822 0.0226,-0.04516 0,-0.02822 -0.0282,-0.05644 -0.0564,-0.05644 -0.0113,0 -0.0226,0.0056 -0.0339,0.01129 -0.62089,0.468488 -1.21356,1.597376 -1.21356,2.562576 v 0.474133 c 0,0.965199 0.59267,2.094087 1.21356,2.562575 0.0113,0.0056 0.0226,0.01129 0.0339,0.01129 0.0282,0 0.0564,-0.02822 0.0564,-0.05644 z"
         style="stroke-width:0.264583"
         id="path2754" />
      <path
         d="m 162.98579,53.934128 c 0,-0.299155 -0.16934,-0.468489 -0.23707,-0.536222 -0.18627,-0.180622 -0.4064,-0.225778 -0.64346,-0.270933 -0.31609,-0.06209 -0.69427,-0.135467 -0.69427,-0.462844 0,-0.197556 0.14675,-0.428978 0.63218,-0.428978 0.62088,0 0.64911,0.508 0.6604,0.682978 0.006,0.0508 0.0677,0.0508 0.0677,0.0508 0.0734,0 0.0734,-0.02822 0.0734,-0.135467 v -0.570088 c 0,-0.09596 0,-0.135467 -0.0621,-0.135467 -0.0282,0 -0.0395,0 -0.11289,0.06773 -0.0169,0.02258 -0.0734,0.07338 -0.096,0.09031 -0.21449,-0.158044 -0.44591,-0.158044 -0.53057,-0.158044 -0.68863,0 -0.90311,0.378178 -0.90311,0.694266 0,0.197556 0.0903,0.3556 0.24271,0.479778 0.18062,0.146755 0.33866,0.180622 0.74506,0.259644 0.12418,0.02258 0.58702,0.112889 0.58702,0.519288 0,0.287867 -0.19755,0.513644 -0.63782,0.513644 -0.47413,0 -0.67733,-0.321733 -0.78457,-0.80151 -0.0169,-0.07338 -0.0226,-0.09596 -0.079,-0.09596 -0.0734,0 -0.0734,0.03951 -0.0734,0.141111 v 0.745066 c 0,0.09596 0,0.135467 0.0621,0.135467 0.0282,0 0.0339,-0.0056 0.14112,-0.112889 0.0113,-0.01129 0.0113,-0.02258 0.11288,-0.129822 0.24836,0.237067 0.50236,0.242711 0.62089,0.242711 0.64911,0 0.90876,-0.378177 0.90876,-0.784577 z"
         style="stroke-width:0.264583"
         id="path2756" />
      <path
         d="m 165.90396,54.154261 v -0.316089 h -0.14111 v 0.316089 c 0,0.327378 -0.14111,0.361244 -0.2032,0.361244 -0.18627,0 -0.20885,-0.254 -0.20885,-0.282222 v -1.128888 c 0,-0.237066 0,-0.457199 -0.2032,-0.666044 -0.22013,-0.220133 -0.50235,-0.310444 -0.77329,-0.310444 -0.46284,0 -0.85231,0.265289 -0.85231,0.637822 0,0.169333 0.11289,0.265288 0.25965,0.265288 0.15804,0 0.25964,-0.112888 0.25964,-0.259644 0,-0.06773 -0.0282,-0.254 -0.28786,-0.259644 0.1524,-0.197555 0.42897,-0.259644 0.6096,-0.259644 0.27657,0 0.59831,0.220133 0.59831,0.722488 v 0.208844 c -0.28787,0.01693 -0.68298,0.03387 -1.03858,0.2032 -0.42333,0.191911 -0.56444,0.485422 -0.56444,0.733777 0,0.4572 0.54751,0.598311 0.90311,0.598311 0.37253,0 0.63217,-0.225778 0.73942,-0.491066 0.0226,0.225777 0.17498,0.462844 0.44026,0.462844 0.11854,0 0.46285,-0.07902 0.46285,-0.536222 z m -0.94262,-0.287866 c 0,0.536221 -0.4064,0.728132 -0.6604,0.728132 -0.27658,0 -0.508,-0.197555 -0.508,-0.479777 0,-0.310444 0.23706,-0.778933 1.1684,-0.812799 z"
         style="stroke-width:0.264583"
         id="path2758" />
      <path
         d="m 170.58883,54.656616 v -0.174977 c -0.29351,0 -0.43462,0 -0.44026,-0.169334 v -1.078088 c 0,-0.485422 0,-0.660399 -0.17498,-0.863599 -0.079,-0.09596 -0.26529,-0.208844 -0.59267,-0.208844 -0.47413,0 -0.72249,0.338666 -0.81844,0.553155 -0.079,-0.491067 -0.49671,-0.553155 -0.75071,-0.553155 -0.41205,0 -0.67733,0.242711 -0.83538,0.592666 v -0.592666 l -0.79587,0.06209 v 0.174978 c 0.39512,0 0.44027,0.03951 0.44027,0.316089 v 1.51271 c 0,0.254 -0.0621,0.254 -0.44027,0.254 v 0.174977 l 0.63783,-0.01693 0.63217,0.01693 v -0.174977 c -0.37817,0 -0.44026,0 -0.44026,-0.254 v -1.038577 c 0,-0.587022 0.40075,-0.903111 0.762,-0.903111 0.3556,0 0.41769,0.3048 0.41769,0.626533 v 1.315155 c 0,0.254 -0.0621,0.254 -0.44027,0.254 v 0.174977 l 0.63782,-0.01693 0.63218,0.01693 v -0.174977 c -0.37818,0 -0.44027,0 -0.44027,-0.254 v -1.038577 c 0,-0.587022 0.40076,-0.903111 0.762,-0.903111 0.3556,0 0.41769,0.3048 0.41769,0.626533 v 1.315155 c 0,0.254 -0.0621,0.254 -0.44027,0.254 v 0.174977 l 0.63783,-0.01693 z"
         style="stroke-width:0.264583"
         id="path2760" />
      <path
         d="m 173.64246,53.437417 c 0,-0.716844 -0.54751,-1.275643 -1.17968,-1.275643 -0.44027,0 -0.67734,0.248355 -0.79022,0.372533 v -0.372533 l -0.8128,0.06209 v 0.174978 c 0.40075,0 0.44026,0.03387 0.44026,0.282222 v 2.641598 c 0,0.254 -0.0621,0.254 -0.44026,0.254 v 0.174978 l 0.63217,-0.01693 0.63783,0.01693 v -0.17498 c -0.37818,0 -0.44027,0 -0.44027,-0.254 v -0.948266 -0.0508 c 0.0282,0.09031 0.26529,0.395111 0.69426,0.395111 0.67169,0 1.25871,-0.553155 1.25871,-1.281288 z m -0.46848,0 c 0,0.682977 -0.39511,1.15711 -0.8128,1.15711 -0.22578,0 -0.44027,-0.112888 -0.59267,-0.34431 -0.079,-0.118534 -0.079,-0.124178 -0.079,-0.237067 v -1.25871 c 0.16369,-0.287867 0.44027,-0.451555 0.72813,-0.451555 0.41205,0 0.75636,0.49671 0.75636,1.134532 z"
         style="stroke-width:0.264583"
         id="path2762" />
      <path
         d="m 175.27935,54.656616 v -0.174977 c -0.37818,0 -0.44026,0 -0.44026,-0.254 v -3.488264 l -0.8128,0.06209 v 0.174977 c 0.39511,0 0.44026,0.03951 0.44026,0.316089 v 2.935109 c 0,0.254 -0.0621,0.254 -0.44026,0.254 v 0.174977 l 0.62653,-0.01693 z"
         style="stroke-width:0.264583"
         id="path2764" />
      <path
         d="m 177.75161,53.984928 c 0,-0.05644 -0.0452,-0.06773 -0.0734,-0.06773 -0.0508,0 -0.0621,0.03387 -0.0734,0.07902 -0.19756,0.581377 -0.70556,0.581377 -0.762,0.581377 -0.28222,0 -0.508,-0.169333 -0.63782,-0.378177 -0.16934,-0.270934 -0.16934,-0.643467 -0.16934,-0.846666 h 1.5748 c 0.12418,0 0.14111,0 0.14111,-0.118534 0,-0.558799 -0.3048,-1.10631 -1.01035,-1.10631 -0.65476,0 -1.17404,0.581377 -1.17404,1.286932 0,0.756355 0.59266,1.303866 1.24177,1.303866 0.68862,0 0.94262,-0.626533 0.94262,-0.733777 z m -0.37253,-0.750711 h -1.33773 c 0.0339,-0.841021 0.508,-0.982132 0.69991,-0.982132 0.58138,0 0.63782,0.761999 0.63782,0.982132 z"
         style="stroke-width:0.264583"
         id="path2766" />
      <path
         d="M 179.54089,53.482573 V 53.00844 c 0,-0.9652 -0.59266,-2.094088 -1.21355,-2.562576 -0.0113,-0.0056 -0.0226,-0.01129 -0.0339,-0.01129 -0.0282,0 -0.0564,0.02822 -0.0564,0.05644 0,0.01693 0.0113,0.03387 0.0226,0.04516 0.58702,0.440266 0.97648,1.569154 0.97648,2.472265 v 0.474133 c 0,0.90311 -0.38946,2.031998 -0.97648,2.472264 -0.0113,0.01129 -0.0226,0.02822 -0.0226,0.04516 0,0.02822 0.0282,0.05644 0.0564,0.05644 0.0113,0 0.0226,-0.0056 0.0339,-0.01129 0.62089,-0.468488 1.21355,-1.597376 1.21355,-2.562575 z"
         style="stroke-width:0.264583"
         id="path2768" />
    </g>
  </g>
</svg>
