<?xml version="1.0" encoding="UTF-8" standalone="no"?>
<svg
   xmlns:dc="http://purl.org/dc/elements/1.1/"
   xmlns:cc="http://creativecommons.org/ns#"
   xmlns:rdf="http://www.w3.org/1999/02/22-rdf-syntax-ns#"
   xmlns:svg="http://www.w3.org/2000/svg"
   xmlns="http://www.w3.org/2000/svg"
   xmlns:sodipodi="http://sodipodi.sourceforge.net/DTD/sodipodi-0.dtd"
   xmlns:inkscape="http://www.inkscape.org/namespaces/inkscape"
   width="189.50948mm"
   height="69.980675mm"
   viewBox="0 0 189.50948 69.980675"
   version="1.1"
   id="svg1203"
   inkscape:version="1.0.1 (3bc2e813f5, 2020-09-07)"
   sodipodi:docname="rootedtree.svg">
  <defs
     id="defs1197">
    <marker
       style="overflow:visible"
       id="marker2586"
       refX="0"
       refY="0"
       orient="auto"
       inkscape:stockid="Arrow1Mend"
       inkscape:isstock="true">
      <path
         transform="matrix(-0.4,0,0,-0.4,-4,0)"
         style="fill:#000000;fill-opacity:1;fill-rule:evenodd;stroke:#000000;stroke-width:1pt;stroke-opacity:1"
         d="M 0,0 5,-5 -12.5,0 5,5 Z"
         id="path2584" />
    </marker>
    <marker
       style="overflow:visible"
       id="marker2514"
       refX="0"
       refY="0"
       orient="auto"
       inkscape:stockid="Arrow1Mend"
       inkscape:isstock="true"
       inkscape:collect="always">
      <path
         transform="matrix(-0.4,0,0,-0.4,-4,0)"
         style="fill:#000000;fill-opacity:1;fill-rule:evenodd;stroke:#000000;stroke-width:1pt;stroke-opacity:1"
         d="M 0,0 5,-5 -12.5,0 5,5 Z"
         id="path2512" />
    </marker>
    <marker
       style="overflow:visible"
       id="marker2448"
       refX="0"
       refY="0"
       orient="auto"
       inkscape:stockid="Arrow1Mend"
       inkscape:isstock="true"
       inkscape:collect="always">
      <path
         transform="matrix(-0.4,0,0,-0.4,-4,0)"
         style="fill:#000000;fill-opacity:1;fill-rule:evenodd;stroke:#000000;stroke-width:1pt;stroke-opacity:1"
         d="M 0,0 5,-5 -12.5,0 5,5 Z"
         id="path2446" />
    </marker>
    <marker
       style="overflow:visible"
       id="marker2388"
       refX="0"
       refY="0"
       orient="auto"
       inkscape:stockid="Arrow1Mend"
       inkscape:isstock="true"
       inkscape:collect="always">
      <path
         transform="matrix(-0.4,0,0,-0.4,-4,0)"
         style="fill:#000000;fill-opacity:1;fill-rule:evenodd;stroke:#000000;stroke-width:1pt;stroke-opacity:1"
         d="M 0,0 5,-5 -12.5,0 5,5 Z"
         id="path2386" />
    </marker>
    <marker
       style="overflow:visible"
       id="marker2334"
       refX="0"
       refY="0"
       orient="auto"
       inkscape:stockid="Arrow1Mend"
       inkscape:isstock="true"
       inkscape:collect="always">
      <path
         transform="matrix(-0.4,0,0,-0.4,-4,0)"
         style="fill:#000000;fill-opacity:1;fill-rule:evenodd;stroke:#000000;stroke-width:1pt;stroke-opacity:1"
         d="M 0,0 5,-5 -12.5,0 5,5 Z"
         id="path2332" />
    </marker>
    <marker
       style="overflow:visible"
       id="marker2213"
       refX="0"
       refY="0"
       orient="auto"
       inkscape:stockid="Arrow1Mend"
       inkscape:isstock="true"
       inkscape:collect="always">
      <path
         transform="matrix(-0.4,0,0,-0.4,-4,0)"
         style="fill:#000000;fill-opacity:1;fill-rule:evenodd;stroke:#000000;stroke-width:1pt;stroke-opacity:1"
         d="M 0,0 5,-5 -12.5,0 5,5 Z"
         id="path2211" />
    </marker>
    <marker
       style="overflow:visible"
       id="marker2171"
       refX="0"
       refY="0"
       orient="auto"
       inkscape:stockid="Arrow1Mend"
       inkscape:isstock="true"
       inkscape:collect="always">
      <path
         transform="matrix(-0.4,0,0,-0.4,-4,0)"
         style="fill:#000000;fill-opacity:1;fill-rule:evenodd;stroke:#000000;stroke-width:1pt;stroke-opacity:1"
         d="M 0,0 5,-5 -12.5,0 5,5 Z"
         id="path2169" />
    </marker>
    <marker
       style="overflow:visible"
       id="marker2135"
       refX="0"
       refY="0"
       orient="auto"
       inkscape:stockid="Arrow1Mend"
       inkscape:isstock="true"
       inkscape:collect="always">
      <path
         transform="matrix(-0.4,0,0,-0.4,-4,0)"
         style="fill:#000000;fill-opacity:1;fill-rule:evenodd;stroke:#000000;stroke-width:1pt;stroke-opacity:1"
         d="M 0,0 5,-5 -12.5,0 5,5 Z"
         id="path2133" />
    </marker>
    <marker
       style="overflow:visible"
       id="marker2105"
       refX="0"
       refY="0"
       orient="auto"
       inkscape:stockid="Arrow1Mend"
       inkscape:isstock="true"
       inkscape:collect="always">
      <path
         transform="matrix(-0.4,0,0,-0.4,-4,0)"
         style="fill:#000000;fill-opacity:1;fill-rule:evenodd;stroke:#000000;stroke-width:1pt;stroke-opacity:1"
         d="M 0,0 5,-5 -12.5,0 5,5 Z"
         id="path2103" />
    </marker>
    <marker
       style="overflow:visible"
       id="Arrow1Mend"
       refX="0"
       refY="0"
       orient="auto"
       inkscape:stockid="Arrow1Mend"
       inkscape:isstock="true"
       inkscape:collect="always">
      <path
         transform="matrix(-0.4,0,0,-0.4,-4,0)"
         style="fill:#000000;fill-opacity:1;fill-rule:evenodd;stroke:#000000;stroke-width:1pt;stroke-opacity:1"
         d="M 0,0 5,-5 -12.5,0 5,5 Z"
         id="path1822" />
    </marker>
  </defs>
  <sodipodi:namedview
     id="base"
     pagecolor="#ffffff"
     bordercolor="#666666"
     borderopacity="1.0"
     inkscape:pageopacity="0.0"
     inkscape:pageshadow="2"
     inkscape:zoom="1.4"
     inkscape:cx="294.38324"
     inkscape:cy="117.06062"
     inkscape:document-units="mm"
     inkscape:current-layer="layer1"
     inkscape:document-rotation="0"
     showgrid="false"
     fit-margin-top="15"
     fit-margin-left="15"
     fit-margin-bottom="15"
     fit-margin-right="15"
     inkscape:window-width="1920"
     inkscape:window-height="1137"
     inkscape:window-x="1432"
     inkscape:window-y="-8"
     inkscape:window-maximized="1" />
  <metadata
     id="metadata1200">
    <rdf:RDF>
      <cc:Work
         rdf:about="">
        <dc:format>image/svg+xml</dc:format>
        <dc:type
           rdf:resource="http://purl.org/dc/dcmitype/StillImage" />
        <dc:title></dc:title>
      </cc:Work>
    </rdf:RDF>
  </metadata>
  <g
     inkscape:label="Layer 1"
     inkscape:groupmode="layer"
     id="layer1"
     transform="translate(-0.99456833,5.1526284)">
    <circle
       style="fill:#d40000;stroke:#aa0000;stroke-width:0.075;stroke-linecap:square;stroke-miterlimit:4;stroke-dasharray:none;stroke-dashoffset:0;stroke-opacity:1;stop-color:#000000"
       id="path833-5-03"
       cx="68.667252"
       cy="43.272236"
       r="1.7412902" />
    <circle
       style="fill:#000000;stroke:#000000;stroke-width:0.0751274;stroke-linecap:square;stroke-miterlimit:4;stroke-dasharray:none;stroke-dashoffset:0;stroke-opacity:1;stop-color:#000000"
       id="path833-5-03-5"
       cx="39.956795"
       cy="28.063301"
       r="1.7412902" />
    <circle
       style="fill:#000000;stroke:#000000;stroke-width:0.0751274;stroke-linecap:square;stroke-miterlimit:4;stroke-dasharray:none;stroke-dashoffset:0;stroke-opacity:1;stop-color:#000000"
       id="path833-5-03-3"
       cx="17.773422"
       cy="38.620445"
       r="1.7412902" />
    <circle
       style="fill:#000000;stroke:#000000;stroke-width:0.0751274;stroke-linecap:square;stroke-miterlimit:4;stroke-dasharray:none;stroke-dashoffset:0;stroke-opacity:1;stop-color:#000000"
       id="path833-5-03-9"
       cx="85.25898"
       cy="29.800552"
       r="1.7412902" />
    <circle
       style="fill:#000000;stroke:#000000;stroke-width:0.0751274;stroke-linecap:square;stroke-miterlimit:4;stroke-dasharray:none;stroke-dashoffset:0;stroke-opacity:1;stop-color:#000000"
       id="path833-5-03-8"
       cx="84.724457"
       cy="11.626225"
       r="1.7412902" />
    <circle
       style="fill:#000000;stroke:#000000;stroke-width:0.0751274;stroke-linecap:square;stroke-miterlimit:4;stroke-dasharray:none;stroke-dashoffset:0;stroke-opacity:1;stop-color:#000000"
       id="path833-5-03-83"
       cx="102.76513"
       cy="22.049736"
       r="1.7412902" />
    <path
       style="fill:none;stroke:#000000;stroke-width:0.264583px;stroke-linecap:butt;stroke-linejoin:miter;stroke-opacity:1;marker-end:url(#Arrow1Mend)"
       d="M 66.922747,42.48318 41.577381,29.104166"
       id="path1811"
       sodipodi:nodetypes="cc" />
    <path
       style="fill:none;stroke:#000000;stroke-width:0.264583px;stroke-linecap:butt;stroke-linejoin:miter;stroke-opacity:1;marker-end:url(#marker2105)"
       d="M 70.091434,41.894498 83.989449,31.203717"
       id="path2101" />
    <path
       style="fill:none;stroke:#000000;stroke-width:0.264583px;stroke-linecap:butt;stroke-linejoin:miter;stroke-opacity:1;marker-end:url(#marker2135)"
       d="M 38.553628,28.86511 19.577493,37.751821"
       id="path2131" />
    <path
       style="fill:none;stroke:#000000;stroke-width:0.264583px;stroke-linecap:butt;stroke-linejoin:miter;stroke-opacity:1;marker-end:url(#marker2171)"
       d="M 85.125345,28.263752 84.72444,13.497111"
       id="path2167" />
    <path
       style="fill:none;stroke:#000000;stroke-width:0.264583px;stroke-linecap:butt;stroke-linejoin:miter;stroke-opacity:1;marker-end:url(#marker2213)"
       d="M 86.662142,29.33283 101.02788,23.051996"
       id="path2209" />
    <g
       aria-label="Root"
       id="text2259"
       style="font-size:5.64444px;line-height:1.25;font-family:'Latin Modern Roman';-inkscape-font-specification:'Latin Modern Roman, ';stroke-width:0.264583">
      <path
         d="m 66.403306,49.207154 c 0,-0.03387 0,-0.09596 -0.07338,-0.09596 -0.06209,0 -0.06209,0.0508 -0.06773,0.09031 -0.03387,0.400755 -0.231422,0.502355 -0.372533,0.502355 -0.276577,0 -0.321733,-0.287866 -0.400755,-0.812799 l -0.07338,-0.451556 c -0.1016,-0.361244 -0.378177,-0.54751 -0.688622,-0.654755 0.547511,-0.135466 0.987777,-0.479777 0.987777,-0.920043 0,-0.541867 -0.643466,-1.016 -1.473198,-1.016 H 62.46913 v 0.174978 h 0.135467 c 0.434622,0 0.445911,0.06209 0.445911,0.265289 v 2.97462 c 0,0.2032 -0.01129,0.265288 -0.445911,0.265288 H 62.46913 v 0.174978 c 0.2032,-0.01693 0.603955,-0.01693 0.824089,-0.01693 0.220133,0 0.620888,0 0.824088,0.01693 V 49.528881 H 63.98184 c -0.434622,0 -0.44591,-0.06209 -0.44591,-0.265288 v -1.428044 h 0.64911 c 0.09031,0 0.327378,0 0.524933,0.191911 0.214489,0.2032 0.214489,0.378178 0.214489,0.756355 0,0.366889 0,0.592667 0.231422,0.807155 0.231422,0.2032 0.541866,0.237067 0.711199,0.237067 0.440267,0 0.536222,-0.462844 0.536222,-0.620889 z m -1.269999,-2.342442 c 0,0.389466 -0.135466,0.846666 -0.970844,0.846666 h -0.626532 v -1.46191 c 0,-0.129822 0,-0.197556 0.124177,-0.214489 0.05644,-0.01129 0.220133,-0.01129 0.333022,-0.01129 0.508,0 1.140177,0.02258 1.140177,0.841022 z"
         style="font-size:5.64444px;stroke-width:0.264583"
         id="path2669" />
      <path
         d="m 69.084405,48.495955 c 0,-0.722488 -0.564444,-1.320799 -1.247422,-1.320799 -0.705555,0 -1.253065,0.615244 -1.253065,1.320799 0,0.728133 0.587021,1.269999 1.247421,1.269999 0.682977,0 1.253066,-0.553155 1.253066,-1.269999 z m -0.468489,-0.04516 c 0,0.2032 0,0.508 -0.124178,0.756355 -0.124177,0.254 -0.372533,0.417689 -0.654755,0.417689 -0.242711,0 -0.491066,-0.118533 -0.643466,-0.378178 -0.141111,-0.248355 -0.141111,-0.592666 -0.141111,-0.795866 0,-0.220133 0,-0.524933 0.135467,-0.773288 0.1524,-0.259644 0.417688,-0.378177 0.643466,-0.378177 0.248355,0 0.491066,0.124177 0.637822,0.366888 0.146755,0.242711 0.146755,0.570089 0.146755,0.784577 z"
         style="font-size:5.64444px;stroke-width:0.264583"
         id="path2671" />
      <path
         d="m 72.064657,48.495955 c 0,-0.722488 -0.564444,-1.320799 -1.247421,-1.320799 -0.705555,0 -1.253066,0.615244 -1.253066,1.320799 0,0.728133 0.587022,1.269999 1.247422,1.269999 0.682977,0 1.253065,-0.553155 1.253065,-1.269999 z m -0.468488,-0.04516 c 0,0.2032 0,0.508 -0.124178,0.756355 -0.124178,0.254 -0.372533,0.417689 -0.654755,0.417689 -0.242711,0 -0.491066,-0.118533 -0.643466,-0.378178 -0.141111,-0.248355 -0.141111,-0.592666 -0.141111,-0.795866 0,-0.220133 0,-0.524933 0.135466,-0.773288 0.1524,-0.259644 0.417689,-0.378177 0.643467,-0.378177 0.248355,0 0.491066,0.124177 0.637821,0.366888 0.146756,0.242711 0.146756,0.570089 0.146756,0.784577 z"
         style="font-size:5.64444px;stroke-width:0.264583"
         id="path2673" />
      <path
         d="m 74.10229,49.003954 v -0.321733 h -0.141111 v 0.310445 c 0,0.417688 -0.169334,0.632177 -0.378178,0.632177 -0.378177,0 -0.378177,-0.513644 -0.378177,-0.6096 v -1.569154 h 0.807154 v -0.174978 h -0.807154 v -1.038577 h -0.141111 c -0.0056,0.462844 -0.174978,1.0668 -0.728133,1.089377 v 0.124178 h 0.479777 v 1.557865 c 0,0.694267 0.524933,0.762 0.728133,0.762 0.400755,0 0.5588,-0.400755 0.5588,-0.762 z"
         style="font-size:5.64444px;stroke-width:0.264583"
         id="path2675" />
    </g>
    <circle
       style="fill:#aa0000;stroke:#aa0000;stroke-width:0.0751274;stroke-linecap:square;stroke-miterlimit:4;stroke-dasharray:none;stroke-dashoffset:0;stroke-opacity:1;stop-color:#000000"
       id="path833-5-03-83-8"
       cx="157.15448"
       cy="12.294396"
       r="1.7412902" />
    <circle
       style="fill:#000000;stroke:#000000;stroke-width:0.0751274;stroke-linecap:square;stroke-miterlimit:4;stroke-dasharray:none;stroke-dashoffset:0;stroke-opacity:1;stop-color:#000000"
       id="path833-5-03-83-7"
       cx="148.33459"
       cy="26.860588"
       r="1.7412902" />
    <circle
       style="fill:#000000;stroke:#000000;stroke-width:0.0751274;stroke-linecap:square;stroke-miterlimit:4;stroke-dasharray:none;stroke-dashoffset:0;stroke-opacity:1;stop-color:#000000"
       id="path833-5-03-83-9"
       cx="140.85104"
       cy="42.62949"
       r="1.7412902" />
    <circle
       style="fill:#000000;stroke:#000000;stroke-width:0.0751274;stroke-linecap:square;stroke-miterlimit:4;stroke-dasharray:none;stroke-dashoffset:0;stroke-opacity:1;stop-color:#000000"
       id="path833-5-03-83-92"
       cx="165.43983"
       cy="26.593319"
       r="1.7412902" />
    <circle
       style="fill:#000000;stroke:#000000;stroke-width:0.0751274;stroke-linecap:square;stroke-miterlimit:4;stroke-dasharray:none;stroke-dashoffset:0;stroke-opacity:1;stop-color:#000000"
       id="path833-5-03-83-1"
       cx="157.28812"
       cy="42.62949"
       r="1.7412902" />
    <circle
       style="fill:#000000;stroke:#000000;stroke-width:0.0751274;stroke-linecap:square;stroke-miterlimit:4;stroke-dasharray:none;stroke-dashoffset:0;stroke-opacity:1;stop-color:#000000"
       id="path833-5-03-83-10"
       cx="173.72519"
       cy="42.362221"
       r="1.7412902" />
    <g
       aria-label="Root"
       id="text2259-7"
       style="font-size:5.64444px;line-height:1.25;font-family:'Latin Modern Roman';-inkscape-font-specification:'Latin Modern Roman, ';stroke-width:0.264583">
      <path
         d="m 166.41148,13.464015 c 0,-0.03387 0,-0.09596 -0.0734,-0.09596 -0.0621,0 -0.0621,0.0508 -0.0677,0.09031 -0.0339,0.400755 -0.23142,0.502355 -0.37253,0.502355 -0.27658,0 -0.32173,-0.287867 -0.40075,-0.8128 l -0.0734,-0.451555 c -0.1016,-0.361244 -0.37818,-0.547511 -0.68862,-0.654755 0.54751,-0.135466 0.98777,-0.479777 0.98777,-0.920044 0,-0.541866 -0.64346,-1.015999 -1.4732,-1.015999 h -1.77235 v 0.174978 h 0.13547 c 0.43462,0 0.44591,0.06209 0.44591,0.265288 v 2.97462 c 0,0.2032 -0.0113,0.265289 -0.44591,0.265289 h -0.13547 v 0.174978 c 0.2032,-0.01693 0.60396,-0.01693 0.82409,-0.01693 0.22013,0 0.62089,0 0.82409,0.01693 v -0.174978 h -0.13547 c -0.43462,0 -0.44591,-0.06209 -0.44591,-0.265289 V 12.09241 h 0.64911 c 0.0903,0 0.32738,0 0.52493,0.191911 0.21449,0.2032 0.21449,0.378178 0.21449,0.756355 0,0.366889 0,0.592666 0.23142,0.807155 0.23143,0.2032 0.54187,0.237066 0.7112,0.237066 0.44027,0 0.53622,-0.462844 0.53622,-0.620888 z m -1.26999,-2.342443 c 0,0.389467 -0.13547,0.846666 -0.97085,0.846666 h -0.62653 v -1.46191 c 0,-0.129822 0,-0.197555 0.12418,-0.214488 0.0564,-0.01129 0.22013,-0.01129 0.33302,-0.01129 0.508,0 1.14018,0.02258 1.14018,0.841022 z"
         style="font-size:5.64444px;stroke-width:0.264583"
         id="path2660" />
      <path
         d="m 169.09258,12.752816 c 0,-0.722489 -0.56444,-1.320799 -1.24742,-1.320799 -0.70555,0 -1.25306,0.615244 -1.25306,1.320799 0,0.728132 0.58702,1.269999 1.24742,1.269999 0.68297,0 1.25306,-0.553156 1.25306,-1.269999 z m -0.46849,-0.04516 c 0,0.2032 0,0.508 -0.12417,0.756355 -0.12418,0.254 -0.37254,0.417689 -0.65476,0.417689 -0.24271,0 -0.49106,-0.118534 -0.64346,-0.378178 -0.14112,-0.248355 -0.14112,-0.592666 -0.14112,-0.795866 0,-0.220133 0,-0.524933 0.13547,-0.773288 0.1524,-0.259644 0.41769,-0.378178 0.64347,-0.378178 0.24835,0 0.49106,0.124178 0.63782,0.366889 0.14675,0.242711 0.14675,0.570088 0.14675,0.784577 z"
         style="font-size:5.64444px;stroke-width:0.264583"
         id="path2662" />
      <path
         d="m 172.07284,12.752816 c 0,-0.722489 -0.56445,-1.320799 -1.24743,-1.320799 -0.70555,0 -1.25306,0.615244 -1.25306,1.320799 0,0.728132 0.58702,1.269999 1.24742,1.269999 0.68298,0 1.25307,-0.553156 1.25307,-1.269999 z m -0.46849,-0.04516 c 0,0.2032 0,0.508 -0.12418,0.756355 -0.12418,0.254 -0.37253,0.417689 -0.65476,0.417689 -0.24271,0 -0.49106,-0.118534 -0.64346,-0.378178 -0.14111,-0.248355 -0.14111,-0.592666 -0.14111,-0.795866 0,-0.220133 0,-0.524933 0.13546,-0.773288 0.1524,-0.259644 0.41769,-0.378178 0.64347,-0.378178 0.24836,0 0.49107,0.124178 0.63782,0.366889 0.14676,0.242711 0.14676,0.570088 0.14676,0.784577 z"
         style="font-size:5.64444px;stroke-width:0.264583"
         id="path2664" />
      <path
         d="m 174.11047,13.260815 v -0.321733 h -0.14111 v 0.310444 c 0,0.417689 -0.16934,0.632178 -0.37818,0.632178 -0.37818,0 -0.37818,-0.513644 -0.37818,-0.6096 V 11.70295 h 0.80716 V 11.527972 H 173.213 v -1.038577 h -0.14111 c -0.006,0.462844 -0.17498,1.066799 -0.72813,1.089377 v 0.124178 h 0.47978 v 1.557865 c 0,0.694266 0.52493,0.762 0.72813,0.762 0.40075,0 0.5588,-0.400756 0.5588,-0.762 z"
         style="font-size:5.64444px;stroke-width:0.264583"
         id="path2666" />
    </g>
    <path
       style="fill:none;stroke:#000000;stroke-width:0.264583px;stroke-linecap:butt;stroke-linejoin:miter;stroke-opacity:1;marker-end:url(#marker2334)"
       d="m 158.04129,13.890625 6.28386,11.10305"
       id="path2330" />
    <path
       style="fill:none;stroke:#000000;stroke-width:0.264583px;stroke-linecap:butt;stroke-linejoin:miter;stroke-opacity:1;marker-end:url(#marker2388)"
       d="m 156.10416,13.890625 -6.61458,11.244791"
       id="path2384" />
    <path
       style="fill:none;stroke:#000000;stroke-width:0.264583px;stroke-linecap:butt;stroke-linejoin:miter;stroke-opacity:1;marker-end:url(#marker2448)"
       d="M 147.50521,28.111979 141.45759,40.77418"
       id="path2444" />
    <path
       style="fill:none;stroke:#000000;stroke-width:0.264583px;stroke-linecap:butt;stroke-linejoin:miter;stroke-opacity:1;marker-end:url(#marker2514)"
       d="m 164.79762,28.017486 -6.61459,12.898437"
       id="path2510" />
    <path
       style="fill:none;stroke:#000000;stroke-width:0.264583px;stroke-linecap:butt;stroke-linejoin:miter;stroke-opacity:1;marker-end:url(#marker2586)"
       d="m 166.64025,27.78125 6.09487,12.99293"
       id="path2582" />
  </g>
</svg>
