<?xml version="1.0" encoding="UTF-8" standalone="no"?>
<svg
   xmlns:dc="http://purl.org/dc/elements/1.1/"
   xmlns:cc="http://creativecommons.org/ns#"
   xmlns:rdf="http://www.w3.org/1999/02/22-rdf-syntax-ns#"
   xmlns:svg="http://www.w3.org/2000/svg"
   xmlns="http://www.w3.org/2000/svg"
   xmlns:sodipodi="http://sodipodi.sourceforge.net/DTD/sodipodi-0.dtd"
   xmlns:inkscape="http://www.inkscape.org/namespaces/inkscape"
   width="167.02844mm"
   height="71.501625mm"
   viewBox="0 0 167.02845 71.501625"
   version="1.1"
   id="svg1203"
   inkscape:version="1.0.1 (3bc2e813f5, 2020-09-07)"
   sodipodi:docname="treelabels.svg">
  <defs
     id="defs1197">
    <marker
       style="overflow:visible"
       id="marker2586"
       refX="0"
       refY="0"
       orient="auto"
       inkscape:stockid="Arrow1Mend"
       inkscape:isstock="true">
      <path
         transform="matrix(-0.4,0,0,-0.4,-4,0)"
         style="fill:#000000;fill-opacity:1;fill-rule:evenodd;stroke:#000000;stroke-width:1pt;stroke-opacity:1"
         d="M 0,0 5,-5 -12.5,0 5,5 Z"
         id="path2584" />
    </marker>
    <marker
       style="overflow:visible"
       id="marker2514"
       refX="0"
       refY="0"
       orient="auto"
       inkscape:stockid="Arrow1Mend"
       inkscape:isstock="true"
       inkscape:collect="always">
      <path
         transform="matrix(-0.4,0,0,-0.4,-4,0)"
         style="fill:#000000;fill-opacity:1;fill-rule:evenodd;stroke:#000000;stroke-width:1pt;stroke-opacity:1"
         d="M 0,0 5,-5 -12.5,0 5,5 Z"
         id="path2512" />
    </marker>
    <marker
       style="overflow:visible"
       id="marker2448"
       refX="0"
       refY="0"
       orient="auto"
       inkscape:stockid="Arrow1Mend"
       inkscape:isstock="true"
       inkscape:collect="always">
      <path
         transform="matrix(-0.4,0,0,-0.4,-4,0)"
         style="fill:#000000;fill-opacity:1;fill-rule:evenodd;stroke:#000000;stroke-width:1pt;stroke-opacity:1"
         d="M 0,0 5,-5 -12.5,0 5,5 Z"
         id="path2446" />
    </marker>
    <marker
       style="overflow:visible"
       id="marker2388"
       refX="0"
       refY="0"
       orient="auto"
       inkscape:stockid="Arrow1Mend"
       inkscape:isstock="true"
       inkscape:collect="always">
      <path
         transform="matrix(-0.4,0,0,-0.4,-4,0)"
         style="fill:#000000;fill-opacity:1;fill-rule:evenodd;stroke:#000000;stroke-width:1pt;stroke-opacity:1"
         d="M 0,0 5,-5 -12.5,0 5,5 Z"
         id="path2386" />
    </marker>
    <marker
       style="overflow:visible"
       id="marker2334"
       refX="0"
       refY="0"
       orient="auto"
       inkscape:stockid="Arrow1Mend"
       inkscape:isstock="true"
       inkscape:collect="always">
      <path
         transform="matrix(-0.4,0,0,-0.4,-4,0)"
         style="fill:#000000;fill-opacity:1;fill-rule:evenodd;stroke:#000000;stroke-width:1pt;stroke-opacity:1"
         d="M 0,0 5,-5 -12.5,0 5,5 Z"
         id="path2332" />
    </marker>
  </defs>
  <sodipodi:namedview
     id="base"
     pagecolor="#ffffff"
     bordercolor="#666666"
     borderopacity="1.0"
     inkscape:pageopacity="0.0"
     inkscape:pageshadow="2"
     inkscape:zoom="1.4142136"
     inkscape:cx="361.19542"
     inkscape:cy="196.69896"
     inkscape:document-units="mm"
     inkscape:current-layer="layer1"
     inkscape:document-rotation="0"
     showgrid="false"
     fit-margin-top="15"
     fit-margin-left="15"
     fit-margin-bottom="15"
     fit-margin-right="15"
     inkscape:window-width="1920"
     inkscape:window-height="1137"
     inkscape:window-x="1432"
     inkscape:window-y="-8"
     inkscape:window-maximized="1" />
  <metadata
     id="metadata1200">
    <rdf:RDF>
      <cc:Work
         rdf:about="">
        <dc:format>image/svg+xml</dc:format>
        <dc:type
           rdf:resource="http://purl.org/dc/dcmitype/StillImage" />
        <dc:title></dc:title>
      </cc:Work>
    </rdf:RDF>
  </metadata>
  <g
     inkscape:label="Layer 1"
     inkscape:groupmode="layer"
     id="layer1"
     transform="translate(3.7270732,11.881545)">
    <circle
       style="fill:#aa0000;stroke:#aa0000;stroke-width:0.0751274;stroke-linecap:square;stroke-miterlimit:4;stroke-dasharray:none;stroke-dashoffset:0;stroke-opacity:1;stop-color:#000000"
       id="path833-5-03-83-8"
       cx="33.99094"
       cy="6.0577893"
       r="1.7412902" />
    <circle
       style="fill:#000000;stroke:#000000;stroke-width:0.0751274;stroke-linecap:square;stroke-miterlimit:4;stroke-dasharray:none;stroke-dashoffset:0;stroke-opacity:1;stop-color:#000000"
       id="path833-5-03-83-7"
       cx="24.666155"
       cy="23.384117"
       r="1.7412902" />
    <circle
       style="fill:#000000;stroke:#000000;stroke-width:0.0751274;stroke-linecap:square;stroke-miterlimit:4;stroke-dasharray:none;stroke-dashoffset:0;stroke-opacity:1;stop-color:#000000"
       id="path833-5-03-83-9"
       cx="16.514429"
       cy="42.159798"
       r="1.7412902" />
    <circle
       style="fill:#000000;stroke:#000000;stroke-width:0.0751274;stroke-linecap:square;stroke-miterlimit:4;stroke-dasharray:none;stroke-dashoffset:0;stroke-opacity:1;stop-color:#000000"
       id="path833-5-03-83-92"
       cx="42.50639"
       cy="24.119108"
       r="1.7412902" />
    <circle
       style="fill:#000000;stroke:#000000;stroke-width:0.0751274;stroke-linecap:square;stroke-miterlimit:4;stroke-dasharray:none;stroke-dashoffset:0;stroke-opacity:1;stop-color:#000000"
       id="path833-5-03-83-1"
       cx="33.619678"
       cy="42.159798"
       r="1.7412902" />
    <circle
       style="fill:#000000;stroke:#000000;stroke-width:0.0751274;stroke-linecap:square;stroke-miterlimit:4;stroke-dasharray:none;stroke-dashoffset:0;stroke-opacity:1;stop-color:#000000"
       id="path833-5-03-83-10"
       cx="50.858562"
       cy="42.026165"
       r="1.7412902" />
    <path
       style="fill:none;stroke:#000000;stroke-width:0.264583px;stroke-linecap:butt;stroke-linejoin:miter;stroke-opacity:1;marker-end:url(#marker2334)"
       d="M 35.241478,7.4073718 41.667079,22.101195"
       id="path2330"
       sodipodi:nodetypes="cc" />
    <path
       style="fill:none;stroke:#000000;stroke-width:0.264583px;stroke-linecap:butt;stroke-linejoin:miter;stroke-opacity:1;marker-end:url(#marker2388)"
       d="M 32.940618,7.5595235 25.806321,21.497394"
       id="path2384"
       sodipodi:nodetypes="cc" />
    <path
       style="fill:none;stroke:#000000;stroke-width:0.264583px;stroke-linecap:butt;stroke-linejoin:miter;stroke-opacity:1;marker-end:url(#marker2448)"
       d="M 24.170859,24.501873 17.461781,40.093389"
       id="path2444"
       sodipodi:nodetypes="cc" />
    <path
       style="fill:none;stroke:#000000;stroke-width:0.264583px;stroke-linecap:butt;stroke-linejoin:miter;stroke-opacity:1;marker-end:url(#marker2514)"
       d="M 41.596904,25.610093 34.651585,40.114929"
       id="path2510"
       sodipodi:nodetypes="cc" />
    <path
       style="fill:none;stroke:#000000;stroke-width:0.264583px;stroke-linecap:butt;stroke-linejoin:miter;stroke-opacity:1;marker-end:url(#marker2586)"
       d="m 43.050094,25.22401 6.898069,14.693823"
       id="path2582"
       sodipodi:nodetypes="cc" />
    <g
       aria-label="1"
       id="text2970"
       style="font-size:5.64444px;line-height:1.25;font-family:'Latin Modern Roman';-inkscape-font-specification:'Latin Modern Roman, ';stroke-width:0.264583">
      <path
         d="M 30.630563,7.9820447 V 7.8070671 h -0.180622 c -0.507999,0 -0.524933,-0.062089 -0.524933,-0.2709332 V 4.369603 c 0,-0.1354666 0,-0.1467555 -0.129822,-0.1467555 -0.349955,0.3612442 -0.846666,0.3612442 -1.027288,0.3612442 v 0.1749777 c 0.112889,0 0.445911,0 0.739422,-0.1467555 v 2.92382 c 0,0.2031999 -0.01693,0.2709332 -0.524933,0.2709332 h -0.180622 v 0.1749776 c 0.197555,-0.016933 0.688622,-0.016933 0.914399,-0.016933 0.225778,0 0.716844,0 0.914399,0.016933 z"
         style="stroke-width:0.264583"
         id="path3112" />
    </g>
    <g
       aria-label="2"
       id="text2978"
       style="font-size:5.64444px;line-height:1.25;font-family:'Latin Modern Roman';-inkscape-font-specification:'Latin Modern Roman, ';stroke-width:0.264583">
      <path
         d="m 21.652878,24.292322 h -0.141111 c -0.02822,0.169333 -0.06773,0.417688 -0.124177,0.502355 -0.03951,0.04516 -0.412045,0.04516 -0.536222,0.04516 h -1.016 l 0.598311,-0.581377 c 0.880533,-0.778933 1.219199,-1.083733 1.219199,-1.648177 0,-0.643466 -0.507999,-1.095021 -1.196621,-1.095021 -0.637822,0 -1.05551,0.519288 -1.05551,1.021644 0,0.316088 0.282222,0.316088 0.299155,0.316088 0.09596,0 0.293511,-0.06773 0.293511,-0.299155 0,-0.146755 -0.1016,-0.293511 -0.299156,-0.293511 -0.04516,0 -0.05644,0 -0.07338,0.0056 0.129822,-0.366889 0.434622,-0.575733 0.761999,-0.575733 0.513644,0 0.756355,0.457199 0.756355,0.920043 0,0.451556 -0.282222,0.897466 -0.592666,1.247422 l -1.083733,1.20791 c -0.06209,0.06209 -0.06209,0.07338 -0.06209,0.208844 h 2.094087 z"
         style="stroke-width:0.264583"
         id="path3109" />
    </g>
    <g
       aria-label="3"
       id="text2982"
       style="font-size:5.64444px;line-height:1.25;font-family:'Latin Modern Roman';-inkscape-font-specification:'Latin Modern Roman, ';stroke-width:0.264583">
      <path
         d="m 39.888137,24.970714 c 0,-0.462844 -0.355599,-0.903111 -0.942621,-1.021644 0.462844,-0.1524 0.790221,-0.547511 0.790221,-0.993421 0,-0.462844 -0.49671,-0.778933 -1.038577,-0.778933 -0.570088,0 -0.999066,0.338666 -0.999066,0.767644 0,0.186266 0.124178,0.293511 0.287867,0.293511 0.174978,0 0.287866,-0.124178 0.287866,-0.287867 0,-0.282222 -0.265288,-0.282222 -0.349955,-0.282222 0.174978,-0.276577 0.547511,-0.349955 0.750711,-0.349955 0.231422,0 0.541866,0.124178 0.541866,0.632177 0,0.06773 -0.01129,0.395111 -0.158044,0.643466 -0.169334,0.270934 -0.361245,0.287867 -0.502356,0.293511 -0.04516,0.0056 -0.180622,0.01693 -0.220133,0.01693 -0.04515,0.0056 -0.08467,0.01129 -0.08467,0.06773 0,0.06209 0.03951,0.06209 0.135466,0.06209 h 0.248356 c 0.462844,0 0.671688,0.383822 0.671688,0.936977 0,0.767644 -0.389466,0.931332 -0.637822,0.931332 -0.242711,0 -0.666044,-0.09596 -0.863599,-0.428977 0.197555,0.02822 0.372533,-0.09596 0.372533,-0.310444 0,-0.2032 -0.1524,-0.316089 -0.316089,-0.316089 -0.135466,0 -0.316088,0.07902 -0.316088,0.327378 0,0.513644 0.524933,0.886177 1.140176,0.886177 0.688622,0 1.202266,-0.513644 1.202266,-1.089377 z"
         style="stroke-width:0.264583"
         id="path3115" />
    </g>
    <g
       aria-label="4"
       id="text2986"
       style="font-size:5.64444px;line-height:1.25;font-family:'Latin Modern Roman';-inkscape-font-specification:'Latin Modern Roman, ';stroke-width:0.264583">
      <path
         d="M 13.773414,42.996245 V 42.821268 H 13.20897 v -2.568221 c 0,-0.112888 0,-0.146755 -0.09031,-0.146755 -0.0508,0 -0.06773,0 -0.112889,0.06773 l -1.732843,2.647243 v 0.174977 h 1.501421 v 0.491067 c 0,0.203199 -0.01129,0.265288 -0.428978,0.265288 h -0.118533 v 0.174978 c 0.231422,-0.01693 0.524933,-0.01693 0.762,-0.01693 0.237066,0 0.536221,0 0.767643,0.01693 V 43.7526 h -0.118533 c -0.417688,0 -0.428977,-0.06209 -0.428977,-0.265288 v -0.491067 z m -0.965199,-0.174977 h -1.377244 l 1.377244,-2.105376 z"
         style="stroke-width:0.264583"
         id="path3121" />
    </g>
    <g
       aria-label="5"
       id="text2990"
       style="font-size:5.64444px;line-height:1.25;font-family:'Latin Modern Roman';-inkscape-font-specification:'Latin Modern Roman, ';stroke-width:0.264583">
      <path
         d="m 30.9133,42.793045 c 0,-0.671688 -0.462844,-1.236132 -1.072444,-1.236132 -0.270933,0 -0.513644,0.09031 -0.716844,0.287867 v -1.100666 c 0.112889,0.03387 0.299156,0.07338 0.479778,0.07338 0.694266,0 1.089377,-0.513644 1.089377,-0.587021 0,-0.03387 -0.01693,-0.06209 -0.05645,-0.06209 0,0 -0.01693,0 -0.04515,0.01693 -0.112889,0.0508 -0.389467,0.163689 -0.767644,0.163689 -0.225778,0 -0.485422,-0.03951 -0.750711,-0.158044 -0.04516,-0.01693 -0.06773,-0.01693 -0.06773,-0.01693 -0.05644,0 -0.05644,0.04516 -0.05644,0.135467 v 1.670754 c 0,0.1016 0,0.146756 0.07902,0.146756 0.03951,0 0.0508,-0.01693 0.07338,-0.0508 0.06209,-0.09031 0.270933,-0.395111 0.728132,-0.395111 0.293511,0 0.434622,0.259644 0.479778,0.361244 0.09031,0.208844 0.1016,0.428977 0.1016,0.711199 0,0.197556 0,0.536222 -0.135467,0.773289 -0.135466,0.220133 -0.344311,0.366888 -0.603955,0.366888 -0.412044,0 -0.733777,-0.299155 -0.829733,-0.632177 0.01693,0.0056 0.03387,0.01129 0.09596,0.01129 0.186266,0 0.282222,-0.141111 0.282222,-0.276578 0,-0.135466 -0.09596,-0.276577 -0.282222,-0.276577 -0.07902,0 -0.276578,0.03951 -0.276578,0.299155 0,0.485422 0.389467,1.032933 1.021644,1.032933 0.654755,0 1.230488,-0.541867 1.230488,-1.258711 z"
         style="stroke-width:0.264583"
         id="path3118" />
    </g>
    <g
       aria-label="6"
       id="text2994"
       style="font-size:5.64444px;line-height:1.25;font-family:'Latin Modern Roman';-inkscape-font-specification:'Latin Modern Roman, ';stroke-width:0.264583">
      <path
         d="m 47.561057,42.445382 c 0,-0.716844 -0.502355,-1.25871 -1.128888,-1.25871 -0.383821,0 -0.592666,0.287866 -0.705555,0.558799 v -0.135466 c 0,-1.428044 0.699911,-1.631244 0.987777,-1.631244 0.135467,0 0.372533,0.03387 0.496711,0.225778 -0.08467,0 -0.310444,0 -0.310444,0.254 0,0.174977 0.135467,0.259644 0.259644,0.259644 0.09031,0 0.259644,-0.0508 0.259644,-0.270933 0,-0.338666 -0.248355,-0.6096 -0.716843,-0.6096 -0.722489,0 -1.484488,0.728133 -1.484488,1.975554 0,1.507066 0.654755,1.907821 1.179688,1.907821 0.626533,0 1.162754,-0.530577 1.162754,-1.275643 z m -0.507999,-0.0056 c 0,0.270933 0,0.553155 -0.09596,0.756355 -0.169333,0.338667 -0.428977,0.366889 -0.558799,0.366889 -0.3556,0 -0.524933,-0.338667 -0.5588,-0.423333 -0.1016,-0.265289 -0.1016,-0.716844 -0.1016,-0.818444 0,-0.440266 0.180622,-1.00471 0.688622,-1.00471 0.09031,0 0.349955,0 0.524933,0.349955 0.1016,0.208844 0.1016,0.496711 0.1016,0.773288 z"
         style="stroke-width:0.264583"
         id="path3124" />
    </g>
    <g
       aria-label="—— Parent of 3, ancestor of all below nodes"
       id="text2998"
       style="font-size:5.64444px;line-height:1.25;font-family:'Latin Modern Roman';-inkscape-font-specification:'Latin Modern Roman, ';stroke-width:0.264583">
      <path
         d="M 43.427992,5.6584528 V 5.5342751 h -5.638796 v 0.1241777 z"
         style="stroke-width:0.264583"
         id="path3148" />
      <path
         d="M 49.072421,5.6584528 V 5.5342751 h -5.638796 v 0.1241777 z"
         style="stroke-width:0.264583"
         id="path3150" />
      <path
         d="m 54.479774,4.2924982 c 0,-0.5531551 -0.558799,-1.0498658 -1.332088,-1.0498658 H 51.155199 V 3.41761 h 0.135466 c 0.434622,0 0.445911,0.062089 0.445911,0.2652887 v 2.97462 c 0,0.2031998 -0.01129,0.2652887 -0.445911,0.2652887 H 51.155199 V 7.097785 c 0.197555,-0.016933 0.615244,-0.016933 0.829733,-0.016933 0.214488,0 0.637821,0 0.835377,0.016933 V 6.9228074 h -0.135467 c -0.434622,0 -0.445911,-0.062089 -0.445911,-0.2652887 V 5.3141419 h 0.953911 c 0.677333,0 1.286932,-0.4571997 1.286932,-1.0216437 z m -0.581377,0 c 0,0.2652887 0,0.8748883 -0.897466,0.8748883 H 52.221998 V 3.6433876 c 0,-0.1862665 0.01129,-0.2257776 0.276578,-0.2257776 h 0.502355 c 0.897466,0 0.897466,0.5983107 0.897466,0.8748882 z"
         style="stroke-width:0.264583"
         id="path3152" />
      <path
         d="M 57.369716,6.5954298 V 6.2793412 h -0.141111 v 0.3160886 c 0,0.3273776 -0.141111,0.3612442 -0.2032,0.3612442 -0.186266,0 -0.208844,-0.2539998 -0.208844,-0.282222 V 5.5455639 c 0,-0.2370664 0,-0.4571996 -0.2032,-0.6660439 -0.220133,-0.2201332 -0.502355,-0.3104442 -0.773288,-0.3104442 -0.462844,0 -0.85231,0.2652887 -0.85231,0.6378217 0,0.1693332 0.112888,0.2652887 0.259644,0.2652887 0.158044,0 0.259644,-0.1128888 0.259644,-0.2596442 0,-0.067733 -0.02822,-0.2539998 -0.287866,-0.2596443 0.152399,-0.1975554 0.428977,-0.2596442 0.609599,-0.2596442 0.276578,0 0.598311,0.2201331 0.598311,0.7224883 v 0.2088443 c -0.287867,0.016933 -0.682977,0.033867 -1.038577,0.2031999 -0.423333,0.1919109 -0.564444,0.4854218 -0.564444,0.7337772 0,0.4571996 0.54751,0.5983106 0.90311,0.5983106 0.372533,0 0.632178,-0.2257776 0.739422,-0.4910663 0.02258,0.2257776 0.174978,0.4628441 0.440266,0.4628441 0.118533,0 0.462844,-0.079022 0.462844,-0.5362218 z M 56.427095,6.3075634 c 0,0.5362218 -0.4064,0.7281328 -0.6604,0.7281328 -0.276577,0 -0.507999,-0.1975555 -0.507999,-0.4797775 0,-0.3104442 0.237066,-0.7789327 1.168399,-0.8127993 z"
         style="stroke-width:0.264583"
         id="path3154" />
      <path
         d="m 59.520236,4.9472533 c 0,-0.1806221 -0.174977,-0.3443109 -0.417688,-0.3443109 -0.412044,0 -0.615244,0.3781775 -0.694266,0.6208885 V 4.6029424 l -0.784578,0.062089 V 4.840009 c 0.395111,0 0.440267,0.039511 0.440267,0.3160887 v 1.5127099 c 0,0.2539999 -0.06209,0.2539999 -0.440267,0.2539999 V 7.097785 l 0.643467,-0.016933 c 0.225777,0 0.491066,0 0.716844,0.016933 V 6.9228074 h -0.118534 c -0.417688,0 -0.428977,-0.062089 -0.428977,-0.2652887 V 5.7882749 c 0,-0.5587996 0.237066,-1.0611548 0.666044,-1.0611548 0.03951,0 0.0508,0 0.06209,0.00564 -0.01693,0.00564 -0.129823,0.073378 -0.129823,0.2201331 0,0.1580444 0.118534,0.242711 0.242711,0.242711 0.1016,0 0.242711,-0.067733 0.242711,-0.2483554 z"
         style="stroke-width:0.264583"
         id="path3156" />
      <path
         d="m 62.020715,6.4260966 c 0,-0.056444 -0.04516,-0.067733 -0.07338,-0.067733 -0.0508,0 -0.06209,0.033867 -0.07338,0.079022 -0.197555,0.5813773 -0.705555,0.5813773 -0.761999,0.5813773 -0.282222,0 -0.508,-0.1693332 -0.637822,-0.3781775 C 60.304801,6.3696523 60.304801,5.9971193 60.304801,5.7939194 H 61.8796 c 0.124178,0 0.141111,0 0.141111,-0.1185332 0,-0.5587996 -0.3048,-1.1063103 -1.010355,-1.1063103 -0.654755,0 -1.174043,0.5813773 -1.174043,1.2869324 0,0.7563549 0.592666,1.3038656 1.241776,1.3038656 0.688622,0 0.942622,-0.6265328 0.942622,-0.7337772 z M 61.648182,5.6753861 H 60.31045 c 0.03387,-0.8410216 0.507999,-0.9821326 0.69991,-0.9821326 0.581377,0 0.637822,0.7619994 0.637822,0.9821326 z"
         style="stroke-width:0.264583"
         id="path3158" />
      <path
         d="M 65.204168,7.097785 V 6.9228074 c -0.29351,0 -0.434621,0 -0.440266,-0.1693333 v -1.078088 c 0,-0.4854219 0,-0.6603995 -0.174978,-0.8635994 -0.07902,-0.095955 -0.265288,-0.2088443 -0.592666,-0.2088443 -0.412044,0 -0.677333,0.242711 -0.835377,0.5926663 V 4.6029424 l -0.795866,0.062089 V 4.840009 c 0.395111,0 0.440266,0.039511 0.440266,0.3160887 v 1.5127099 c 0,0.2539999 -0.06209,0.2539999 -0.440266,0.2539999 V 7.097785 l 0.637822,-0.016933 0.632177,0.016933 V 6.9228074 c -0.378177,0 -0.440266,0 -0.440266,-0.2539999 V 5.6302306 c 0,-0.5870218 0.400755,-0.9031105 0.761999,-0.9031105 0.3556,0 0.417689,0.3047998 0.417689,0.6265329 v 1.3151545 c 0,0.2539999 -0.06209,0.2539999 -0.440267,0.2539999 V 7.097785 l 0.637822,-0.016933 z"
         style="stroke-width:0.264583"
         id="path3160" />
      <path
         d="M 67.0386,6.3978744 V 6.0761413 h -0.141111 v 0.3104442 c 0,0.4176886 -0.169333,0.6321773 -0.378177,0.6321773 -0.378178,0 -0.378178,-0.513644 -0.378178,-0.6095995 V 4.8400089 h 0.807155 V 4.6650313 h -0.807155 v -1.038577 h -0.141111 c -0.0056,0.4628441 -0.174977,1.0667992 -0.728132,1.0893769 v 0.1241777 h 0.479777 v 1.5578655 c 0,0.6942662 0.524933,0.7619994 0.728133,0.7619994 0.400755,0 0.558799,-0.4007552 0.558799,-0.7619994 z"
         style="stroke-width:0.264583"
         id="path3162" />
      <path
         d="m 71.898453,5.8898748 c 0,-0.7224883 -0.564444,-1.320799 -1.247421,-1.320799 -0.705555,0 -1.253066,0.615244 -1.253066,1.320799 0,0.7281328 0.587022,1.269999 1.247421,1.269999 0.682977,0 1.253066,-0.5531551 1.253066,-1.269999 z m -0.468489,-0.045155 c 0,0.2031998 0,0.5079996 -0.124177,0.756355 -0.124178,0.2539998 -0.372533,0.4176885 -0.654755,0.4176885 -0.242711,0 -0.491067,-0.1185332 -0.643467,-0.3781775 -0.141111,-0.2483553 -0.141111,-0.5926662 -0.141111,-0.795866 0,-0.2201332 0,-0.524933 0.135467,-0.7732883 0.1524,-0.2596443 0.417689,-0.3781775 0.643466,-0.3781775 0.248356,0 0.491066,0.1241777 0.637822,0.3668886 0.146755,0.2427109 0.146755,0.5700885 0.146755,0.7845772 z"
         style="stroke-width:0.264583"
         id="path3164" />
      <path
         d="m 74.077195,3.5135655 c 0,-0.2088443 -0.208844,-0.3951108 -0.507999,-0.3951108 -0.395111,0 -0.874889,0.2991553 -0.874889,0.897466 v 0.6491106 h -0.44591 v 0.1749776 h 0.44591 v 1.8287986 c 0,0.2539999 -0.06209,0.2539999 -0.440266,0.2539999 V 7.097785 l 0.643466,-0.016933 c 0.225778,0 0.491066,0 0.716844,0.016933 V 6.9228074 h -0.118533 c -0.417689,0 -0.428978,-0.062089 -0.428978,-0.2652887 V 4.8400089 h 0.643467 V 4.6650313 h -0.6604 V 4.0102762 c 0,-0.4967107 0.270933,-0.7676438 0.519289,-0.7676438 0.01693,0 0.101599,0 0.186266,0.039511 -0.06773,0.022578 -0.169333,0.095956 -0.169333,0.2370665 0,0.1298221 0.09031,0.242711 0.242711,0.242711 0.163689,0 0.248355,-0.1128889 0.248355,-0.2483554 z"
         style="stroke-width:0.264583"
         id="path3166" />
      <path
         d="m 78.248428,6.1325857 c 0,-0.4628441 -0.3556,-0.9031104 -0.942622,-1.0216436 0.462844,-0.1523999 0.790222,-0.5475107 0.790222,-0.9934215 0,-0.4628441 -0.496711,-0.7789328 -1.038577,-0.7789328 -0.570089,0 -0.999066,0.3386665 -0.999066,0.7676439 0,0.1862665 0.124178,0.2935109 0.287866,0.2935109 0.174978,0 0.287867,-0.1241777 0.287867,-0.2878665 0,-0.282222 -0.265289,-0.282222 -0.349955,-0.282222 0.174977,-0.2765775 0.54751,-0.3499553 0.75071,-0.3499553 0.231422,0 0.541866,0.1241777 0.541866,0.6321773 0,0.067733 -0.01129,0.3951109 -0.158044,0.6434662 -0.169333,0.2709332 -0.361244,0.2878665 -0.502355,0.2935109 -0.04516,0.00564 -0.180622,0.016933 -0.220133,0.016933 -0.04516,0.00564 -0.08467,0.011289 -0.08467,0.067733 0,0.062089 0.03951,0.062089 0.135467,0.062089 h 0.248355 c 0.462844,0 0.671688,0.3838219 0.671688,0.936977 0,0.7676439 -0.389466,0.9313327 -0.637821,0.9313327 -0.242711,0 -0.666044,-0.095956 -0.8636,-0.4289775 0.197556,0.028222 0.372533,-0.095956 0.372533,-0.3104442 0,-0.2031999 -0.152399,-0.3160887 -0.316088,-0.3160887 -0.135467,0 -0.316089,0.079022 -0.316089,0.3273776 0,0.513644 0.524933,0.8861771 1.140177,0.8861771 0.688622,0 1.202266,-0.5136441 1.202266,-1.089377 z"
         style="stroke-width:0.264583"
         id="path3168" />
      <path
         d="m 79.636948,7.0921406 c 0,-0.3612442 -0.135466,-0.5926663 -0.361244,-0.5926663 -0.197555,0 -0.299155,0.1523999 -0.299155,0.2991554 0,0.1467554 0.09595,0.2991553 0.299155,0.2991553 0.08467,0 0.163689,-0.033867 0.225778,-0.090311 0.01129,0.4459107 -0.146756,0.7902216 -0.395111,1.0555103 -0.03387,0.033867 -0.03951,0.039511 -0.03951,0.062089 0,0.039511 0.02822,0.062089 0.05644,0.062089 0.06773,0 0.513644,-0.4459107 0.513644,-1.0950213 z"
         style="stroke-width:0.264583"
         id="path3170" />
      <path
         d="M 84.666134,6.5954298 V 6.2793412 h -0.141111 v 0.3160886 c 0,0.3273776 -0.141111,0.3612442 -0.2032,0.3612442 -0.186267,0 -0.208845,-0.2539998 -0.208845,-0.282222 V 5.5455639 c 0,-0.2370664 0,-0.4571996 -0.203199,-0.6660439 -0.220134,-0.2201332 -0.502356,-0.3104442 -0.773289,-0.3104442 -0.462844,0 -0.85231,0.2652887 -0.85231,0.6378217 0,0.1693332 0.112889,0.2652887 0.259644,0.2652887 0.158044,0 0.259644,-0.1128888 0.259644,-0.2596442 0,-0.067733 -0.02822,-0.2539998 -0.287866,-0.2596443 0.1524,-0.1975554 0.428977,-0.2596442 0.609599,-0.2596442 0.276578,0 0.598311,0.2201331 0.598311,0.7224883 v 0.2088443 c -0.287866,0.016933 -0.682977,0.033867 -1.038577,0.2031999 -0.423333,0.1919109 -0.564444,0.4854218 -0.564444,0.7337772 0,0.4571996 0.547511,0.5983106 0.90311,0.5983106 0.372533,0 0.632178,-0.2257776 0.739422,-0.4910663 0.02258,0.2257776 0.174978,0.4628441 0.440266,0.4628441 0.118534,0 0.462845,-0.079022 0.462845,-0.5362218 z M 83.723512,6.3075634 c 0,0.5362218 -0.4064,0.7281328 -0.660399,0.7281328 -0.276578,0 -0.508,-0.1975555 -0.508,-0.4797775 0,-0.3104442 0.237066,-0.7789327 1.168399,-0.8127993 z"
         style="stroke-width:0.264583"
         id="path3172" />
      <path
         d="M 87.781853,7.097785 V 6.9228074 c -0.293511,0 -0.434622,0 -0.440267,-0.1693333 v -1.078088 c 0,-0.4854219 0,-0.6603995 -0.174977,-0.8635994 -0.07902,-0.095955 -0.265289,-0.2088443 -0.592666,-0.2088443 -0.412045,0 -0.677333,0.242711 -0.835378,0.5926663 V 4.6029424 l -0.795866,0.062089 V 4.840009 c 0.395111,0 0.440267,0.039511 0.440267,0.3160887 v 1.5127099 c 0,0.2539999 -0.06209,0.2539999 -0.440267,0.2539999 V 7.097785 l 0.637822,-0.016933 0.632177,0.016933 V 6.9228074 c -0.378177,0 -0.440266,0 -0.440266,-0.2539999 V 5.6302306 c 0,-0.5870218 0.400755,-0.9031105 0.762,-0.9031105 0.355599,0 0.417688,0.3047998 0.417688,0.6265329 v 1.3151545 c 0,0.2539999 -0.06209,0.2539999 -0.440266,0.2539999 V 7.097785 l 0.637822,-0.016933 z"
         style="stroke-width:0.264583"
         id="path3174" />
      <path
         d="m 90.242829,6.4260966 c 0,-0.056444 -0.05644,-0.056444 -0.07338,-0.056444 -0.0508,0 -0.06209,0.022578 -0.07338,0.056444 -0.163689,0.524933 -0.530577,0.5926662 -0.739422,0.5926662 -0.299155,0 -0.795866,-0.2427109 -0.795866,-1.1514658 0,-0.9200437 0.462844,-1.1571102 0.762,-1.1571102 0.0508,0 0.406399,0.00564 0.603955,0.2088443 -0.231422,0.016933 -0.265289,0.1862665 -0.265289,0.2596442 0,0.1467555 0.1016,0.2596443 0.259644,0.2596443 0.146756,0 0.259645,-0.095955 0.259645,-0.2652887 0,-0.3838219 -0.428978,-0.6039551 -0.8636,-0.6039551 -0.705555,0 -1.224843,0.6095995 -1.224843,1.3095101 0,0.7224884 0.558799,1.2812879 1.213554,1.2812879 0.756355,0 0.936977,-0.6773328 0.936977,-0.7337772 z"
         style="stroke-width:0.264583"
         id="path3176" />
      <path
         d="m 92.748952,6.4260966 c 0,-0.056444 -0.04516,-0.067733 -0.07338,-0.067733 -0.0508,0 -0.06209,0.033867 -0.07338,0.079022 -0.197556,0.5813773 -0.705555,0.5813773 -0.762,0.5813773 -0.282222,0 -0.507999,-0.1693332 -0.637822,-0.3781775 -0.169333,-0.2709331 -0.169333,-0.6434661 -0.169333,-0.846666 h 1.574799 c 0.124178,0 0.141111,0 0.141111,-0.1185332 0,-0.5587996 -0.3048,-1.1063103 -1.010355,-1.1063103 -0.654755,0 -1.174043,0.5813773 -1.174043,1.2869324 0,0.7563549 0.592666,1.3038656 1.241777,1.3038656 0.688621,0 0.942621,-0.6265328 0.942621,-0.7337772 z M 92.376419,5.6753861 h -1.337732 c 0.03387,-0.8410216 0.507999,-0.9821326 0.69991,-0.9821326 0.581378,0 0.637822,0.7619994 0.637822,0.9821326 z"
         style="stroke-width:0.264583"
         id="path3178" />
      <path
         d="m 94.94463,6.3752967 c 0,-0.2991554 -0.169333,-0.4684886 -0.237066,-0.5362219 -0.186267,-0.180622 -0.4064,-0.2257776 -0.643466,-0.2709331 -0.316089,-0.062089 -0.694266,-0.1354666 -0.694266,-0.4628441 0,-0.1975554 0.146755,-0.4289774 0.632177,-0.4289774 0.620888,0 0.649111,0.5079996 0.660399,0.6829772 0.0056,0.0508 0.06773,0.0508 0.06773,0.0508 0.07338,0 0.07338,-0.028222 0.07338,-0.1354666 V 4.7045424 c 0,-0.095956 0,-0.1354666 -0.06209,-0.1354666 -0.02822,0 -0.03951,0 -0.112889,0.067733 -0.01693,0.022578 -0.07338,0.073378 -0.09596,0.090311 -0.214488,-0.1580443 -0.44591,-0.1580443 -0.530577,-0.1580443 -0.688622,0 -0.90311,0.3781775 -0.90311,0.6942661 0,0.1975554 0.09031,0.3555998 0.24271,0.4797775 0.180623,0.1467554 0.338667,0.180622 0.745067,0.2596442 0.124177,0.022578 0.587021,0.1128888 0.587021,0.5192885 0,0.2878664 -0.197555,0.5136441 -0.637821,0.5136441 -0.474133,0 -0.677333,-0.3217331 -0.784578,-0.8015106 -0.01693,-0.073378 -0.02258,-0.095955 -0.07902,-0.095955 -0.07338,0 -0.07338,0.039511 -0.07338,0.141111 v 0.7450661 c 0,0.095955 0,0.1354665 0.06209,0.1354665 0.02822,0 0.03387,-0.00564 0.141111,-0.1128888 0.01129,-0.011289 0.01129,-0.022578 0.112889,-0.1298221 0.248356,0.2370665 0.502355,0.2427109 0.620889,0.2427109 0.64911,0 0.908754,-0.3781775 0.908754,-0.7845771 z"
         style="stroke-width:0.264583"
         id="path3180" />
      <path
         d="M 97.01049,6.3978744 V 6.0761413 h -0.141111 v 0.3104442 c 0,0.4176886 -0.169333,0.6321773 -0.378178,0.6321773 -0.378177,0 -0.378177,-0.513644 -0.378177,-0.6095995 V 4.8400089 h 0.807155 V 4.6650313 h -0.807155 v -1.038577 h -0.141111 c -0.0056,0.4628441 -0.174978,1.0667992 -0.728133,1.0893769 v 0.1241777 h 0.479777 v 1.5578655 c 0,0.6942662 0.524933,0.7619994 0.728133,0.7619994 0.400755,0 0.5588,-0.4007552 0.5588,-0.7619994 z"
         style="stroke-width:0.264583"
         id="path3182" />
      <path
         d="m 99.990753,5.8898748 c 0,-0.7224883 -0.564444,-1.320799 -1.247421,-1.320799 -0.705555,0 -1.253066,0.615244 -1.253066,1.320799 0,0.7281328 0.587022,1.269999 1.247422,1.269999 0.682977,0 1.253065,-0.5531551 1.253065,-1.269999 z m -0.468488,-0.045155 c 0,0.2031998 0,0.5079996 -0.124178,0.756355 -0.124178,0.2539998 -0.372533,0.4176885 -0.654755,0.4176885 -0.242711,0 -0.491066,-0.1185332 -0.643466,-0.3781775 -0.141111,-0.2483553 -0.141111,-0.5926662 -0.141111,-0.795866 0,-0.2201332 0,-0.524933 0.135466,-0.7732883 0.1524,-0.2596443 0.417689,-0.3781775 0.643467,-0.3781775 0.248355,0 0.491066,0.1241777 0.637821,0.3668886 0.146756,0.2427109 0.146756,0.5700885 0.146756,0.7845772 z"
         style="stroke-width:0.264583"
         id="path3184" />
      <path
         d="m 102.20901,4.9472533 c 0,-0.1806221 -0.17498,-0.3443109 -0.41769,-0.3443109 -0.41205,0 -0.61525,0.3781775 -0.69427,0.6208885 V 4.6029424 l -0.78458,0.062089 V 4.840009 c 0.39512,0 0.44027,0.039511 0.44027,0.3160887 v 1.5127099 c 0,0.2539999 -0.0621,0.2539999 -0.44027,0.2539999 V 7.097785 l 0.64347,-0.016933 c 0.22578,0 0.49107,0 0.71684,0.016933 V 6.9228074 h -0.11853 c -0.41769,0 -0.42898,-0.062089 -0.42898,-0.2652887 V 5.7882749 c 0,-0.5587996 0.23707,-1.0611548 0.66605,-1.0611548 0.0395,0 0.0508,0 0.0621,0.00564 -0.0169,0.00564 -0.12983,0.073378 -0.12983,0.2201331 0,0.1580444 0.11854,0.242711 0.24272,0.242711 0.1016,0 0.24271,-0.067733 0.24271,-0.2483554 z"
         style="stroke-width:0.264583"
         id="path3186" />
      <path
         d="m 106.90516,5.8898748 c 0,-0.7224883 -0.56444,-1.320799 -1.24742,-1.320799 -0.70555,0 -1.25306,0.615244 -1.25306,1.320799 0,0.7281328 0.58702,1.269999 1.24742,1.269999 0.68297,0 1.25306,-0.5531551 1.25306,-1.269999 z m -0.46849,-0.045155 c 0,0.2031998 0,0.5079996 -0.12417,0.756355 -0.12418,0.2539998 -0.37254,0.4176885 -0.65476,0.4176885 -0.24271,0 -0.49106,-0.1185332 -0.64346,-0.3781775 -0.14112,-0.2483553 -0.14112,-0.5926662 -0.14112,-0.795866 0,-0.2201332 0,-0.524933 0.13547,-0.7732883 0.1524,-0.2596443 0.41769,-0.3781775 0.64347,-0.3781775 0.24835,0 0.49106,0.1241777 0.63782,0.3668886 0.14675,0.2427109 0.14675,0.5700885 0.14675,0.7845772 z"
         style="stroke-width:0.264583"
         id="path3188" />
      <path
         d="m 109.08391,3.5135655 c 0,-0.2088443 -0.20885,-0.3951108 -0.508,-0.3951108 -0.39511,0 -0.87489,0.2991553 -0.87489,0.897466 v 0.6491106 h -0.44591 v 0.1749776 h 0.44591 v 1.8287986 c 0,0.2539999 -0.0621,0.2539999 -0.44027,0.2539999 V 7.097785 l 0.64347,-0.016933 c 0.22578,0 0.49107,0 0.71684,0.016933 V 6.9228074 h -0.11853 c -0.41769,0 -0.42898,-0.062089 -0.42898,-0.2652887 V 4.8400089 h 0.64347 V 4.6650313 h -0.6604 V 4.0102762 c 0,-0.4967107 0.27093,-0.7676438 0.51929,-0.7676438 0.0169,0 0.1016,0 0.18627,0.039511 -0.0677,0.022578 -0.16934,0.095956 -0.16934,0.2370665 0,0.1298221 0.0903,0.242711 0.24271,0.242711 0.16369,0 0.24836,-0.1128889 0.24836,-0.2483554 z"
         style="stroke-width:0.264583"
         id="path3190" />
      <path
         d="M 113.40189,6.5954298 V 6.2793412 h -0.14111 v 0.3160886 c 0,0.3273776 -0.14111,0.3612442 -0.2032,0.3612442 -0.18627,0 -0.20885,-0.2539998 -0.20885,-0.282222 V 5.5455639 c 0,-0.2370664 0,-0.4571996 -0.2032,-0.6660439 -0.22013,-0.2201332 -0.50235,-0.3104442 -0.77328,-0.3104442 -0.46285,0 -0.85231,0.2652887 -0.85231,0.6378217 0,0.1693332 0.11288,0.2652887 0.25964,0.2652887 0.15804,0 0.25964,-0.1128888 0.25964,-0.2596442 0,-0.067733 -0.0282,-0.2539998 -0.28786,-0.2596443 0.1524,-0.1975554 0.42898,-0.2596442 0.6096,-0.2596442 0.27657,0 0.59831,0.2201331 0.59831,0.7224883 v 0.2088443 c -0.28787,0.016933 -0.68298,0.033867 -1.03858,0.2031999 -0.42333,0.1919109 -0.56444,0.4854218 -0.56444,0.7337772 0,0.4571996 0.54751,0.5983106 0.90311,0.5983106 0.37253,0 0.63217,-0.2257776 0.73942,-0.4910663 0.0226,0.2257776 0.17498,0.4628441 0.44027,0.4628441 0.11853,0 0.46284,-0.079022 0.46284,-0.5362218 z m -0.94262,-0.2878664 c 0,0.5362218 -0.4064,0.7281328 -0.6604,0.7281328 -0.27658,0 -0.508,-0.1975555 -0.508,-0.4797775 0,-0.3104442 0.23707,-0.7789327 1.1684,-0.8127993 z"
         style="stroke-width:0.264583"
         id="path3192" />
      <path
         d="M 114.93717,7.097785 V 6.9228074 c -0.37818,0 -0.44027,0 -0.44027,-0.2539999 v -3.488264 l -0.8128,0.062089 V 3.41761 c 0.39511,0 0.44027,0.039511 0.44027,0.3160887 v 2.9351088 c 0,0.2539999 -0.0621,0.2539999 -0.44027,0.2539999 V 7.097785 l 0.62654,-0.016933 z"
         style="stroke-width:0.264583"
         id="path3194" />
      <path
         d="M 116.50632,7.097785 V 6.9228074 c -0.37818,0 -0.44026,0 -0.44026,-0.2539999 v -3.488264 l -0.8128,0.062089 V 3.41761 c 0.39511,0 0.44026,0.039511 0.44026,0.3160887 v 2.9351088 c 0,0.2539999 -0.0621,0.2539999 -0.44026,0.2539999 V 7.097785 l 0.62653,-0.016933 z"
         style="stroke-width:0.264583"
         id="path3196" />
      <path
         d="m 121.45649,5.8785859 c 0,-0.7168439 -0.55316,-1.2756435 -1.19662,-1.2756435 -0.44027,0 -0.68298,0.2652887 -0.77329,0.3668887 V 3.1805435 l -0.8128,0.062089 V 3.41761 c 0.39511,0 0.44027,0.039511 0.44027,0.3160887 V 7.097785 h 0.14111 l 0.2032,-0.3499553 c 0.0847,0.1298221 0.32173,0.4120441 0.73942,0.4120441 0.67169,0 1.25871,-0.5531551 1.25871,-1.2812879 z m -0.46849,-0.00564 c 0,0.2088443 -0.0113,0.5475107 -0.17498,0.8015105 -0.11853,0.1749776 -0.33302,0.3612442 -0.63782,0.3612442 -0.254,0 -0.4572,-0.1354666 -0.59267,-0.3443109 -0.079,-0.1185332 -0.079,-0.1354666 -0.079,-0.2370665 V 5.2915641 c 0,-0.1072443 0,-0.1128888 0.0621,-0.2031998 0.22013,-0.3160887 0.53058,-0.3612442 0.66605,-0.3612442 0.254,0 0.4572,0.1467555 0.59266,0.3612442 0.14676,0.231422 0.16369,0.5531551 0.16369,0.7845772 z"
         style="stroke-width:0.264583"
         id="path3198" />
      <path
         d="m 124.15453,6.4260966 c 0,-0.056444 -0.0452,-0.067733 -0.0734,-0.067733 -0.0508,0 -0.0621,0.033867 -0.0734,0.079022 -0.19755,0.5813773 -0.70555,0.5813773 -0.762,0.5813773 -0.28222,0 -0.508,-0.1693332 -0.63782,-0.3781775 -0.16933,-0.2709331 -0.16933,-0.6434661 -0.16933,-0.846666 h 1.5748 c 0.12417,0 0.14111,0 0.14111,-0.1185332 0,-0.5587996 -0.3048,-1.1063103 -1.01036,-1.1063103 -0.65475,0 -1.17404,0.5813773 -1.17404,1.2869324 0,0.7563549 0.59266,1.3038656 1.24178,1.3038656 0.68862,0 0.94262,-0.6265328 0.94262,-0.7337772 z m -0.37254,-0.7507105 h -1.33773 c 0.0339,-0.8410216 0.508,-0.9821326 0.69991,-0.9821326 0.58138,0 0.63782,0.7619994 0.63782,0.9821326 z"
         style="stroke-width:0.264583"
         id="path3200" />
      <path
         d="M 125.75754,7.097785 V 6.9228074 c -0.37818,0 -0.44027,0 -0.44027,-0.2539999 v -3.488264 l -0.8128,0.062089 V 3.41761 c 0.39511,0 0.44027,0.039511 0.44027,0.3160887 v 2.9351088 c 0,0.2539999 -0.0621,0.2539999 -0.44027,0.2539999 V 7.097785 L 125.131,7.080852 Z"
         style="stroke-width:0.264583"
         id="path3202" />
      <path
         d="m 128.54589,5.8898748 c 0,-0.7224883 -0.56445,-1.320799 -1.24742,-1.320799 -0.70556,0 -1.25307,0.615244 -1.25307,1.320799 0,0.7281328 0.58702,1.269999 1.24742,1.269999 0.68298,0 1.25307,-0.5531551 1.25307,-1.269999 z m -0.46849,-0.045155 c 0,0.2031998 0,0.5079996 -0.12418,0.756355 -0.12418,0.2539998 -0.37253,0.4176885 -0.65475,0.4176885 -0.24272,0 -0.49107,-0.1185332 -0.64347,-0.3781775 -0.14111,-0.2483553 -0.14111,-0.5926662 -0.14111,-0.795866 0,-0.2201332 0,-0.524933 0.13547,-0.7732883 0.1524,-0.2596443 0.41768,-0.3781775 0.64346,-0.3781775 0.24836,0 0.49107,0.1241777 0.63782,0.3668886 0.14676,0.2427109 0.14676,0.5700885 0.14676,0.7845772 z"
         style="stroke-width:0.264583"
         id="path3204" />
      <path
         d="M 132.51955,4.8400089 V 4.6650313 c -0.12418,0.011289 -0.28787,0.016933 -0.41204,0.016933 l -0.52494,-0.016933 v 0.1749776 c 0.2032,0.00564 0.32738,0.1072444 0.32738,0.2709332 0,0.033867 0,0.045155 -0.0282,0.1185332 l -0.51364,1.4449767 -0.5588,-1.5747988 c -0.0226,-0.067733 -0.0282,-0.079022 -0.0282,-0.1072444 0,-0.1523999 0.22014,-0.1523999 0.33303,-0.1523999 V 4.6650313 l -0.58703,0.016933 c -0.16933,0 -0.33302,-0.00564 -0.50235,-0.016933 v 0.1749776 c 0.20884,0 0.29915,0.011289 0.3556,0.084667 0.0282,0.033867 0.0903,0.2031999 0.12982,0.3104442 l -0.48542,1.3659546 -0.53622,-1.5070656 c -0.0282,-0.067733 -0.0282,-0.079022 -0.0282,-0.1015999 0,-0.1523999 0.22014,-0.1523999 0.33303,-0.1523999 v -0.174978 l -0.61525,0.016933 -0.52493,-0.016933 v 0.1749776 c 0.28222,0 0.34996,0.016933 0.41769,0.1975554 l 0.7112,1.9981319 c 0.0282,0.079022 0.0451,0.1241776 0.11853,0.1241776 0.0734,0 0.0847,-0.033867 0.11289,-0.1128888 l 0.57009,-1.5973765 0.57573,1.603021 c 0.0226,0.062089 0.0395,0.1072443 0.11289,0.1072443 0.0734,0 0.0903,-0.0508 0.11289,-0.1072443 l 0.6604,-1.8513764 c 0.1016,-0.282222 0.27658,-0.3555997 0.47413,-0.3612442 z"
         style="stroke-width:0.264583"
         id="path3206" />
      <path
         d="M 137.52616,7.097785 V 6.9228074 c -0.29351,0 -0.43462,0 -0.44027,-0.1693333 v -1.078088 c 0,-0.4854219 0,-0.6603995 -0.17498,-0.8635994 -0.079,-0.095955 -0.26529,-0.2088443 -0.59266,-0.2088443 -0.41205,0 -0.67734,0.242711 -0.83538,0.5926663 V 4.6029424 L 134.687,4.6650314 V 4.840009 c 0.39511,0 0.44027,0.039511 0.44027,0.3160887 v 1.5127099 c 0,0.2539999 -0.0621,0.2539999 -0.44027,0.2539999 V 7.097785 l 0.63783,-0.016933 0.63217,0.016933 V 6.9228074 c -0.37817,0 -0.44026,0 -0.44026,-0.2539999 V 5.6302306 c 0,-0.5870218 0.40075,-0.9031105 0.762,-0.9031105 0.3556,0 0.41768,0.3047998 0.41768,0.6265329 v 1.3151545 c 0,0.2539999 -0.0621,0.2539999 -0.44026,0.2539999 V 7.097785 l 0.63782,-0.016933 z"
         style="stroke-width:0.264583"
         id="path3208" />
      <path
         d="m 140.30322,5.8898748 c 0,-0.7224883 -0.56445,-1.320799 -1.24742,-1.320799 -0.70556,0 -1.25307,0.615244 -1.25307,1.320799 0,0.7281328 0.58702,1.269999 1.24742,1.269999 0.68298,0 1.25307,-0.5531551 1.25307,-1.269999 z m -0.46849,-0.045155 c 0,0.2031998 0,0.5079996 -0.12418,0.756355 -0.12417,0.2539998 -0.37253,0.4176885 -0.65475,0.4176885 -0.24271,0 -0.49107,-0.1185332 -0.64347,-0.3781775 -0.14111,-0.2483553 -0.14111,-0.5926662 -0.14111,-0.795866 0,-0.2201332 0,-0.524933 0.13547,-0.7732883 0.1524,-0.2596443 0.41769,-0.3781775 0.64346,-0.3781775 0.24836,0 0.49107,0.1241777 0.63782,0.3668886 0.14676,0.2427109 0.14676,0.5700885 0.14676,0.7845772 z"
         style="stroke-width:0.264583"
         id="path3210" />
      <path
         d="M 143.59956,7.097785 V 6.9228074 c -0.39512,0 -0.44027,-0.039511 -0.44027,-0.3160887 V 3.1805435 l -0.8128,0.062089 V 3.41761 c 0.39511,0 0.44027,0.039511 0.44027,0.3160887 v 1.219199 c -0.16369,-0.2031998 -0.4064,-0.3499553 -0.7112,-0.3499553 -0.66605,0 -1.25871,0.5531552 -1.25871,1.281288 0,0.7168439 0.55315,1.2756434 1.19662,1.2756434 0.36124,0 0.61524,-0.1919109 0.75635,-0.372533 v 0.372533 z m -0.82974,-0.6660439 c 0,0.1015999 0,0.1128888 -0.0621,0.2088442 -0.16933,0.2709332 -0.42333,0.3951109 -0.66604,0.3951109 -0.254,0 -0.4572,-0.1467555 -0.59267,-0.3612442 -0.14675,-0.2314221 -0.16369,-0.5531552 -0.16369,-0.7845772 0,-0.2088443 0.0113,-0.5475107 0.17498,-0.8015105 0.11854,-0.1749777 0.33302,-0.3612442 0.63782,-0.3612442 0.19756,0 0.43463,0.084667 0.6096,0.3386664 0.0621,0.095956 0.0621,0.1072444 0.0621,0.2088443 z"
         style="stroke-width:0.264583"
         id="path3212" />
      <path
         d="m 146.10569,6.4260966 c 0,-0.056444 -0.0452,-0.067733 -0.0734,-0.067733 -0.0508,0 -0.0621,0.033867 -0.0734,0.079022 -0.19756,0.5813773 -0.70556,0.5813773 -0.762,0.5813773 -0.28223,0 -0.508,-0.1693332 -0.63783,-0.3781775 -0.16933,-0.2709331 -0.16933,-0.6434661 -0.16933,-0.846666 h 1.5748 c 0.12418,0 0.14111,0 0.14111,-0.1185332 0,-0.5587996 -0.3048,-1.1063103 -1.01035,-1.1063103 -0.65476,0 -1.17405,0.5813773 -1.17405,1.2869324 0,0.7563549 0.59267,1.3038656 1.24178,1.3038656 0.68862,0 0.94262,-0.6265328 0.94262,-0.7337772 z m -0.37253,-0.7507105 h -1.33773 c 0.0339,-0.8410216 0.508,-0.9821326 0.69991,-0.9821326 0.58137,0 0.63782,0.7619994 0.63782,0.9821326 z"
         style="stroke-width:0.264583"
         id="path3214" />
      <path
         d="m 148.30137,6.3752967 c 0,-0.2991554 -0.16934,-0.4684886 -0.23707,-0.5362219 -0.18627,-0.180622 -0.4064,-0.2257776 -0.64347,-0.2709331 -0.31609,-0.062089 -0.69426,-0.1354666 -0.69426,-0.4628441 0,-0.1975554 0.14675,-0.4289774 0.63217,-0.4289774 0.62089,0 0.64911,0.5079996 0.6604,0.6829772 0.006,0.0508 0.0677,0.0508 0.0677,0.0508 0.0734,0 0.0734,-0.028222 0.0734,-0.1354666 V 4.7045424 c 0,-0.095956 0,-0.1354666 -0.0621,-0.1354666 -0.0282,0 -0.0395,0 -0.11289,0.067733 -0.0169,0.022578 -0.0734,0.073378 -0.096,0.090311 -0.21449,-0.1580443 -0.44591,-0.1580443 -0.53058,-0.1580443 -0.68862,0 -0.90311,0.3781775 -0.90311,0.6942661 0,0.1975554 0.0903,0.3555998 0.24271,0.4797775 0.18063,0.1467554 0.33867,0.180622 0.74507,0.2596442 0.12418,0.022578 0.58702,0.1128888 0.58702,0.5192885 0,0.2878664 -0.19755,0.5136441 -0.63782,0.5136441 -0.47413,0 -0.67733,-0.3217331 -0.78458,-0.8015106 -0.0169,-0.073378 -0.0226,-0.095955 -0.079,-0.095955 -0.0734,0 -0.0734,0.039511 -0.0734,0.141111 v 0.7450661 c 0,0.095955 0,0.1354665 0.0621,0.1354665 0.0282,0 0.0339,-0.00564 0.14111,-0.1128888 0.0113,-0.011289 0.0113,-0.022578 0.11289,-0.1298221 0.24836,0.2370665 0.50236,0.2427109 0.62089,0.2427109 0.64911,0 0.90876,-0.3781775 0.90876,-0.7845771 z"
         style="stroke-width:0.264583"
         id="path3216" />
    </g>
    <g
       aria-label="—— Child of 1"
       id="text3103"
       style="font-size:5.64444px;line-height:1.25;font-family:'Latin Modern Roman';-inkscape-font-specification:'Latin Modern Roman, ';stroke-width:0.264583">
      <path
         d="M 51.612532,24.231997 V 24.10782 h -5.638796 v 0.124177 z"
         style="stroke-width:0.264583"
         id="path3127" />
      <path
         d="M 57.256961,24.231997 V 24.10782 h -5.638796 v 0.124177 z"
         style="stroke-width:0.264583"
         id="path3129" />
      <path
         d="m 62.895736,24.356175 c 0,-0.05644 0,-0.09596 -0.07338,-0.09596 -0.06209,0 -0.06209,0.03387 -0.06773,0.09031 -0.04516,0.807155 -0.649111,1.27 -1.264355,1.27 -0.34431,0 -1.450621,-0.191911 -1.450621,-1.873955 0,-1.687687 1.100666,-1.879598 1.444977,-1.879598 0.615244,0 1.117599,0.513644 1.230488,1.337732 0.01129,0.07902 0.01129,0.09596 0.09031,0.09596 0.09031,0 0.09031,-0.01693 0.09031,-0.135467 v -1.337732 c 0,-0.09596 0,-0.135467 -0.06209,-0.135467 -0.02258,0 -0.04516,0 -0.09031,0.06773 l -0.282222,0.417689 c -0.208844,-0.2032 -0.496711,-0.485422 -1.038577,-0.485422 -1.05551,0 -1.964265,0.897466 -1.964265,2.048932 0,1.168399 0.914399,2.054576 1.964265,2.054576 0.920044,0 1.473199,-0.784577 1.473199,-1.439332 z"
         style="stroke-width:0.264583"
         id="path3131" />
      <path
         d="m 66.237234,25.671329 v -0.174977 c -0.293511,0 -0.434622,0 -0.440266,-0.169333 v -1.078088 c 0,-0.485422 0,-0.6604 -0.174978,-0.8636 -0.07902,-0.09596 -0.265288,-0.208844 -0.592666,-0.208844 -0.474133,0 -0.722488,0.338666 -0.812799,0.541866 h -0.0056 v -1.964265 l -0.812799,0.06209 v 0.174978 c 0.395111,0 0.440266,0.03951 0.440266,0.316088 v 2.935109 c 0,0.254 -0.06209,0.254 -0.440266,0.254 v 0.174977 l 0.637822,-0.01693 0.632177,0.01693 v -0.174977 c -0.378178,0 -0.440266,0 -0.440266,-0.254 v -1.038577 c 0,-0.587022 0.400755,-0.90311 0.761999,-0.90311 0.3556,0 0.417689,0.304799 0.417689,0.626532 v 1.315155 c 0,0.254 -0.06209,0.254 -0.440267,0.254 v 0.174977 l 0.637822,-0.01693 z"
         style="stroke-width:0.264583"
         id="path3133" />
      <path
         d="m 67.749943,25.671329 v -0.174977 c -0.372533,0 -0.395111,-0.02822 -0.395111,-0.248356 v -2.071509 l -0.790221,0.06209 v 0.174977 c 0.366888,0 0.417688,0.03387 0.417688,0.310445 v 1.518354 c 0,0.254 -0.06209,0.254 -0.440266,0.254 v 0.174977 l 0.620888,-0.01693 c 0.197556,0 0.395111,0.01129 0.587022,0.01693 z m -0.310444,-3.409241 c 0,-0.1524 -0.129822,-0.299156 -0.299156,-0.299156 -0.19191,0 -0.304799,0.158045 -0.304799,0.299156 0,0.1524 0.129822,0.299155 0.299155,0.299155 0.191911,0 0.3048,-0.158044 0.3048,-0.299155 z"
         style="stroke-width:0.264583"
         id="path3135" />
      <path
         d="m 69.364251,25.671329 v -0.174977 c -0.378177,0 -0.440266,0 -0.440266,-0.254 v -3.488264 l -0.812799,0.06209 v 0.174978 c 0.39511,0 0.440266,0.03951 0.440266,0.316088 v 2.935109 c 0,0.254 -0.06209,0.254 -0.440266,0.254 v 0.174977 l 0.626533,-0.01693 z"
         style="stroke-width:0.264583"
         id="path3137" />
      <path
         d="m 72.468694,25.671329 v -0.174977 c -0.395111,0 -0.440266,-0.03951 -0.440266,-0.316089 v -3.426175 l -0.8128,0.06209 v 0.174978 c 0.395111,0 0.440266,0.03951 0.440266,0.316088 v 1.219199 c -0.163688,-0.2032 -0.406399,-0.349955 -0.711199,-0.349955 -0.666044,0 -1.25871,0.553155 -1.25871,1.281288 0,0.716844 0.553155,1.275643 1.196621,1.275643 0.361244,0 0.615244,-0.191911 0.756355,-0.372533 v 0.372533 z m -0.829733,-0.666043 c 0,0.101599 0,0.112888 -0.06209,0.208844 -0.169333,0.270933 -0.423333,0.395111 -0.666044,0.395111 -0.253999,0 -0.457199,-0.146756 -0.592666,-0.361245 -0.146755,-0.231422 -0.163689,-0.553155 -0.163689,-0.784577 0,-0.208844 0.01129,-0.54751 0.174978,-0.80151 0.118533,-0.174978 0.333022,-0.361244 0.637822,-0.361244 0.197555,0 0.434622,0.08467 0.609599,0.338666 0.06209,0.09596 0.06209,0.107244 0.06209,0.208844 z"
         style="stroke-width:0.264583"
         id="path3139" />
      <path
         d="m 77.170502,24.463419 c 0,-0.722488 -0.564444,-1.320799 -1.247421,-1.320799 -0.705555,0 -1.253066,0.615244 -1.253066,1.320799 0,0.728133 0.587022,1.269999 1.247421,1.269999 0.682977,0 1.253066,-0.553155 1.253066,-1.269999 z m -0.468489,-0.04515 c 0,0.2032 0,0.507999 -0.124177,0.756355 -0.124178,0.254 -0.372533,0.417688 -0.654755,0.417688 -0.242711,0 -0.491067,-0.118533 -0.643467,-0.378177 -0.141111,-0.248356 -0.141111,-0.592666 -0.141111,-0.795866 0,-0.220133 0,-0.524933 0.135467,-0.773289 0.1524,-0.259644 0.417689,-0.378177 0.643466,-0.378177 0.248355,0 0.491066,0.124178 0.637822,0.366889 0.146755,0.242711 0.146755,0.570088 0.146755,0.784577 z"
         style="stroke-width:0.264583"
         id="path3141" />
      <path
         d="m 79.349244,22.08711 c 0,-0.208844 -0.208844,-0.395111 -0.508,-0.395111 -0.39511,0 -0.874888,0.299156 -0.874888,0.897466 v 0.649111 h -0.445911 v 0.174977 h 0.445911 v 1.828799 c 0,0.254 -0.06209,0.254 -0.440266,0.254 v 0.174977 l 0.643466,-0.01693 c 0.225778,0 0.491066,0 0.716844,0.01693 v -0.174977 h -0.118533 c -0.417689,0 -0.428978,-0.06209 -0.428978,-0.265289 v -1.81751 h 0.643466 v -0.174977 h -0.660399 v -0.654755 c 0,-0.496711 0.270933,-0.767644 0.519288,-0.767644 0.01693,0 0.1016,0 0.186267,0.03951 -0.06773,0.02258 -0.169333,0.09596 -0.169333,0.237066 0,0.129823 0.09031,0.242711 0.242711,0.242711 0.163688,0 0.248355,-0.112888 0.248355,-0.248354 z"
         style="stroke-width:0.264583"
         id="path3143" />
      <path
         d="m 83.305984,25.671329 v -0.174977 h -0.180622 c -0.508,0 -0.524933,-0.06209 -0.524933,-0.270933 v -3.166531 c 0,-0.135467 0,-0.146756 -0.129822,-0.146756 -0.349955,0.361245 -0.846666,0.361245 -1.027288,0.361245 v 0.174977 c 0.112889,0 0.445911,0 0.739422,-0.146755 v 2.92382 c 0,0.2032 -0.01693,0.270933 -0.524933,0.270933 h -0.180622 v 0.174977 c 0.197555,-0.01693 0.688621,-0.01693 0.914399,-0.01693 0.225777,0 0.716844,0 0.914399,0.01693 z"
         style="stroke-width:0.264583"
         id="path3145" />
    </g>
    <g
       aria-label="—— Descendant of 1, child of 3"
       id="text3107"
       style="font-size:5.64444px;line-height:1.25;font-family:'Latin Modern Roman';-inkscape-font-specification:'Latin Modern Roman, ';stroke-width:0.264583">
      <path
         d="m 60.476072,42.091372 v -0.124177 h -5.638796 v 0.124177 z"
         style="stroke-width:0.264583"
         id="path3219" />
      <path
         d="m 66.120501,42.091372 v -0.124177 h -5.638795 v 0.124177 z"
         style="stroke-width:0.264583"
         id="path3221" />
      <path
         d="m 71.996343,41.634173 c 0,-1.072444 -0.761999,-1.958621 -1.727199,-1.958621 h -2.065865 v 0.174978 h 0.135467 c 0.434622,0 0.445911,0.06209 0.445911,0.265288 v 2.97462 c 0,0.2032 -0.01129,0.265289 -0.445911,0.265289 h -0.135467 v 0.174977 h 2.065865 c 0.948266,0 1.727199,-0.835377 1.727199,-1.896531 z m -0.564444,0 c 0,0.626532 -0.107244,0.965199 -0.310444,1.241776 -0.112889,0.1524 -0.434622,0.479778 -1.00471,0.479778 h -0.570089 c -0.265289,0 -0.276577,-0.03951 -0.276577,-0.225778 v -3.053642 c 0,-0.186266 0.01129,-0.225777 0.276577,-0.225777 H 70.1111 c 0.349955,0 0.739422,0.124177 1.027288,0.524932 0.242711,0.333022 0.293511,0.818444 0.293511,1.258711 z"
         style="stroke-width:0.264583"
         id="path3223" />
      <path
         d="m 74.660518,42.859016 c 0,-0.05644 -0.04516,-0.06773 -0.07338,-0.06773 -0.0508,0 -0.06209,0.03387 -0.07338,0.07902 -0.197555,0.581377 -0.705555,0.581377 -0.761999,0.581377 -0.282222,0 -0.508,-0.169333 -0.637822,-0.378177 -0.169333,-0.270933 -0.169333,-0.643466 -0.169333,-0.846666 h 1.574799 c 0.124178,0 0.141111,0 0.141111,-0.118533 0,-0.5588 -0.3048,-1.106311 -1.010355,-1.106311 -0.654755,0 -1.174043,0.581378 -1.174043,1.286933 0,0.756355 0.592666,1.303865 1.241776,1.303865 0.688622,0 0.942622,-0.626533 0.942622,-0.733777 z m -0.372533,-0.75071 h -1.337733 c 0.03387,-0.841022 0.508,-0.982133 0.699911,-0.982133 0.581377,0 0.637822,0.761999 0.637822,0.982133 z"
         style="stroke-width:0.264583"
         id="path3225" />
      <path
         d="m 76.856196,42.808216 c 0,-0.299155 -0.169333,-0.468488 -0.237066,-0.536222 -0.186267,-0.180622 -0.4064,-0.225777 -0.643466,-0.270933 -0.316089,-0.06209 -0.694267,-0.135466 -0.694267,-0.462844 0,-0.197555 0.146756,-0.428977 0.632178,-0.428977 0.620888,0 0.64911,0.507999 0.660399,0.682977 0.0056,0.0508 0.06773,0.0508 0.06773,0.0508 0.07338,0 0.07338,-0.02822 0.07338,-0.135467 v -0.570088 c 0,-0.09596 0,-0.135467 -0.06209,-0.135467 -0.02822,0 -0.03951,0 -0.112888,0.06773 -0.01693,0.02258 -0.07338,0.07338 -0.09596,0.09031 -0.214489,-0.158045 -0.445911,-0.158045 -0.530577,-0.158045 -0.688622,0 -0.903111,0.378178 -0.903111,0.694266 0,0.197556 0.09031,0.3556 0.242711,0.479778 0.180622,0.146755 0.338667,0.180622 0.745066,0.259644 0.124178,0.02258 0.587022,0.112889 0.587022,0.519289 0,0.287866 -0.197555,0.513644 -0.637822,0.513644 -0.474133,0 -0.677332,-0.321733 -0.784577,-0.801511 -0.01693,-0.07338 -0.02258,-0.09595 -0.07902,-0.09595 -0.07338,0 -0.07338,0.03951 -0.07338,0.141111 v 0.745066 c 0,0.09596 0,0.135466 0.06209,0.135466 0.02822,0 0.03387,-0.0056 0.141111,-0.112888 0.01129,-0.01129 0.01129,-0.02258 0.112889,-0.129823 0.248355,0.237067 0.502355,0.242711 0.620888,0.242711 0.649111,0 0.908755,-0.378177 0.908755,-0.784577 z"
         style="stroke-width:0.264583"
         id="path3227" />
      <path
         d="m 79.390546,42.859016 c 0,-0.05644 -0.05644,-0.05644 -0.07338,-0.05644 -0.0508,0 -0.06209,0.02258 -0.07338,0.05644 -0.163689,0.524933 -0.530578,0.592666 -0.739422,0.592666 -0.299155,0 -0.795866,-0.242711 -0.795866,-1.151465 0,-0.920044 0.462844,-1.157111 0.761999,-1.157111 0.0508,0 0.4064,0.0056 0.603955,0.208845 -0.231422,0.01693 -0.265288,0.186266 -0.265288,0.259644 0,0.146755 0.1016,0.259644 0.259644,0.259644 0.146755,0 0.259644,-0.09596 0.259644,-0.265289 0,-0.383822 -0.428977,-0.603955 -0.863599,-0.603955 -0.705555,0 -1.224844,0.6096 -1.224844,1.30951 0,0.722489 0.5588,1.281288 1.213555,1.281288 0.756355,0 0.936977,-0.677332 0.936977,-0.733777 z"
         style="stroke-width:0.264583"
         id="path3229" />
      <path
         d="m 81.896667,42.859016 c 0,-0.05644 -0.04516,-0.06773 -0.07338,-0.06773 -0.0508,0 -0.06209,0.03387 -0.07338,0.07902 -0.197555,0.581377 -0.705555,0.581377 -0.761999,0.581377 -0.282222,0 -0.508,-0.169333 -0.637822,-0.378177 -0.169333,-0.270933 -0.169333,-0.643466 -0.169333,-0.846666 h 1.574799 c 0.124177,0 0.141111,0 0.141111,-0.118533 0,-0.5588 -0.3048,-1.106311 -1.010355,-1.106311 -0.654755,0 -1.174044,0.581378 -1.174044,1.286933 0,0.756355 0.592667,1.303865 1.241777,1.303865 0.688622,0 0.942622,-0.626533 0.942622,-0.733777 z m -0.372533,-0.75071 h -1.337733 c 0.03387,-0.841022 0.508,-0.982133 0.699911,-0.982133 0.581377,0 0.637822,0.761999 0.637822,0.982133 z"
         style="stroke-width:0.264583"
         id="path3231" />
      <path
         d="m 85.080122,43.530704 v -0.174977 c -0.293511,0 -0.434622,0 -0.440266,-0.169333 v -1.078088 c 0,-0.485422 0,-0.6604 -0.174978,-0.8636 -0.07902,-0.09596 -0.265289,-0.208844 -0.592666,-0.208844 -0.412044,0 -0.677333,0.242711 -0.835377,0.592666 v -0.592666 l -0.795866,0.06209 v 0.174977 c 0.395111,0 0.440266,0.03951 0.440266,0.316089 v 1.51271 c 0,0.254 -0.06209,0.254 -0.440266,0.254 v 0.174977 l 0.637821,-0.01693 0.632178,0.01693 v -0.174977 c -0.378178,0 -0.440267,0 -0.440267,-0.254 V 42.06315 c 0,-0.587022 0.400756,-0.90311 0.762,-0.90311 0.3556,0 0.417688,0.304799 0.417688,0.626532 v 1.315155 c 0,0.254 -0.06209,0.254 -0.440266,0.254 v 0.174977 l 0.637822,-0.01693 z"
         style="stroke-width:0.264583"
         id="path3233" />
      <path
         d="m 88.173274,43.530704 v -0.174977 c -0.395111,0 -0.440266,-0.03951 -0.440266,-0.316089 v -3.426175 l -0.8128,0.06209 v 0.174978 c 0.395111,0 0.440267,0.03951 0.440267,0.316088 v 1.219199 c -0.163689,-0.2032 -0.4064,-0.349955 -0.7112,-0.349955 -0.666044,0 -1.25871,0.553155 -1.25871,1.281288 0,0.716844 0.553155,1.275643 1.196621,1.275643 0.361245,0 0.615244,-0.191911 0.756355,-0.372533 v 0.372533 z m -0.829733,-0.666043 c 0,0.101599 0,0.112888 -0.06209,0.208844 -0.169334,0.270933 -0.423333,0.395111 -0.666044,0.395111 -0.254,0 -0.4572,-0.146756 -0.592667,-0.361245 -0.146755,-0.231422 -0.163688,-0.553155 -0.163688,-0.784577 0,-0.208844 0.01129,-0.54751 0.174977,-0.80151 0.118534,-0.174978 0.333022,-0.361244 0.637822,-0.361244 0.197555,0 0.434622,0.08467 0.6096,0.338666 0.06209,0.09596 0.06209,0.107244 0.06209,0.208844 z"
         style="stroke-width:0.264583"
         id="path3235" />
      <path
         d="m 91.063224,43.028349 v -0.316088 h -0.141111 v 0.316088 c 0,0.327378 -0.141111,0.361244 -0.203199,0.361244 -0.186267,0 -0.208845,-0.253999 -0.208845,-0.282222 v -1.128888 c 0,-0.237066 0,-0.457199 -0.2032,-0.666043 -0.220133,-0.220134 -0.502355,-0.310445 -0.773288,-0.310445 -0.462844,0 -0.85231,0.265289 -0.85231,0.637822 0,0.169333 0.112888,0.265289 0.259644,0.265289 0.158044,0 0.259644,-0.112889 0.259644,-0.259645 0,-0.06773 -0.02822,-0.253999 -0.287866,-0.259644 0.1524,-0.197555 0.428977,-0.259644 0.609599,-0.259644 0.276578,0 0.598311,0.220133 0.598311,0.722488 v 0.208845 c -0.287867,0.01693 -0.682977,0.03387 -1.038577,0.203199 -0.423333,0.191911 -0.564444,0.485422 -0.564444,0.733778 0,0.457199 0.547511,0.59831 0.90311,0.59831 0.372533,0 0.632178,-0.225777 0.739422,-0.491066 0.02258,0.225778 0.174978,0.462844 0.440266,0.462844 0.118534,0 0.462844,-0.07902 0.462844,-0.536222 z m -0.942621,-0.287866 c 0,0.536222 -0.4064,0.728133 -0.6604,0.728133 -0.276577,0 -0.507999,-0.197556 -0.507999,-0.479778 0,-0.310444 0.237066,-0.778933 1.168399,-0.812799 z"
         style="stroke-width:0.264583"
         id="path3237" />
      <path
         d="m 94.178948,43.530704 v -0.174977 c -0.293511,0 -0.434622,0 -0.440267,-0.169333 v -1.078088 c 0,-0.485422 0,-0.6604 -0.174977,-0.8636 -0.07902,-0.09596 -0.265289,-0.208844 -0.592667,-0.208844 -0.412044,0 -0.677332,0.242711 -0.835377,0.592666 v -0.592666 l -0.795866,0.06209 v 0.174977 c 0.395111,0 0.440266,0.03951 0.440266,0.316089 v 1.51271 c 0,0.254 -0.06209,0.254 -0.440266,0.254 v 0.174977 l 0.637822,-0.01693 0.632177,0.01693 v -0.174977 c -0.378177,0 -0.440266,0 -0.440266,-0.254 V 42.06315 c 0,-0.587022 0.400755,-0.90311 0.761999,-0.90311 0.3556,0 0.417689,0.304799 0.417689,0.626532 v 1.315155 c 0,0.254 -0.06209,0.254 -0.440266,0.254 v 0.174977 l 0.637821,-0.01693 z"
         style="stroke-width:0.264583"
         id="path3239" />
      <path
         d="m 96.013378,42.830794 v -0.321733 h -0.141111 v 0.310444 c 0,0.417689 -0.169334,0.632177 -0.378178,0.632177 -0.378177,0 -0.378177,-0.513644 -0.378177,-0.609599 v -1.569155 h 0.807154 v -0.174977 h -0.807154 v -1.038577 h -0.141111 c -0.0056,0.462844 -0.174978,1.066799 -0.728133,1.089377 v 0.124177 h 0.479777 v 1.557866 c 0,0.694266 0.524933,0.761999 0.728133,0.761999 0.400755,0 0.5588,-0.400755 0.5588,-0.761999 z"
         style="stroke-width:0.264583"
         id="path3241" />
      <path
         d="m 100.87323,42.322794 c 0,-0.722488 -0.56444,-1.320799 -1.247421,-1.320799 -0.705555,0 -1.253066,0.615244 -1.253066,1.320799 0,0.728133 0.587022,1.269999 1.247421,1.269999 0.682976,0 1.253066,-0.553155 1.253066,-1.269999 z m -0.46849,-0.04516 c 0,0.2032 0,0.507999 -0.12418,0.756355 -0.12417,0.254 -0.372529,0.417688 -0.654751,0.417688 -0.242711,0 -0.491066,-0.118533 -0.643466,-0.378177 -0.141111,-0.248356 -0.141111,-0.592666 -0.141111,-0.795866 0,-0.220133 0,-0.524933 0.135466,-0.773289 0.1524,-0.259644 0.417689,-0.378177 0.643466,-0.378177 0.248356,0 0.491066,0.124178 0.637826,0.366889 0.14675,0.242711 0.14675,0.570088 0.14675,0.784577 z"
         style="stroke-width:0.264583"
         id="path3243" />
      <path
         d="m 103.05197,39.946485 c 0,-0.208844 -0.20884,-0.395111 -0.508,-0.395111 -0.39511,0 -0.87489,0.299156 -0.87489,0.897466 v 0.649111 h -0.44591 v 0.174977 h 0.44591 v 1.828799 c 0,0.254 -0.0621,0.254 -0.44026,0.254 v 0.174977 l 0.64346,-0.01693 c 0.22578,0 0.49107,0 0.71685,0.01693 v -0.174977 h -0.11853 c -0.41769,0 -0.42898,-0.06209 -0.42898,-0.265289 v -1.81751 h 0.64346 v -0.174977 h -0.6604 v -0.654755 c 0,-0.496711 0.27094,-0.767644 0.51929,-0.767644 0.0169,0 0.1016,0 0.18627,0.03951 -0.0677,0.02258 -0.16933,0.09595 -0.16933,0.237066 0,0.129823 0.0903,0.242711 0.24271,0.242711 0.16369,0 0.24835,-0.112888 0.24835,-0.248355 z"
         style="stroke-width:0.264583"
         id="path3245" />
      <path
         d="m 107.00872,43.530704 v -0.174977 h -0.18063 c -0.508,0 -0.52493,-0.06209 -0.52493,-0.270933 v -3.166531 c 0,-0.135467 0,-0.146756 -0.12982,-0.146756 -0.34996,0.361245 -0.84667,0.361245 -1.02729,0.361245 v 0.174977 c 0.11289,0 0.44591,0 0.73942,-0.146755 v 2.92382 c 0,0.2032 -0.0169,0.270933 -0.52493,0.270933 h -0.18062 v 0.174977 c 0.19755,-0.01693 0.68862,-0.01693 0.9144,-0.01693 0.22577,0 0.71684,0 0.9144,0.01693 z"
         style="stroke-width:0.264583"
         id="path3247" />
      <path
         d="m 108.61173,43.52506 c 0,-0.361244 -0.13547,-0.592666 -0.36125,-0.592666 -0.19755,0 -0.29915,0.1524 -0.29915,0.299155 0,0.146756 0.096,0.299155 0.29915,0.299155 0.0847,0 0.16369,-0.03387 0.22578,-0.09031 0.0113,0.445911 -0.14676,0.790222 -0.39511,1.055511 -0.0339,0.03387 -0.0395,0.03951 -0.0395,0.06209 0,0.03951 0.0282,0.06209 0.0564,0.06209 0.0677,0 0.51365,-0.44591 0.51365,-1.095021 z"
         style="stroke-width:0.264583"
         id="path3249" />
      <path
         d="m 113.25709,42.859016 c 0,-0.05644 -0.0564,-0.05644 -0.0734,-0.05644 -0.0508,0 -0.0621,0.02258 -0.0734,0.05644 -0.16369,0.524933 -0.53057,0.592666 -0.73942,0.592666 -0.29915,0 -0.79586,-0.242711 -0.79586,-1.151465 0,-0.920044 0.46284,-1.157111 0.762,-1.157111 0.0508,0 0.40639,0.0056 0.60395,0.208845 -0.23142,0.01693 -0.26529,0.186266 -0.26529,0.259644 0,0.146755 0.1016,0.259644 0.25965,0.259644 0.14675,0 0.25964,-0.09596 0.25964,-0.265289 0,-0.383822 -0.42898,-0.603955 -0.8636,-0.603955 -0.70555,0 -1.22484,0.6096 -1.22484,1.30951 0,0.722489 0.5588,1.281288 1.21355,1.281288 0.75636,0 0.93698,-0.677332 0.93698,-0.733777 z"
         style="stroke-width:0.264583"
         id="path3251" />
      <path
         d="m 116.28249,43.530704 v -0.174977 c -0.29351,0 -0.43462,0 -0.44027,-0.169333 v -1.078088 c 0,-0.485422 0,-0.6604 -0.17497,-0.8636 -0.079,-0.09596 -0.26529,-0.208844 -0.59267,-0.208844 -0.47413,0 -0.72249,0.338666 -0.8128,0.541866 h -0.006 v -1.964265 l -0.8128,0.06209 v 0.174978 c 0.39511,0 0.44026,0.03951 0.44026,0.316088 v 2.935109 c 0,0.254 -0.0621,0.254 -0.44026,0.254 v 0.174977 l 0.63782,-0.01693 0.63218,0.01693 v -0.174977 c -0.37818,0 -0.44027,0 -0.44027,-0.254 V 42.06315 c 0,-0.587022 0.40075,-0.90311 0.762,-0.90311 0.3556,0 0.41769,0.304799 0.41769,0.626532 v 1.315155 c 0,0.254 -0.0621,0.254 -0.44027,0.254 v 0.174977 l 0.63782,-0.01693 z"
         style="stroke-width:0.264583"
         id="path3253" />
      <path
         d="m 117.7952,43.530704 v -0.174977 c -0.37254,0 -0.39511,-0.02822 -0.39511,-0.248356 v -2.071509 l -0.79023,0.06209 v 0.174977 c 0.36689,0 0.41769,0.03387 0.41769,0.310445 v 1.518354 c 0,0.254 -0.0621,0.254 -0.44026,0.254 v 0.174977 l 0.62088,-0.01693 c 0.19756,0 0.39512,0.01129 0.58703,0.01693 z m -0.31045,-3.409241 c 0,-0.1524 -0.12982,-0.299156 -0.29915,-0.299156 -0.19191,0 -0.3048,0.158045 -0.3048,0.299156 0,0.1524 0.12982,0.299155 0.29915,0.299155 0.19191,0 0.3048,-0.158044 0.3048,-0.299155 z"
         style="stroke-width:0.264583"
         id="path3255" />
      <path
         d="m 119.40951,43.530704 v -0.174977 c -0.37818,0 -0.44027,0 -0.44027,-0.254 v -3.488264 l -0.8128,0.06209 v 0.174978 c 0.39511,0 0.44027,0.03951 0.44027,0.316088 v 2.935109 c 0,0.254 -0.0621,0.254 -0.44027,0.254 v 0.174977 l 0.62654,-0.01693 z"
         style="stroke-width:0.264583"
         id="path3257" />
      <path
         d="m 122.51395,43.530704 v -0.174977 c -0.39512,0 -0.44027,-0.03951 -0.44027,-0.316089 v -3.426175 l -0.8128,0.06209 v 0.174978 c 0.39511,0 0.44027,0.03951 0.44027,0.316088 v 1.219199 c -0.16369,-0.2032 -0.4064,-0.349955 -0.7112,-0.349955 -0.66605,0 -1.25871,0.553155 -1.25871,1.281288 0,0.716844 0.55315,1.275643 1.19662,1.275643 0.36124,0 0.61524,-0.191911 0.75635,-0.372533 v 0.372533 z m -0.82974,-0.666043 c 0,0.101599 0,0.112888 -0.0621,0.208844 -0.16933,0.270933 -0.42333,0.395111 -0.66604,0.395111 -0.254,0 -0.4572,-0.146756 -0.59267,-0.361245 -0.14675,-0.231422 -0.16368,-0.553155 -0.16368,-0.784577 0,-0.208844 0.0113,-0.54751 0.17497,-0.80151 0.11854,-0.174978 0.33302,-0.361244 0.63782,-0.361244 0.19756,0 0.43463,0.08467 0.6096,0.338666 0.0621,0.09596 0.0621,0.107244 0.0621,0.208844 z"
         style="stroke-width:0.264583"
         id="path3259" />
      <path
         d="m 127.21576,42.322794 c 0,-0.722488 -0.56445,-1.320799 -1.24743,-1.320799 -0.70555,0 -1.25306,0.615244 -1.25306,1.320799 0,0.728133 0.58702,1.269999 1.24742,1.269999 0.68298,0 1.25307,-0.553155 1.25307,-1.269999 z m -0.46849,-0.04516 c 0,0.2032 0,0.507999 -0.12418,0.756355 -0.12418,0.254 -0.37253,0.417688 -0.65476,0.417688 -0.24271,0 -0.49106,-0.118533 -0.64346,-0.378177 -0.14111,-0.248356 -0.14111,-0.592666 -0.14111,-0.795866 0,-0.220133 0,-0.524933 0.13546,-0.773289 0.1524,-0.259644 0.41769,-0.378177 0.64347,-0.378177 0.24836,0 0.49107,0.124178 0.63782,0.366889 0.14676,0.242711 0.14676,0.570088 0.14676,0.784577 z"
         style="stroke-width:0.264583"
         id="path3261" />
      <path
         d="m 129.3945,39.946485 c 0,-0.208844 -0.20884,-0.395111 -0.508,-0.395111 -0.39511,0 -0.87489,0.299156 -0.87489,0.897466 v 0.649111 h -0.44591 v 0.174977 h 0.44591 v 1.828799 c 0,0.254 -0.0621,0.254 -0.44026,0.254 v 0.174977 l 0.64346,-0.01693 c 0.22578,0 0.49107,0 0.71685,0.01693 v -0.174977 h -0.11854 c -0.41768,0 -0.42897,-0.06209 -0.42897,-0.265289 v -1.81751 h 0.64346 v -0.174977 h -0.6604 v -0.654755 c 0,-0.496711 0.27094,-0.767644 0.51929,-0.767644 0.0169,0 0.1016,0 0.18627,0.03951 -0.0677,0.02258 -0.16933,0.09595 -0.16933,0.237066 0,0.129823 0.0903,0.242711 0.24271,0.242711 0.16369,0 0.24835,-0.112888 0.24835,-0.248355 z"
         style="stroke-width:0.264583"
         id="path3263" />
      <path
         d="m 133.56573,42.565505 c 0,-0.462844 -0.3556,-0.90311 -0.94262,-1.021643 0.46284,-0.1524 0.79022,-0.547511 0.79022,-0.993422 0,-0.462844 -0.49671,-0.778933 -1.03858,-0.778933 -0.57009,0 -0.99907,0.338667 -0.99907,0.767644 0,0.186267 0.12418,0.293511 0.28787,0.293511 0.17498,0 0.28787,-0.124178 0.28787,-0.287866 0,-0.282222 -0.26529,-0.282222 -0.34996,-0.282222 0.17498,-0.276578 0.54751,-0.349956 0.75071,-0.349956 0.23142,0 0.54187,0.124178 0.54187,0.632178 0,0.06773 -0.0113,0.39511 -0.15805,0.643466 -0.16933,0.270933 -0.36124,0.287866 -0.50235,0.293511 -0.0452,0.0056 -0.18062,0.01693 -0.22013,0.01693 -0.0452,0.0056 -0.0847,0.01129 -0.0847,0.06773 0,0.06209 0.0395,0.06209 0.13547,0.06209 h 0.24835 c 0.46285,0 0.67169,0.383822 0.67169,0.936977 0,0.767644 -0.38947,0.931333 -0.63782,0.931333 -0.24271,0 -0.66605,-0.09596 -0.8636,-0.428978 0.19755,0.02822 0.37253,-0.09596 0.37253,-0.310444 0,-0.2032 -0.1524,-0.316088 -0.31609,-0.316088 -0.13546,0 -0.31609,0.07902 -0.31609,0.327377 0,0.513644 0.52494,0.886177 1.14018,0.886177 0.68862,0 1.20227,-0.513644 1.20227,-1.089377 z"
         style="stroke-width:0.264583"
         id="path3265" />
    </g>
  </g>
</svg>
